<svg id="Layer_1" enable-background="new 0 0 512.007 512.007" height="512" viewBox="0 0 512.007 512.007" width="512" xmlns="http://www.w3.org/2000/svg"><g><path d="" style="fill:none;stroke:rgb(0,0,0);stroke-width:32;stroke-linecap:round;stroke-linejoin:round;stroke-miterlimit:10"/><path d="m466.004 176.007h-82v-139.974c0-12.568-6.383-24.016-17.074-30.624-10.689-6.607-23.783-7.197-35.025-1.576-.144.072-.286.146-.428.222l-296.78 159.722c-21.399 11.517-34.693 33.769-34.693 58.07v.16 10 234c0 25.364 20.636 46 46 46h420c25.364 0 46-20.636 46-46v-244c0-25.364-20.636-46-46-46zm-119.649-143.619c1.587-.73 2.911-.276 3.751.243.866.535 1.897 1.56 1.897 3.403v139.974h-272.507zm133.649 433.619c0 7.72-6.28 14-14 14h-420c-7.72 0-14-6.28-14-14v-234-10c0-7.72 6.28-14 14-14h420c7.72 0 14 6.28 14 14z"/><path d="m416.004 376.007c-17.645 0-32-14.355-32-32s14.355-32 32-32 32 14.355 32 32-14.356 32-32 32zm0-32c0 .014.001.02.001.021z"/></g></svg>