<?xml version="1.0" encoding="utf-8"?>
<!-- Svg Vector Icons : http://www.onlinewebfonts.com/icon -->
<!DOCTYPE svg PUBLIC "-//W3C//DTD SVG 1.1//EN" "http://www.w3.org/Graphics/SVG/1.1/DTD/svg11.dtd">
<svg version="1.1" xmlns="http://www.w3.org/2000/svg" xmlns:xlink="http://www.w3.org/1999/xlink" x="0px" y="0px" viewBox="0 0 1000 1000" enable-background="new 0 0 1000 1000" xml:space="preserve">
<metadata> Svg Vector Icons : http://www.onlinewebfonts.com/icon </metadata>
<g><path d="M975.7,904.6c-21.2,41.4-59.9,65.5-105.4,65.5H129.7c-45.4,0-84.1-24-105.4-65.5C3.1,863.2,5.6,816.7,31.2,778L401.6,83.6c22.9-34.7,57.7-53.7,98.4-53.7c40.8,0,75.5,18.9,98.5,53.7L968.8,778C994.4,816.7,997,863.2,975.7,904.6z M500,808.9c22.2,0,40.3-18.1,40.3-40.3s-18.1-40.3-40.3-40.3c-22.2,0-40.3,18-40.3,40.3S477.8,808.9,500,808.9z M500,325.4c-37.1,0-67.2,30.1-67.2,67.2l26.9,268.6c0,22.2,18.1,40.3,40.3,40.3c22.2,0,40.3-18.1,40.3-40.3l26.9-268.6C567.2,355.5,537.1,325.4,500,325.4z"/></g>
</svg>