<?xml version="1.0" encoding="UTF-8"?>
<svg xmlns="http://www.w3.org/2000/svg" xmlns:xlink="http://www.w3.org/1999/xlink" width="376.229584pt" height="411.400787pt" viewBox="0 0 376.229584 411.400787" version="1.1">
<g id="surface1">
<path style=" stroke:none;fill-rule:nonzero;fill:rgb(21%,21%,21%);fill-opacity:1;" d="M 232.90625 189.976562 L 261.429688 141.574219 L 338.3125 261.324219 L 338.347656 284.304688 L 338.097656 126.167969 C 337.917969 122.300781 335.863281 118.765625 332.589844 116.679688 L 194.171875 37.058594 C 190.9375 35.46875 186.828125 35.484375 183.597656 37.109375 C 183.160156 37.328125 182.746094 37.566406 182.359375 37.824219 L 181.875 38.128906 L 47.519531 115.988281 L 47 116.222656 C 46.328125 116.53125 45.648438 116.921875 45.015625 117.378906 C 42.464844 119.203125 40.773438 121.90625 40.226562 124.9375 C 40.144531 125.394531 40.085938 125.863281 40.058594 126.335938 L 40.269531 255.203125 L 111.878906 144.207031 C 120.898438 129.488281 140.539062 124.746094 158.777344 125.003906 L 180.179688 125.570312 L 54.070312 327.8125 L 68.9375 336.371094 L 196.554688 125.777344 L 252.960938 125.570312 L 125.671875 341.480469 L 178.71875 371.988281 L 185.054688 375.632812 C 187.734375 376.722656 190.898438 376.777344 193.601562 375.800781 L 333.960938 294.460938 L 307.128906 310.011719 Z M 243.789062 346.714844 L 190.214844 262.628906 L 222.917969 207.132812 L 293.28125 318.035156 Z M 243.789062 346.714844 "/>
<path style=" stroke:none;fill-rule:nonzero;fill:rgb(52%,52%,52%);fill-opacity:1;" d="M 190.214844 262.628906 L 243.789062 346.714844 L 293.28125 318.035156 L 222.917969 207.132812 Z M 190.214844 262.628906 "/>
<path style=" stroke:none;fill-rule:nonzero;fill:rgb(52%,52%,52%);fill-opacity:1;" d="M 338.347656 284.304688 L 338.3125 261.320312 L 261.429688 141.574219 L 232.90625 189.972656 L 307.125 310.007812 L 333.960938 294.457031 C 336.59375 292.320312 338.1875 289.183594 338.355469 285.796875 Z M 338.347656 284.304688 "/>
<path style=" stroke:none;fill-rule:nonzero;fill:rgb(100%,100%,100%);fill-opacity:1;" d="M 16.175781 305.976562 L 54.070312 327.8125 L 180.175781 125.570312 L 158.773438 125.007812 C 140.539062 124.75 120.894531 129.488281 111.878906 144.207031 L 40.265625 255.203125 L 16.175781 292.21875 Z M 16.175781 305.976562 "/>
<path style=" stroke:none;fill-rule:nonzero;fill:rgb(100%,100%,100%);fill-opacity:1;" d="M 252.960938 125.570312 L 196.554688 125.777344 L 68.9375 336.371094 L 113.542969 362.050781 L 125.671875 341.480469 Z M 252.960938 125.570312 "/>
<path style=" stroke:none;fill-rule:nonzero;fill:rgb(71%,71%,71%);fill-opacity:1;" d="M 362.121094 125.28125 C 361.648438 113.484375 355.261719 102.683594 345.257812 96.398438 L 205.023438 15.753906 C 195.128906 10.769531 182.765625 10.765625 172.847656 15.75 C 171.675781 16.339844 36.476562 94.753906 36.476562 94.753906 C 34.605469 95.648438 32.804688 96.71875 31.109375 97.933594 C 22.175781 104.332031 16.734375 114.28125 16.175781 125.207031 L 16.175781 292.21875 L 40.265625 255.203125 L 40.054688 126.335938 C 40.085938 125.867188 40.144531 125.402344 40.226562 124.945312 C 40.773438 121.910156 42.464844 119.207031 45.011719 117.378906 C 45.648438 116.925781 183.160156 37.328125 183.597656 37.109375 C 186.828125 35.488281 190.9375 35.46875 194.171875 37.058594 L 332.589844 116.675781 C 335.863281 118.761719 337.917969 122.300781 338.097656 126.164062 L 338.097656 285.796875 C 337.933594 289.183594 336.59375 292.320312 333.960938 294.457031 L 307.125 310.007812 L 293.28125 318.035156 L 243.789062 346.714844 L 193.597656 375.800781 C 190.894531 376.777344 187.734375 376.722656 185.054688 375.632812 L 125.671875 341.476562 L 113.542969 362.050781 L 166.90625 392.777344 C 168.671875 393.78125 170.242188 394.671875 171.535156 395.394531 C 173.53125 396.515625 174.894531 397.265625 175.375 397.496094 C 179.167969 399.339844 184.625 400.410156 189.542969 400.410156 C 194.050781 400.410156 198.445312 399.582031 202.605469 397.953125 L 348.386719 313.53125 C 356.753906 307.046875 361.675781 297.269531 362.121094 286.679688 Z M 362.121094 125.28125 "/>
</g>
</svg>
