<?xml version="1.0" encoding="UTF-8"?>
<svg xmlns="http://www.w3.org/2000/svg" xmlns:xlink="http://www.w3.org/1999/xlink" width="101.288803pt" height="101.288803pt" viewBox="0 0 101.288803 101.288803" version="1.1">
<g id="surface1">
<path style=" stroke:none;fill-rule:nonzero;fill:rgb(73%,73%,73%);fill-opacity:1;" d="M 30.535156 42.5625 L 50.207031 22.894531 L 69.886719 42.574219 L 81.332031 31.128906 L 50.207031 0 L 19.089844 31.117188 Z M 30.535156 42.5625 "/>
<path style=" stroke:none;fill-rule:nonzero;fill:rgb(73%,73%,73%);fill-opacity:1;" d="M 11.007812 39.195312 L 22.453125 50.644531 L 11.007812 62.089844 L -0.4375 50.644531 Z M 11.007812 39.195312 "/>
<path style=" stroke:none;fill-rule:nonzero;fill:rgb(73%,73%,73%);fill-opacity:1;" d="M 30.535156 58.726562 L 50.207031 78.394531 L 69.886719 58.71875 L 81.339844 70.15625 L 50.207031 101.289062 L 19.074219 70.15625 Z M 30.535156 58.726562 "/>
<path style=" stroke:none;fill-rule:nonzero;fill:rgb(73%,73%,73%);fill-opacity:1;" d="M 100.851562 50.648438 L 89.40625 62.09375 L 77.960938 50.648438 L 89.40625 39.203125 Z M 100.851562 50.648438 "/>
<path style=" stroke:none;fill-rule:nonzero;fill:rgb(73%,73%,73%);fill-opacity:1;" d="M 61.816406 50.636719 L 61.820312 50.636719 L 50.207031 39.023438 L 38.585938 50.644531 L 50.207031 62.265625 L 61.828125 50.644531 Z M 61.816406 50.636719 "/>
</g>
</svg>
