<?xml version="1.0" encoding="UTF-8"?>
<svg xmlns="http://www.w3.org/2000/svg" xmlns:xlink="http://www.w3.org/1999/xlink" width="2000pt" height="2000pt" viewBox="0 0 2000 2000" version="1.1">
<g id="surface1">
<path style=" stroke:none;fill-rule:nonzero;fill:rgb(71%,71%,71%);fill-opacity:1;" d="M 466.640625 308.320312 L 1000 0 L 1533.359375 308.320312 L 1333.359375 416.640625 L 1000 224.960938 L 658.320312 416.640625 Z M 1524.960938 691.679688 L 1333.28125 583.359375 L 1000 775.039062 L 658.320312 583.359375 L 466.640625 691.679688 L 466.640625 916.71875 L 800 1108.398438 L 800 1500.078125 L 991.679688 1616.71875 L 1183.359375 1500.078125 L 1183.359375 1116.71875 L 1516.71875 925.039062 L 1516.71875 691.679688 Z M 1524.960938 1308.320312 L 1524.960938 1083.359375 L 1333.359375 1200 L 1333.359375 1416.640625 Z M 1666.640625 1383.359375 L 1333.28125 1575.039062 L 1333.28125 1800 L 1866.640625 1491.679688 L 1866.640625 875.039062 L 1666.640625 1000 Z M 1475.039062 500 L 1666.71875 616.640625 L 1666.71875 841.679688 L 1858.398438 725.039062 L 1858.398438 500 L 1666.71875 383.359375 Z M 800 1658.320312 L 800 1883.28125 L 991.679688 1999.921875 L 1183.359375 1883.28125 L 1183.359375 1658.320312 L 991.679688 1774.960938 Z M 466.640625 1308.320312 L 658.320312 1416.640625 L 658.320312 1191.679688 L 466.640625 1075.039062 Z M 800 500 L 991.679688 616.640625 L 1191.679688 500 L 1000 383.359375 Z M 324.960938 616.640625 L 524.960938 500 L 324.960938 383.359375 L 133.359375 500 L 133.359375 724.960938 L 325.039062 841.601562 L 325.039062 616.640625 Z M 324.960938 1000 L 133.28125 883.359375 L 133.28125 1500 L 666.640625 1808.320312 L 666.640625 1583.359375 L 333.28125 1391.679688 L 333.28125 1000 Z M 324.960938 1000 "/>
</g>
</svg>
