<?xml version="1.0" encoding="UTF-8"?>
<svg xmlns="http://www.w3.org/2000/svg" xmlns:xlink="http://www.w3.org/1999/xlink" width="2000pt" height="2000pt" viewBox="0 0 2000 2000" version="1.1">
<g id="surface1">
<path style=" stroke:none;fill-rule:nonzero;fill:rgb(35%,35%,35%);fill-opacity:1;" d="M 588 1138.398438 C 645.601562 1138.398438 701.601562 1119.199219 747.199219 1084 L 382.398438 719.199219 C 294.398438 832.800781 315.199219 996 428.800781 1084 C 474.398438 1118.398438 530.398438 1137.601562 588 1137.601562 Z M 588 1138.398438 "/>
<path style=" stroke:none;fill-rule:nonzero;fill:rgb(35%,35%,35%);fill-opacity:1;" d="M 1672 878.398438 C 1672 820.800781 1652.800781 764.800781 1617.601562 719.199219 L 1252.800781 1084 C 1366.398438 1172 1529.601562 1151.199219 1617.601562 1037.601562 C 1652.800781 992 1672 936 1672 878.398438 Z M 1672 878.398438 "/>
<path style=" stroke:none;fill-rule:nonzero;fill:rgb(35%,35%,35%);fill-opacity:1;" d="M 1856 481.601562 L 1694.398438 643.199219 C 1824 799.199219 1804 1030.398438 1648 1160.800781 C 1511.199219 1275.199219 1313.601562 1275.199219 1176.800781 1160.800781 L 1000 1337.601562 L 823.199219 1160.800781 C 667.199219 1290.398438 436 1270.398438 305.601562 1114.398438 C 191.199219 977.601562 191.199219 780 305.601562 643.199219 L 223.199219 560.800781 L 144.800781 481.601562 C 49.601562 637.601562 0 816.800781 0 1000 C 0 1552 448 2000 1000 2000 C 1552 2000 2000 1552 2000 1000 C 2000.800781 817.601562 1949.601562 637.601562 1856 481.601562 Z M 1856 481.601562 "/>
<path style=" stroke:none;fill-rule:nonzero;fill:rgb(35%,35%,35%);fill-opacity:1;" d="M 1723.199219 309.601562 C 1342.398438 -89.601562 709.601562 -104.800781 310.398438 276 C 298.398438 287.199219 287.199219 298.398438 276.800781 309.601562 C 252 336 228.800781 363.199219 206.398438 391.199219 L 1000 1184.800781 L 1793.601562 391.199219 C 1772 362.398438 1748 335.199219 1723.199219 309.601562 Z M 1000 130.398438 C 1233.601562 130.398438 1451.199219 220.800781 1615.199219 384.800781 L 1000 1000 L 384.800781 384.800781 C 548 220 766.398438 130.398438 1000 130.398438 Z M 1000 130.398438 "/>
</g>
</svg>
