<?xml version="1.0" encoding="UTF-8"?>
<svg xmlns="http://www.w3.org/2000/svg" xmlns:xlink="http://www.w3.org/1999/xlink" width="30.719999pt" height="26.799999pt" viewBox="0 0 30.719999 26.799999" version="1.1">
<g id="surface1">
<path style=" stroke:none;fill-rule:nonzero;fill:rgb(42%,42%,42%);fill-opacity:1;" d="M 23.199219 8.160156 C 22.640625 7.839844 21.921875 7.839844 21.28125 8.160156 L 16.800781 10.800781 L 13.761719 12.480469 L 9.359375 15.121094 C 8.800781 15.441406 8.078125 15.441406 7.441406 15.121094 L 4 13.039062 C 3.441406 12.71875 3.039062 12.078125 3.039062 11.359375 L 3.039062 7.359375 C 3.039062 6.71875 3.359375 6.078125 4 5.679688 L 7.441406 3.679688 C 8 3.359375 8.71875 3.359375 9.359375 3.679688 L 12.800781 5.761719 C 13.359375 6.078125 13.761719 6.71875 13.761719 7.441406 L 13.761719 10.078125 L 16.800781 8.320312 L 16.800781 5.601562 C 16.800781 4.960938 16.480469 4.320312 15.839844 3.921875 L 9.441406 0.160156 C 8.878906 -0.160156 8.160156 -0.160156 7.519531 0.160156 L 0.960938 4 C 0.320312 4.320312 0 4.960938 0 5.601562 L 0 13.121094 C 0 13.761719 0.320312 14.398438 0.960938 14.800781 L 7.441406 18.558594 C 8 18.878906 8.71875 18.878906 9.359375 18.558594 L 13.761719 16 L 16.800781 14.238281 L 21.199219 11.679688 C 21.761719 11.359375 22.480469 11.359375 23.121094 11.679688 L 26.558594 13.679688 C 27.121094 14 27.519531 14.640625 27.519531 15.359375 L 27.519531 19.359375 C 27.519531 20 27.199219 20.640625 26.558594 21.039062 L 23.199219 23.039062 C 22.640625 23.359375 21.921875 23.359375 21.28125 23.039062 L 17.839844 21.039062 C 17.28125 20.71875 16.878906 20.078125 16.878906 19.359375 L 16.878906 16.800781 L 13.839844 18.558594 L 13.839844 21.199219 C 13.839844 21.839844 14.160156 22.480469 14.800781 22.878906 L 21.28125 26.640625 C 21.839844 26.960938 22.558594 26.960938 23.199219 26.640625 L 29.679688 22.878906 C 30.238281 22.558594 30.640625 21.921875 30.640625 21.199219 L 30.640625 13.601562 C 30.640625 12.960938 30.320312 12.320312 29.679688 11.921875 Z M 23.199219 8.160156 "/>
</g>
</svg>
