
<svg width="14px" height="14px" viewBox="0 0 14 14" version="1.1" xmlns="http://www.w3.org/2000/svg" xmlns:xlink="http://www.w3.org/1999/xlink">
    <g id="Pages" stroke="none" stroke-width="1" fill="none" fill-rule="evenodd">
        <g id="Home" transform="translate(-21.000000, -239.000000)">
            <g id="sidebar">
                <g id="Provable-Tokens" transform="translate(20.000000, 237.000000)">
                    <g id="add_circle-24px" transform="translate(0.000000, 1.000000)">
                        <polygon id="Path" points="0 0 16 0 16 16 0 16"></polygon>
                        <path d="M8,1.33333333 C4.32,1.33333333 1.33333333,4.32 1.33333333,8 C1.33333333,11.68 4.32,14.6666667 8,14.6666667 C11.68,14.6666667 14.6666667,11.68 14.6666667,8 C14.6666667,4.32 11.68,1.33333333 8,1.33333333 Z M11.3333333,8.66666667 L8.66666667,8.66666667 L8.66666667,11.3333333 L7.33333333,11.3333333 L7.33333333,8.66666667 L4.66666667,8.66666667 L4.66666667,7.33333333 L7.33333333,7.33333333 L7.33333333,4.66666667 L8.66666667,4.66666667 L8.66666667,7.33333333 L11.3333333,7.33333333 L11.3333333,8.66666667 Z" id="Shape" fill="#FFFFFF" fill-rule="nonzero"></path>
                    </g>
                </g>
            </g>
        </g>
    </g>
</svg>