<?xml version="1.0"?>
<svg xmlns="http://www.w3.org/2000/svg" viewBox="0 0 64 64" width="512px" height="512px" class=""><g><g id="Blockchain"><path d="M61.5,23.868A1,1,0,0,0,62,23V15a1,1,0,0,0-.5-.868l-7-4a1,1,0,0,0-.992,0l-7,4A1,1,0,0,0,46,15v2.382l-6-3V7a1,1,0,0,0-.5-.868l-7-4a1,1,0,0,0-.992,0l-7,4A1,1,0,0,0,24,7v7.382l-6,3V15a1,1,0,0,0-.5-.868l-7-4a1,1,0,0,0-.992,0l-7,4A1,1,0,0,0,2,15v8a1,1,0,0,0,.5.868L9,27.58v8.84L2.5,40.132A1,1,0,0,0,2,41v8a1,1,0,0,0,.5.868l7,4a1,1,0,0,0,.992,0l6.481-3.7L24,54.555V57a1,1,0,0,0,.5.868l7,4a1,1,0,0,0,.992,0l7-4A1,1,0,0,0,40,57V54.555l7.023-4.39,6.481,3.7a1,1,0,0,0,.992,0l7-4A1,1,0,0,0,62,49V41a1,1,0,0,0-.5-.868L55,36.42V27.58ZM55,25.277v-5.7l5-2.857v5.7ZM54,43.848,49.015,41,54,38.152,58.985,41ZM48,16.723l5,2.857v5.7L48,22.42Zm6-4.571L58.985,15,54,17.848,49.015,15Zm-22,39.7L27.015,49,32,46.152,36.985,49ZM26,29.723l5,2.857v5.7L26,35.42Zm7,2.857,5-2.857v5.7l-5,2.857Zm-1-1.732L27.015,28,32,25.152,36.985,28ZM26,8.723l5,2.857v5.7L26,14.42Zm7,2.857,5-2.857v5.7l-5,2.857ZM32,4.152,36.985,7,32,9.848,27.015,7ZM11,19.58l5-2.857v5.7l-5,2.857Zm-1-7.428L14.985,15,10,17.848,5.015,15ZM4,16.723,9,19.58v5.7L4,22.42Zm6,27.125L5.015,41,10,38.152,14.985,41ZM4,42.723,9,45.58v5.7L4,48.42Zm7,8.554v-5.7l5-2.857v5.7Zm7-2.832V41a1,1,0,0,0-.5-.868L11,36.42V27.58l6.5-3.712A1,1,0,0,0,18,23V19.618l6.969-3.484L31,19.58v3.84l-6.5,3.712A1,1,0,0,0,24,28v8a1,1,0,0,0,.5.868L31,40.58v3.84l-6.5,3.712A1,1,0,0,0,24,49v3.2Zm8,2.278,5,2.857v5.7L26,56.42Zm7,8.554v-5.7l5-2.857v5.7Zm6.5-11.145L33,44.42V40.58l6.5-3.712A1,1,0,0,0,40,36V28a1,1,0,0,0-.5-.868L33,23.42V19.58l6.031-3.446L46,19.618V23a1,1,0,0,0,.5.868L53,27.58v8.84l-6.5,3.712A1,1,0,0,0,46,41v7.445L40,52.2V49A1,1,0,0,0,39.5,48.132ZM48,42.723l5,2.857v5.7L48,48.42Zm7,8.554v-5.7l5-2.857v5.7Z" data-original="#000000" class="active-path" data-old_color="#000000" fill="#475865"/></g></g> </svg>
