<svg width="12px" height="15px" viewBox="0 0 12 15" version="1.1" xmlns="http://www.w3.org/2000/svg" xmlns:xlink="http://www.w3.org/1999/xlink">
    <g id="Pages" stroke="none" stroke-width="1" fill="none" fill-rule="evenodd">
        <g id="pTokens" transform="translate(-1299.000000, -354.000000)">
            <g id="burn" transform="translate(850.000000, 120.000000)">
                <g id="button-inactive" transform="translate(410.000000, 227.000000)">
                    <g id="ic_whatshot_24px" transform="translate(37.000000, 7.000000)">
                        <path d="M9,0.446666667 C9,0.446666667 9.49333333,2.21333333 9.49333333,3.64666667 C9.49333333,5.02 8.59333333,6.13333333 7.22,6.13333333 C5.84,6.13333333 4.8,5.02 4.8,3.64666667 L4.82,3.40666667 C3.47333333,5.00666667 2.66666667,7.08 2.66666667,9.33333333 C2.66666667,12.28 5.05333333,14.6666667 8,14.6666667 C10.9466667,14.6666667 13.3333333,12.28 13.3333333,9.33333333 C13.3333333,5.74 11.6066667,2.53333333 9,0.446666667 Z M7.80666667,12.6666667 C6.62,12.6666667 5.66,11.7333333 5.66,10.5733333 C5.66,9.49333333 6.36,8.73333333 7.53333333,8.49333333 C8.71333333,8.25333333 9.93333333,7.68666667 10.6133333,6.77333333 C10.8733333,7.63333333 11.0066667,8.54 11.0066667,9.46666667 C11.0066667,11.2333333 9.57333333,12.6666667 7.80666667,12.6666667 Z" id="Shape" fill="#FFFFFF" fill-rule="nonzero"></path>
                        <polygon id="Path" points="0 0 16 0 16 16 0 16"></polygon>
                    </g>
                </g>
            </g>
        </g>
    </g>
</svg>