
<svg width="199px" height="367px" viewBox="0 0 199 367" version="1.1" xmlns="http://www.w3.org/2000/svg" xmlns:xlink="http://www.w3.org/1999/xlink">
    <defs>
        <polygon id="path-1" points="0.00265545482 0 589.57323 0 589.57323 593.996287 0.00265545482 593.996287"></polygon>
    </defs>
    <g id="Pages" stroke="none" stroke-width="1" fill="none" fill-rule="evenodd" opacity="0.3">
        <g id="Home" transform="translate(-41.000000, -657.000000)">
            <g id="sidebar">
                <g id="bg">
                    <g id="logo">
                        <g transform="translate(41.000000, 642.000000)">
                            <g id="Group-6" opacity="0.5">
                                <mask id="mask-2" fill="white">
                                    <use xlink:href="#path-1"></use>
                                </mask>
                                <g id="Clip-5"></g>
                                <path d="M101.21343,412.826288 C101.21343,428.819738 114.20105,441.776363 130.216139,441.776363 C146.238666,441.776363 159.226286,428.819738 159.226286,412.826288 C159.226286,397.270913 146.930447,384.618713 131.510438,383.935613 C112.906751,355.653788 100.477018,323.748563 101.272938,289.185188 C102.039103,255.861788 112.408371,222.486413 129.680567,194.063513 C163.577808,138.279488 223.837092,105.000638 288.894208,104.191313 C306.940007,103.953713 306.992077,75.9391875 288.894208,76.1606162 C213.936449,77.1049125 144.468304,115.700063 105.438497,179.926313 C63.5523072,248.845163 64.4523656,329.859338 106.345994,396.402188 C103.117685,401.065088 101.21343,406.722938 101.21343,412.826288 M589.57323,251.250863 C589.57323,235.257413 576.58561,222.293363 560.570521,222.293363 C544.547993,222.293363 531.560373,235.257413 531.560373,251.250863 C531.560373,263.457563 539.140204,273.874838 549.844204,278.129363 C551.919546,330.044963 540.851059,382.205588 513.648466,427.052588 C483.701068,476.428838 436.496351,512.187638 383.073048,533.148413 C366.448002,539.674988 373.685662,566.776238 390.533863,560.175413 C449.454217,537.039113 501.18898,499.238438 535.316815,445.340363 C567.332117,394.776113 580.907378,334.002488 577.77577,274.520813 C584.924168,269.249063 589.57323,260.799413 589.57323,251.250863 M301.450395,536.096138 C290.768709,536.096138 281.463147,541.872788 276.427283,550.448663 C191.434989,545.577863 112.616649,501.139238 66.9963324,427.765388 C12.3159234,339.823688 16.7492691,232.034963 70.7230206,145.303538 C80.2889308,129.933788 56.0096688,115.855988 46.4883896,131.151488 C-12.5732955,226.080113 -17.0289566,345.741413 42.7617014,441.902588 C93.3583742,523.295438 181.140105,573.518138 275.780133,578.500313 C280.637473,587.714738 290.300084,593.996288 301.450395,593.996288 C317.472922,593.996288 330.453104,581.032238 330.453104,565.046213 C330.453104,549.060188 317.472922,536.096138 301.450395,536.096138 M110.571062,110.220413 C126.593589,110.220413 139.573771,97.2563625 139.573771,81.2629125 C139.573771,79.2433125 139.365493,77.2756875 138.971252,75.3674625 C204.244085,30.1566375 287.570155,16.0788375 364.670201,38.3761125 C439.211403,59.9308875 495.037341,115.544138 528.309749,184.128863 C536.179681,200.359913 560.391997,186.170738 552.54438,169.991663 C515.426268,93.4547625 450.532799,32.3247375 367.169537,9.9680625 C281.909457,-12.8860875 191.970561,4.2582375 120.761806,54.1839375 C117.585567,52.9959375 114.163857,52.3054125 110.571062,52.3054125 C94.5485341,52.3054125 81.5609142,65.2694625 81.5609142,81.2629125 C81.5609142,97.2563625 94.5485341,110.220413 110.571062,110.220413 M453.270167,376.852163 C499.098762,291.694838 468.764561,187.997288 391.932301,135.153563 C387.617971,137.685488 382.611861,139.177913 377.241265,139.177913 C361.218737,139.177913 348.231117,126.206438 348.231117,110.220413 C348.231117,94.2269625 361.218737,81.2629125 377.241265,81.2629125 C393.256354,81.2629125 406.243974,94.2269625 406.243974,110.220413 C406.243974,110.398613 406.221658,110.569388 406.221658,110.747588 C441.643792,134.166038 469.865459,167.333513 486.438436,206.804813 C521.005142,289.110938 499.641772,387.343688 433.32755,447.419363 C366.395933,508.044488 264.29509,521.765888 185.513943,476.621888 C169.833586,467.637638 183.989051,443.432138 199.676846,452.423813 C288.529721,503.337038 405.351354,465.885338 453.270167,376.852163" id="Fill-4" fill="#FFFFFF" mask="url(#mask-2)"></path>
                            </g>
                            <path d="M282.5,184.052641 C222.210104,184.052641 173.159934,232.928316 173.159934,293.003733 C173.159934,353.07915 222.210104,401.954825 282.5,401.954825 C342.782403,401.954825 391.832572,353.07915 391.832572,293.003733 C391.832572,232.928316 342.782403,184.052641 282.5,184.052641 M282.5,432 C205.575308,432 143,369.647302 143,293.003733 C143,216.352698 205.575308,154 282.5,154 C359.417199,154 422,216.352698 422,293.003733 C422,369.647302 359.417199,432 282.5,432" id="Fill-7" fill-opacity="0.5" fill="#FFFFFF"></path>
                        </g>
                    </g>
                </g>
            </g>
        </g>
    </g>
</svg>