
<svg width="71px" height="22px" viewBox="0 0 71 22" version="1.1" xmlns="http://www.w3.org/2000/svg" xmlns:xlink="http://www.w3.org/1999/xlink">
    <defs>
        <polygon id="path-1" points="0.111497987 0.0261 40.9848658 0.0261 40.9848658 8.7312 0.111497987 8.7312"></polygon>
        <polygon id="path-3" points="9.81716928e-05 0 21.7964175 0 21.7964175 21.9998625 9.81716928e-05 21.9998625"></polygon>
    </defs>
    <g id="Pages" stroke="none" stroke-width="1" fill="none" fill-rule="evenodd">
        <g id="Home" transform="translate(-119.000000, -988.000000)">
            <g id="sidebar">
                <g id="powered-by-Provable" transform="translate(0.000000, 974.000000)">
                    <g id="Provable" transform="translate(118.500000, 14.000000)">
                        <g id="Group-3" transform="translate(29.806452, 7.000000)">
                            <mask id="mask-2" fill="white">
                                <use xlink:href="#path-1"></use>
                            </mask>
                            <g id="Clip-2"></g>
                            <path d="M39.9401087,5.0355 C39.9401087,4.8186 39.9134174,4.6113 39.8603101,4.4136 C39.8069275,4.2162 39.7282295,4.0437 39.6255919,3.8961 C39.522404,3.7491 39.391149,3.6309 39.2312765,3.5418 C39.071404,3.453 38.8809879,3.408 38.6608537,3.408 C38.2269141,3.408 37.8947866,3.5517 37.664196,3.8382 C37.433055,4.125 37.2927195,4.524 37.2426389,5.0355 L39.9401087,5.0355 Z M37.2321826,5.8953 C37.2464913,6.5463 37.4008604,7.023 37.6961154,7.3251 C37.9908201,7.6275 38.4264107,7.7787 39.0020617,7.7787 C39.5064443,7.7787 39.9860617,7.6815 40.4411893,7.4877 C40.4978738,7.6041 40.544102,7.7454 40.5795987,7.9119 C40.6150953,8.0787 40.6365584,8.2431 40.6437128,8.4057 C40.4089946,8.5146 40.1514376,8.5959 39.8707664,8.6502 C39.5900953,8.7042 39.2791557,8.7312 38.9379477,8.7312 C38.4404443,8.7312 38.0139342,8.6559 37.6586926,8.5047 C37.3031758,8.3538 37.0101221,8.1408 36.7792564,7.8657 C36.5481154,7.5909 36.3794376,7.2654 36.2726725,6.8892 C36.1661826,6.5136 36.1130752,6.1011 36.1130752,5.6514 C36.1130752,5.2098 36.1642564,4.797 36.2674443,4.4136 C36.370357,4.0299 36.5288537,3.6969 36.7418336,3.414 C36.9550886,3.1311 37.223102,2.9064 37.5469745,2.7399 C37.8702966,2.5734 38.2519544,2.49 38.6927732,2.49 C39.0694779,2.49 39.3999544,2.5596 39.6842027,2.6991 C39.968451,2.8386 40.2067463,3.0303 40.3985383,3.2745 C40.5903302,3.5184 40.735894,3.8091 40.8355047,4.1463 C40.9351154,4.4832 40.9849208,4.8495 40.9849208,5.2446 C40.9849208,5.3535 40.9810685,5.4672 40.9741893,5.5875 C40.9667597,5.7075 40.9598805,5.8101 40.9530013,5.8953 L37.2321826,5.8953 Z M33.2452765,0.0723 C33.323149,0.057 33.4103772,0.0453 33.5064107,0.0375 C33.6024443,0.0297 33.6893973,0.0261 33.767545,0.0261 C33.8459678,0.0261 33.9329208,0.0297 34.0286792,0.0375 C34.1247128,0.0453 34.2116658,0.057 34.2900886,0.0723 L34.2900886,6.7905 C34.2900886,7.0074 34.3074242,7.1781 34.343196,7.302 C34.3786926,7.4259 34.426847,7.521 34.4873839,7.5867 C34.5473705,7.6527 34.6186389,7.695 34.7003638,7.7145 C34.7820886,7.734 34.8690416,7.7433 34.961498,7.7433 C35.0256121,7.7433 35.0982564,7.7397 35.1799812,7.7319 C35.261706,7.7244 35.3310483,7.7127 35.3880081,7.6971 C35.451847,7.9683 35.4840416,8.2626 35.4840416,8.5803 C35.3841557,8.619 35.2636322,8.6442 35.1213705,8.6559 C34.9793839,8.6676 34.8478537,8.6733 34.727055,8.6733 C34.5209544,8.6733 34.3288872,8.646 34.151404,8.5917 C33.9736456,8.538 33.8170752,8.4486 33.682243,8.3247 C33.5474107,8.2008 33.4406456,8.034 33.362498,7.8249 C33.2843503,7.6158 33.2452765,7.356 33.2452765,7.0461 L33.2452765,0.0723 Z M28.0214913,7.6275 C28.1491691,7.6737 28.2859275,7.7067 28.4320416,7.7262 C28.5773302,7.7454 28.7286725,7.755 28.8849678,7.755 C29.147753,7.755 29.3912765,7.7106 29.6152631,7.6215 C29.8392497,7.5324 30.0326926,7.3968 30.1961423,7.2147 C30.3598671,7.0326 30.489196,6.8004 30.5855047,6.5172 C30.6815383,6.2343 30.7291423,5.8995 30.7291423,5.5119 C30.7291423,4.8687 30.6259544,4.3689 30.4201289,4.0125 C30.213753,3.6561 29.872545,3.4779 29.3967799,3.4779 C29.233055,3.4779 29.0715315,3.507 28.9116591,3.5652 C28.7517866,3.6231 28.6040215,3.7164 28.4691893,3.8439 C28.3338067,3.972 28.2256658,4.1424 28.1442161,4.3554 C28.0622161,4.5684 28.0214913,4.8261 28.0214913,5.1285 L28.0214913,7.6275 Z M26.9662228,0.0723 C27.0440953,0.057 27.1310483,0.0453 27.227357,0.0375 C27.3228403,0.0297 27.4100685,0.0261 27.4884913,0.0261 C27.5663638,0.0261 27.655243,0.0297 27.7548537,0.0375 C27.8541893,0.0453 27.9430685,0.057 28.0214913,0.0723 L28.0214913,3.3501 C28.1491691,3.1176 28.3481154,2.9163 28.6183302,2.7456 C28.888545,2.5755 29.2154443,2.49 29.5993034,2.49 C29.9259275,2.49 30.2280617,2.5482 30.5054309,2.6646 C30.7828,2.7804 31.020545,2.9607 31.2197664,3.2046 C31.4184376,3.4488 31.573357,3.7587 31.6834242,4.1346 C31.7937664,4.5105 31.8488,4.9542 31.8488,5.4657 C31.8488,6.4884 31.5838134,7.2885 31.0543906,7.8657 C30.5249678,8.4429 29.762753,8.7312 28.7674711,8.7312 C28.4548805,8.7312 28.1334846,8.6985 27.8030081,8.6325 C27.4722564,8.5668 27.1935114,8.4915 26.9662228,8.4057 L26.9662228,0.0723 Z M24.354055,5.7909 C24.2475651,5.7756 24.1121826,5.76 23.9490081,5.7441 C23.7855584,5.7291 23.6468738,5.721 23.5332295,5.721 C23.0924107,5.721 22.756706,5.8101 22.5258403,5.9886 C22.2946993,6.1668 22.179404,6.438 22.179404,6.8022 C22.179404,7.0344 22.2184779,7.2168 22.2966255,7.3482 C22.3747732,7.4802 22.4727329,7.5807 22.5896792,7.6506 C22.7071758,7.7202 22.8367799,7.7631 22.9787664,7.7787 C23.1210282,7.794 23.2558604,7.8018 23.3838134,7.8018 C23.5475383,7.8018 23.7162161,7.7919 23.8903973,7.7724 C24.0645785,7.7535 24.2189477,7.7244 24.354055,7.6854 L24.354055,5.7909 Z M24.354055,4.6635 C24.354055,4.2063 24.2475651,3.8889 24.0343101,3.7104 C23.821055,3.5322 23.5120416,3.4428 23.1067195,3.4428 C22.8579678,3.4428 22.6251758,3.4647 22.4086188,3.507 C22.1917866,3.5496 21.9801826,3.6057 21.7740819,3.6756 C21.6389745,3.4197 21.5715584,3.114 21.5715584,2.7573 C21.8131557,2.6721 22.0797933,2.6061 22.371196,2.5596 C22.6625987,2.5131 22.9432698,2.49 23.2134846,2.49 C23.924243,2.49 24.4643973,2.6664 24.8339477,3.0186 C25.2032228,3.3714 25.3881356,3.9351 25.3881356,4.71 L25.3881356,8.4411 C25.1393839,8.5032 24.8372497,8.5668 24.4820081,8.6325 C24.1264913,8.6985 23.7640953,8.7312 23.394545,8.7312 C23.0461826,8.7312 22.7319409,8.6967 22.4509946,8.6271 C22.1703235,8.5569 21.9325785,8.4447 21.7369342,8.2899 C21.5412899,8.1348 21.390498,7.9374 21.2837329,7.6971 C21.1769678,7.4568 21.1238604,7.1664 21.1238604,6.8253 C21.1238604,6.492 21.1860483,6.1998 21.3106993,5.9478 C21.4348,5.6961 21.6034779,5.4867 21.8170081,5.3199 C22.0299879,5.1537 22.2754376,5.0295 22.5525315,4.9482 C22.8296255,4.8669 23.1210282,4.8261 23.4264644,4.8261 C23.6540282,4.8261 23.8405919,4.8318 23.9861557,4.8435 C24.1319946,4.8549 24.2544443,4.8687 24.354055,4.8843 L24.354055,4.6635 Z M15.1326322,2.6292 C15.232243,2.6139 15.3351557,2.6025 15.4419208,2.5944 C15.5484107,2.5869 15.6444443,2.583 15.7297463,2.583 C15.8219275,2.583 15.9231893,2.5869 16.0335315,2.5944 C16.1435987,2.6025 16.237706,2.6139 16.3158537,2.6292 L17.8083638,7.5459 L19.3116054,2.6292 C19.389753,2.6139 19.4786322,2.6025 19.578243,2.5944 C19.6775785,2.5869 19.7736121,2.583 19.8660685,2.583 C19.9442161,2.583 20.0328201,2.5869 20.132706,2.5944 C20.2320416,2.6025 20.3313772,2.6139 20.4312631,2.6292 L18.2989879,8.5917 C18.2068067,8.6073 18.1140752,8.619 18.0216188,8.6271 C17.9294376,8.6343 17.8438604,8.6385 17.7659879,8.6385 C17.6875651,8.6385 17.6041893,8.6343 17.5153101,8.6271 C17.4264309,8.619 17.3394779,8.6073 17.2541758,8.5917 L15.1326322,2.6292 Z M12.0837732,7.8132 C12.5741221,7.8132 12.9365181,7.6197 13.1709611,7.2321 C13.405404,6.8448 13.5229007,6.3063 13.5229007,5.6166 C13.5229007,4.9269 13.405404,4.3902 13.1709611,4.0065 C12.9365181,3.6231 12.5741221,3.4311 12.0837732,3.4311 C11.593149,3.4311 11.232404,3.6231 11.0015383,4.0065 C10.7703973,4.3902 10.655102,4.9269 10.655102,5.6166 C10.655102,6.3063 10.7703973,6.8448 11.0015383,7.2321 C11.232404,7.6197 11.593149,7.8132 12.0837732,7.8132 L12.0837732,7.8132 Z M12.0837732,8.7312 C11.6572631,8.7312 11.2838604,8.652 10.9641154,8.493 C10.6443705,8.3343 10.3777329,8.1156 10.164753,7.8366 C9.95149799,7.5576 9.79300134,7.2285 9.69008859,6.8487 C9.58690067,6.4689 9.53571946,6.0582 9.53571946,5.6166 C9.53571946,5.175 9.58690067,4.7643 9.69008859,4.3845 C9.79300134,4.0047 9.95149799,3.6756 10.164753,3.3966 C10.3777329,3.1176 10.6443705,2.8968 10.9641154,2.7342 C11.2838604,2.5713 11.6572631,2.49 12.0837732,2.49 C12.5100081,2.49 12.8831356,2.5713 13.2031557,2.7342 C13.5229007,2.8968 13.7892631,3.1176 14.0025181,3.3966 C14.2157732,3.6756 14.3739946,4.0047 14.4769074,4.3845 C14.5798201,4.7643 14.6315517,5.175 14.6315517,5.6166 C14.6315517,6.0582 14.5798201,6.4689 14.4769074,6.8487 C14.3739946,7.2285 14.2157732,7.5576 14.0025181,7.8366 C13.7892631,8.1156 13.5229007,8.3343 13.2031557,8.493 C12.8831356,8.652 12.5100081,8.7312 12.0837732,8.7312 L12.0837732,8.7312 Z M6.06035034,2.6292 C6.13849799,2.6139 6.21306846,2.6025 6.28406174,2.5944 C6.35505503,2.5869 6.4296255,2.583 6.50804832,2.583 C6.58619597,2.583 6.66406846,2.5869 6.74249128,2.5944 C6.82091409,2.6025 6.89163221,2.6139 6.95574631,2.6292 C6.9772094,2.7456 6.99839732,2.8989 7.01958523,3.0885 C7.04104832,3.2787 7.05177987,3.4392 7.05177987,3.5709 C7.20092081,3.3075 7.39821611,3.0789 7.6433906,2.8851 C7.88884027,2.6916 8.20308188,2.5944 8.58694094,2.5944 C8.64390067,2.5944 8.70251141,2.5965 8.76277315,2.6004 C8.8230349,2.6043 8.87476644,2.61 8.91741745,2.6178 C8.93172617,2.6877 8.94218255,2.7612 8.94933691,2.8386 C8.95621611,2.9163 8.96006846,2.9976 8.96006846,3.0825 C8.96006846,3.1758 8.95484027,3.2727 8.94383356,3.3732 C8.93337718,3.474 8.92071946,3.5709 8.90696107,3.6639 C8.84972617,3.6486 8.79111544,3.6408 8.73085369,3.6408 L8.58694094,3.6408 C8.39487383,3.6408 8.21188725,3.6696 8.03770604,3.7278 C7.8638,3.786 7.70722953,3.8889 7.56882013,4.0359 C7.43013557,4.1832 7.31979329,4.3845 7.23834362,4.6404 C7.15634362,4.8957 7.11561879,5.2254 7.11561879,5.6283 L7.11561879,8.5917 C7.03747114,8.6073 6.95024295,8.619 6.85448456,8.6271 C6.75845101,8.6343 6.67149799,8.6385 6.59307517,8.6385 C6.51492752,8.6385 6.4279745,8.6343 6.33221611,8.6271 C6.23618255,8.619 6.14565235,8.6073 6.06035034,8.5917 L6.06035034,2.6292 Z M1.19896107,4.5357 C1.31260537,4.5513 1.41221611,4.563 1.49751812,4.5705 C1.58282013,4.5786 1.70692081,4.5819 1.87064564,4.5819 C2.09077987,4.5819 2.30953826,4.557 2.52637047,4.5063 C2.74292752,4.4562 2.93664564,4.3653 3.10724966,4.2333 C3.27785369,4.1019 3.41461208,3.9216 3.5178,3.693 C3.62071275,3.4647 3.6724443,3.168 3.6724443,2.8041 C3.6724443,2.4861 3.62786711,2.2185 3.53898792,2.0019 C3.45010872,1.785 3.32738389,1.6104 3.17108859,1.479 C3.01479329,1.347 2.82657852,1.2543 2.60616913,1.2 C2.38575973,1.1457 2.1477396,1.1184 1.89210872,1.1184 C1.62877315,1.1184 1.39790738,1.1301 1.19896107,1.1535 L1.19896107,4.5357 Z M0.111497987,0.2235 C0.218263087,0.2079 0.344289933,0.1926 0.490128859,0.177 C0.635692617,0.1614 0.788685906,0.1479 0.948283221,0.1362 C1.10843087,0.1248 1.26830336,0.1152 1.42817584,0.1071 C1.58804832,0.0996 1.74269262,0.0957 1.89210872,0.0957 C2.28257181,0.0957 2.65432349,0.1383 3.00598792,0.2235 C3.35792752,0.3087 3.66694094,0.4557 3.93330336,0.6654 C4.19994094,0.8745 4.4112698,1.1517 4.56784027,1.4961 C4.72413557,1.8411 4.80228322,2.2731 4.80228322,2.7921 C4.80228322,3.3345 4.71863221,3.786 4.55188054,4.1463 C4.38485369,4.5063 4.1644443,4.7952 3.89092752,5.0121 C3.61713557,5.2293 3.30619597,5.3823 2.95810872,5.4711 C2.60974631,5.5605 2.25422953,5.6046 1.89210872,5.6046 C1.75672617,5.6046 1.63785369,5.6031 1.53494094,5.5992 C1.43175302,5.5953 1.31975973,5.5857 1.19896107,5.5701 L1.19896107,8.5917 C1.02835705,8.6154 0.847296644,8.6271 0.65522953,8.6271 C0.569927517,8.6271 0.479397315,8.625 0.383363758,8.6211 C0.287330201,8.6169 0.1968,8.6073 0.111497987,8.5917 L0.111497987,0.2235 Z" id="Fill-1" fill="#FFFFFF" mask="url(#mask-2)"></path>
                        </g>
                        <g id="Group-6" opacity="0.5" transform="translate(0.806452, 0.000000)">
                            <mask id="mask-4" fill="white">
                                <use xlink:href="#path-3"></use>
                            </mask>
                            <g id="Clip-5"></g>
                            <path d="M3.7418425,15.2898625 C3.7418425,15.8822125 4.2219925,16.3620875 4.8140675,16.3620875 C5.4064175,16.3620875 5.8865675,15.8822125 5.8865675,15.2898625 C5.8865675,14.7137375 5.4319925,14.2451375 4.8619175,14.2198375 C4.1741425,13.1723625 3.7146175,11.9906875 3.7440425,10.7105625 C3.7723675,9.4763625 4.1557175,8.2402375 4.7942675,7.1875375 C6.0474425,5.1214625 8.2752175,3.8889125 10.6803675,3.8589375 C11.3475175,3.8501375 11.3494425,2.8125625 10.6803675,2.82076356 C7.9091925,2.8557375 5.3409675,4.2851875 3.8980425,6.6639375 C2.3495175,9.2164875 2.3827925,12.2170125 3.9315925,14.6815625 C3.8122425,14.8542625 3.7418425,15.0638125 3.7418425,15.2898625 M21.7964175,9.3055875 C21.7964175,8.7132375 21.3162675,8.2330875 20.7241925,8.2330875 C20.1318425,8.2330875 19.6516925,8.7132375 19.6516925,9.3055875 C19.6516925,9.7576875 19.9319175,10.1435125 20.3276425,10.3010875 C20.4043675,12.2238875 19.9951675,14.1557625 18.9894925,15.8167625 C17.8823425,17.6455125 16.1371925,18.9699125 14.1621425,19.7462375 C13.5475175,19.9879625 13.8150925,20.9917125 14.4379675,20.7472375 C16.6162425,19.8903375 18.5288675,18.4903125 19.7905675,16.4940875 C20.9741675,14.6213375 21.4760425,12.3704625 21.3602675,10.1674375 C21.6245425,9.9721875 21.7964175,9.6592375 21.7964175,9.3055875 M11.1445675,19.8554125 C10.7496675,19.8554125 10.4056425,20.0693625 10.2194675,20.3869875 C7.0773175,20.2065875 4.1634175,18.5607125 2.4768425,15.8431625 C0.4553175,12.5860625 0.6192175,8.5938875 2.6146175,5.3816125 C2.9682675,4.8123625 2.0706675,4.2909625 1.7186675,4.8574625 C-0.4648325,8.3733375 -0.6295575,12.8052375 1.5808925,16.3667625 C3.4514425,19.3813125 6.6967175,21.2414125 10.1955425,21.4259375 C10.3751175,21.7672125 10.7323425,21.9998625 11.1445675,21.9998625 C11.7369175,21.9998625 12.2167925,21.5197125 12.2167925,20.9276375 C12.2167925,20.3355625 11.7369175,19.8554125 11.1445675,19.8554125 M4.0877925,4.0822375 C4.6801425,4.0822375 5.1600175,3.6020875 5.1600175,3.0097375 C5.1600175,2.9349375 5.1523175,2.8620625 5.1377425,2.7913875 C7.5508675,1.1169125 10.6314175,0.5955125 13.4817925,1.4213375 C16.2375675,2.2196625 18.3014425,4.2794125 19.5315175,6.8195875 C19.8224675,7.4207375 20.7175925,6.8952125 20.4274675,6.2959875 C19.0552175,3.4612875 16.6561175,1.1972125 13.5741925,0.3691875 C10.4221425,-0.4772625 7.0971175,0.1577125 4.4645425,2.0068125 C4.3471175,1.9628125 4.2206175,1.9372375 4.0877925,1.9372375 C3.4954425,1.9372375 3.0152925,2.4173875 3.0152925,3.0097375 C3.0152925,3.6020875 3.4954425,4.0822375 4.0877925,4.0822375 M16.7573175,13.9574875 C18.4515925,10.8035125 17.3301425,6.9628625 14.4896675,5.0056875 C14.3301675,5.0994625 14.1450925,5.1547375 13.9465425,5.1547375 C13.3541925,5.1547375 12.8740425,4.6743125 12.8740425,4.0822375 C12.8740425,3.4898875 13.3541925,3.0097375 13.9465425,3.0097375 C14.5386175,3.0097375 15.0187675,3.4898875 15.0187675,4.0822375 C15.0187675,4.0888375 15.0179425,4.0951625 15.0179425,4.1017625 C16.3274925,4.9691125 17.3708425,6.1975375 17.9835425,7.6594375 C19.2614675,10.7078125 18.4716675,14.3460625 16.0200425,16.5710875 C13.5455925,18.8164625 9.7709425,19.3246625 6.8584175,17.6526625 C6.2787175,17.3199125 6.8020425,16.4234125 7.3820175,16.7564375 C10.6668925,18.6421125 14.9857675,17.2550125 16.7573175,13.9574875" id="Fill-4" fill="#FFFFFF" mask="url(#mask-4)"></path>
                        </g>
                        <path d="M11.8064516,7.08103027 C9.64552343,7.08103027 7.88745285,8.83914807 7.88745285,11.0001343 C7.88745285,13.1611205 9.64552343,14.9192383 11.8064516,14.9192383 C13.9671112,14.9192383 15.7251818,13.1611205 15.7251818,11.0001343 C15.7251818,8.83914807 13.9671112,7.08103027 11.8064516,7.08103027 M11.8064516,16 C9.04929418,16 6.80645161,13.7570972 6.80645161,11.0001343 C6.80645161,8.2429028 9.04929418,6 11.8064516,6 C14.5633405,6 16.8064516,8.2429028 16.8064516,11.0001343 C16.8064516,13.7570972 14.5633405,16 11.8064516,16" id="Fill-7" fill="#FFFFFF"></path>
                    </g>
                </g>
            </g>
        </g>
    </g>
</svg>