
<svg width="12px" height="12px" viewBox="0 0 12 12" version="1.1" xmlns="http://www.w3.org/2000/svg" xmlns:xlink="http://www.w3.org/1999/xlink">
    <g id="Pages" stroke="none" stroke-width="1" fill="none" fill-rule="evenodd">
        <g id="Home" transform="translate(-22.000000, -289.000000)">
            <g id="sidebar">
                <g id="Settings" transform="translate(20.000000, 287.000000)">
                    <g id="settings_applications-24px">
                        <polygon id="Path" points="0 0 16 0 16 16 0 16"></polygon>
                        <path d="M8,6.66666667 C7.26666667,6.66666667 6.66666667,7.26666667 6.66666667,8 C6.66666667,8.73333333 7.26666667,9.33333333 8,9.33333333 C8.73333333,9.33333333 9.33333333,8.73333333 9.33333333,8 C9.33333333,7.26666667 8.73333333,6.66666667 8,6.66666667 Z M12.3358902,8 C12.3358902,8.19714286 12.3187473,8.39428571 12.293033,8.58285714 L13.5616045,9.57714286 C13.673033,9.67142857 13.7073187,9.83428571 13.6301759,9.96285714 L12.4301759,12.0371429 C12.353033,12.1657143 12.1987473,12.2171429 12.0616045,12.1657143 L10.5701759,11.5657143 C10.2616045,11.8057143 9.91874731,12.0028571 9.55874731,12.1571429 L9.33589017,13.7428571 C9.31017588,13.8885714 9.18160446,14 9.03589017,14 L6.63589017,14 C6.49017588,14 6.36160446,13.8885714 6.33589017,13.7514286 L6.11303303,12.1657143 C5.7444616,12.0114286 5.41017588,11.8142857 5.10160446,11.5742857 L3.61017588,12.1742857 C3.47303303,12.2257143 3.31874731,12.1742857 3.24160446,12.0457143 L2.04160446,9.97142857 C1.9644616,9.84285714 1.99874731,9.68 2.11017588,9.58571429 L3.37874731,8.59142857 C3.35303303,8.39428571 3.33589017,8.19714286 3.33589017,8 C3.33589017,7.80285714 3.35303303,7.60571429 3.37874731,7.41714286 L2.11017588,6.42285714 C1.99874731,6.32857143 1.9644616,6.16571429 2.04160446,6.03714286 L3.24160446,3.96285714 C3.31874731,3.83428571 3.47303303,3.78285714 3.61017588,3.83428571 L5.10160446,4.43428571 C5.41017588,4.19428571 5.75303303,3.99714286 6.11303303,3.84285714 L6.33589017,2.25714286 C6.36160446,2.11142857 6.49017588,2 6.63589017,2 L9.03589017,2 C9.18160446,2 9.31017588,2.11142857 9.33589017,2.24857143 L9.55874731,3.83428571 C9.92731874,3.98857143 10.2616045,4.18571429 10.5701759,4.42571429 L12.0616045,3.82571429 C12.1987473,3.77428571 12.353033,3.82571429 12.4301759,3.95428571 L13.6301759,6.02857143 C13.7073187,6.15714286 13.673033,6.32 13.5616045,6.41428571 L12.293033,7.40857143 C12.3187473,7.60571429 12.3358902,7.80285714 12.3358902,8 Z" id="Shape" fill="#FFFFFF" fill-rule="nonzero"></path>
                    </g>
                </g>
            </g>
        </g>
    </g>
</svg>