
<svg width="12px" height="12px" viewBox="0 0 12 12" version="1.1" xmlns="http://www.w3.org/2000/svg" xmlns:xlink="http://www.w3.org/1999/xlink">
    <g id="Pages" stroke="none" stroke-width="1" fill="none" fill-rule="evenodd">
        <g id="Home" transform="translate(-22.000000, -190.000000)" fill="#FFFFFF" fill-rule="nonzero">
            <g id="sidebar">
                <g id="Enclave" transform="translate(20.000000, 187.000000)">
                    <g id="memory-24px" transform="translate(0.000000, 1.000000)">
                        <path d="M10,6 L6,6 L6,10 L10,10 L10,6 Z M8.66666667,8.66666667 L7.33333333,8.66666667 L7.33333333,7.33333333 L8.66666667,7.33333333 L8.66666667,8.66666667 Z M14,7.33333333 L14,6 L12.6666667,6 L12.6666667,4.66666667 C12.6666667,3.93333333 12.0666667,3.33333333 11.3333333,3.33333333 L10,3.33333333 L10,2 L8.66666667,2 L8.66666667,3.33333333 L7.33333333,3.33333333 L7.33333333,2 L6,2 L6,3.33333333 L4.66666667,3.33333333 C3.93333333,3.33333333 3.33333333,3.93333333 3.33333333,4.66666667 L3.33333333,6 L2,6 L2,7.33333333 L3.33333333,7.33333333 L3.33333333,8.66666667 L2,8.66666667 L2,10 L3.33333333,10 L3.33333333,11.3333333 C3.33333333,12.0666667 3.93333333,12.6666667 4.66666667,12.6666667 L6,12.6666667 L6,14 L7.33333333,14 L7.33333333,12.6666667 L8.66666667,12.6666667 L8.66666667,14 L10,14 L10,12.6666667 L11.3333333,12.6666667 C12.0666667,12.6666667 12.6666667,12.0666667 12.6666667,11.3333333 L12.6666667,10 L14,10 L14,8.66666667 L12.6666667,8.66666667 L12.6666667,7.33333333 L14,7.33333333 Z M11.3333333,11.3333333 L4.66666667,11.3333333 L4.66666667,4.66666667 L11.3333333,4.66666667 L11.3333333,11.3333333 Z" id="Shape"></path>
                    </g>
                </g>
            </g>
        </g>
    </g>
</svg>