
<svg width="16px" height="16px" viewBox="0 0 16 16" version="1.1" xmlns="http://www.w3.org/2000/svg" xmlns:xlink="http://www.w3.org/1999/xlink">
    <g id="Pages" stroke="none" stroke-width="1" fill="none" fill-rule="evenodd">
        <g id="Home" transform="translate(-1332.000000, -240.000000)">
            <g id="minting-events" transform="translate(260.000000, 122.000000)">
                <g id="lines" transform="translate(20.000000, 105.000000)">
                    <g id="pending" transform="translate(0.000000, 13.000000)">
                        <g id="dot" transform="translate(1052.000000, 0.000000)">
                            <circle id="Oval" fill="#475965" cx="8" cy="8" r="8"></circle>
                            <g id="av_timer-24px" transform="translate(3.000000, 3.000000)">
                                <polygon id="Path" points="0 0 10 0 10 10 0 10"></polygon>
                                <path d="M4.58333333,7.08333333 C4.58333333,7.3125 4.77083333,7.5 5,7.5 C5.22916667,7.5 5.41666667,7.3125 5.41666667,7.08333333 C5.41666667,6.85416667 5.22916667,6.66666667 5,6.66666667 C4.77083333,6.66666667 4.58333333,6.85416667 4.58333333,7.08333333 Z M4.58333333,1.25 L4.58333333,2.91666667 L5.41666667,2.91666667 L5.41666667,2.11666667 C6.82916667,2.32083333 7.91666667,3.52916667 7.91666667,5 C7.91666667,6.6125 6.6125,7.91666667 5,7.91666667 C3.3875,7.91666667 2.08333333,6.6125 2.08333333,5 C2.08333333,4.3 2.32916667,3.65833333 2.74166667,3.15833333 L5,5.41666667 L5.5875,4.82916667 L2.75416667,1.99583333 L2.75416667,2.00416667 C1.84166667,2.6875 1.25,3.77083333 1.25,5 C1.25,7.07083333 2.925,8.75 5,8.75 C7.07083333,8.75 8.75,7.07083333 8.75,5 C8.75,2.92916667 7.07083333,1.25 5,1.25 L4.58333333,1.25 Z M7.5,5 C7.5,4.77083333 7.3125,4.58333333 7.08333333,4.58333333 C6.85416667,4.58333333 6.66666667,4.77083333 6.66666667,5 C6.66666667,5.22916667 6.85416667,5.41666667 7.08333333,5.41666667 C7.3125,5.41666667 7.5,5.22916667 7.5,5 Z M2.5,5 C2.5,5.22916667 2.6875,5.41666667 2.91666667,5.41666667 C3.14583333,5.41666667 3.33333333,5.22916667 3.33333333,5 C3.33333333,4.77083333 3.14583333,4.58333333 2.91666667,4.58333333 C2.6875,4.58333333 2.5,4.77083333 2.5,5 Z" id="Shape" fill="#FFFFFF" fill-rule="nonzero"></path>
                            </g>
                        </g>
                    </g>
                </g>
            </g>
        </g>
    </g>
</svg>