<svg version="1.1" id="Layer_1" xmlns="http://www.w3.org/2000/svg" xmlns:xlink="http://www.w3.org/1999/xlink" x="0px" y="0px"
	 width="100%" viewBox="0 0 800 800" enable-background="new 0 0 800 800" xml:space="preserve">
<path fill="#000000" opacity="1.000000" stroke="none" 
	d="
M474.000000,801.000000 
	C316.000000,801.000000 158.500000,801.000000 1.000000,801.000000 
	C1.000000,534.333313 1.000000,267.666656 1.000000,1.000000 
	C267.666656,1.000000 534.333313,1.000000 801.000000,1.000000 
	C801.000000,267.666656 801.000000,534.333313 801.000000,801.000000 
	C692.166687,801.000000 583.333313,801.000000 474.000000,801.000000 
M355.274048,292.684631 
	C354.595306,294.200287 353.890320,295.704803 353.241577,297.233215 
	C321.923950,371.013611 290.606720,444.794189 259.304962,518.581299 
	C256.278625,525.715271 253.351624,532.891235 250.397293,540.002502 
	C251.203445,540.414551 251.487915,540.686951 251.772873,540.687439 
	C269.771942,540.720520 287.771942,540.806702 305.768433,540.596375 
	C307.153290,540.580200 309.145782,538.734985 309.780640,537.273010 
	C313.357758,529.035217 316.544464,520.629211 319.975952,512.326721 
	C342.965515,456.703827 365.980133,401.091248 388.994781,345.478729 
	C393.071167,335.628510 397.186035,325.794189 401.722321,314.897522 
	C403.089752,317.994781 403.997498,319.927460 404.805573,321.900970 
	C410.854401,336.673035 416.894318,351.448730 422.916962,366.231445 
	C446.013550,422.922577 469.129669,479.605804 492.123932,536.338440 
	C493.431763,539.565186 494.926880,540.882629 498.582977,540.831360 
	C514.579651,540.607178 530.581299,540.750671 546.581177,540.727905 
	C548.128174,540.725708 549.674927,540.497803 551.613525,540.343445 
	C550.965881,538.573730 550.620117,537.485413 550.176575,536.438416 
	C543.169189,519.897217 536.131042,503.369049 529.135315,486.822906 
	C497.789215,412.684296 466.439514,338.547241 435.175507,264.374054 
	C434.046783,261.696228 432.769531,260.591492 429.744904,260.614777 
	C410.746185,260.761292 391.745148,260.770172 372.746613,260.616669 
	C369.673248,260.591827 368.260590,261.814484 367.196808,264.403961 
	C363.405914,273.631836 359.499756,282.812408 355.274048,292.684631 
M386.794495,460.156494 
	C382.885437,470.048157 378.887238,479.906403 375.154266,489.864075 
	C374.524963,491.542694 374.492981,493.852844 375.112762,495.527924 
	C380.303131,509.555725 385.618896,523.539978 391.185577,537.421570 
	C391.779572,538.902710 394.209045,540.565125 395.806854,540.585388 
	C412.962189,540.803284 430.121521,540.713074 447.279724,540.679504 
	C448.041168,540.678040 448.802094,540.409546 450.176910,540.149231 
	C434.080994,500.812134 418.159790,461.902100 401.776550,421.862823 
	C396.513092,435.291840 391.783630,447.358459 386.794495,460.156494 
z"/>
<path fill="#1BBAFB" opacity="1.000000" stroke="none" 
	d="
M355.455627,292.347748 
	C359.499756,282.812408 363.405914,273.631836 367.196808,264.403961 
	C368.260590,261.814484 369.673248,260.591827 372.746613,260.616669 
	C391.745148,260.770172 410.746185,260.761292 429.744904,260.614777 
	C432.769531,260.591492 434.046783,261.696228 435.175507,264.374054 
	C466.439514,338.547241 497.789215,412.684296 529.135315,486.822906 
	C536.131042,503.369049 543.169189,519.897217 550.176575,536.438416 
	C550.620117,537.485413 550.965881,538.573730 551.613525,540.343445 
	C549.674927,540.497803 548.128174,540.725708 546.581177,540.727905 
	C530.581299,540.750671 514.579651,540.607178 498.582977,540.831360 
	C494.926880,540.882629 493.431763,539.565186 492.123932,536.338440 
	C469.129669,479.605804 446.013550,422.922577 422.916962,366.231445 
	C416.894318,351.448730 410.854401,336.673035 404.805573,321.900970 
	C403.997498,319.927460 403.089752,317.994781 401.722321,314.897522 
	C397.186035,325.794189 393.071167,335.628510 388.994781,345.478729 
	C365.980133,401.091248 342.965515,456.703827 319.975952,512.326721 
	C316.544464,520.629211 313.357758,529.035217 309.780640,537.273010 
	C309.145782,538.734985 307.153290,540.580200 305.768433,540.596375 
	C287.771942,540.806702 269.771942,540.720520 251.772873,540.687439 
	C251.487915,540.686951 251.203445,540.414551 250.397293,540.002502 
	C253.351624,532.891235 256.278625,525.715271 259.304962,518.581299 
	C290.606720,444.794189 321.923950,371.013611 353.241577,297.233215 
	C353.890320,295.704803 354.595306,294.200287 355.455627,292.347748 
z"/>
<path fill="#1BB9F9" opacity="1.000000" stroke="none" 
	d="
M386.924316,459.790771 
	C391.783630,447.358459 396.513092,435.291840 401.776550,421.862823 
	C418.159790,461.902100 434.080994,500.812134 450.176910,540.149231 
	C448.802094,540.409546 448.041168,540.678040 447.279724,540.679504 
	C430.121521,540.713074 412.962189,540.803284 395.806854,540.585388 
	C394.209045,540.565125 391.779572,538.902710 391.185577,537.421570 
	C385.618896,523.539978 380.303131,509.555725 375.112762,495.527924 
	C374.492981,493.852844 374.524963,491.542694 375.154266,489.864075 
	C378.887238,479.906403 382.885437,470.048157 386.924316,459.790771 
z"/>
</svg>