<svg xmlns="http://www.w3.org/2000/svg" width="512" height="512"><defs/><defs><linearGradient id="a" x1="59.90303%" x2="-21.49573%" y1="142.58396%" y2="-334.11264%"><stop offset="0%" stop-color="#27A8CF"/><stop offset="100%" stop-color="#64F0A1"/></linearGradient></defs><g fill="none" fill-rule="evenodd"><circle cx="256" cy="256" r="256" fill="url(#a)"/><path fill="#FFF" d="M255.6916 80l25.0344 14.454c-1.4208-.06-1.9092 1.062-2.412 2.0808-.0996.2028.2304.618.5784 1.4652 1.0188-.7548 1.9716-1.4616 3.492-2.5896l8.0028 4.6212c-2.034.1656-1.9248 1.0932-.9636 2.7396.588-.72 1.0692-1.3092 1.8288-2.2404l7.6296 4.4052c-.66.684-1.3284 1.3764-2.028 2.1024.654 1.4148 1.4976 3.372 2.4888 5.2524.1692.3192.9684.306 1.74.5184.2196-1.7232.4164-3.2736.612-4.8156.7944.084 1.1628.1224 1.9332.204v5.5056h2.3652v-4.662l2.6628 1.5372c-.0828.0816-.1692.1692-.252.2508v6.0828c.3072.414.6144.8268.9204 1.2408 1.596-2.0364 3.3768-3.6744 6.1512-3.3528-.2184-.2244-.4188-.4308-.6288-.6468l34.1256 19.7028c.0504.2064.0996.414.1488.6216.1836-.03.366-.06.5496-.09v-.1296l.2232.1296 1.4892.8604v15.6108c-.0972.0132-.1944.0264-.2928.0396.0636.7356.1272 1.4712.1896 2.2056.0348-.0012.0684-.0024.1032-.0048v11.2824c-1.8288 1.062-3.2052 1.83-4.4796 2.6868-.324.2172-.4188.7884-.6288 1.392h-7.1832v-.3768h-.3852v.3768h-2.6712c-.1296-1.3668-.9024-2.3544-2.8152-2.7864-.4884.8928-.9996 1.8252-1.5252 2.7864h-4.9416v-2.082c-.786.7848-1.4268 1.4232-2.0868 2.082h-1.8552v-6.1776c.3648.0432.8712-.0924 1.4244-.282-.4452-.7116-.8808-1.4088-1.4244-2.28v-7.9776l-4.692-2.7072c1.1496-1.122 2.1804-2.1276 3.2292-3.1512-1.7472-1.4376-3.024-1.23-4.2432.0648-.0348.0372-.4716-.3048-.72-.4704.3744-1.2504.7488-2.5008 1.4208-4.7532-2.6616 1.572-4.7688 3.2616-7.158 3.9984l-1.3812-.7968c.06.0228.1308.0492.1884.0708 1.8684-1.6848 3.2532-2.9352 4.92-4.4388-1.9416-1.0488-3.6504-1.9728-5.8128-3.1428-.1968 2.0208-.3492 3.5856-.5172 5.3172h-2.5812l-12.6588-7.3056c.6684-.9156.8124-1.8528.312-2.7972-1.2072-2.2716-3.3588-1.8864-5.6772-1.2936.39.5652.7632 1.1052 1.14 1.6512l-32.85-18.9576-.5064.2916c-.0816-.9948-.1644-2.0004-.2664-3.2328-1.3692 1.6956-2.382 2.9508-3.396 4.206.2484.2256.4956.4512.7428.6768.264-.2652.4848-.6168.8028-.7752.5376-.2676 1.1376-.4608 1.8348-.7116l-19.5168 11.25c-.2496-.3528-.5148-.7272-.8196-1.1556v1.6284l-46.0332 26.5344v3.642l-.3456.0108c.0396-.0384.0792-.078.1176-.1176-.2676-.3144-.5364-.6288-.804-.9432-.1212.1212-.2436.2424-.3648.3636l.93.7932c.144 1.104.288 2.208.4332 3.3108.0108-.0012.0228-.0012.0336-.0024v70.446l6.8052 3.9288v2.916h3.4404c-.2772-.4836-.5376-.9396-.7944-1.3896l.5376.3108c.0528.0528.1056.1056.1584.1596a.78239.78239 0 01.048-.0408l17.364 10.026v.102c.048-.006.0972-.012.1452-.018l3.5064 2.0244v.486h.3852v-.264l2.982 1.722v2.0052h.5772v-1.6716l1.5636.9024h-.12v.384h.7872l10.23 5.9076c-.06.072-.1044.1284-.168.2052.198.0072.348-.0012.5232-.0012l19.1688 11.0676 14.8104-8.3172 1.4796-.8316 11.172 6.4512c-.1128.0072-.2268.0132-.3396.0204.1428 1.0188.2844 2.0388.4272 3.0576l.6048-.054v-2.6244l4.038 2.3316v.492h.384v-.27l7.5696 4.3704.222.1272.9852.5676c.0048.0372.0096.0672.0156.1056.0348-.0144.0636-.0264.0984-.0396l1.5804.9096c-.7152.1212-1.4256.2412-2.2104.3732l.66071.65991c.41422.41396.79289.79289 1.23769 1.23849l-42.7644 24.408-1.482-.8556-2.994-1.728c.114-.2256.2244-.4848.3288-.8196h-1.7472l-44.3052-25.5792-2.5392 1.4652v-1.47h-.5772v1.8036l-13.7952 7.9644v77.502l10.9728 6.3348c-.2016.0312-.372.0576-.546.084-1.07449 1.9631-.0293 3.05908 1.18113 4.10442l.52318.44728c.65236.56118 1.27202 1.1413 1.55849 1.8659-.5256-1.9548-1.0476-3.9036-1.5672-5.838l2.7396 1.5828v.9108l.9972.0108-.0252-.36 2.4888 1.4364v1.2636c.3324-.042.6636-.0828.9972-.1248l-.156-.654 5.022 2.9004v.3708h.5784v-.0372l40.8324 23.574c-.0096.0084-.018.0168-.0264.0252.3144.2688.6288.5376.9432.8052l.1044-.1044v1.122l-.1044-.1044c-.3144.2676-.6288.5364-.9432.804.1212.1224.2424.2436.3648.3648.2676-.3144.5352-.6288.804-.9432a4.99871 4.99871 0 00-.1128-.1128l1.1472-1.1472v.072c1.1496-.6216 2.2692-1.2252 4.5984-2.4828-.3444.0288-.6552.054-.9504.0792l1.3548-.7884v.8112h.3852v-1.0344l61.0092-35.4864v-15.8208h.5688v-.3852h-.5688v-3.5268H304.576c-.0156-.12-.0312-.2412-.0456-.3612-.5052.12-1.0116.2412-1.5168.3612h-3.294l-42.1284 24.3492-1.8996 1.098-10.0272-5.7888v-2.6616h-.5772v2.328l-7.2588-4.1916c-.0816-.5448-.3168-1.068-.4944-1.5996-.0984.3468-.198.6936-.3216 1.1292l-19.9008-11.4912v-4.5864c.0552-.1956.1068-.378.1728-.6096-.066.0612-.1116.0984-.1728.1536v-18.4644h1.1316v-.3852h-1.1316v-9.384l26.46 15.2772.3348.33525c.114.11385.2322.23175.36.35955.0504-.0708.0972-.1368.1476-.2076l4.0884 2.3592c.0432.0756.0852.15.1284.2244.0396-.0264.0792-.054.1176-.0816l6.9432 4.008 29.9028-17.2596v.5208h.3852v-.744l4.2576-2.4576h42.6v2.0472h.5772v-2.0472h17.85v27.7704h-.0912l.0276 3.5364c-.0192.0048-.0372.0096-.0564.0144.0204.1212.0396.2436.06.3648l.0684 8.6844c-.0516-.0228-.1032-.0456-.156-.0696v2.3508c.0624-.0108.1128-.0192.174-.03l.06 7.4724c-.27-.5628-.5364-1.116-.786-1.6368-1.1652.612-2.0448 1.0752-3.2292 1.6968 1.488.8856 2.7672 1.6464 4.0344 2.4l.06 7.608h-.408v.3852h.4116l.0264 3.312-7.248 4.2108c-.2328-.48-.462-.9528-.6948-1.4352-.408.8412-.81 1.674-1.2396 2.5596l-5.7276 3.3288c-1.692-.3888-3.2868-.7548-4.944-1.1352-.5676 1.7736-1.0824 3.3852-1.5732 4.9212l-1.3548.7872h-.4596v.2664l-26.1912 15.2172c-.5628-.1596-1.2216-.3468-2.2956-.6528.7848.8844 1.014 1.3188 1.1796 1.2948.006-.0012.0132-.0036.0192-.0048l-16.1052 9.3576v-.0768h-.3852v.3l-19.7376 11.4672c-.7428-.6072-1.3788-1.1256-2.5392-2.0736-.0852 2.1828.2904 2.9484 1.0884 2.9172l-6.0696 3.5268-1.4904.8604-1.4904-.8604L160 375.764v-89.1408h.5136v-.3852H160v-6.2472h1.2696c.2448-.318.4884-.636.7332-.9528-.6444-.4644-1.2972-.936-2.0028-1.4436v-11.5308c.2772-.0564.5772-.1164.9576-.1932-.228-.2808-.4356-.534-.6396-.7848l8.478-4.8948c.0036.0216.0072.0432.0108.0636h1.9152l-.126-.9972c-.1032.0252-.2064.0492-.3108.0744l6.6264-3.8256L160 245.7428v-90.0132c.9324.4236 1.812.822 2.556 1.1604l.09544.25251.09204.2435c.22938.60674.46627 1.233 1.00532 2.65879v-4.3896c-1.9104-1.2744-2.9316-2.0424-3.7488-2.988V135.248l20.526-11.8512v.8124h.3852v-1.0344l2.874-1.6596h.9744v-.3852h-.3072l2.8188-1.6272c.0492.3708.0996.7404.15 1.1112.2004-.0156.402-.0324.6036-.048v-1.4988l1.4568-.8412v.0096h3.2556v-1.8888l59.094-34.1184c-.096.1596-.1932.3372-.294.5508.8304.9672 1.7568 2.0448 2.6652 3.102-.4308.9084-.7608 1.6044-1.236 2.604 1.66551-.08597 2.59806-.981 3.4473-1.89038l.29733-.32026c.44399-.4774.88604-.93263 1.42257-1.24776.93.9252 1.7892 1.9968 2.868 2.7612.534.3792 1.4688.192 2.8368.318-1.39147-2.93206-3.64194-4.09033-5.8326-5.1984l-.52414-.26585c-.60906-.3111-1.20767-.62907-1.77566-.99175-.2748.24-.6708.5856-1.074.9372-.4632-.2796-.9108-.9348-1.4088-1.1628l.978-.564L255.6916 80zm4.8012 341.0484c-.2664.3108-.5316.6228-.798.9348-.312.2652-.6228.5316-.9336.7968l.3636.3636c.2664-.312.5316-.6228.798-.9348.312-.2652.6228-.5316.9336-.7968zm4.4052-2.31l-.3648.3648.9444.804.0192-.0192c.1416.7248.2832 1.4508.4248 2.1756.2496-.0336.498-.0672.7464-.1008-.0636-.7356-.1272-1.4712-.1896-2.2068-.2988.0156-.5976.0312-.8952.0456l.12-.12c-.2688-.3144-.5376-.6288-.8052-.9432zm-10.5204-2.7996c.138 2.5788.138 2.5788 2.5608 3.462-.9648-1.3044-1.6164-2.1852-2.5608-3.462zm8.6832-1.728h-1.9152l.126.9972c.6252-.15 1.2516-.2988 1.878-.4488-.0288-.1824-.0588-.366-.0888-.5484zm18.6852.1872h-1.1544v.3852h1.1544v-.3852zm-21.9372-1.1544h-1.1544v.3852h1.1544v-.3852zm4.6188-1.2504h-2.31v.5772h2.31v-.5772zm15.9528-1.2468h-1.9152c.042.3324.084.6648.1248.9984l1.8792-.4488c-.03-.1836-.0588-.366-.0888-.5496zm6.8628-5.1156l-1.92774 1.92754c-.09684.09681-.19292.19286-.28872.2886l-1.16634 1.16546c1.0716.5928 2.076 1.1484 3.7536 2.076-.15-2.1996-.2472-3.6288-.3708-5.4576zm-41.9028 4.11c1.2732-3.0372.0372-2.8476-1.47-2.3532.4632.7416.9072 1.452 1.47 2.3532zm-24.7884-1.1148h-1.1544v.384h1.1544v-.384zm40.2324-3.6504h-3.066c.0036.3408.0084.6816.012 1.0224 1.0344-.1392 2.0688-.2784 3.1032-.4188-.0168-.2004-.0336-.402-.0492-.6036zm-17.5248-.1992h-.3852v1.1544h.3852v-1.1544zm40.4112 0h-.3852v1.1544h.3852v-1.1544zm-51.5724.3852h-1.1544v.3852h1.1544v-.3852zm20.28-3.8988c-.7776 1.0716-2.5548 1.4196-1.3044 3.5652.2124-.29225.49897-.53078.7781-.76664l.18408-.1574c.66435-.57983 1.17582-1.21156.34222-2.64116zm-11.0436 2.7444h-1.1544v.3852h1.1544v-.3852zm-15.48-3.7416c-.2688.3132-.5364.6288-.8052.9432l.018.018c-.4644.0924-.882.1752-1.0596.21l.03906.18865c.11095.53655.27427 1.33015.43854 2.12375.1908-.1296.3828-.2592.5748-.3888.0468-.63.0936-1.2696.1464-1.9956.0228.0228.0456.0468.0684.0696.3144-.2688.6288-.5376.9432-.8052zm21.2532 2.5872h-1.1544v.384h1.1544v-.384zm-7.3128-1.5396h-.384v1.1544h.384v-1.1544zm9.2328-2.2044c-.1884.0252-.378.0504-.5688.0756v1.9176l.99-.0648c-.1404-.642-.2808-1.2852-.4212-1.9284zm37.0476-1.8948c-.6276.2976-1.4124.6684-1.9932.9444.7548.936 1.2048 1.4928 1.9932 2.4696zm-21.648 2.0784h-2.31v.5772h2.31v-.5772zm-3.6756-1.2456h-1.9152c.042.3324.084.6648.1248.9972.6264-.15 1.2528-.2988 1.8792-.4488-.03-.1824-.0588-.366-.0888-.5484zm-35.9664-.198h-.384v1.1544h.384v-1.1544zm21.9384 0h-.3852v1.1544h.3852v-1.1544zm27.8976-.9432c-.33.0216-.66.0432-.9888.0648l.42 1.9284.5688-.0756zm-36.9612-.0144h-1.9152l.1248.9984c.6264-.15 1.2528-.2988 1.878-.4488-.0288-.1836-.0588-.366-.0876-.5496zm58.7112-.1968h-.3852v1.1544h.3852v-1.1544zm-13.47.3852h-1.1556v.3852h1.1556v-.3852zm-43.4208-.2568c.6888-1.6644.912-2.886-.9396-2.3496.282.7068.6108 1.5276.9396 2.3496zm-34.3236-2.4372h-.384v1.1544h.384v-1.1544zm4.2444-.4248c-.3324 1.3272-.3324 1.3272 1.2504 1.2516l-.34634-.34637c-.31704-.3171-.68035-.68066-.90406-.90523zm94.236-1.188c.1332-3.372-.8208-3.39-2.7624-2.256.8508.6948 1.4856 1.2144 2.7624 2.256zm-93.6456-2.2392c-1.2636-1.95-1.4676-5.1936-5.6028-3.9648.79406 1.12114 1.54266 2.17763 2.28007 3.2185l1.102 1.55573.55273.78057c.6024-.5748 1.1292-1.0764 1.668-1.59zm84.4548.7728h-1.1544v.3852h1.1544v-.3852zm-55.4208 0h-1.1544v.3852h1.1544v-.3852zm-6.9276-2.3088h-1.1544v.384h1.1544v-.384zm73.5096-1.5396h-.3852v1.1544h.3852v-1.1544zm-104.4096-5.5836v4.2396c.8148-.5544 1.5612-1.062 3.1152-2.1204-1.554-1.0572-2.3004-1.5648-3.1152-2.1192zm138.996-1.1832c-.5028-.0228-1.1736-.1548-1.4688.1068-.3168.282-.2844.9588-.4044 1.464.5232-.138 1.074-.2136 1.5576-.4368.16663-.0768.29917-.22844.42538-.39312l.18805-.24909.09697-.11739c-.132-.132-.258-.3684-.3948-.3744zm-16.4124-4.6728l-.3636.3636c.312.2664.6228.5316.9348.798.2664.312.5316.6228.7968.9348l.3648-.3648c-.312-.2652-.6228-.5316-.9348-.7968-.2664-.312-.5316-.6228-.798-.9348zm-110.7264 1.62c.9024-2.4288.5964-3.24-1.2696-2.7384.3552.7656.7212 1.5552 1.2696 2.7384zm122.9736-7.0848c-2.3604.4716-4.0692.8136-5.9928 1.1976.732.6372 1.2936 1.1244 1.6476 1.4328 1.0428-.192 2.01-.3696 3.4176-.6288-1.2348 1.4772-2.04 2.4408-3.1248 3.7392 2.5956 1.3536 3.9516.6768 5.1984-1.0212-.03902-.38992-.0234-.80518.00262-1.2233l.0357-.53739c.08043-1.24935.0838-2.43784-1.18432-2.95891zm-5.79 5.6472h-2.3088v.5772h2.3088v-.5772zm-128.3568-2.4156c-.3336.042-.666.084-.9984.1248.15.6264.2988 1.2528.4488 1.8792.1824-.03.366-.06.5496-.0912zm-26.7444-3.6468h-.384v1.1556h.384v-1.1556zm144.4344-1.1856c-.6432.1404-1.2864.2808-1.9284.42.0252.1896.0516.3792.078.5688h1.914c-.0216-.33-.042-.6588-.0636-.9888zm30.1164-.924h-3.066c.0036.3408.0072.6816.012 1.0224 1.0344-.1392 2.0676-.2796 3.1032-.4188-.0168-.2016-.0336-.4032-.0492-.6036zm-33.5928-2.508h-.5784v3.4632h.5784v-3.4632zm15.27-1.8564c-1.0716 1.3104-1.8144 2.2164-2.556 3.1236.18.3588.36.7164.54 1.0752l.58948-.04575a15393.8051 15393.8051 0 014.64492-.35985c-1.3596-1.602-2.1132-2.4912-3.2184-3.7932zm-7.2072.6612c-.6264.15-1.2528.2988-1.8792.4488.03.1824.06.366.0888.5484h1.9152c-.042-.3324-.084-.6648-.1248-.9972zm1.4616-4.29h-2.3088v.5772h2.3088v-.5772zm-54.6504-6.0612h-.3852v1.1544h.3852v-1.1544zm-105.4332-2.808c-.696.8496-1.2144 1.4856-2.2572 2.7624 3.3732.132 3.3912-.8208 2.2572-2.7624zm74.5104.5676c-.7356.0624-1.4712.126-2.2068.1896.018.3324.0348.6648.0516.9972.7524-.1476 1.5048-.294 2.256-.4416l-.1008-.7452zm34.7712.3156h-1.1544v.3852h1.1544v-.3852zm-36.1776-2.694h-.384v1.1544h.384v-1.1544zm3.4644 0h-.3852v1.1544h.3852v-1.1544zm10.4772-2.0304c-.7308.426-1.4604.852-2.2296 1.3008.9624.888 1.4808 1.3668 1.914 1.7664.6684-.5868 1.2348-1.0836 1.8024-1.5804l-.39566-.39566-.69367-.69367zm86.8932 2.4156h-1.1544v.3852h1.1544v-.3852zm-90.5616-3.8988c-.16495.2273-.37481.42206-.5912.60832l-.18616.15812c-.74386.62868-1.43522 1.23832-.52584 2.79876.16495-.2273.37487-.42211.59132-.60844l.18623-.1582c.74415-.62896 1.4359-1.239.52565-2.79856zm-68.772 1.59h-1.1556v.384h1.1556v-.384zm65.4264-1.5396h-.384v1.1544h.384v-1.1544zm-80.826-1.05l-.5688.0756v1.9176c.33-.0216.66-.0432.9888-.0648-.1392-.642-.2796-1.2852-.42-1.9284zm58.8888-.1044h-.3852v1.1544h.3852v-1.1544zm-42.72-1.1556h-.3852v1.1556h.3852v-1.1556zm62.3484 0h-.3852v1.1556h.3852v-1.1556zm46.1832 0h-.384v1.1556h.384v-1.1556zm-41.1804.3852h-1.1544v.3852h1.1544v-.3852zm-20.25-3.8928c-.672.9444-1.314 1.8456-1.9548 2.7468.2928.3144.5856.63.8796.9444.9888-.5676 1.9776-1.1364 3.0264-1.74l-1.9512-1.9512zm4.4808 1.9296c-.3324 1.3272-.3324 1.3272 1.2504 1.2504a427.13478 427.13478 0 01-.54063-.54013l-.3862-.3865a1087.24629 1087.24629 0 00-.32357-.32377zm26.1612.8088H257.5v.3852h1.1544v-.3852zm-11.9304-1.5396h-.3852v1.1544h.3852v-1.1544zm-3.2628-.9576h-1.914c.0204.33.042.66.0636.9888.6432-.1404 1.2864-.2796 1.9284-.42l-.078-.5688zm19.5036-.2364l-1.878.4476c.0288.1836.0588.366.0876.5496h1.9152c-.042-.3324-.0828-.6648-.1248-.9972zm-25.2756-.918h-1.9152c.0204.33.042.6588.0636.9888.6432-.1404 1.2864-.2796 1.9284-.42-.0252-.1896-.0516-.3792-.0768-.5688zm79.5612-2.5068h-.5772v2.31h.5772v-2.31zm30.3072.2892h-2.3088v.5772h2.3088v-.5772zm-113.1504.096h-1.1544v.3852h1.1544v-.3852zm73.5336-3.7032l-.6048.054v3.066c.3444-.0216.6888-.042 1.032-.0624-.1416-1.02-.2844-2.0388-.4272-3.0576zm-87.7728 1.0092h-.3852v1.1544h.3852v-1.1544zm11.7408-2.1096c-.3444.0204-.6876.0408-1.0308.0624l.4272 3.0576c.2016-.018.4032-.0372.6036-.0552zm-3.6828 1.0776c-.1836.03-.366.0612-.5496.0912v1.9128c.3324-.042.666-.084.9972-.1248-.1488-.6264-.2976-1.2528-.4476-1.8792zm99.4152-5.8956h-.5772v4.6188h.5772v-4.6188zm-7.0236 3.4644h-.3852v1.1544h.3852v-1.1544zm-9.7728-3.828c-.9468.8736-1.8948 1.7472-3.2148 2.9652 1.1532.7548 1.9128 1.2516 2.6724 1.7496.4524-1.0764 1.0308-2.4504 1.6092-3.8244-.3564-.2976-.7116-.594-1.0668-.8904zm-7.5468 1.518h-.384v1.1544h.384v-1.1544zm-77.358 0h-.384v1.1544h.384v-1.1544zm76.1316-2.2632c-3.3732-.1332-3.3912.8208-2.256 2.7636.6948-.8508 1.2132-1.4868 2.256-2.7636zm-117.312-2.3544c-1.578 1.158-1.5804 2.2968-.0084 3.456l-.1116.1116.804.9432.3636-.3636c-.3144-.2676-.6288-.5364-.9432-.8052-.0348.0348-.0696.0696-.1044.1056zm154.236-1.1532c-.2556.1332-.5112.2652-.7668.3972.4164 1.0284.93 2.0304 1.2252 3.0924.4752 1.7064 1.3152 1.3644 2.3316.57-.936-1.362-1.8624-2.7108-2.79-4.0596zm-101.124 1.4556h-2.4504c.072.35691.13232.6552.18974.9386l.11358.55988c.03831.18865.07794.38363.12148.59792.8028-.1668 1.4412-.3 2.0256-.4224v-1.674zm-51.7788-3.1008c-.8832.786-1.3176 1.0152-1.2948 1.1796.078.552.3204 1.0812.4992 1.6188.198-.696.396-1.392.7956-2.7984zm44.4432.6108c-.1836.0312-.3672.0612-.5496.0912v1.9128c.3324-.0408.6648-.0828.9972-.1248-.15-.6264-.2988-1.2528-.4476-1.8792zm66.2196 1.4172h-1.1544v.3852h1.1544v-.3852zm-2.694-1.5396h-.384v1.1544h.384v-1.1544zm17.3196 0h-.3852v1.1544h.3852v-1.1544zm-23.0928-1.1544h-.384v1.1544h.384v-1.1544zm48.6024-.0312c-.642.1404-1.2852.2808-1.9284.42.0264.1896.0516.3792.078.5688h1.9152c-.0216-.33-.0432-.6588-.0648-.9888zm-50.526.4164h-1.1544v.3852h1.1544v-.3852zm-98.1408 0h-1.1556v.3852h1.1556v-.3852zm141.7272-2.694h-.5772v2.3088h.5772v-2.3088zm-46.3044.1224c-.1824.03-.366.06-.5484.0912v1.9128c.3324-.042.6636-.084.996-.1248-.1488-.6264-.2976-1.2528-.4476-1.8792zm-57.654-1.2768h-1.674v2.4504c.35691-.072.6552-.13232.9386-.18974l.55988-.11358c.18865-.03831.38363-.07794.59792-.12148-.1668-.8028-.3-1.4412-.4224-2.0256zm-3.132.3024h-2.4504c.1692.8328.2736 1.3464.4248 2.0964.8028-.1668 1.4424-.3 2.0256-.4224v-1.674zm57.5196 1.0488h-1.9152c.042.3324.084.6648.1248.9972l1.8792-.4476c-.03-.1836-.0588-.366-.0888-.5496zm10.218-1.3512h-.3852v1.1544h.3852v-1.1544zm-.6384-1.608c-2.0784-.6564-3.0156-.3468-2.3796.852.6864-.246 1.5324-.5484 2.3796-.852zm57.4092-2.8116c-.3444.0204-.6876.0408-1.032.0624.1428 1.0188.2856 2.0376.4284 3.0576.2004-.018.402-.036.6036-.054zm-162.7944-4.4472c-1.014.9492-2.028 1.8984-3.0732 2.8764v2.7804c3.78897-1.06174 3.41244-3.28178 3.11314-5.3726zm133.734 4.248h-.3852v1.1544h.3852v-1.1544zm-95.448.2892h-3.4632v.5772h3.4632v-.5772zm103.3716-131.1168c-.2232.4272-.4992.9948-.8268 1.5576 4.0332-.5256 7.7424-1.008 11.6172-1.5132v-.0444h14.3604v46.6392a20.8283 20.8283 0 01-.2472-.2112l-.798-.9336-.3636.3636c.312.2652.6228.5316.9348.7968.1572.186.3156.3708.474.5568v5.5116c-.0828.174-.1596.3372-.2448.5196.0816.0108.1632.0228.2448.0336v8.0724c-.666-.7548-1.452-1.1412-2.9712-.546.5676 1.1712 1.0224 2.1096 1.542 3.1812.4296-.108.8844-.2244 1.4292-.3624v.54l-1.0512.6072a15.40018 15.40018 0 00-.0872-.1184l-.19242-.25565c-.17165-.2263-.37378-.4904-.62278-.82715-.6072.9132-1.2252 1.842-1.86 2.796l-2.7048 1.5612v-.6h-.3852v.822l-10.008 5.778 7.692 4.44c-.6012.324-1.2312.6636-2.064 1.1124 1.9992.7392 2.9244.6792 2.802-.6864l2.9928 1.728c-1.434.7824-2.832 1.7484-4.5468 2.8188.55224 1.10136 1.08916 2.17208 1.86775 3.72614l.37745.75346c.4152-2.0244.6456-3.1476 1.1412-5.5692.9312 3.5328 1.5216 5.772 2.1216 8.0508h1.6692c1.3428-3.4188-3.5892-5.7324-1.716-9.1188h.2304l1.9812 1.1436c.5508.3564 1.1364.7344 1.836 1.1868.0024-.0432.0048-.0792.0084-.1212l.5184.2988v6.7728c-.5412.042-1.0344.0804-1.8708.1452.75.7848 1.254 1.3116 1.8708 1.956v1.1388c-.2436-.4344-.4968-.8856-.7764-1.3836-1.236 1.7568-.4512 2.526.7764 2.934v5.7732c-.0852.0852-.1704.1692-.2544.2544.084.072.1692.144.2544.2172v4.074c-.6672.0888-1.4496.342-2.5728.7092 1.4544.1584 2.0916.966 2.5728 1.944v6.8244h-.3612v.3852h.3612v1.296h-2.79c-.234-.564-.4896-1.1664-.7836-1.8468-.1008.6468-.1416 1.2552-.1656 1.8468h-24.8328v-.1416h.5004v-.384h-.5004v-16.0188l-18.4008-10.6236-.3492-.2016c-.7176-1.4952-1.4388-2.9952-2.154-4.4832.3768-.1368 1.044-.3768 1.3896-.5028-1.98-1.7688-4.0152-3.588-6.2784-5.6112-2.286 1.0116-4.356 1.9284-6.4032 2.8344l-21.954-12.6756v-.4416h-.3852v.2196l-12.6048-7.2768-14.8092 8.3172-1.4808.8316-1.4688-.8496-12.948-7.4748c-.1248-.2568-.2496-.5112-.3756-.7692-.0552.156-.1068.3048-.162.4584l-4.2588-2.4588v-.234h-.3852v.012l-4.2576-2.4588-.222-.1272-4.506-2.5944 43.4172-24.7812 1.4856-.8472 24.0264 13.8708v.7608h.576v-.4272l25.5972 14.778 10.7856-6.2268c.2616.2724.5328.5568.8484.888.0072-.5244-.018-.9684-.0912-1.326l5.3688-3.0984v-10.3608h.1152v-1.1544h-.1152v-29.964c.6564.4776 1.3572.9876 2.2572 1.6416v-4.1364c-.5928-.3192-1.3716-.7392-2.2572-1.2168v-2.4744zm11.1432 111.9852v3.7536h6.3624c-1.7136-1.0032-2.6112-1.524-3.5052-2.052-.834-.492-1.6632-.9912-2.8572-1.7016zm.1644-1.8372h-4.6644c1.008 1.302 1.464 1.89 2.0976 2.7084.9564-1.0092 1.5816-1.668 2.5668-2.7084zm-9.9984-1.1532l-.5688.0756v1.9176c.33-.0216.6588-.0432.9888-.0636-.1404-.6432-.2808-1.2864-.42-1.9296zm-60.036-3.5688h-.384v1.1544h.384v-1.1544zm61.5792.2892h-2.3088v.5772h2.3088v-.5772zm-54.6516-1.4436h-.384v1.1544h.384v-1.1544zm75.0492-2.3088h-.3852v1.1544h.3852v-1.1544zm-7.8012-.1212c-.3156.2688-.63.5364-.9432.8052l.3636.3636c.2676-.3144.5364-.6288.804-.9432zm-59.1888-.9108c-.1824.03-.366.06-.5496.09v1.914c.3324-.042.6648-.084.9984-.1248-.15-.6264-.2988-1.2528-.4488-1.8792zm60.6264-1.7652c-.8832.7848-1.3188 1.014-1.2948 1.1784.078.552.3192 1.0812.4992 1.6188.198-.696.396-1.392.7956-2.7972zm1.746.4872h-.3852v1.1556h.3852v-1.1556zm4.806-2.0976c-.33.0216-.66.0432-.9888.0648l.42 1.9284.5688-.0756zm-70.6236-.1068c-.1896.0264-.378.0516-.5676.0768v1.9164c.3288-.0204.6588-.042.9888-.0636l-.4212-1.9296zm62.9376-4.368v5.526c.25337-.0528.48647-.10139.71246-.1485l.6699-.1397 1.09804-.229c-.7824-1.5804-1.4136-2.8536-2.4804-5.0088zm-6.1008.8196c-.81.054-1.4316.0948-2.2032.1464.6996 1.0812 1.2288 1.8996 1.758 2.7168.1788-.1704.3588-.342.5388-.5136.048.6624.0972 1.3296.1632 2.2296.81-.054 1.4304-.0948 2.202-.1464-.6984-1.0812-1.2276-1.8996-1.7568-2.718-.1788.1716-.3588.3432-.5388.5148-.048-.6624-.0972-1.3296-.1632-2.2296zm-46.056 2.6748h-1.1544v.384h1.1544v-.384zm-3.66-2.5116c-.3336.042-.666.0828-.9984.1248.15.6264.2988 1.2528.4488 1.8792.1824-.03.366-.0612.5496-.0912zm-116.6748.2448c-3.1344-.1908-3.1344-.1908-2.844 1.0188.3852-.138 1.2312-.4416 2.844-1.0188zm60.1764-4.8276h-4.3536c1.9968 1.1808 3.0912 1.8276 4.4736 2.6448v1.7388c-.0348-.0348-.0696-.0696-.1056-.1044-.3144.2676-.6288.5364-.9432.8052.1212.1212.2424.2424.3648.3636.2676-.3144.5364-.6288.8052-.9432l-.1116-.1116c.7632-.5568 1.53-1.1148 3.1584-2.3028h-3.126c-.0708-.9132-.1164-1.506-.162-2.0904zm61.116 3.4284c-.3324.042-.6648.0828-.9972.1248.15.6264.2988 1.2528.4488 1.8792.1824-.0312.366-.0612.5484-.0912zm-49.5048 1.9428c-2.8176-3.2952-2.8176-3.2952-3.3036-2.8092v2.8092zm-56.5212-.5868h-1.1544v.3852h1.1544v-.3852zm13.8552-1.1544h-1.1544v.3852h1.1544v-.3852zm76.2036 0h-1.1544v.3852h1.1544v-.3852zm70.3224-2.3916h-3.4968c.168.8328.2724 1.3464.4968 2.4516.9672-.7896 1.602-1.3092 3-2.4516zm-6.3096-7.0632c-2.3004 2.9988-2.16 6.0084.0648 8.9748.5892-1.8588 1.0824-3.3936 1.5648-4.9308.5712-1.8288.0624-3.2148-1.6296-4.044zm-163.9092.9612c-.5592-.1572-.6396-1.4988-1.8132-.5232.1569.57301.28402 1.1645.41183 1.75508l.08564.39337c.60492 2.74966 1.37258 5.3856 5.40173 5.93715-1.2048-1.2108-2.4096-2.4216-3.8088-3.8256.7932-1.2348 1.2648-1.968 2.0124-3.1332-1.056-.2772-1.6752-.432-2.2896-.6036zm8.298 5.7996h-.384v1.1544h.384v-1.1544zm91.2924-.9252c-.21051.13131-.41897.26145-.63035.39347l-.6479.40471c-.33333.20823-.68444.42753-1.07015.66822 3.0336 1.2708 2.8524.0432 2.3484-1.4664zm-7.0296-.1068c-.1836.03-.366.0612-.5496.0912v1.9128c.3324-.042.6648-.084.9972-.1248-.1488-.6264-.2976-1.2528-.4476-1.8792zm-4.2108 1.4172h-1.1544v.3852h1.1544v-.3852zm-39.5112-3.8316c-.2117.1685-.46218.32504-.7111.49055l-.18577.12615c-.85966.59956-1.5767 1.37315-.42193 3.2185 1.0284-.7368 1.8912-1.3548 2.7588-1.9764-.5028-.648-.9276-1.1964-1.44-1.8588zm-28.638.1452c.126 2.1.9276 3.2112 3.3264 3.3492-1.1928-1.2012-2.1564-2.1708-3.3264-3.3492zm120.9732.9924h-.5784v2.3088h.5784v-2.3088zm-8.0832 0h-.5772v2.3088h.5772v-2.3088zm-74.952-1.0584h-1.9248v3.2712h1.9248v-3.2712zM206.5 269.9c-.33.0216-.6588.0432-.9888.0636l.42 1.9296c.1896-.0252.3792-.0504.5688-.0768zm-39.2712-.0144h-1.914c.0408.3324.0828.6648.1248.9972.6264-.1488 1.2528-.2988 1.878-.4476-.0288-.1836-.0588-.366-.0888-.5496zm16.3764.1884h-1.1544v.384h1.1544v-.384zm57.3444-1.5396h-.384v1.1544h.384v-1.1544zm-15.0948-5.6664c-.2688.3144-.5364.6288-.8052.9432.036.036.0732.072.1092.108-1.1628.378-2.3244.7572-3.6276 1.1808 1.032 1.4256 1.758 2.43 2.4852 3.4344.3852-.4524 1.0212-.8652 1.1016-1.3668.1716-1.0536.054-2.154.0528-3.2352l.1044.1044c.3144-.2688.6288-.5364.9432-.8052l-.3636-.3636zm-61.1088 4.5108h-.384v1.1556h.384v-1.1556zm112.074-.0396c-.6264.15-1.2528.2988-1.8792.4488.03.1824.06.366.0888.5484h1.9152c-.042-.3324-.0828-.6648-.1248-.9972zm58.038.3288h-2.3088v.5772h2.3088v-.5772zm-66.9672 0h-2.3088v.5772h2.3088v-.5772zm26.0556-2.568c.7656-.0408 1.5384-.108 2.2668.0048.9408.9408 1.962 1.8348 2.7972 2.8788.0084.012.0048.0348.0132.048zm29.5644-.4908v2.502h5.0484c-1.8672-.9264-3.09-1.5324-5.0484-2.502zm-139.9056 1.9044h-2.3088v.5772h2.3088v-.5772zm19.6284.096h-1.1544v.3852h1.1544v-.3852zM228.25 265.07h-.3852v1.1544h.3852V265.07zm108.9168.3852h-1.1544v.3852h1.1544v-.3852zm-121.5216-2.694h-.5772v2.3088h.5772v-2.3088zm24.5856.5028c-1.55956-.91026-2.1696-.2185-2.79856.52565l-.1582.18623c-.18633.21645-.38113.42637-.60844.59132 1.49542.87233 2.11762.27336 2.7202-.43302l.23669-.27886c.18625-.21645.381-.42638.60831-.59132zm-71.6352 1.0368h-1.1544v.384h1.1544v-.384zm64.7412-2.5044h-4.1448c1.5024 1.098 2.3916 1.7484 3.654 2.67.2124-1.1532.33-1.7952.4908-2.67zm90.6804-2.508c-1.6764 1.1556-2.4588 2.4576-1.4112 4.6356 1.6764-1.1544 2.4588-2.4564 1.4112-4.6356zm-15.1464-3.4932c-1.6464-.2556-2.0508.966-3.0012 2.0268 1.1916.198 2.2416.3732 2.8524.4752 2.34 1.4568-.1248 4.98 2.7504 5.5992 1.6512-1.6356 3.1032-3.0756 5.0508-5.0052-1.9752-2.3544-4.8096-2.6568-7.6524-3.096zm-132.3936 3.6768c-.3288.0336-.6588.066-.9888.0984.0924 1.386.1836 2.772.2748 4.1592.2376-.0132.4764-.0264.714-.0384zm35.796 1.1628c-.3324.042-.6648.0828-.9972.1248.1488.6264.2988 1.2528.4476 1.8792.1836-.0312.366-.0612.5496-.0912zm58.806.9408c-.6432.1392-1.2864.2796-1.9284.42.0252.1896.0516.3792.0768.5688h1.9152c-.0204-.33-.042-.66-.0636-.9888zm-34.7472-1.1244h-.3852v1.1556h.3852v-1.1556zm101.7012-1.1544h-.5772v2.31h.5772v-2.31zm-139.752-13.6944c.5604 1.092.9552 1.8084 1.3032 2.5464.35573.75333.7798 1.48018 1.21513 2.20281l.32773.54154c.05467.09024.1093.1805.16378.27083l.32404.54309c1.22807 2.08748 2.25465 4.2553 1.72412 7.03293-.1488.7824 1.0908 1.83 1.6908 2.7552-.55102-1.3827-.0129-2.64864.60696-3.90285l.28105-.56395c.80822-1.62897 1.49918-3.26473-.14041-5.138-2.0772-2.376-3.3672-5.4612-7.4964-6.288zm129.288 12.6852l-.6048.054v3.066c.3444-.0216.6876-.042 1.032-.0624-.1428-1.02-.2844-2.0388-.4272-3.0576zm-8.8764 2.5488h-1.1544v.3852h1.1544v-.3852zm-101.7876-1.3416h-1.914c.0204.3288.042.6588.0636.9888.6432-.1404 1.2864-.2808 1.9284-.4212l-.078-.5676zm75.24-1.9368l-.15983.15983-.78755.78755-.59942.59942c-.9732-.3708-1.8516-.7056-2.9004-1.1052.7296.9996 1.2396 1.6968 1.7904 2.4516h5.5416c-.7716-.774-1.8288-1.8348-2.8848-2.8932zm-117.9744.7956c-.3288.0216-.6588.0432-.9888.0648.1404.6432.2808 1.2852.42 1.9284l.5688-.0756zm126.7332-.1044c-.2664.312-.5316.6228-.798.9348-.3108.2652-.6228.5316-.9336.7968.1212.1212.2424.2424.3636.3648l.798-.936c.312-.2652.6228-.5304.9336-.7968l-.3636-.3636zm-80.736-.1068h-.3852v1.1544h.3852v-1.1544zm7.3116.3852h-1.1544v.3852h1.1544v-.3852zm-48.8772-1.5396h-.3852v1.1544h.3852v-1.1544zm-2.4828-7.962c1.7544 3.486 3.1728 6.3036 4.5876 9.1164h1.4652c.0888-.6444.1092-1.3512.2976-2.0088.2232-.7788.5916-1.5156.8976-2.2704-1.4724-1.4724-2.88-3.0228-4.4592-4.3716-.4788-.4092-1.4304-.264-2.7888-.4656zm114.408 4.6944c-1.1148.5772-2.0508 1.0632-3.0024 1.5564.9684.498 1.9308.9912 2.8932 1.4856l-.5256-1.0116c.8124-.102 1.6248-.2052 2.4936-.3144-.9912-.9144-1.5096-1.3932-1.8588-1.716zm32.784 2.4972h-1.1544v.3852h1.1544v-.3852zm-110.0724-1.5384h-.384v1.1544h.384v-1.1544zm114.9684-6.7284c-.2892 4.9008.51 7.8828 2.4516 7.8828.3348-.2832.8892-.75 1.4592-1.2312-.4092-2.082-.7488-3.8112-1.074-5.4612-.9828-.4128-1.8936-.7944-2.8368-1.1904zm-21.5736 4.9428c-1.29 1.0152-2.1168 1.6656-3.5568 2.7984h4.1568c-.144-.6708-.3132-1.4592-.6-2.7984zm7.4916 1.2828c-1.0716-.7776-1.4208-2.5548-3.5652-1.3044 1.0716.7776 1.4208 2.5548 3.5652 1.3044zm16.008-11.9808h-6.378c-1.2624 1.9764-1.434 4.3332-3.7164 4.9164-.252 1.6488-.4932 3.228-.81 5.3004.1512.294.6408 1.2468.9948 1.9392l.21961-.12779.44426-.25843c.44133-.25671.86133-.50098 1.14693-.66738-.588-1.1412-.9144-1.7712-1.194-2.3124 1.9476-2.478 3.7296-4.746 5.4144-6.8904h3.8784v-1.8996zm-100.344 11.7132h-1.1556v.3852h1.1556v-.3852zm-3.7392-1.5708l-1.9296.4212c.0264.1884.0516.378.078.5676h1.9152c-.0216-.3288-.0432-.6588-.0636-.9888zm76.6716-3.5412c-2.6544.27-3.594 1.2576-3.6852 3.7068 2.1936-.3228 3.3384-1.0704 3.6852-3.7068zm14.4312 2.418h-.384v1.1544h.384v-1.1544zm-102.7584 0h-.3852v1.1544h.3852v-1.1544zm3.5604-1.1544h-.5784v2.3088h.5784v-2.3088zm-9.318-.9972c-.1956.0204-.3912.0408-.5856.0612v3.066c.3408-.0336.6816-.0672 1.0212-.1008-.1452-1.0092-.2904-2.0184-.4356-3.0264zm-18.5244-2.8236c-2.8416 1.104-3.4692 2.55-2.7852 4.7724 2.5596.6756 3.8052-.3276 4.3932-2.2236-.6432-1.02-1.206-1.9128-1.608-2.5488zm115.4952 3.8208h-.3852v1.1544h.3852v-1.1544zm8.4672.3852h-1.1556v.384h1.1556v-.384zm31.0248-5.0904c-1.1496.1656-2.1564.3108-3.1632.456.558.6516 1.1328.6036 1.572.8256.4752.24.8232.732 1.7304 1.59-.0696-1.4256-.0936-1.9344-.1392-2.8716zm-100.3008 1.53h-2.31v.5772h2.31v-.5772zm-36.9468.096h-1.1556v.3852h1.1556v-.3852zm124.6968 0h-1.1556v.3852h1.1556v-.3852zm-32.5416-1.3416h-1.9152l.126.9972c.6264-.15 1.2528-.2988 1.8792-.4488-.03-.1824-.06-.366-.09-.5484zm-37.1196-1.3524h-.3852v1.1544h.3852v-1.1544zm-57.528-.9576h-1.9152c.0216.33.042.66.0636.9888.6432-.1404 1.2864-.2796 1.9296-.42-.0264-.1896-.0516-.3792-.078-.5688zm39.4392.1884h-1.1544v.384h1.1544v-.384zm-2.31 0h-1.1544v.384h1.1544v-.384zm46.9536-1.5396h-.384v1.1544h.384v-1.1544zm-80.436.3852h-1.1544v.384h1.1544v-.384zm16.6344-4.8972l-.3636.3636c.3144.2688.6288.5364.9432.8052l.1044-.1044v1.9812c1.4292.4704 2.9256 1.0308 4.464 1.4232.3912.0996.9168-.336 1.7688-.6828-.822-1.0908-1.4688-1.9476-2.064-2.7384h-4.152l.1044-.1044c-.2688-.3144-.5364-.6288-.8052-.9432zm108.456 2.9328l-.06339.25607c-.26028 1.07077-.15865 1.06592 1.31499.99553l-.34637-.34658c-.3171-.31739-.68066-.6813-.90523-.90502zm-14.2488.8088h-1.1556v.3852h1.1556v-.3852zm-113.8428-1.5012c-.552.078-1.08.3204-1.6176.4992.696.198 1.392.396 2.856.8136-.8352-.9084-1.0692-1.3368-1.2384-1.3128zm143.5068-3.276c-.9636.9264-1.9416 1.8672-2.3916 2.2992.234.5808.5628 1.4016.8652 2.1552 1.812-1.3836 2.454-2.7168 1.5264-4.4544zm-107.4072 3.2388h-.3852v1.1544h.3852v-1.1544zm80.9184-1.1556h-.5784v2.31h.5784v-2.31zm-100.5468 1.1556h-.3852v1.1544h.3852v-1.1544zm-18.7728-1.0488l-.3648.3648.9444.804.2256-.2256zm-1.7796-1.0524h-4.3548V239.3c1.6092.7092 2.934.5796 3.9648-.8304.1608-.2208.2256-.5124.39-.9012zm68.064 1.1436h-1.9152l.126.9972c.6264-.15 1.2516-.2988 1.878-.4488-.0288-.1824-.0588-.366-.0888-.5484zm-18.444-1.1556h-1.9152c.0216.33.042.66.0636.9888l1.9296-.42c-.0264-.1896-.0528-.3792-.078-.5688zm47.136-.1968h-.3852v1.1544h.3852v-1.1544zm-65.4276.3852h-1.1544v.3852h1.1544v-.3852zm108.5328 0h-1.1544v.3852h1.1544v-.3852zm-60.4248-1.5396h-.384v1.1544h.384v-1.1544zm-52.7268.3852h-1.1544v.384h1.1544v-.384zm9.2376 0h-1.1544v.384h1.1544v-.384zm-18.858-1.5396h-.3852v1.1544h.3852v-1.1544zm5.748-1.032c-.1824.03-.366.06-.5484.0912v1.9128l.9972-.126c-.1488-.6252-.2988-1.2516-.4488-1.878zm122.796 1.4172h-1.1544v.384h1.1544v-.384zm-2.1984-4.6752c-2.5308-.6768-4.1424-.2976-4.704 2.0004-.1608.66-.024 1.3932-.024 2.19h3.0744c.5796-1.47 1.1052-2.8032 1.6536-4.1904zm-128.7408 2.0868c-.2664.312-.5316.6228-.798.9348-.3108.2652-.6228.5316-.9348.798.1224.1212.2436.2424.3648.3636.2652-.312.5316-.6228.7968-.9348.312-.2652.6228-.5316.9348-.7968-.1212-.1212-.2424-.2436-.3636-.3648zm12.7764 1.4724c.3324-1.3272.3324-1.3272-1.2516-1.2504zm-44.8344-3.7092c-.3408.0348-.6816.0684-1.0224.102.1452 1.008.2916 2.0172.4368 3.0264.1956-.0216.39-.042.5856-.0624zm54.0804.9756h-.384v1.1544h.384v-1.1544zm14.2404.2892h-2.3088v.5772h2.3088v-.5772zm-85.2504-4.9908v4.1448c1.0968-1.5024 1.7472-2.3928 2.67-3.654-1.1532-.2124-1.7952-.33-2.67-.4908zm85.0308 2.592h-3.0648l.1008 1.0224c1.0092-.1452 2.0172-.2904 3.0264-.4368l-.0624-.5856zm-5.5536.186h-1.1544v.384h1.1544v-.384zm30.7188-2.8224c-.6876 1.6644-.9096 2.8848.9408 2.3496-.05664-.14136-.1151-.28733-.17503-.43697l-.37413-.93454c-.1286-.32126-.26012-.64977-.39164-.97809zm61.452-.8436c-.3324.042-.6648.0828-.9972.1248.15.6264.2988 1.2528.4488 1.8792.1824-.0312.366-.0612.5484-.0912zm-14.9172-.3036c-.3144.2676-.6288.5364-.9432.804.1212.1224.2424.2436.3636.3648.2688-.3144.5376-.6288.8052-.9432-.0372-.0384-.0756-.0756-.1128-.1128zm-71.8692-.9288l-.5688.0756v1.9176c.3288-.0216.6588-.0432.9888-.0648-.1404-.6432-.2808-1.2852-.42-1.9284zm94.2444-1.8696c.9792 2.4456.9792 2.4456 3.4956 2.5512-.4212-.3072-.80093-.58427-1.16973-.85342l-.73207-.53435c-.4904-.35798-.99753-.72823-1.5938-1.16343zm-19.6812-5.6904a23837.29691 23837.29691 0 01-1.23802 4.96064l-.33685 1.34874c-.11318.45312-.22775.91167-.34513 1.38142.1044-.0288.2064-.0384.3096-.0612l.28175-.0542c2.15145-.36182 4.1065.4647 6.06265-.8854-1.5672-2.214-2.9652-4.1904-4.734-6.69zm15.2388 1.2996c-1.7268 1.6932-3.1668 3.1056-4.8264 4.734 1.116 1.2324 2.4648 2.3376 4.2324.8916 1.9104-1.5624 1.5528-3.4104.594-5.6256zm-95.5704 3.846h-.3852v1.1544h.3852V222.35zm102.9072-2.4708c-.9012.2256-1.518.3792-2.322.5808.8364.7716 1.4376 1.3272 2.6628 2.4564-.1752-1.5576-.2448-2.1792-.3408-3.0372zm-3.078.9132l-.6822.21656c-.67073.21296-1.3104.41614-1.9494.61864.1836.2532.366.5064.5496.7584 1.038-.0804 2.0772-.162 3.6144-.2808-.6864-.5664-.9012-.7308-1.0992-.912-.168-.1536-.3228-.2976-.4332-.4008zm-101.754.7884h-1.1544v.384h1.1544v-.384zm-68.5068-2.6952h-.3852v1.1556h.3852v-1.1556zm161.6436 0h-.384v1.1556h.384v-1.1556zm7.6008-4.284c-.9672 1.8132-.1548 3.3876 1.4508 4.1676 1.452.7056 2.9664.0024 3.8676-1.4556-1.962-1.0008-3.6456-1.8588-5.3184-2.712zm-84.8808 3.09c-.6264.15-1.2528.2988-1.8792.4488.03.1824.0588.366.0888.5484h1.9152c-.042-.3324-.084-.6648-.1248-.9972zm71.7756-3.3252h-2.0028v4.272c.72586-1.54807 1.18085-2.51932 1.6086-3.43158l.19637-.41874c.0654-.13944.13105-.27937.19783-.42168zm-151.3476 2.4072h-1.9152c.042.3324.084.666.126.9984.6264-.15 1.2516-.2988 1.8792-.4488l-.09-.5496zm-17.304-1.1688l-.9972.126.4476 1.878c.1836-.03.366-.06.5496-.0912zm177.2136-2.3076c-.2256 1.6704-.5316 2.4144-.312 2.6364.414.4188 1.1316.5352 1.6692.756a763.72818 763.72818 0 00-.06766-.16932l-.1352-.338c-.29506-.73734-.61419-1.53276-1.15434-2.88508zm-5.592-1.3704l-.7176.6216c.5592.9996 1.1196 2.0004 2.3136 4.1352 0-1.8948.2028-2.6304-.0504-3.1368-.3204-.6372-1.014-1.0884-1.5456-1.62zm-86.2728 2.3412h-.5772v2.3088h.5772v-2.3088zm74.9532 0h-.3852v1.1544h.3852v-1.1544zm15.3696-5.2056c.2688 2.3172 1.9644 3.3624 4.4244 4.4244-.2866-.2868-.56293-.5633-.83073-.83123l-3.25485-3.25463zm-12.7224 3.5928c.1332-3.372-.8196-3.39-2.7624-2.256.8508.6948 1.4868 1.2144 2.7624 2.256zm8.8128-4.0536c-.2688.3144-.5364.6288-.8052.9432l.1044.1044h-1.122l.1044-.1044c-.2676-.3144-.5364-.6288-.804-.9432-.1212.1212-.2436.2424-.3648.3636.3144.2688.6288.5364.9444.8052.036-.036.072-.0732.1092-.1092.1248.3156.2496.63.3744.9456.2568-.3156.5124-.6324.768-.948l.1116.1116c.3144-.2688.6288-.5364.9432-.8052zm-153.4764-2.4156h-.3852v1.1544h.3852v-1.1544zm145.4796 0h-.3852v1.1544h.3852v-1.1544zm7.8804-4.6344l-.30793.5997c-.41169.80137-.83735 1.6287-1.39127 2.7087 1.1184.5664 2.0124 1.0188 3.222 1.6296.0756-1.0548.2004-1.5912.1284-2.0988-.0792-.5592-.6528-1.2528-.4692-1.608.996-1.9296-.6864-.9312-1.182-1.2312zm-11.3436 2.3244h-.3852v1.1544h.3852v-1.1544zm-148.9896-3.3012c-.9384.9696-1.8852 1.9476-2.832 2.9256l.57746.57711c.30027.30004.61462.61425.92854.92889 1.44-1.2432 2.7744-2.514 1.326-4.4316zm152.5344.8508c-.8316.1692-1.3452.2724-2.4504.4968.7896.9672 1.3092 1.6032 2.4504 3.0012zm14.9244 1.4004c-.1896.0264-.3792.0516-.5688.0768v1.9164c.33-.0204.6588-.042.9888-.0636-.1404-.6432-.2796-1.2864-.42-1.9296zm-8.8476-2.4132h-3.4644c-.456.9276-.912 1.8552-1.7148 3.4884 1.7616-.2628 2.964-.2424 4.0008-.648 1.1868-.4632 1.3332-1.6596 1.1784-2.8404zm-155.4672-3.3348c-.0924 2.52.5748 6.0276 1.1712 6.5664.3.2712.972.132 1.9968.2256-1.0584-2.268-1.8792-4.0284-3.168-6.792zm167.7828 3.3348h-.3852v1.1544h.3852v-1.1544zm-21.2508-3.3564v3.498c.834-.1692 1.3464-.2724 2.4516-.4968-.7896-.9672-1.3092-1.6032-2.4516-3.0012zm11.8644 2.7576c-1.332-1.6908-1.8096-3.4668-4.386-2.46.5676 1.1712 1.0224 2.1096 1.5432 3.1824.75-.1908 1.5408-.3912 2.8428-.7224zm-4.2384-7.2396H329.38v7.8588l.7416.09v-4.332l.5156-.17167c.80203-.26703 1.3292-.44253 1.7572-.58553v-2.8596zm9.006 6.684h-.3852v1.1544h.3852v-1.1544zm-2.8932-3.54v4.1508c1.1016-1.5168 1.7496-2.4096 2.6724-3.6816-1.1616-.204-1.8036-.3168-2.6724-.4692zm-169.1424 1.23h-.384v1.1556h.384v-1.1556zm181.392-3.27c-2.478-.5724-3.9864.1596-4.6332 3.474 2.7864-.384 3.7896-1.7532 4.6332-3.474zm-11.4588-3.93c1.3872 1.644 2.3064 2.7348 3.2964 3.9072 1.3356-.666 2.5884-1.2912 3.9096-1.9488-.1476-.5724-.2808-1.0872-.4536-1.7604-.5508.4728-.9456.8124-1.3896 1.194-1.9152-.4968-3.3888-.8796-5.3628-1.392zm-2.5164 2.5824h-.384v1.1544h.384v-1.1544zm-160.104.384h-1.1544v.3852h1.1544v-.3852zm156.3444-10.3104c.9048 1.89 1.476 2.5944 1.5396 3.342.0768.9156-.2736 1.8672-.438 2.802.4296.8184.9144 1.7436 1.35 2.574h2.2824c-.3252-2.5044-.5988-4.602-.8952-6.882-.8868-.4248-1.776-.8496-3.8388-1.836zm-3.9372 8.0016h-1.1544v.3852h1.1544v-.3852zm3.1956-3.8964c-1.1652.0924-2.196.1752-3.342.2664.1728.8916.2736 1.41.3864 1.9944h3.3936c-.1956-1.014-.2964-1.5324-.438-2.2608zm-153.978.1548l-.3636.3636c.312.2664.6228.5316.9348.7968.2652.312.5316.624.7968.9348.1224-.1212.2436-.2424.3648-.3636-.312-.2664-.624-.5316-.9348-.798l-.798-.9336zm5.1936-3.8364c-2.4468.6144-3.7668 1.4028-2.9952 3.9204 1.9668-.4668 3.2784-1.1292 2.9952-3.9204zm155.5956 2.5752h-.3852v1.1544h.3852v-1.1544zm-16.2804.282c.1788.0828.342.1584.522.2412-.1776.192-.348.3768-.522.564zm-134.9964-1.314l-.5484.09v1.9128c.3324-.0408.6648-.0828.9972-.1248-.15-.6264-.2988-1.2516-.4488-1.878zm-10.4484-5.2032c-1.8516.9864-2.9364 1.5636-4.6956 2.5008 1.42848.16128 2.29632.25958 3.15218.35635l.42947.04854.21875.02471c.2652 1.356.444 2.268.7236 3.6972.798-1.7772 1.3056-2.9088 1.8984-4.2288-.594-.8256-1.2192-1.6932-1.7268-2.3988zm166.1244 3.9c-.8652.072-1.878.1572-3.87.324 2.3376.9912 3.7164 1.5756 5.0952 2.16.1776-.2424.3552-.4848.5328-.726l-.81105-.81105-.69004-.69004zm-173.7408-.744h-1.1544v.3852h1.1544v-.3852zm1.5828-2.478c-.432-2.3088-1.7064-3.1656-4.0152-1.9968 1.4712.732 2.7432 1.3644 4.0152 1.9968zm1.4964-3.6804h-.3852v1.1556h.3852v-1.1556zm8.9028-3.0996c-.9132.462-1.8372.9276-2.736 1.38v1.1796c2.67 1.698 4.7052-.2688 7.0824-1.2468-1.5636-.4716-2.9928-.9036-4.3464-1.3128zm-10.6956.3384c-2.148-.7116-2.94-.288-2.3832.8532.69-.2472 1.5372-.5508 2.3832-.8532zm-9.1992-6.5832c0 1.8972-.2028 2.6316.0504 3.138.3204.6384 1.014 1.0884 1.5456 1.62.2388-.2064.4788-.414.7176-.6216-.5592-.9996-1.1184-2.0004-2.3136-4.1364zm24.6132 2.4588c-.1332.132-.3696.258-.3744.3948-.0228.5028-.1548 1.1736.1068 1.4688.2808.3168.9588.2844 1.4628.4044-.1368-.5232-.2136-1.074-.4368-1.5576-.1344-.2916-.4968-.4788-.7584-.7104zm-5.5092-.1548c.1128-2.8416-.5556-4.5384-1.6272-4.254-1.3488 1.1712-2.1864 2.4672-1.0356 4.254zm146.5956-6.9984c-.2912.2912-.54333.5432-.76938.76911l-1.0166 1.01661-.13042.13068c.14914.1488.29819.2976.46941.46865l.17945.1793.19918.19906.22387.2238c.15858.15853.33692.33684.54161.54153l.90408.90406c-.1947-1.43385-.32077-2.36517-.43904-3.23772l-.0641-.47277c-.03204-.23614-.06431-.47391-.09806-.72231zm-163.56 4.0332h-1.1544v.384h1.1544v-.384zm177.8088 0h-1.1544v.384h1.1544v-.384zm-160.014-3.8412c-.9309 1.53545-.18689 2.16388.61883 2.802l.19373.1538c.19326.15493.38264.31464.54584.4918.9309-1.53455.18689-2.16344-.61883-2.80184l-.19373-.15386c-.19326-.15499-.38264-.31474-.54584-.4919zm164.28-2.1852c-.2016.0156-.402.0312-.6036.0468v3.066c.3408-.0072.6804-.0156 1.0212-.0228zm-3.1116 2.562h-1.1544v.3852h1.1544v-.3852zm-11.7-1.5852c-1.0884-1.8072-1.9104-3.5244-5.2932-3.3348 2.2284 1.4592 2.7732 3.57 5.2932 3.3348zm-150.1416-2.0808c-.3324.042-.6648.084-.9972.1248.15.6264.3 1.2528.4488 1.8792.1824-.03.366-.06.5484-.0912zm-5.5752-.9528h-1.1544v.3852h1.1544v-.3852zm-6.3468-3.9708c-.582 1.2048-1.074 2.2212-1.6608 3.4356h4.566c-1.044-1.2336-1.9416-2.2956-2.9052-3.4356zm179.1516 1.2768h-.384v1.1544h.384v-1.1544zm-175.4256.2196c.6732-2.6304-.21-2.838-2.1732-2.112.7704.75 1.368 1.3308 2.1732 2.112zm171.3816-5.8536v5.5344h1.9692c-.6144-1.7256-1.0944-3.0744-1.9692-5.5344zm-168.7608 4.8648h-1.1544v.3852h1.1544v-.3852zm-7.3128-3.8484h-.384v1.1544h.384v-1.1544zm1.422-4.5204h-2.0016v4.2708c.948-2.0232 1.4352-3.0612 2.0016-4.2708zm-7.9644 3.75h-1.1544v.3852h1.1544v-.3852zm23.74383-3.86016l-.21903.00456c-.1764.4872-.3504.9708-.6348 1.7544 1.53.6264 2.9808 1.2204 4.4316 1.8144-.16103-.26206-.30848-.53546-.4523-.80923l-.17145-.328c-.6839-1.30708-1.37537-2.52169-3.17305-2.43157zm-12.15663 1.43016c.0564.6504-.084 1.398.1848 1.5984.4584.342 1.1724.3396 1.8084.4896-.7152-.75-1.2876-1.3488-1.9932-2.088zm171.9936 1.2756h-1.1544v.3852h1.1544v-.3852zm-179.1456-2.4972h-1.9152c.0216.33.0432.66.0648.9888.6432-.1404 1.2852-.2796 1.9284-.42-.0264-.1896-.0516-.3792-.078-.5688zm184.5336-.1968h-.384v1.1544h.384v-1.1544zm-172.8048-.8652h-2.3088v.576h2.3088v-.576zm-10.776-1.4436h-.3852v1.1544h.3852v-1.1544zm161.4432-1.7268c-.9024 2.4288-.5964 3.24 1.2696 2.7372-.354-.7644-.7212-1.554-1.2696-2.7372zm-148.3572 2.1108h-1.1556v.3852h1.1556v-.3852zm143.9292.0396c.3324-1.3272.3324-1.3272-1.2504-1.2504.20023.19954.47765.47706.7371.73672zm-147.696-4.0296c-.8328.1692-1.3464.2724-2.4516.4968.7896.9672 1.3092 1.6032 2.4516 3.0012zm166.5648 2.8356h-1.1544v.3852h1.1544v-.3852zm8.082 0h-1.1544v.3852h1.1544v-.3852zm-179.3472-1.5396h-.3852v1.1556h.3852v-1.1556zM324.466 128.828c-.8256.7692-1.5564 1.6992-2.5044 2.2644-.9792.5844-2.1696.8136-3.2688 1.1988v7.92l1.0404-.6552c.174.7188.348 1.4388.5232 2.1576.2928-.2136.5856-.4272.8796-.6408-.3444-.882-.6888-1.7652-1.05-2.6928.378-.7361 1.16455-1.0803 1.96943-1.42295l.32201-.1379c1.12396-.48886 2.18188-1.07672 2.10296-2.83475l-.33038-.1543c-.6688-.3123-1.40688-.65673-2.59282-1.2101 2.1492-.2592 3.7116-.4476 6.3144-.7608-.57854-.51501-1.0629-.94616-1.48634-1.32306l-.40435-.3599c-.57976-.516-1.04733-.93212-1.51491-1.34824zm20.3616 10.3536c-1.0212.0804-2.0412.1608-3.0384.24v2.268c.96-.6216 1.4808-.996 2.0364-1.3068.39-.2184.828-.3528 1.2444-.5244-.0816-.2256-.1608-.4512-.2424-.6768zm-15.4308-.1824c-.6732 2.6304.2088 2.8392 2.1732 2.112-.7716-.75-1.3692-1.3296-2.1732-2.112zm-138.576-2.4252v4.254c.9924-1.2288 1.6464-2.0388 2.58-3.1956-1.0296-.4224-1.6224-.666-2.58-1.0584zm125.178 2.6448h-.384v1.1544h.384v-1.1544zm18.474 0h-.3852v1.1544h.3852v-1.1544zm3.6516-.972c-.3324.042-.6648.084-.9972.1248.1488.6264.2988 1.2528.4476 1.8792.1836-.03.366-.06.5496-.0912zm-38.5728-4.9836c-.1767.0681-.33938.1308-.49153.18947l-.42842.16528a460.3765 460.3765 0 00-.75165.29085c1.5432 3.882 1.5432 3.882 3.5784 4.7232a37984.696 37984.696 0 00-1.9068-5.3688zm-117.312 3.8436h-1.9152c.0408.3324.0828.6648.1248.9972.6264-.1488 1.2528-.2988 1.8792-.4476-.03-.1836-.06-.3672-.0888-.5496zm120.5952-3.1536c1.2324 2.2272 1.7832 3.2256 2.106 3.8076.8652-.462 1.6188-.8628 2.9364-1.5648a6628.40761 6628.40761 0 00-1.51363-.67327l-.55796-.2481c-.83768-.37246-1.70586-.75848-2.97081-1.32143zm32.0232 3.3408h-1.1544v.3852h1.1544v-.3852zm-19.1784-4.8048h-3.8388c.4536.924 1.0008 2.0376 1.7016 3.4632.6888-1.1172 1.2828-2.0772 2.1372-3.4632zm11.8656 2.1108h-.3852v1.1556h.3852V134.6zm-19.3644-14.472c-.5184.7792-.92107 1.38453-1.26951 1.90809l-.25213.37877c-.0813.1221-.16016.24054-.23756.35674.2208.0768.9096.2688 1.5564.5532.6636.2904 1.2864.6732 1.926 1.014l-.31096.31075-.58296.58262-.27385.27372-1.89049 1.8905c-.28547.28561-.56274.56311-.84174.84241.2664 2.2488-1.1388 5.058 2.6532 6.5832 1.1184-1.1184 2.2044-2.04 3.0768-3.1344.5676-.7128.8232-1.674 1.4184-2.952-2.2932 1.3944-3.9912 2.4276-5.8716 3.5712-.52571-3.74558 1.4258-4.8818 3.70687-5.75436l.33592-.12608c.61925-.2287 1.25468-.44665 1.86481-.69916-1.6632-1.86-3.1956-3.5736-5.0076-5.5992zm26.292 13.3176h-.3852V134.6h.3852v-1.1544zm-147.6156-.9576h-1.9152l.126.9972 1.878-.4476c-.0288-.1836-.0588-.366-.0888-.5496zm-4.7916-.1968h-.3852v1.1544h.3852v-1.1544zm156.2508.9288c.024-1.7256-.2304-2.7168-1.7988-1.884.4848.5076 1.0572 1.1076 1.7988 1.884zm-5.8716-4.9584c.174 1.5576.2436 2.1792.3408 3.0372.9012-.2256 1.5168-.3804 2.322-.582-.8364-.7716-1.4388-1.326-2.6628-2.4552zm-15.5904 1.8276l-.3636.3636c.3144.2676.6288.5364.9432.8052l.2256-.2256c-.2676-.3144-.5364-.6288-.8052-.9432zm-139.5996-1.2612c.138.522.2136 1.074.4368 1.5564.1344.2928.498.4788.7596.7104.132-.132.3684-.258.3744-.3948.0228-.5016.1548-1.1724-.1068-1.4688-.2808-.3168-.9588-.2844-1.464-.4032zm123.93-2.394c-.8748.1608-1.5168.2784-2.6712.4908.9228 1.2624 1.5732 2.1528 2.6712 3.654zm34.3572 2.4996c-.2688.3144-.5364.6288-.8052.9444l.2256.2244c.3144-.2676.6288-.5364.9432-.804-.1212-.1212-.2424-.2436-.3636-.3648zm-119.9928-.1056h-.3852v1.1544h.3852v-1.1544zm8.2056-.0672c-1.0188.1428-2.0388.2856-3.0576.4284.018.2004.036.402.054.6036h3.066c-.0204-.3444-.042-.6876-.0624-1.032zm-38.9952.3552h-2.3088v.5772h2.3088v-.5772zm136.9092-1.6224c.7848.8844 1.0152 1.3188 1.1796 1.296.552-.0792 1.08-.3204 1.6176-.4992-.6948-.198-1.392-.396-2.7972-.7968zm-131.0904-1.6728c-.132 3.3732.8208 3.3912 2.7624 2.256-.18206-.14863-.3543-.28927-.52515-.42878l-.34232-.27954c-.51815-.42316-1.07413-.8773-1.89493-1.54768zm106.1724 2.7804c.0252-1.7244-.2304-2.7156-1.7988-1.884.4848.5076 1.0572 1.1076 1.7988 1.884zm-107.5704-4.1808c-.33.0156-.6612.03-.9924.0456l.4248 1.9476c.1896-.0264.3792-.0516.5676-.078zm116.3256 1.824c-2.1204-1.1832-2.4912-3.2688-5.0472-2.8056 1.3488.8796 1.5912 3.4992 5.0472 2.8056zm24.8172-3.0384c-2.136-.102-3.9576-.5532-5.712.3396 1.38078 2.29765 3.17156 1.94473 4.94758 1.67628l.34345-.05016.17137-.02292c.0744-.582.1212-.9396.2496-1.9428zm-98.61-.1512h-.384v1.1544h.384v-1.1544zm83.9712-6.8016c-1.224 1.9524-3.3132.6924-5.0736 1.0284.2856.3852.5232.8196.8652 1.1448.8016.762 1.6476 1.4784 2.478 2.2116-.3084.264-.618.5268-.9276.7908l.3648.3648.804-.9444c-.0336-.0348-.0696-.0696-.1032-.1044h3.264c.1488 1.3128.252 2.2212.366 3.228h4.284v-4.314c-2.0904-1.1268-4.1448-2.2332-6.3216-3.4056zm9.936 4.8768h-1.1544v.3852h1.1544v-.3852zm-39.2556-6.1572l-.0149.09167c-.01589.12421-.01667.25595-.01111.39085l.012.20416c.0534.75325.16604 1.53568-1.12119 1.61852l.1008-.1008c-.2676-.3144-.5364-.6288-.804-.9432-.1212.1212-.2424.2424-.3648.3636.3144.2676.63.5364.9444.8052.0348-.036.0708-.072.1068-.108.1464.7944.294 1.5948.6588 3.5688 1.118-1.737 1.786-2.77483 2.41789-3.75725l.37811-.58795c-.792-.5316-1.548-1.0392-2.3028-1.5456zm-11.9316 4.6176h-.384v1.1544h.384v-1.1544zm-67.7364-1.7316c-.522.138-1.074.2136-1.5576.4368-.2916.1344-.4776.498-.7104.7596.1332.132.2592.3684.3948.3744.5028.0228 1.1736.1548 1.4688-.1068.318-.282.2844-.9588.4044-1.464zm24.7176-3.9348c-.1212.1212-.2424.2424-.3636.3648.3144.2676.6288.5364.9432.804l.1032-.102c-.2004.498-.2952.7404-.396.9516-1.1064 2.3484-1.0872 3.6312.0588 3.4068.234-.6576.4704-1.314.7104-1.9896.576.354 1.0692.6564 2.682 1.6476-1.1436-2.1288-1.6908-3.1476-2.67-4.9704-.126.3096-.228.5616-.3132.7728-.252-.2952-.5028-.5904-.7548-.8856zm32.394 1.0896c-.132.132-.3684.258-.3744.3948-.0228.5028-.1548 1.1736.1068 1.4688.2808.318.9588.2844 1.464.4044-.138-.5232-.2148-1.074-.4368-1.5576-.1344-.2916-.498-.4788-.7596-.7104zm20.718-3.3984c-.1212.1212-.2424.2424-.3648.3636.3144.2688.63.5364.9432.8052.036-.0348.0708-.0708.1068-.1056.03377.181.02936.3811.01636.58552l-.01477.20532c-.05407.71984-.09275 1.4323 1.15161 1.50356-.036-.1805-.0329-.38051-.02048-.5852l.01445-.20567c.05376-.72148.1005-1.4394-1.13517-1.51673.036-.036.072-.0708.108-.1068-.2688-.3144-.5376-.6288-.8052-.9432zm-4.7568-.7164c.9792 2.4456.9792 2.4456 3.4956 2.5512-1.2624-.9216-2.154-1.5732-3.4956-2.5512zm-45.3624.9948h-1.1544v.384h1.1544v-.384zm38.6796-3.8496c.138.5232.2136 1.0752.4368 1.5588.1344.2916.4968.4776.7596.7092.132-.132.3684-.258.3744-.3936.0228-.5028.1548-1.1736-.1068-1.4688-.282-.318-.96-.2856-1.464-.4056zm-51.7884.1224l-.5496.09v1.9152c.3336-.0396.6672-.078 1.0008-.1164-.1512-.6288-.3012-1.2588-.4512-1.8888zm31.284-.1644c-.6288.1512-1.2588.3012-1.8888.4512l.09.5484h1.9152c-.0384-.3324-.078-.666-.1164-.9996zm41.5764-2.2668h-.5784v2.3088h.5784v-2.3088zm-28.5768.3852h-1.1544v.3852h1.1544v-.3852zm8.5524-8.3604l-.3636.3636c.3144.2688.6288.5364.9432.8052l.06-.06c.1488 2.0844.9024 3.7368 3.516 5.0328-.1044-2.1264-.1788-3.6204-.2508-5.094h-3.204l.1044-.1044c-.2688-.3144-.5364-.6288-.8052-.9432zm-13.9524 2.3052h-4.6644c1.008 1.302 1.4628 1.89 2.0976 2.7096.9564-1.0092 1.5804-1.6692 2.5668-2.7096zm7.4208-1.2576h-.5784v2.3088h.5784v-2.3088zm-10.5852-8.1168c-.2328.078-.4668.1548-.7008.2328.2652 1.4148.5292 2.8296.7908 4.2312-.2376.2616-.4836.5316-.7272.8016.5412.5412 1.08 1.0812 1.62 1.62a18.7746 18.7746 0 01.14121.00793l.2838.0184c2.08623.14314 4.26342.40212 5.07339-3.41633h-4.038c-1.0752-1.5384-1.7592-2.5176-2.4432-3.4956zm10.8732 3.8832h-1.1544v.3852h1.1544v-.3852zm6.9276-1.1544h-1.1544v.3852h1.1544v-.3852zM243.346 91.838c-.63.15-1.2588.3-1.8888.4512l.09.5484h1.914c-.0384-.3336-.0768-.666-.1152-.9996zm27.8004.042c-1.662 0-3.3252-.018-4.986.0348-.138.0036-.2616.4884-.4764.9192h5.4996c-.0132-.318-.0252-.636-.0372-.954zm-17.496-1.1544h-.384V91.88h.384v-1.1544zm-14.6244.2892h-2.3088v.5772h2.3088v-.5772zm21.9372.096h-1.1544v.384h1.1544v-.384zm-.1044-2.8152c-.3144.2688-.6288.5364-.9432.8052l.3636.3636c.2688-.3144.5364-.6288.8052-.9432zm7.032.5052h-1.1544v.3852h1.1544v-.3852z"/></g></svg>