<?xml version="1.0" encoding="utf-8"?>
<!-- Generator: Adobe Illustrator 24.2.3, SVG Export Plug-In . SVG Version: 6.00 Build 0)  -->
<svg version="1.1" id="Livello_1" xmlns="http://www.w3.org/2000/svg" xmlns:xlink="http://www.w3.org/1999/xlink" x="0px" y="0px"
	 viewBox="0 0 200 200" style="enable-background:new 0 0 200 200;" xml:space="preserve">
<style type="text/css">
	.st0{fill:url(#SVGID_1_);}
	.st1{fill:#FFFFFF;}
	.st2{fill:#FF6666;}
	.st3{fill:#D95E59;}
	.st4{fill:#FFF4C7;}
	.st5{fill:#016273;}
</style>
<linearGradient id="SVGID_1_" gradientUnits="userSpaceOnUse" x1="2.3764" y1="106.4285" x2="197.6316" y2="89.4509" gradientTransform="matrix(1 0 0 1 0 2)">
	<stop  offset="0" style="stop-color:#038DA6"/>
	<stop  offset="1" style="stop-color:#016273"/>
</linearGradient>
<path class="st0" d="M100,198c-12.6,0-24.9-2.4-36.5-7l3.8-9.4c10.4,4.2,21.5,6.3,32.7,6.3s22.3-2.2,32.7-6.3l3.8,9.4
	C124.9,195.6,112.6,198,100,198z M148.4,185.3l-5-8.9c19.8-11.2,34.3-29.4,40.9-51.2l9.7,2.9C186.6,152.5,170.5,172.7,148.4,185.3
	L148.4,185.3z M51.7,185.3c-5.7-3.2-11-7-16-11.2c-13.9-12.3-24.3-28.2-29.6-45.9l9.7-2.9c4.9,16,14,30.1,26.5,41.1
	c4.4,3.8,9.2,7.2,14.3,10.1L51.7,185.3L51.7,185.3z M3.2,115.4C2.4,110.2,2,105.1,2,99.9c0-10.6,1.8-21,5.1-31.2
	c3-8.8,7.1-17,12.4-24.7l8.4,5.8c-4.7,6.8-8.5,14.2-11,22.1c-3,9-4.5,18.4-4.5,27.9c0,4.6,0.4,9.3,1.1,13.9
	C13.4,113.7,3.2,115.4,3.2,115.4z M196.8,115.4l-10-1.5c0.7-4.4,1-9.1,1-13.6c0-2.1-0.1-4.2-0.2-6.3c-1-15.8-6.4-30.9-15.5-43.9
	l8.4-5.8c10.1,14.5,16,31.5,17.2,49.1c0.2,2.3,0.2,4.6,0.2,7C198.1,105.3,197.7,110.3,196.8,115.4z M165,40.7
	c-2.3-2.5-4.7-4.8-7.2-7.1c-14.4-12.6-32.8-20.2-51.6-21.5L106.8,2c21.1,1.3,41.5,9.9,57.7,23.9c2.8,2.5,5.6,5.2,8,7.9L165,40.7z
	 M35.1,40.7l-7.5-6.8C44.7,15.1,68.1,3.8,93.3,2.1l0.9,10.1H94C71.4,13.8,50.5,23.9,35.1,40.7z"/>
<path class="st1" d="M84.6,43.8c-6.3,6.3-8.2,15.7-4.7,24c3.4,8.3,11.6,13.5,20.3,13.5s16.9-5.4,20.3-13.5c3.4-8.3,1.5-17.5-4.7-24
	c-4-4-9.7-6.4-15.6-6.4C94.3,37.4,88.6,39.8,84.6,43.8z"/>
<path class="st2" d="M46.3,46c-29.6,29.8-29.6,77.8,0,107.6L154,46C124.2,16.2,75.9,16.2,46.3,46z M86.6,72.9
	c-7.4-7.4-7.4-19.5,0-26.9c7.4-7.4,19.5-7.4,26.9,0s7.4,19.5,0,26.9C106,80.2,94.1,80.2,86.6,72.9z"/>
<path class="st3" d="M154,153.5c-29.8-29.8-77.9-29.8-107.6,0L154,46C183.6,75.7,183.6,123.8,154,153.5z"/>
<path class="st4" d="M154,153.5c-29.8,29.8-77.9,29.8-107.6,0C75.9,123.8,124.2,123.8,154,153.5z"/>
<path class="st5" d="M93.3,52.7c-2.7,2.7-3.5,6.8-2.1,10.3c1.5,3.5,5,5.9,8.8,5.9c3.8,0,7.3-2.4,8.8-5.9c1.5-3.5,0.7-7.6-2.1-10.3
	c-1.9-1.9-4.2-2.9-6.8-2.9C97.6,49.9,95.1,50.9,93.3,52.7z"/>
</svg>
