<svg id="Livello_1" data-name="Livello 1" xmlns="http://www.w3.org/2000/svg" viewBox="0 0 512 512"><defs><style>.cls-1{fill:#5158fa;}.cls-2{fill:#fff;fill-rule:evenodd;}</style></defs><path class="cls-1" d="M256,512c141.38,0,256-114.62,256-256S397.38,0,256,0,0,114.62,0,256v0C0,397.39,114.61,512,256,512Z"/><path id="Combined-Shape" class="cls-2" d="M222.45,50.47a4.08,4.08,0,0,1,4.84,4h0v37a2,2,0,0,0,2.44,2,164.68,164.68,0,0,1,69.24.57,4.08,4.08,0,0,1,3.15,4h0v59.84a4,4,0,0,1-5.41,3.81,98,98,0,0,0-130.84,78.81,2.07,2.07,0,0,0,2,2.32h17.82a2,2,0,0,0,2-1.7,76.6,76.6,0,0,1,59.36-62,4.1,4.1,0,0,1,5,4h0v14.24a4.11,4.11,0,0,1-3.11,3.93,54.42,54.42,0,0,0,0,105.12,4.11,4.11,0,0,1,3.11,3.94h0v58.52a4.05,4.05,0,0,1-4.53,4.05,120.08,120.08,0,0,1,30.35-238.24,2,2,0,0,0,2.26-2h0V114.93a2,2,0,0,0-1.82-2,139.78,139.78,0,0,0-15.26-.84c-78.16,0-141.75,63.59-141.75,141.75,0,81.57,69.26,147.27,152.07,141.38,69.78-5,126.21-61.48,131.08-131.28A141.88,141.88,0,0,0,326.35,127a4,4,0,0,1-2.25-3.6h0V105a2.06,2.06,0,0,1,2.85-1.9c58.62,24.95,99.84,83.12,99.84,150.74,0,76.27-52.43,140.52-123.14,158.63a2,2,0,0,0-1.51,1.93h0V454a4.09,4.09,0,0,1-3.36,4c-6.12,1.06-12.33,1.87-18.63,2.38-5.64.46-11.34.71-17.1.71-114.32,0-207.33-93-207.33-207.33,0-94.29,63.27-174.07,149.59-199.14Q213.74,52.22,222.45,50.47ZM97.83,264.79H80.23a2.07,2.07,0,0,0-2,2.2C85,363.06,165.29,439.15,263.05,439.15c5.13,0,10.21-.23,15.23-.64a2,2,0,0,0,1.87-2h0V418.86a2,2,0,0,0-2.19-2q-7.38.66-14.91.67c-86,0-156.64-66.58-163.22-150.87a2,2,0,0,0-2-1.87Zm87.9,0H167.91a2.05,2.05,0,0,0-2,2.32,98.34,98.34,0,0,0,61.42,78,2,2,0,0,0,2.77-1.91h0v-18a4.06,4.06,0,0,0-2.22-3.59,76.58,76.58,0,0,1-40.14-55.08,2,2,0,0,0-2-1.7ZM274,183.06a4.1,4.1,0,0,1,5-4,76.39,76.39,0,0,1,0,149.4,4.1,4.1,0,0,1-5-4h0V310.29a4.11,4.11,0,0,1,3.12-3.94,54.64,54.64,0,0,0,38.61-39,2,2,0,0,0-2-2.52H295.36a2,2,0,0,0-1.86,1.29,32.86,32.86,0,1,1,0-24.56,2,2,0,0,0,1.86,1.29h18.41a2,2,0,0,0,2-2.52,54.64,54.64,0,0,0-38.61-39,4.1,4.1,0,0,1-3.12-3.94h0Zm-11,59.88a10.86,10.86,0,1,0,10.86,10.86A10.87,10.87,0,0,0,263.05,242.94ZM205.31,80.53a2.06,2.06,0,0,0-2.72-1.94c-68.63,23.74-119.1,86.75-124.42,162a2.07,2.07,0,0,0,2,2.2H97.85a2,2,0,0,0,2-1.86c5-63.9,46.8-117.62,104.19-139.87a2,2,0,0,0,1.28-1.87h0Z"/></svg>