<svg id="Layer_1" data-name="Layer 1" xmlns="http://www.w3.org/2000/svg" viewBox="0 0 500 500"><defs><style>.cls-1{fill:#fff;}.cls-2{opacity:0.98;}</style></defs><path class="cls-1" d="M248.61,497.22c137.31,0,248.61-111.3,248.61-248.61S385.92,0,248.61,0,0,111.31,0,248.61v0C0,385.92,111.3,497.22,248.59,497.22Z"/><g class="cls-2"><path d="M62.42,148.55q13.35,7.71,26.72,15.39a2.54,2.54,0,0,1,1.46,2.57q0,82-.06,163.93a3.11,3.11,0,0,0,1.74,3.06q58.23,35.75,116.42,71.58c.61.38,1.23.73,2.14,1.26v-1.89q0-68,0-136a2.54,2.54,0,0,0-1.49-2.56c-12.23-7-24.41-14.08-36.63-21.09a2.17,2.17,0,0,1-1.27-2.18c.05-9.82,0-19.64,0-29.46V211.6c.64.34,1.13.59,1.59.86q32.34,18.66,64.68,37.3a2.07,2.07,0,0,1,1.2,2.09q0,101.79,0,203.58c0,.41,0,.83-.05,1.25h-.31a15,15,0,0,0-1.22-.92L79.51,358.63c-5.68-3.49-11.39-6.94-17.09-10.41Z"/><path d="M256.45,456.68c0-10.71-.06-21.42,0-32.13A2.44,2.44,0,0,1,257.6,423q18.91-11.69,37.86-23.32,54-33.22,108-66.44a2.26,2.26,0,0,0,1.3-2.19q0-66.13,0-132.28v-1.39c-.6.32-1,.54-1.44.78Q345.38,231.6,287.39,265c-2.18,1.26-3,2.52-3,5.06.15,13.79.05,27.59.1,41.38A2.52,2.52,0,0,1,283,314c-8.3,4.73-16.55,9.53-24.82,14.3-.52.3-1.06.58-1.82,1v-2q0-37.54,0-75.07a2.66,2.66,0,0,1,1.54-2.69q87.41-50.38,174.76-100.84l.26-.17V348.22c-.46.25-.93.47-1.37.74L264.91,451.49c-2.75,1.69-5.44,3.46-8.15,5.19Z"/><path d="M248,40.41c4.51,2.49,9,5,13.54,7.46l149.91,81,10.64,5.76c-1.29.76-2.39,1.42-3.51,2.06-7.9,4.57-15.82,9.12-23.71,13.72a2.36,2.36,0,0,1-2.69.06q-55.32-30-110.66-59.86Q265.26,81.88,249,73.06a2.49,2.49,0,0,0-2.71,0q-56.9,30.83-113.82,61.58c-.45.24-.9.51-1.5.84.53.34.93.62,1.35.87q56.93,32.86,113.85,65.77a2.55,2.55,0,0,0,3,0c11.82-6.88,23.68-13.68,35.48-20.57a2.75,2.75,0,0,1,3.24,0c8.15,4.78,16.34,9.47,24.52,14.2.58.33,1.14.69,1.85,1.11-.52.34-.88.61-1.26.83Q281,216.15,249.14,234.59a2.54,2.54,0,0,1-2.94,0q-85.65-49.5-171.33-98.94c-.48-.28-1-.59-1.59-1l15.44-8.36q78.61-42.48,157.21-85c.49-.27.95-.61,1.43-.91Z"/></g></svg>