<svg width="212" height="180" viewBox="0 0 212 180" fill="none" xmlns="http://www.w3.org/2000/svg">
<g clip-path="url(#clip0_722_15037)">
<path d="M198.89 109.523C198.89 113.669 198.137 117.634 196.76 121.29C192.046 133.777 180.069 142.647 166.033 142.647C151.669 142.647 139.463 133.355 134.994 120.407C108.458 122.33 93.2841 110.372 86.9748 87.5799C71.0371 83.2099 59.3223 68.5181 59.3223 51.0636C59.3223 39.775 64.2254 29.6385 72.0015 22.7094C78.6183 16.8033 87.3208 13.2205 96.8542 13.2205C107.776 13.2205 117.611 17.9221 124.461 25.4376C129.069 22.3998 134.575 20.6389 140.489 20.6389C144.616 20.6389 148.55 21.4999 152.115 23.0524C162.429 27.541 169.682 37.8226 169.843 49.8322C169.849 49.9726 169.849 50.1076 169.849 50.2485L169.843 50.7493V50.7548C171.343 50.4228 172.899 50.2485 174.501 50.2485C181.653 50.2485 188.007 53.7023 192.011 59.0456H192.018C194.795 62.7525 196.441 67.3702 196.441 72.3765C196.451 77.5684 194.637 82.596 191.32 86.5675C191.071 86.8738 190.812 87.1721 190.544 87.4618C195.738 93.3173 198.89 101.051 198.89 109.523" fill="#FF5CAA"/>
<path d="M140.126 48.3882C134.182 54.9022 130.551 63.5972 130.551 73.1477C130.551 93.3464 146.791 109.721 166.824 109.721C169.409 109.723 171.986 109.447 174.513 108.898M95.2695 36.5824C96.177 49.7917 107.092 60.2235 120.423 60.2235M160.522 55.3181C163.218 53.0594 166.416 51.4926 169.843 50.7515M124.462 25.4338C120.239 28.2063 116.769 32.0486 114.432 36.5824" stroke="#103849" stroke-width="4.48173" stroke-miterlimit="10" stroke-linecap="round" stroke-linejoin="round"/>
<path d="M198.89 109.517C198.89 127.814 184.18 142.642 166.033 142.642C151.669 142.642 139.463 133.35 134.994 120.401C108.458 122.325 93.2841 110.367 86.9748 87.5746C71.0371 83.2045 59.3223 68.5127 59.3223 51.0582C59.3223 30.1571 76.1243 13.2151 96.8542 13.2151C107.776 13.2151 117.611 17.9167 124.461 25.4322C129.069 22.3944 134.575 20.6335 140.489 20.6335C156.705 20.6335 169.849 33.8918 169.849 50.2432L169.843 50.7439V50.7494C171.343 50.4174 172.899 50.2432 174.501 50.2432C186.617 50.2432 196.441 60.1481 196.441 72.3711C196.441 78.2042 194.204 83.5028 190.544 87.4565C195.738 93.3119 198.89 101.046 198.89 109.518L198.89 109.517Z" stroke="#103849" stroke-width="3.92125" stroke-miterlimit="10" stroke-linejoin="round"/>
<path d="M190.546 87.4565C190.546 87.4565 187.999 84.7916 184.515 82.0178M92.5712 147.53C91.1332 144.501 90.213 141.249 89.8496 137.911" stroke="#103849" stroke-width="4.48173" stroke-miterlimit="10" stroke-linecap="round" stroke-linejoin="round"/>
<path d="M156.992 124.493C158.153 127.742 158.746 131.17 158.743 134.623C158.743 152.387 143.28 166.78 124.201 166.78C110.054 166.78 97.898 158.866 92.5653 147.532C88.1701 150.542 82.8976 152.297 77.2355 152.297C64.5396 152.297 53.8284 143.488 50.4704 131.44C48.0729 132.042 45.6112 132.347 43.1403 132.345C26.5554 132.345 13.1055 118.789 13.1055 102.061C13.1055 89.2138 21.0435 78.2345 32.245 73.8412C31.8045 72.0023 31.5702 70.0955 31.5702 68.138C31.5702 52.9679 45.5502 40.6719 62.7986 40.6719C72.7006 40.6719 81.5361 44.7323 87.2542 51.0547C91.8402 48.5742 97.1286 47.1517 102.763 47.1517C120.24 47.1517 134.409 60.8145 134.409 77.6662C134.411 78.0636 134.402 78.4611 134.381 78.858C148.802 81.5241 159.763 94.8782 159.763 110.954C159.763 115.785 158.776 120.37 156.992 124.492" fill="#FF5CAA"/>
<path d="M145.791 109.524C150.939 113.359 154.878 118.546 156.998 124.497M50.4769 131.443C49.7627 128.89 49.3833 126.195 49.3833 123.405C49.3833 112.02 55.7373 102.172 64.9644 97.4638M40.0733 71.9437C37.34 72.2251 34.7179 72.8722 32.252 73.845M87.2674 51.0641L87.2612 51.0586M87.2612 51.0586C83.34 53.1962 79.9373 56.1104 77.2763 59.5865" stroke="#103849" stroke-width="4.48173" stroke-miterlimit="10" stroke-linecap="round" stroke-linejoin="round"/>
<path d="M157.008 124.495C158.169 127.744 158.761 131.172 158.759 134.625C158.759 152.389 143.295 166.782 124.216 166.782C110.07 166.782 97.9137 158.868 92.5809 147.534C88.1857 150.544 82.9132 152.298 77.2512 152.298C64.5552 152.298 53.844 143.49 50.4861 131.442C48.0885 132.044 45.6268 132.349 43.1559 132.347C26.571 132.347 13.1211 118.791 13.1211 102.063C13.1211 89.2158 21.0592 78.2364 32.2607 73.8431C31.8201 72.0042 31.5858 70.0974 31.5858 68.14C31.5858 52.9698 45.5658 40.6738 62.8143 40.6738C72.7162 40.6738 81.5518 44.7342 87.2699 51.0567C91.8558 48.5761 97.1442 47.1536 102.779 47.1536C120.256 47.1536 134.425 60.8165 134.425 77.6682C134.427 78.0656 134.417 78.463 134.397 78.8599C148.818 81.5261 159.779 94.8801 159.779 110.956C159.779 115.787 158.792 120.372 157.007 124.494L157.008 124.495Z" stroke="#103849" stroke-width="3.92125" stroke-miterlimit="10" stroke-linejoin="round"/>
<path d="M107.388 87.9263C112.944 82.0317 120.615 78.3809 129.082 78.3809C130.89 78.3809 132.659 78.5441 134.382 78.8639M132.395 117.179C128.018 122.698 121.283 126.234 113.729 126.234C100.536 126.234 89.8418 115.45 89.8418 102.149C89.8334 96.5944 91.7369 91.2094 95.2273 86.9126" stroke="#103849" stroke-width="4.48173" stroke-miterlimit="10" stroke-linecap="round" stroke-linejoin="round"/>
<path d="M124.299 138.158C124.299 133.428 123.116 128.979 121.029 125.092M74.3766 122.775C78.3149 116.891 84.4464 112.633 91.5924 111.188M31.791 102.086C34.8168 100.878 38.0422 100.257 41.2968 100.258C46.5152 100.251 51.6118 101.848 55.9065 104.838M80.9014 79.919C79.2759 80.4016 77.5555 80.6602 75.7749 80.6602C71.0489 80.6665 66.5083 78.8064 63.1257 75.4785M159.298 78.7446C161.799 76.8635 164.836 75.8495 167.956 75.8544C168.823 75.8539 169.688 75.9314 170.541 76.086" stroke="#103849" stroke-width="4.48173" stroke-miterlimit="10" stroke-linecap="round" stroke-linejoin="round"/>
<path d="M193.124 87.4744C196.538 83.203 198.401 77.9066 198.401 72.3768C198.401 59.0898 187.682 48.2796 174.508 48.2796C173.587 48.2796 172.668 48.3336 171.757 48.4399C170.825 31.8658 157.159 18.6708 140.495 18.6708C134.939 18.6708 129.541 20.1376 124.786 22.927C117.377 15.4615 107.334 11.263 96.8599 11.252C79.304 11.252 64.3943 22.8679 59.2762 38.875C42.6356 40.4448 29.6284 52.9699 29.6284 68.1413C29.6284 69.6511 29.7593 71.1635 30.0175 72.6552C18.5093 77.8559 11.1641 89.2238 11.1641 102.064C11.1641 119.848 25.5135 134.317 43.1511 134.317C45.1652 134.317 47.175 134.128 49.1541 133.751C53.3405 145.92 64.6428 154.268 77.2468 154.268C82.3609 154.272 87.3856 152.916 91.8146 150.338C98.0503 161.593 110.524 168.752 124.212 168.752C140.877 168.752 154.959 158.248 159.31 143.952C161.498 144.386 163.749 144.616 166.039 144.616C185.233 144.616 200.849 128.872 200.849 109.523C200.849 101.462 198.118 93.6981 193.124 87.474V87.4744Z" stroke="#103849" stroke-width="7.84292" stroke-miterlimit="10" stroke-linejoin="round"/>
<path d="M96.853 0C86.5402 0 76.6202 3.09647 68.1658 8.95402C60.8658 14.0117 55.0791 20.8336 51.2567 28.844C32.6506 33.3904 19.3479 48.4875 18.507 66.3399C6.99084 74.4021 0 87.7139 0 102.062C0 125.798 18.9521 145.155 42.3982 145.558C49.8015 157.823 62.9992 165.516 77.2398 165.516C80.8777 165.516 84.4528 165.03 87.9204 164.066C96.8953 174.13 110.081 180 124.205 180C133.772 180 143.039 177.264 151.005 172.091C157.478 167.888 162.693 162.339 166.302 155.862C191.526 155.716 211.999 134.984 211.999 109.521C211.999 101.654 210.047 94.0199 206.319 87.1946C208.45 82.5493 209.552 77.4922 209.551 72.3742C209.551 63.1046 206.007 54.3392 199.573 47.6936C194.499 42.4524 188.076 38.9902 181.087 37.6503C178.724 29.9172 174.2 22.9497 168.017 17.6393C160.335 11.0457 150.577 7.42264 140.489 7.41802C135.786 7.41802 131.067 8.22251 126.62 9.76399C117.982 3.44028 107.572 0 96.853 0ZM96.853 7.31213C107.309 7.31213 117.564 11.2274 125.418 18.1401C130.129 15.894 135.276 14.7297 140.488 14.731C157.846 14.731 172.422 27.4594 175.222 44.3495C190.216 44.7372 202.298 57.1602 202.298 72.3746C202.293 77.7056 200.784 82.9252 197.949 87.4245C202.35 93.8913 204.746 101.628 204.746 109.521C204.746 131.043 187.379 148.552 166.032 148.552C164.651 148.552 163.265 148.476 161.886 148.326C155.929 162.826 140.915 172.688 124.204 172.688C110.423 172.688 97.7939 166.171 90.3843 155.456C86.2346 157.267 81.7614 158.202 77.2398 158.204C64.0656 158.204 52.1499 150.239 46.6632 138.08C45.4942 138.195 44.3181 138.253 43.1441 138.253C23.3536 138.253 7.25233 122.018 7.25233 102.062C7.25233 88.8137 14.4436 76.6763 25.7999 70.3733C25.7448 69.6299 25.7172 68.8846 25.717 68.1391C25.717 51.7713 38.7373 38.0199 56.3957 35.266C62.8469 18.4434 78.8 7.31213 96.8538 7.31213" fill="#F0F0F0"/>
</g>
<defs>
<clipPath id="clip0_722_15037">
<rect width="212" height="180" fill="white"/>
</clipPath>
</defs>
</svg>
