<svg xmlns="http://www.w3.org/2000/svg" viewBox="0 0 297.79 297.75"><defs><style>.cls-1{fill:#f3b84d;}.cls-2{fill:#f8d591;}.cls-3{fill:#fec96c;}.cls-4{fill:#e9a934;}</style></defs><g id="Livello_2" data-name="Livello 2"><g id="Layer_1" data-name="Layer 1"><path class="cls-1" d="M.28,140.26a139.62,139.62,0,0,1,5.89-33.7A148.69,148.69,0,0,1,41,46.28a26.76,26.76,0,0,1,3-3.17,2.53,2.53,0,0,1,.55.18L62.79,53.85c.39.23.78.41.77.94-8.77,8.31-16.7,17.26-22.77,27.82a144.13,144.13,0,0,0-11.36,23.87,124.56,124.56,0,0,0-7,34.21,126.88,126.88,0,0,0,.91,25.4c.45,3.17,1,6.32,1.51,9.47q-6.19,3.49-12.38,7a62.47,62.47,0,0,1-7.49,4.1,85,85,0,0,1-2.71-12A127.39,127.39,0,0,1,.28,157.78c-.07-1.95.27-3.91-.28-5.84v-7C.57,143.41.22,141.82.28,140.26Z"/><path class="cls-2" d="M155.73,0c1.82.6,3.73.36,5.59.51a150.75,150.75,0,0,1,31.43,6,118.58,118.58,0,0,1,14.34,5.22,163.3,163.3,0,0,1,21.43,11.37,151.39,151.39,0,0,1,23,18,13.55,13.55,0,0,1,2.26,2,.89.89,0,0,0-.28.07q-9.34,5.37-18.69,10.74a1,1,0,0,0-.63.89c-5.83-5.05-11.73-10-18.54-13.7-3.07-1.68-6-3.57-9.1-5.2A115.65,115.65,0,0,0,184,27a126.39,126.39,0,0,0-26.7-4.61c-2.86-.18-5.72-.07-8.58-.31q0-11,0-22.07Z"/><path class="cls-3" d="M148.73,0q0,11,0,22.07a135.51,135.51,0,0,0-25.55,2.66c-15.8,3.23-30.27,9.61-43.92,18a118.72,118.72,0,0,0-15.68,12c0-.53-.38-.71-.77-.94L44.51,43.29a2.53,2.53,0,0,0-.55-.18A190,190,0,0,1,61.3,28.53a148.6,148.6,0,0,1,55-24.92,128.42,128.42,0,0,1,24-3.32c1.55-.11,3.14.32,4.66-.29Z"/><path class="cls-2" d="M0,151.94c.55,1.93.21,3.89.28,5.84l-.14,0-.14,0Z"/><path class="cls-2" d="M.28,140.26c-.06,1.56.29,3.15-.28,4.68v-4.66A.54.54,0,0,0,.28,140.26Z"/><path class="cls-2" d="M144.94,0c-1.52.61-3.11.18-4.66.29V0Z"/><path class="cls-1" d="M292.82,186.65a10.23,10.23,0,0,1-.61,2.68,97.32,97.32,0,0,1-5.58,17,155.15,155.15,0,0,1-23.89,38.8,150.35,150.35,0,0,1-49.4,38.27,106.13,106.13,0,0,1-17.5,7.12c-8.63,2.41-17.29,4.73-26.22,5.85a139.11,139.11,0,0,1-20.89,1.37q0-10.84,0-21.71a132.55,132.55,0,0,0,18.57-1.34,124.67,124.67,0,0,0,42-14c23-12.71,40.49-30.81,52.81-54a117.08,117.08,0,0,0,7.38-17.56c1.51-4.45,2.56-9,3.78-13.56,4.94,2.51,9.6,5.53,14.46,8.17C289.44,184.67,290.94,186,292.82,186.65Z"/><path class="cls-4" d="M148.72,276q0,10.86,0,21.71a114.23,114.23,0,0,1-17.15-.92,168.33,168.33,0,0,1-26.17-5.48C86.93,286.15,70.6,277,55.63,265.17A116,116,0,0,1,43.2,254a159,159,0,0,1-30.47-44.81,148.22,148.22,0,0,1-7.55-21.21c-.12-.42-.17-.85-.25-1.28a62.47,62.47,0,0,0,7.49-4.1q6.2-3.48,12.38-7a7.75,7.75,0,0,1,.28.81,123.18,123.18,0,0,0,17.61,42,127.27,127.27,0,0,0,91.08,56.69C138.74,275.66,143.73,275.87,148.72,276Z"/><path class="cls-3" d="M292.82,186.65c-1.88-.65-3.38-2-5.11-2.92-4.86-2.64-9.52-5.66-14.46-8.17a6.25,6.25,0,0,1,.07-.87,113.45,113.45,0,0,0,2.48-19.14,136.64,136.64,0,0,0-.42-18.76,123.08,123.08,0,0,0-5-24.89,127.37,127.37,0,0,0-36.22-57.09,1,1,0,0,1,.63-.89q9.35-5.36,18.69-10.74a.89.89,0,0,1,.28-.07,130.47,130.47,0,0,1,16.46,19.21,140.31,140.31,0,0,1,20.27,40.09,166.18,166.18,0,0,1,5.21,21.88,149.4,149.4,0,0,1-2.68,62A1.29,1.29,0,0,1,292.82,186.65Z"/><path class="cls-1" d="M209.1,137.35c-7.07,4.62-14.6,8.45-21.85,12.91v93.47l-9.56,5.55q-13.94,8.06-27.87,16.08a7.83,7.83,0,0,1-.79.34V242.38l13.65-7.31V224.72l-4-2.37V206.22l6.07-3.56V181.84l-6.07-3.53V164.26l8.22-4.79V138.65a2.44,2.44,0,0,1,.39-.37l22-12.63a2.86,2.86,0,0,1,1.21.41c5.5,3.19,11,6.32,16.52,9.53C207.72,136.05,208.69,136.39,209.1,137.35Z"/><path class="cls-4" d="M148.73,265.7c-4.4-2.25-8.61-4.86-12.89-7.34-7.14-4.12-14.24-8.32-21.35-12.49-.34-.19-.65-.41-1-.66V151.76L88.88,137.49c0-.69.56-.93,1.08-1.23,4.72-2.73,9.4-5.52,14.15-8.19,1.54-.86,2.94-2,4.73-2.41.3.15.61.28.91.45L130.08,138l3.26,1.91v93.5l15.39,9Z"/><path class="cls-4" d="M67.94,150.78a111,111,0,0,0,2,15.72,79.73,79.73,0,0,0,23,40.76,63.22,63.22,0,0,0,8,6.51v24.14a3.94,3.94,0,0,1-2-.86,104.76,104.76,0,0,1-31.61-28c-9.79-12.94-15.64-27.48-18.46-43.35-.12-.67-.16-1.35-.23-2Z"/><path class="cls-1" d="M249.29,162.45a53.2,53.2,0,0,1-1.69,9.87A96.25,96.25,0,0,1,232,207,107.21,107.21,0,0,1,209,230.56c-2.89,2.14-5.83,4.14-9.1,6.1V211.78a84.7,84.7,0,0,0,6.63-5.82c11.23-12.05,18.92-26,21.9-42.32a129.35,129.35,0,0,0,1.41-13.16,3,3,0,0,1,.67.25q8.56,5.49,17.13,11A2.92,2.92,0,0,0,249.29,162.45Z"/><path class="cls-1" d="M67.94,150.78,48.57,163.63a95.87,95.87,0,0,1-.79-23.08A97.24,97.24,0,0,1,54.84,111a101.43,101.43,0,0,1,20-31.26c.22-.23.38-.58.83-.53.29.42.14.92.14,1.38q0,16.33,0,32.66a5.91,5.91,0,0,1-.56,2.52,76.52,76.52,0,0,0-7.06,29.08C68.11,146.8,68,148.79,67.94,150.78Z"/><path class="cls-3" d="M249.29,162.45a2.92,2.92,0,0,1-1.7-.7q-8.55-5.53-17.13-11a3,3,0,0,0-.67-.25,83.45,83.45,0,0,0-3.18-23.83,77.45,77.45,0,0,0-4-10.62A7,7,0,0,1,222,113q0-16.1,0-32.19V79.2l.31-.16c1,1.11,2.1,2.18,3.08,3.33a103.32,103.32,0,0,1,21.79,41.33,104.68,104.68,0,0,1,3,31.86A25.5,25.5,0,0,1,249.29,162.45Z"/><path class="cls-2" d="M148.73,32.37c1.1,0,1.86.78,2.73,1.26,4.43,2.51,8.77,5.19,13.25,7.61C179,49,192.88,57.38,207,65.43a6.29,6.29,0,0,1,2.46,1.91c-1.09.22-1.76,1.14-2.68,1.65-4.25,2.39-8.51,4.76-12.69,7.26-1.42.86-3.08,1.41-4.2,2.74l-1.13-.65q-13.94-8-27.86-16.09c-4-2.32-8.1-4.58-12.16-6.87Q148.73,43.88,148.73,32.37Z"/><path class="cls-3" d="M148.73,32.37q0,11.51,0,23c-.2.14-.39.29-.59.41-8.41,4.91-16.92,9.63-25.23,14.69-4.84,3-9.81,5.67-14.72,8.5-.53-.92-1.55-1.13-2.37-1.6-5.82-3.37-11.66-6.7-17.5-10,.07-.61.63-.68,1-.92,11.54-6.68,23.11-13.33,34.62-20.06,2.22-1.29,4.34-2.77,6.63-3.91,6.09-3,11.8-6.68,17.72-10A1.43,1.43,0,0,1,148.73,32.37Z"/><path class="cls-1" d="M108.84,125.66c-1.79.38-3.19,1.55-4.73,2.41-4.75,2.67-9.43,5.46-14.15,8.19-.52.3-1,.54-1.08,1.23a.77.77,0,0,1-.61-.86c0-.2,0-.39,0-.59Q88.2,114,88.15,91.88a11.51,11.51,0,0,1,.12-1.15l.5-.12h19.75v1.64q0,15.8,0,31.6C108.52,124.47,108.36,125.12,108.84,125.66Z"/><path class="cls-3" d="M209.1,137.35c-.41-1-1.38-1.3-2.16-1.76-5.49-3.21-11-6.34-16.52-9.53a2.86,2.86,0,0,0-1.21-.41c.48-.53.33-1.19.33-1.81q0-15.81,0-31.61c0-.56-.2-1.17.33-1.77,6.33.1,12.73-.18,19.13.16l.52.12c0,2.67.1,5.34.09,8q-.06,18.58-.16,37.17C209.46,136.4,209.71,137,209.1,137.35Z"/><path class="cls-1" d="M88.31,67.33c5.84,3.35,11.68,6.68,17.5,10,.82.47,1.84.68,2.37,1.6-.53.32-1.07.65-1.61,1L88.72,90.16l-.49-.07q0-10.53-.08-21C88.15,68.48,88.26,67.9,88.31,67.33Z"/><path class="cls-3" d="M189.87,79c1.12-1.33,2.78-1.88,4.2-2.74,4.18-2.5,8.44-4.87,12.69-7.26.92-.51,1.59-1.43,2.68-1.65a1.88,1.88,0,0,1,.17.54q0,11.1-.05,22.2l-.52.08c-.65-.41-1.29-.83-2-1.21Q198.49,84,189.87,79Z"/><path class="cls-3" d="M148.73,265.7V242.37h.3V265.7Q148.88,266,148.73,265.7Z"/><path class="cls-3" d="M88.23,90.09l.49.07c0,.15,0,.3,0,.45l-.5.12C88.26,90.52,88.24,90.3,88.23,90.09Z"/><path class="cls-2" d="M209,90.16l.52-.08,0,.66-.52-.12Z"/><path class="cls-2" d="M148.73,75.55c1.56.29,2.77,1.33,4.09,2.08,5.92,3.36,11.79,6.81,17.68,10.23.37.21.82.32,1,.79-4.64,2.67-9.31,5.29-13.91,8-2.85,1.7-5.84,3.18-8.55,5.11h-.28l0,0a1.31,1.31,0,0,0,0-.28Z"/><path class="cls-3" d="M149,101.78c2.71-1.93,5.7-3.41,8.55-5.11,4.6-2.73,9.27-5.35,13.91-8a1.57,1.57,0,0,1,.2,1.12c0,7.9,0,15.81,0,23.72,0,.48.37,1.38-.78,1.16-3-2.12-6.22-3.72-9.33-5.56C157.41,106.62,153.21,104.21,149,101.78Z"/><path class="cls-1" d="M148.71,101.51a1.31,1.31,0,0,1,0,.28c-4.18,2.43-8.37,4.84-12.54,7.3-3.11,1.84-6.36,3.46-9.33,5.55-.61.11-.78-.21-.77-.74q0-12.5,0-25c0-.08.08-.17.13-.25,3.41,2,6.81,4,10.24,6C140.56,96.93,144.64,99.21,148.71,101.51Z"/><path class="cls-3" d="M148.71,101.51c-4.07-2.3-8.15-4.58-12.21-6.9-3.43-2-6.83-4-10.24-6a28.33,28.33,0,0,1,5-3.12c5.8-3.35,11.62-6.65,17.44-10Q148.72,88.53,148.71,101.51Z"/><path class="cls-1" d="M149,101.78c4.18,2.43,8.38,4.84,12.54,7.31,3.11,1.84,6.38,3.44,9.33,5.56-6.39,0-12.78,0-19.17,0-1,0-2,.39-3,0v-.3c.47-.43.27-1,.27-1.51,0-3.68,0-7.35,0-11Z"/><path class="cls-4" d="M148.74,114.32v.3c-7.29.14-14.59.11-21.88,0,3-2.09,6.22-3.71,9.33-5.55,4.17-2.46,8.36-4.87,12.54-7.3l0,0Q148.74,108,148.74,114.32Z"/><path class="cls-3" d="M148.74,114.32q0-6.27,0-12.55H149c0,3.68,0,7.35,0,11C149,113.32,149.21,113.89,148.74,114.32Z"/></g></g></svg>