<svg id="Layer_1" data-name="Layer 1" xmlns="http://www.w3.org/2000/svg" xmlns:xlink="http://www.w3.org/1999/xlink" viewBox="0 0 500 500"><defs><style>.cls-1{fill:url(#Sfumatura_senza_nome_3);}.cls-2{fill:url(#Sfumatura_senza_nome_2);}.cls-3{fill:url(#Sfumatura_senza_nome_4);}.cls-4{fill:url(#Sfumatura_senza_nome_4-2);}</style><linearGradient id="Sfumatura_senza_nome_3" x1="64.53" y1="332.03" x2="304.73" y2="332.03" gradientTransform="matrix(1, 0, 0, -1, 0, 500.72)" gradientUnits="userSpaceOnUse"><stop offset="0.42" stop-color="#fabd09"/><stop offset="0.83" stop-color="#fa6b00"/></linearGradient><linearGradient id="Sfumatura_senza_nome_2" x1="64.53" y1="219.24" x2="304.73" y2="219.24" gradientTransform="matrix(1, 0, 0, -1, 0, 500.72)" gradientUnits="userSpaceOnUse"><stop offset="0.25" stop-color="#e700ff"/><stop offset="0.32" stop-color="#e804f9"/><stop offset="0.41" stop-color="#e90ee8"/><stop offset="0.52" stop-color="#ec1fcc"/><stop offset="0.64" stop-color="#f037a5"/><stop offset="0.76" stop-color="#f45672"/><stop offset="0.89" stop-color="#fa7a36"/><stop offset="1" stop-color="#ff9b00"/></linearGradient><linearGradient id="Sfumatura_senza_nome_4" x1="185.51" y1="305.2" x2="435.47" y2="305.2" gradientTransform="matrix(1, 0, 0, -1, 0, 500.72)" gradientUnits="userSpaceOnUse"><stop offset="0" stop-color="#baff8e"/><stop offset="0.63" stop-color="#008ebb"/></linearGradient><linearGradient id="Sfumatura_senza_nome_4-2" x1="394.5" y1="371.5" x2="205.17" y2="-117.25" xlink:href="#Sfumatura_senza_nome_4"/></defs><polygon points="358.56 92.85 358.09 92.5 331.52 70.47 331.52 70.47 246.52 0 29.96 185.39 29.96 302.27 133.28 396.68 133.28 396.68 246.29 500 470.04 310.51 470.04 185.31 358.56 92.85"/><polygon class="cls-1" points="304.73 93.13 246.91 45.16 64.53 201.29 64.53 287.03 70.19 292.23 191.48 188.83 304.73 93.13"/><polygon class="cls-2" points="278.01 273.71 191.48 188.83 70.19 292.23 159.81 374.14 278.01 273.71"/><polygon class="cls-3" points="429.38 196.48 331.76 115.51 242.73 190.74 329.22 275.55 429.3 196.52 429.38 196.48"/><polygon class="cls-4" points="429.3 196.52 329.22 275.55 185.51 397.66 247.15 453.98 435.47 294.53 435.47 201.56 429.38 196.48 429.3 196.52"/></svg>