<?xml version="1.0" encoding="UTF-8"?>
<svg width="124px" height="124px" viewBox="0 0 124 124" version="1.1" xmlns="http://www.w3.org/2000/svg" xmlns:xlink="http://www.w3.org/1999/xlink">
    <title>BitcoinLibre-mark-rgb-pos</title>
    <defs>
        <linearGradient x1="50%" y1="0%" x2="50%" y2="100%" id="linearGradient-1">
            <stop stop-color="#FF8C00" offset="0%"></stop>
            <stop stop-color="#FF6200" offset="99.9510972%"></stop>
        </linearGradient>
        <linearGradient x1="50%" y1="0%" x2="50%" y2="100%" id="linearGradient-2">
            <stop stop-color="#FFD199" offset="0%"></stop>
            <stop stop-color="#FFBA66" offset="100%"></stop>
        </linearGradient>
        <linearGradient x1="50%" y1="0%" x2="50%" y2="99.7435563%" id="linearGradient-3">
            <stop stop-color="#FF8C00" offset="0%"></stop>
            <stop stop-color="#FF8C00" offset="100%"></stop>
        </linearGradient>
    </defs>
    <g id="BitcoinLibre-mark-rgb-pos" stroke="none" stroke-width="1" fill="none" fill-rule="evenodd">
        <g id="Icon">
            <rect id="Rectangle" fill="#FFFFFF" fill-rule="nonzero" opacity="0" x="0" y="0" width="124" height="124"></rect>
            <g id="Group-3" transform="translate(61.922096, 58.922096) rotate(-45.000000) translate(-61.922096, -58.922096) translate(21.922096, 18.422096)">
                <path d="M62.4671754,25 C67.9900229,25 72.4671754,29.4771525 72.4671754,35 L72.4671754,70.3204075 C72.4975412,77.4401358 75.0084827,81 80,81 L63.4313851,81 L63.4752658,80.9498182 C63.14374,80.9830052 62.8074424,81 62.4671754,81 L26.8759176,81 C21.3530701,81 16.8759176,76.5228475 16.8759176,71 L16.8759176,35 C16.8759176,29.4771525 21.3530701,25 26.8759176,25 L62.4671754,25 Z" id="Combined-Shape" fill="url(#linearGradient-1)" transform="translate(48.437959, 53.000000) scale(-1, 1) translate(-48.437959, -53.000000) "></path>
                <path d="M45.5912578,0 C51.1141053,-9.04872171e-15 55.5912578,4.4771525 55.5912578,10 L55.5912578,70.3204075 C55.6216237,77.4401358 58.1325652,81 63.1240824,81 L46.5554675,81 L46.5993483,80.9498182 C46.2678225,80.9830052 45.9315248,81 45.5912578,81 L10,81 C4.4771525,81 6.76353751e-16,76.5228475 0,71 L0,10 C-6.76353751e-16,4.4771525 4.4771525,2.79088747e-15 10,0 L45.5912578,0 Z M12.9051134,8 C10.1638452,8 7.94160826,10.2385763 7.94160826,13 C7.94160826,15.7614237 10.1638452,18 12.9051134,18 C15.6463816,18 17.8686186,15.7614237 17.8686186,13 C17.8686186,10.2385763 15.6463816,8 12.9051134,8 Z" id="Combined-Shape" fill="url(#linearGradient-2)"></path>
                <path d="M55.5909176,25 L55.5912578,70.3204075 C55.6216237,77.4401358 58.1325652,81 63.1240824,81 L46.5554675,81 L46.5993483,80.9498182 C46.2678225,80.9830052 45.9315248,81 45.5912578,81 L34.4087422,81 C34.0684752,81 33.7321775,80.9830052 33.4006517,80.9498182 L33.4445325,81 L16.8759176,81 C21.8674348,81 24.3783763,77.4401358 24.4087422,70.3204075 L24.4087422,35 C24.4087422,29.4771525 28.8858947,25 34.4087422,25 L55.5909176,25 Z" id="Combined-Shape" fill="url(#linearGradient-3)" opacity="0.800000012"></path>
            </g>
        </g>
    </g>
</svg>