<?xml version="1.0" encoding="utf-8"?>
<!-- Generator: Adobe Illustrator 26.0.1, SVG Export Plug-In . SVG Version: 6.00 Build 0)  -->
<svg version="1.1" id="Layer_1" xmlns="http://www.w3.org/2000/svg" xmlns:xlink="http://www.w3.org/1999/xlink" x="0px" y="0px"
	 viewBox="0 0 396 396" style="enable-background:new 0 0 396 396;" xml:space="preserve">
<style type="text/css">
	.st0{fill:#212323;}
	.st1{fill:#E6B15C;}
	.st2{fill:#FFFFFF;}
</style>
<path class="st1" d="M326.26,89.63c-0.63-0.23-1.29-0.34-1.96-0.34c-0.43,0.04-0.85,0.12-1.26,0.26l-46.92-49.6
	c0.71-0.93,1.1-2.07,1.13-3.24c0.02-3.16-2.52-5.73-5.68-5.75c-2.25-0.01-4.29,1.29-5.23,3.33l-32.38-6.16l0.01-0.05
	c0-3.16-2.57-5.73-5.73-5.73c-2.8,0.02-5.16,2.09-5.56,4.86h-47c-0.4-2.77-2.76-4.84-5.56-4.86c-3.17,0-5.73,2.57-5.73,5.73
	c0,0.08,0.04,0.15,0.04,0.23l-33.22,5.97c-1.32-2.86-4.72-4.11-7.58-2.79c-2.03,0.94-3.32,2.97-3.31,5.21
	c0.03,1.09,0.37,2.14,0.99,3.04L73.99,89.76c-0.71-0.31-1.48-0.47-2.26-0.47c-3.17,0-5.74,2.57-5.73,5.74
	c0,3.17,2.57,5.73,5.73,5.73c0.96-0.02,1.9-0.29,2.73-0.79l119.01,124.21c-0.37,0.75-0.56,1.58-0.57,2.41
	c0,3.17,2.57,5.74,5.74,5.74c3.17,0,5.74-2.57,5.74-5.74c-0.01-0.84-0.21-1.67-0.58-2.42l118.61-123.8
	c2.97,1.07,6.24-0.47,7.31-3.44C330.77,93.97,329.23,90.69,326.26,89.63z M318.93,96.76l-58.6,32.8c-0.92-2.04-2.95-3.36-5.19-3.37
	h-0.01c-0.37,0.04-0.73,0.11-1.08,0.22l-13.5-36.56c2.13-0.89,3.52-2.97,3.52-5.28c-0.02-0.95-0.28-1.87-0.76-2.69l24.23-20.58
	c0.95,0.75,2.13,1.17,3.34,1.19c1.57,0,3.07-0.66,4.14-1.8l44.88,30.82c-0.83,0.99-1.3,2.23-1.32,3.52
	C318.6,95.62,318.72,96.21,318.93,96.76z M249.39,131.93c0,0.17,0.08,0.32,0.1,0.48H148.33c0.01-0.17,0.1-0.31,0.1-0.48
	c-0.02-2.04-1.14-3.91-2.92-4.89l14.85-36.86c0.2,0.06,0.4,0.1,0.61,0.13c2.47-0.02,4.65-1.63,5.38-4h66.6
	c0.74,2.36,2.91,3.98,5.39,4c0.02,0,0.04-0.02,0.07-0.02l13.64,36.94C250.42,128.24,249.42,130.02,249.39,131.93L249.39,131.93z
	 M265.84,36.4c0,0.1-0.06,0.2-0.06,0.3c0,3.17,2.57,5.73,5.73,5.73c1.09-0.03,2.14-0.37,3.04-0.99l44.01,46.53l-42.39-29.11
	c1.19-2.91-0.21-6.23-3.12-7.42c-0.69-0.28-1.44-0.43-2.19-0.42c-1.45,0.01-2.84,0.57-3.89,1.57l-32.99-22.26L265.84,36.4z
	 M166.25,32.26c2.23,2.14,5.77,2.07,7.92-0.16c0.73-0.76,1.23-1.7,1.44-2.73h47.17c0.63,3.02,3.6,4.96,6.63,4.33
	c1.18-0.25,2.25-0.87,3.05-1.78l33.24,22.43c-0.36,0.75-0.56,1.57-0.56,2.4c0.03,1.05,0.35,2.07,0.93,2.94l-24.13,20.5
	c-2.33-2.02-5.86-1.78-7.88,0.55c-0.82,0.94-1.3,2.14-1.36,3.39h-66.07c-0.16-3.09-2.8-5.47-5.9-5.3c-1.3,0.07-2.53,0.58-3.49,1.46
	l-27.62-20.77c0.95-1.52,1.07-3.42,0.33-5.05L166.25,32.26z M122.82,41.3c0.93,0.71,2.07,1.1,3.24,1.13c3.17,0,5.73-2.57,5.73-5.73
	c0-0.11-0.06-0.2-0.06-0.31l33.18-5.97l0.05,0.07l-36.25,22.18c-2.2-2.25-5.81-2.28-8.06-0.08c-1.65,1.62-2.16,4.07-1.29,6.21
	L79.27,87.33L122.82,41.3z M120.52,60.65c1.07,1.17,2.58,1.83,4.16,1.84c1.29-0.02,2.53-0.49,3.52-1.31l27.69,20.83
	c-0.42,0.79-0.65,1.67-0.67,2.56c0.02,2.09,1.19,4.01,3.05,4.98l-14.83,36.8c-0.25-0.07-0.5-0.12-0.75-0.15h0
	c-2.35,0-4.45,1.44-5.31,3.63L77.25,96.16c0.49-1.43,0.2-3.02-0.77-4.18L120.52,60.65z M76.13,98.58c0.1-0.13,0.18-0.27,0.27-0.4
	l60.59,33.91c0.08,3.1,2.6,5.57,5.7,5.58c0.09,0,0.16-0.05,0.24-0.05l48.84,81.65L76.13,98.58z M201.48,221.73
	c-0.85-0.54-1.84-0.84-2.85-0.86c-1.01,0.02-2,0.33-2.85,0.87l-50.63-84.66c1.1-0.53,1.99-1.41,2.56-2.49h102.43
	c0.5,0.92,1.24,1.69,2.15,2.22L201.48,221.73z M205.44,219.32l48.93-81.8c0.25,0.07,0.5,0.12,0.76,0.16c3.17,0,5.74-2.57,5.73-5.74
	c0,0,0,0,0,0c0-0.06-0.03-0.11-0.03-0.17l59.14-33.1c0.16,0.2,0.33,0.39,0.52,0.57L205.44,219.32z"/>
<g id="Group_13_00000021831959942498921000000014689868467944917644_" transform="translate(455.893 21.47)">
	<path id="Path_83_00000027586489665307489060000001951429391640266123_" class="st0" d="M-424.79,257.54v87.66h42.49v-8.46h-33.73
		v-79.2H-424.79z"/>
	<path id="Path_84_00000172432194653420818760000011547235152720514990_" class="st0" d="M-359.86,257.55h8.54v51.6
		c0,6.12,0.12,9.93,0.35,11.45c0.3,3.01,1.31,5.91,2.96,8.45c1.56,2.27,3.94,4.17,7.15,5.7c3.02,1.48,6.34,2.27,9.71,2.29
		c2.81,0.01,5.59-0.61,8.13-1.81c2.52-1.14,4.75-2.85,6.51-4.99c1.81-2.28,3.12-4.91,3.83-7.73c0.58-2.17,0.87-6.62,0.87-13.36
		v-51.61h8.54v51.6c0,7.63-0.74,13.8-2.23,18.51c-1.49,4.7-4.48,8.8-8.95,12.28c-4.48,3.48-9.9,5.23-16.25,5.23
		c-6.9,0-12.8-1.65-17.72-4.94c-4.74-3.05-8.24-7.68-9.88-13.08c-1.05-3.33-1.57-9.33-1.57-18.01L-359.86,257.55z"/>
	<path id="Path_85_00000168818887843678247150000002910367555630251450_" class="st0" d="M-132.59,257.62
		c12.63,0,23.19,4.21,31.7,12.64c8.51,8.43,12.76,18.8,12.76,31.11c0,12.2-4.24,22.56-12.73,31.06
		c-8.49,8.5-18.84,12.75-31.05,12.75c-12.37,0-22.8-4.23-31.31-12.7s-12.76-18.7-12.76-30.72c-0.06-7.81,1.95-15.49,5.81-22.27
		C-162.52,265.93-148.15,257.56-132.59,257.62 M-132.22,265.73c-6.17,0-12.23,1.66-17.54,4.82c-5.4,3.09-9.87,7.58-12.94,12.99
		c-3.13,5.55-4.73,11.84-4.65,18.21c0,9.91,3.43,18.28,10.3,25.1c6.52,6.68,15.5,10.38,24.84,10.23c6.3,0.05,12.5-1.58,17.97-4.71
		c5.39-3.03,9.85-7.48,12.88-12.87c3.11-5.54,4.71-11.8,4.63-18.15c0.08-6.29-1.51-12.49-4.63-17.95
		c-3.11-5.38-7.61-9.81-13.03-12.85C-119.8,267.38-125.95,265.72-132.22,265.73"/>
	<path id="Path_86_00000078730703849783662640000013069528108417955968_" class="st0" d="M-223.69,295.89l27.91-32.35l-6.43-5.62
		l-27.82,32.24l1.44,4.6L-223.69,295.89z"/>
	<path id="Path_87_00000132087353546771371340000012224290530334505627_" class="st0" d="M-241.07,294.76l1.54-4.51l-27.82-32.23
		l-6.43,5.62l27.84,32.26L-241.07,294.76z"/>
	<path id="Path_88_00000054958217164224067200000003906777428046676385_" class="st0" d="M-223.69,307.14l27.91,32.34l-6.43,5.62
		l-27.82-32.24l1.44-4.6L-223.69,307.14z"/>
	<path id="Path_89_00000054957579051964667000000017860780644560966037_" class="st0" d="M-241.07,308.27l1.53,4.52l-27.82,32.22
		l-6.43-5.62l27.84-32.25L-241.07,308.27z"/>
</g>
</svg>
