<?xml version="1.0" encoding="utf-8"?>
<!-- Generator: Adobe Illustrator 25.4.1, SVG Export Plug-In . SVG Version: 6.00 Build 0)  -->
<svg version="1.1" id="Ebene_1" xmlns="http://www.w3.org/2000/svg" xmlns:xlink="http://www.w3.org/1999/xlink" x="0px" y="0px"
	 viewBox="0 0 326.1 100.6" style="enable-background:new 0 0 326.1 100.6;" xml:space="preserve">
<style type="text/css">
	.st0{fill:#1D69B2;}
	.st1{fill:#FFFFFF;}
	.st2{fill:none;stroke:#1D69B2;stroke-miterlimit:10;}
	.st3{fill:none;stroke:#FFFFFF;stroke-miterlimit:10;}
</style>
<rect x="35.8" y="20.1" class="st0" width="7.3" height="7.4"/>
<rect x="43.2" y="12.7" class="st0" width="7.3" height="7.3"/>
<polygon class="st0" points="21.2,27.4 13.8,27.4 13.8,34.6 6.5,34.6 6.5,42 0,42 0,49.3 7.3,49.3 7.3,42 13.8,42 13.8,34.8 
	21.2,34.8 "/>
<rect x="50.8" y="5.4" class="st1" width="7.3" height="7.3"/>
<rect x="6.5" y="49.5" class="st0" width="7.4" height="7.3"/>
<rect x="21.2" y="20.1" class="st0" width="7.4" height="7.4"/>
<path class="st0" d="M196.8,61.8c3.7-3.7,9.7-3.7,13.4-0.1c0,0,0,0,0.1,0.1l2.2,2.2l4.3-4.4l-2.1-2.2c-1.5-1.5-3.3-2.7-5.2-3.5
	c-3.8-1.5-8-1.5-11.8,0c-2,0.8-3.7,2-5.2,3.5c-1.5,1.5-2.7,3.2-3.4,5.2c0,0.1-0.1,0.3-0.1,0.4c-2.7-6.2-7.6-11.2-13.8-14
	c2.5-14.7-7.3-28.7-22-31.2c-5.2-0.9-10.6-0.2-15.5,1.9C121.8,0,93.9-4.9,72.5,8.3v4.4h7V20h-14v-7.4h-7.4V20h-7.7v7.4h-7.4v7.3
	H21.8v7.2h-7.4v7.4h7.4v-7.2h6.6v14.4H14.5v7.3h14.6v-7h6.5v7h-4.2v7.3h7.3v-7.3l0,0v7.3h7v7.3h-7v0.2H26.8
	C32.1,92,45,100.6,59.2,100.6h104.9c13.4,0,24.8-9.8,26.7-23.1c0.5,0.7,1.1,1.4,1.7,2c1.5,1.5,3.2,2.7,5.2,3.5c3.8,1.5,8,1.5,11.8,0
	c2-0.8,3.7-2,5.2-3.5l2.1-2.2l-4.3-4.4l-2.2,2.2c-0.9,0.9-1.9,1.6-3.1,2.1c-1.2,0.5-2.4,0.7-3.6,0.7c-2.5,0-5-1-6.7-2.8
	c-2.7-2.7-3.5-6.7-2.1-10.3C195.2,63.7,195.9,62.6,196.8,61.8z M42.9,56.5h-7.1v-7h3l0,0H43L42.9,56.5z M57.8,27.4h14.6v7.3H57.8
	V27.4z M83.9,84.2h-6.2V68.5c0-1.3-0.2-2.5-0.7-3.7c-0.5-1.1-1.1-2.1-2-3c-0.9-0.9-1.9-1.5-3-2c-1.2-0.5-2.4-0.7-3.7-0.7
	c-1.3,0-2.5,0.2-3.7,0.7c-1.1,0.5-2.1,1.1-3,2c-0.8,0.9-1.5,1.9-2,3c-0.5,1.2-0.7,2.4-0.7,3.7v15.7h-6.2V68.5c0-2.1,0.4-4.2,1.2-6.1
	c0.8-1.9,1.9-3.6,3.4-5c1.4-1.4,3.1-2.6,5-3.4c3.9-1.6,8.3-1.6,12.2,0c1.9,0.8,3.6,1.9,5,3.4c1.4,1.4,2.6,3.1,3.4,5
	c0.8,1.9,1.2,4,1.2,6.1L83.9,84.2z M117.5,68.4c0,2.1-0.4,4.2-1.2,6.1c-1.6,3.8-4.6,6.8-8.4,8.4c-5.9,2.5-12.7,1.2-17.2-3.4
	c-1.4-1.4-2.6-3.1-3.4-5c-0.8-1.9-1.2-4-1.2-6.1V52.7h6.2v15.7c0,1.3,0.2,2.5,0.7,3.7c0.9,2.3,2.7,4.1,5,5.1
	c1.2,0.5,2.4,0.7,3.7,0.7c2.5,0,4.9-1,6.7-2.8c1.8-1.8,2.8-4.2,2.8-6.7V52.7h6.2L117.5,68.4z M126.2,71.9c1.5,3.6,4.9,5.9,8.8,5.9
	c1.2,0,2.5-0.2,3.6-0.7c1.2-0.5,2.2-1.2,3.1-2.1l2.2-2.2l4.3,4.4l-2.2,2.2c-1.5,1.5-3.3,2.7-5.2,3.5c-3.8,1.5-8,1.5-11.8,0
	c-2-0.8-3.7-2-5.2-3.5c-1.5-1.5-2.7-3.2-3.4-5.2c-1.5-3.8-1.5-8,0-11.8c0.8-1.9,1.9-3.7,3.4-5.2c1.5-1.5,3.3-2.7,5.2-3.5
	c3.8-1.5,8-1.5,11.8,0c2,0.8,3.7,2,5.2,3.5l2.2,2.2l-4.3,4.4l-2.2-2.2c-0.9-0.9-2-1.6-3.1-2.1c-2.3-0.9-4.8-0.9-7.1,0
	c-1.2,0.5-2.2,1.2-3.1,2.1c-0.9,0.9-1.6,1.9-2.1,3.1C125.3,67.1,125.3,69.7,126.2,71.9L126.2,71.9z M180.9,74.6
	c-0.8,1.9-2,3.6-3.4,5c-1.4,1.4-3.1,2.6-5,3.4c-3.9,1.6-8.3,1.6-12.2,0c-1.9-0.8-3.6-1.9-5-3.4c-1.4-1.4-2.6-3.1-3.4-5
	c-1.6-3.9-1.6-8.3,0-12.2c0.8-1.9,1.9-3.6,3.4-5c1.4-1.4,3.1-2.6,5-3.4c3.9-1.6,8.3-1.6,12.2,0c1.9,0.8,3.6,1.9,5,3.4
	c1.4,1.4,2.6,3.1,3.4,5C182.5,66.3,182.5,70.7,180.9,74.6z"/>
<path class="st0" d="M254.7,57.4c-1.4-1.4-3.1-2.6-5-3.4c-3.9-1.6-8.3-1.6-12.2,0c-3.8,1.6-6.8,4.6-8.4,8.3c-1.6,3.9-1.6,8.3,0,12.2
	c0.8,1.9,1.9,3.6,3.4,5c4.5,4.5,11.3,5.9,17.2,3.4c3.8-1.6,6.8-4.6,8.4-8.4c0.8-1.9,1.2-4,1.2-6.1c0-2.1-0.4-4.2-1.2-6.1
	C257.2,60.5,256.1,58.9,254.7,57.4z M252.3,72.2c-1.5,3.5-4.9,5.8-8.8,5.8c-2.5,0-5-1-6.8-2.8c-1.8-1.8-2.8-4.2-2.8-6.7
	c0-1.3,0.2-2.5,0.7-3.7c0.5-1.1,1.2-2.1,2-3c0.9-0.9,1.9-1.5,3-2c2.4-1,5-1,7.4,0c1.1,0.5,2.1,1.1,3,2c0.8,0.9,1.5,1.9,2,3
	c0.5,1.2,0.7,2.4,0.7,3.7C253,69.8,252.8,71,252.3,72.2z"/>
<path class="st0" d="M319.9,52.7h-9.4c-2.1,0-4.2,0.4-6.1,1.2c-1.9,0.8-3.6,1.9-5,3.4c-1.4,1.4-2.6,3.1-3.4,5
	c-1.6,3.9-1.6,8.3,0,12.2c1.6,3.8,4.6,6.8,8.4,8.4c5.9,2.5,12.7,1.1,17.2-3.4c1.4-1.4,2.6-3.1,3.4-5c0.8-1.9,1.2-4,1.2-6.1V40.1
	h-6.2L319.9,52.7z M319.9,68.4L319.9,68.4c0,1.3-0.2,2.5-0.7,3.7c-0.9,2.3-2.7,4.1-5,5.1c-1.2,0.5-2.4,0.7-3.7,0.7
	c-5.2,0-9.5-4.2-9.5-9.4c0,0,0-0.1,0-0.1c0-1.3,0.2-2.5,0.7-3.7c0.5-1.1,1.2-2.1,2-3c1.8-1.8,4.2-2.8,6.7-2.8h9.4L319.9,68.4z"/>
<rect x="219.4" y="40.2" class="st0" width="6.2" height="44"/>
<path class="st0" d="M286.6,68.4c0,5.2-4.2,9.5-9.4,9.5c0,0-0.1,0-0.1,0c-1.3,0-2.5-0.2-3.7-0.7c-3.5-1.5-5.8-5-5.8-8.8V52.7h-6.2
	v15.7c0,2.1,0.4,4.2,1.2,6.1c0.8,1.9,1.9,3.6,3.4,5c4.5,4.5,11.3,5.9,17.2,3.4c3.8-1.6,6.8-4.6,8.4-8.4c0.8-1.9,1.2-4,1.2-6.1V52.7
	h-6.2V68.4z"/>
<path class="st0" d="M173.1,61.8c-0.9-0.9-1.9-1.5-3-2c-2.4-1-5-1-7.4,0c-1.1,0.5-2.1,1.1-3,2c-0.8,0.9-1.5,1.9-2,3
	c-0.5,1.2-0.7,2.4-0.7,3.7c0,1.3,0.2,2.5,0.7,3.7c0.5,1.1,1.1,2.1,2,3c3.7,3.7,9.8,3.7,13.5,0c1.8-1.8,2.8-4.2,2.8-6.7
	c0-1.3-0.2-2.5-0.7-3.7C174.8,63.7,174,62.7,173.1,61.8z"/>
<line class="st2" x1="181.9" y1="88.7" x2="323.9" y2="88.7"/>
<line class="st3" x1="151.1" y1="0.5" x2="293" y2="0.5"/>
</svg>
