<?xml version="1.0" standalone="yes"?>
<svg xmlns="http://www.w3.org/2000/svg" width="2000" height="2000">
<path style="fill:#131313; stroke:none;" d="M0 0L0 2000L2000 2000L2000 0L0 0z"/>
<path style="fill:#ffffff; stroke:none;" d="M960 80L960 120L1040 120L1040 80L960 80M960 160L960 200L1040 200L1040 160L960 160M960 240L960 280L1040 280L1040 240L960 240M800 280L800 320L840 320L840 360L1160 360L1160 320L1200 320L1200 280L1160 280L1160 320L840 320L840 280L800 280M960 400L960 440L1040 440L1040 400L960 400M840 480L840 520L760 520L760 560L680 560L680 600L640 600L640 640L880 640L880 760L840 760L840 800L760 800L760 840L920 840L920 800L1080 800L1080 760L1120 760L1120 720L1200 720L1200 760L1240 760L1240 800L1280 800L1280 840L1320 840L1320 880L1360 880L1360 960L1400 960L1400 1040L1440 1040L1440 1360L1400 1360L1400 1440L1360 1440L1360 1480L1320 1480L1320 1520L1240 1520L1240 1560L1120 1560L1120 1600L880 1600L880 1560L800 1560L800 1480L720 1480L720 1400L680 1400L680 1320L640 1320L640 1240L600 1240L600 920L640 920L640 880L680 880L680 800L720 800L720 760L800 760L800 720L840 720L840 680L640 680L640 720L560 720L560 760L520 760L520 800L480 800L480 840L440 840L440 880L400 880L400 960L360 960L360 1040L320 1040L320 1360L360 1360L360 1480L400 1480L400 1560L440 1560L440 1600L480 1600L480 1640L520 1640L520 1680L560 1680L560 1720L600 1720L600 1760L640 1760L640 1800L720 1800L720 1840L840 1840L840 1880L1280 1880L1280 1840L1400 1840L1400 1800L1480 1800L1480 1760L1520 1760L1520 1720L1560 1720L1560 1680L1600 1680L1600 1640L1640 1640L1640 1600L1680 1600L1680 1520L1720 1520L1720 1160L1680 1160L1680 1040L1640 1040L1640 920L1600 920L1600 840L1560 840L1560 760L1520 760L1520 720L1480 720L1480 680L1400 680L1400 640L1360 640L1360 600L1280 600L1280 560L1240 560L1240 520L1160 520L1160 480L840 480z"/>
<path style="fill:#131313; stroke:none;" d="M960 560L960 640L1040 640L1040 560L960 560z"/>
<path style="fill:#ffffff; stroke:none;" d="M960 840L960 1200L1000 1200L1000 1400L1040 1400L1040 840L960 840z"/>
</svg>
