<?xml version="1.0" encoding="utf-8"?>
<!-- Generator: Adobe Illustrator 25.2.0, SVG Export Plug-In . SVG Version: 6.00 Build 0)  -->
<svg version="1.1" id="Layer_1" xmlns="http://www.w3.org/2000/svg" xmlns:xlink="http://www.w3.org/1999/xlink" x="0px" y="0px"
	 viewBox="0 0 200 200" style="enable-background:new 0 0 200 200;" xml:space="preserve">
<style type="text/css">
	.st0{fill:url(#SVGID_1_);}
	.st1{fill:#2E2FFF;}
</style>
<linearGradient id="SVGID_1_" gradientUnits="userSpaceOnUse" x1="67.6874" y1="66.9284" x2="135.286" y2="134.5271">
	<stop  offset="0" style="stop-color:#2E2FFF"/>
	<stop  offset="1" style="stop-color:#1E1F61"/>
</linearGradient>
<path class="st0" d="M149.3,100.8c0.2,25-20.1,47.7-47.8,47.7c-26.1,0-47.8-20.9-47.7-48.1c0.1-13.1,4.8-24.3,14.1-33.6
	c9.3-9.2,20.7-13.9,33.7-13.9c13.3,0,24.9,4.9,34.2,14.5C144.8,76.7,149.1,87.9,149.3,100.8z"/>
<path class="st1" d="M139.4,45l0.7-1.1c-11.3-7.8-24.6-12.1-38.5-12.1c-18.2,0-35.3,7.2-48.2,20.2c-12.9,13-20,30.3-20,48.7
	s7.1,35.7,20,48.7c4.6,4.6,9.7,8.5,15.2,11.6l0.7-1.1c9.6,5.4,20.6,8.5,32.3,8.5c36.9,0,66.9-30.3,66.9-67.6
	C168.4,77.6,156.9,57.2,139.4,45z M101.5,167.8c-36.6,0-66.4-30.1-66.4-67.1s29.8-67.1,66.4-67.1c36.6,0,66.4,30.1,66.4,67.1
	S138.1,167.8,101.5,167.8z"/>
<path class="st1" d="M167.4,166.2l1.4,1.2c13.3-13.9,22.1-31.4,25.2-50.8c4.1-25.3-1.8-50.6-16.7-71.4
	c-14.9-20.8-36.9-34.5-62.1-38.6S64.8,8.5,44.1,23.4C36.7,28.7,30.3,35,24.8,41.9l1.4,1.2c-9.5,12.1-16.2,26.7-18.9,43
	c-8.4,51.2,26.3,99.6,77.3,107.9C116.2,199.2,146.7,187.8,167.4,166.2z M8,86.2C16.3,35.4,64.2,0.8,114.8,9.1s85,56.3,76.7,107.1
	c-8.3,50.8-56.2,85.4-106.8,77.1C34.1,185-0.3,137,8,86.2z"/>
<path class="st1" d="M180.5,101.5c0-44.2-36-80.1-80.3-80.1c-28.8,0-54,15.2-68.2,37.9l-0.7-0.4c-7.7,12.4-12.2,27-12.2,42.6
	c0,44.6,36.4,80.8,81.1,80.8c30.9,0,57.8-17.3,71.5-42.7l-0.6-0.3C177.1,128,180.5,115.1,180.5,101.5z M100.2,21.9
	c44,0,79.8,35.7,79.8,79.6c0,13.6-3.4,26.4-9.5,37.6l-0.8-0.4c-13.3,24.7-39.6,41.6-69.6,41.6c-43.6,0-79-35.3-79-78.8
	c0-15.3,4.3-29.5,11.9-41.6l-0.6-0.3C46.6,37,71.7,21.9,100.2,21.9z"/>
</svg>
