<?xml version="1.0" encoding="utf-8"?>
<!-- Generator: Adobe Illustrator 25.0.1, SVG Export Plug-In . SVG Version: 6.00 Build 0)  -->
<svg version="1.1" id="Layer_1" xmlns="http://www.w3.org/2000/svg" xmlns:xlink="http://www.w3.org/1999/xlink" x="0px" y="0px"
	 viewBox="0 0 879 621" style="enable-background:new 0 0 879 621;" xml:space="preserve">
<style type="text/css">
	.st0{fill:url(#SVGID_1_);}
</style>
<linearGradient id="SVGID_1_" gradientUnits="userSpaceOnUse" x1="16.9952" y1="308.105" x2="861.9952" y2="308.105">
	<stop  offset="0" style="stop-color:#31EDA9"/>
	<stop  offset="6.183435e-02" style="stop-color:#71EF74"/>
	<stop  offset="0.1263" style="stop-color:#AEF043"/>
	<stop  offset="0.1813" style="stop-color:#DAF11E"/>
	<stop  offset="0.2239" style="stop-color:#F5F208"/>
	<stop  offset="0.2488" style="stop-color:#FFF200"/>
	<stop  offset="0.27" style="stop-color:#FEDC0E"/>
	<stop  offset="0.3843" style="stop-color:#FA685A"/>
	<stop  offset="0.4629" style="stop-color:#F71F89"/>
	<stop  offset="0.4991" style="stop-color:#F6029C"/>
	<stop  offset="0.505" style="stop-color:#F0059E"/>
	<stop  offset="0.5554" style="stop-color:#BE21AB"/>
	<stop  offset="0.6084" style="stop-color:#9239B7"/>
	<stop  offset="0.663" style="stop-color:#6C4EC1"/>
	<stop  offset="0.7196" style="stop-color:#4E5FCA"/>
	<stop  offset="0.7788" style="stop-color:#376CD0"/>
	<stop  offset="0.8419" style="stop-color:#2675D4"/>
	<stop  offset="0.9114" style="stop-color:#1C7AD7"/>
	<stop  offset="1" style="stop-color:#197CD8"/>
</linearGradient>
<path class="st0" d="M689.3,99.4c-57.5,0-82.4,30.4-127.7,30.4c-28.7,0-46.5-14.3-68.3-30.1c-30.2-21.9-88.7-89.2-196.7-89.2
	C147.1,10.4,16.1,135.1,17,308.1v0c-0.9,173,130.1,297.7,279.5,297.7c108.1,0,166.6-67.3,196.7-89.2c21.8-15.8,39.6-30.1,68.3-30.1
	c45.3,0,70.2,30.4,127.7,30.4c99.1,0,172.7-94.9,172.7-209.3C862,193.1,788.4,99.4,689.3,99.4z M693.2,413
	c-19.1,0-31.7-7.1-47.9-15.8c-23.5-12.7-55-26.4-87.6-26.4c-52.8,0-91.2,24.6-120,42.9c-25.8,16.4-51.4,32.8-95.5,32.8
	c-69.6,0-130.7-59.7-130.7-138.3c0-78.6,61.1-138.3,130.7-138.3c44.1,0,69.7,16.4,95.5,32.8c28.8,18.3,67.1,42.9,120,42.9
	c32.6,0,64.1-13.7,87.6-26.4c16.2-8.7,28.8-15.8,47.9-15.8c45.4,0,79.2,48.1,79.2,104.9C772.4,364.9,738.7,413,693.2,413z"/>
</svg>
