<svg xmlns="http://www.w3.org/2000/svg" viewBox="0 0 494.42 494.44"><defs><style>.cls-1{fill:#f5f7e2;}.cls-2{fill:#f66;}.cls-3{fill:#d95e59;}.cls-4{fill:#f60c56;}.cls-4,.cls-5,.cls-6,.cls-7,.cls-8{fill-rule:evenodd;}.cls-5{fill:#24fbd3;}.cls-6{fill:#7c6eee;}.cls-7{fill:#6096eb;}.cls-8{fill:#31dafb;}</style></defs><g id="Layer_2" data-name="Layer 2"><g id="Layer_1-2" data-name="Layer 1"><g id="Artboard"><g id="pTokens-icon"><path id="Path" class="cls-1" d="M115.55,115.56c-72.71,72.71-72.71,190.61,0,263.32s190.61,72.71,263.32,0,72.71-190.61,0-263.32S188.26,42.85,115.55,115.56Z"/><path class="cls-2" d="M72.21,247.22A175,175,0,0,1,371,123.48L422,72.41C325.48-24.14,169-24.14,72.41,72.41s-96.55,253.07,0,349.61L123.47,371A174.45,174.45,0,0,1,72.21,247.22Z"/><path class="cls-3" d="M422,72.39l-51.07,51.07a175,175,0,0,1-7.88,254.91A247.33,247.33,0,0,1,422,422C518.56,325.48,518.56,168.94,422,72.39Z"/><path class="cls-3" d="M123.47,371,72.41,422a246.87,246.87,0,0,1,59-43.65C128.66,376,126,373.52,123.47,371Z"/><path id="Path-2" data-name="Path" class="cls-1" d="M422,422c-96.52,96.55-253,96.55-349.6,0C169,325.48,325.49,325.48,422,422Z"/></g></g></g><g id="Layer_4" data-name="Layer 4"><g id="svgg"><path id="path0" class="cls-4" d="M247.54,120.4c-1.1,2.17-2.11,4.08-2.25,4.26a21.45,21.45,0,0,0-1.13,2.07l-.88,1.76-1.34.87-2.11,1.36-1.4.89-4.24,2.68-5.25,3.32-2.87,1.81-1.93,1.21-1.56,1-1.5,1-2.4,1.51-2.46,1.54c-.37.25-1.12.72-1.65,1.06l-1,.61-3.25.06-3.24,0-1.31.75-2.5,1.45c-.65.38-1.86,1-2.68,1.45s-2.93,1.61-4.68,2.62-4.33,2.53-5.74,3.34c-2.74,1.6-2.84,1.66-2.7,1.81s1.77.12,3.8.16l3.7.06-.5.31c-.27.16-2.35,1.48-4.61,2.92l-7,4.45c-2.73,1.7-9,5.65-10,6.29-1.15.76-2.34,1.51-4,2.57-1.55,1-4.39,2.75-8.36,5.29l-2.58,1.62c-1.08.67-2,1.28-2.08,1.36s0,69.73.19,97.16c.06,8.62.1,16.59.1,17.72v2.05l-.76.54c-.79.55-3.66,2.36-13,8.17-2.95,1.85-5.39,3.41-5.41,3.47s4.05.12,10.79.12h10.84l3.05,1.83,7.18,4.26c5.45,3.21,5.29,2.9,1.46,2.9a22.43,22.43,0,0,0-3.1.1c.06.1,1.88,1.3,9.91,6.55L183.5,333l3.21,2.11h8.76l.7.42,3.64,2.17,7.3,4.34,9,5.34,15.23,9.07,8.17,4.87,6.49,3.86c1.34.81,2.71,1.62,3.05,1.81l.63.34,2.49-1.49,7.44-4.44,5-3h8.65l1.4-.85L290,348.17c1.52-.93,2.77-1.73,2.77-1.78s-1.71-.1-3.81-.1a34.82,34.82,0,0,1-3.8-.1,3.75,3.75,0,0,1,.84-.58l3.59-2.13,8.05-4.79,9.73-5.81,6.11-3.64,20-11.93c3.23-1.92,6.12-3.65,6.44-3.85l.57-.36h11c6.05,0,11,0,11-.09a14.81,14.81,0,0,0-1.78-1.19l-3.52-2.2c-1-.61-4.06-2.55-6.9-4.31s-5.26-3.31-5.4-3.42-.85-82.2-.86-113.67v-3.16l-.31-.3a1,1,0,0,0-.56-.31,5,5,0,0,1-1.28-.67l-6.15-3.88c-2.82-1.77-5.17-3.29-5.24-3.37s-1.27-.84-2.65-1.68a25.19,25.19,0,0,1-2.53-1.64c0-.07,2.62-.11,6-.11s6,0,6-.1-2.42-1.49-5.39-3.21l-8.44-4.9-3.06-1.78H309.18L307,161.73l-4.17-2.64L282.73,146.4,277,142.78c-1.95-1.22-3.43-2.15-7.31-4.62l-9.49-6c-1.89-1.19-3.52-2.25-3.63-2.37s-1.16-2-4.85-9.34c-1.12-2.21-2.07-4-2.11-4s-1,1.78-2.07,4m-16.91,33s-.31.64-3.89,7.71c-1.35,2.64-3.54,7-4.88,9.61l-3.8,7.48-4,7.86c-1.42,2.85-2.64,5.27-2.7,5.37s-.88,1.71-4.45,8.73l-3.77,7.43c-.81,1.58-2.74,5.4-4.31,8.48l-4.77,9.43c-1.07,2.09-3.2,6.3-4.74,9.35s-3.86,7.63-5.15,10.17-3.5,6.89-4.9,9.67l-4.52,8.93c-1.08,2.12-3,6-4.35,8.58l-2.39,4.72-.07-5.4c0-3-.09-21.9-.1-42.07l0-36.65,1.07-.69c1.19-.77,10.82-6.86,14.1-8.92l3.8-2.4,3.62-2.29,5.8-3.67,6.8-4.29,11.86-7.49,4.43-2.8,2.43-1.54c.65-.41,1.47-.88,1.81-1s2-1.19,3.74-2.28c2.8-1.79,3.31-2.09,3.31-2m41.52,2.92c1.56,1,3.79,2.42,5,3.14s3.1,1.94,4.3,2.71c1.87,1.2,7.49,4.75,9,5.71l4.06,2.59c2,1.25,4,2.56,4.55,2.89,1.41.87,4.57,2.84,5.68,3.55l4.77,3c2.11,1.35,5.26,3.34,7,4.43l3.59,2.26c4.85,3.1,6,3.81,7,4.29a5.93,5.93,0,0,1,1.38.87,7.37,7.37,0,0,0,1.19.89l.88.54.08,9.12c.2,23.87.22,74,0,73.82s-1.68-3.17-3.52-6.8-3.8-7.52-4.37-8.61-2.56-5-4.43-8.74l-5.3-10.48c-1.05-2.06-3.06-6-4.46-8.8-5.09-10-7.47-14.75-9.95-19.65-5.61-11.08-8-15.77-9.74-19.22l-5-10c-1.77-3.5-3.57-7-4-7.86-1.54-3-5.28-10.49-5.48-11.05s-2.17-4.53-4.05-8.12c-1.11-2.13-1.21-2.36-1.08-2.36s1.34.83,2.9,1.83m-13,9.84c1.77,3.5,4.62,9.14,6.33,12.54,4.91,9.72,6.1,12,6.35,12.3a.87.87,0,0,1,.24.45c0,.1,1.22,2.63,2.72,5.6,9.6,19.07,11.37,22.55,11.63,22.89.1.13,1.45,2.78,5.3,10.36l3.74,7.36c.78,1.51,2.46,4.82,3.75,7.36s4,8,6.11,12c13.55,26.65,14.83,29.19,14.76,29.26s-1.09-.61-2.36-1.41-4-2.53-6.15-3.83c-8.59-5.33-11.45-7.11-15.23-9.48l-15.79-9.84-6.74-4.21-5.3-3.31c-1.3-.81-2.74-1.7-3.18-2L260.05,249l-4.46-2.78V215.1c0-32.59.1-55.56.25-55.39s1.53,3,3.3,6.46m-17.58,11.11c0,7.58,0,13.88,0,14s0,12.67-.08,27.89l-.08,27.67-.62.41-3.43,2.2c-1.55,1-3,1.89-3.15,2a2,2,0,0,1-.39.24c-.11,0-2.16,1.28-4.64,2.89-1.65,1.08-6.6,4.22-8.13,5.16l-2.47,1.54-1.5.93-1,.65c-1.18.77-4.89,3.13-6.78,4.3-1.47.92-4.61,2.89-8,5.05-1.75,1.12-4.42,2.8-5.93,3.75-2.52,1.58-4.82,3-8.89,5.64l-2,1.29-2.65,1.68c-2.78,1.78-2.54,1.64-2.42,1.36.06-.13.18-.46.28-.74.17-.48,2.35-4.87,5-10l4.18-8.23c1.59-3.16,3.92-7.77,5.18-10.24l5.36-10.6c1.7-3.37,3.64-7.18,4.31-8.49l4.55-9c1.84-3.64,4.25-8.41,5.37-10.61l4.55-9c1.39-2.75,3.55-7,4.81-9.49l4.71-9.29c6.2-12.26,7-13.81,7.25-14.11s1.67-3.12,3.38-6.52,3.15-6.2,3.19-6.2.06,6.2.07,13.79M251,259.94l2.43,1.48c.69.41,2.84,1.76,4.78,3s3.58,2.26,3.64,2.26a.18.18,0,0,1,.15.1,9.47,9.47,0,0,0,1.29.84c2.55,1.49,3.13,1.84,3.56,2.12.24.16,1.78,1.11,3.43,2.13l6.36,3.92,12.17,7.55,5.86,3.65,8,5,8,5,3.1,1.92c.15.1.25.23.22.28s-128.3.19-128.4,0,.05-.21.2-.31l4.16-2.58c7.18-4.47,19.46-12.12,19.9-12.41.24-.16,1.28-.8,2.31-1.44l2.31-1.43c.8-.52,4.17-2.63,5.09-3.19.5-.3,2.35-1.46,4.11-2.56,12.62-7.9,20-12.45,20.24-12.53a4.93,4.93,0,0,0,.9-.45l1.88-1.15c.7-.43,1.67-1,2.15-1.34,1.06-.66.78-.69,2.19.19m62.12,53.28c0,.07-1.76,1.14-3.85,2.39l-10,5.95-9.36,5.58L285,330.07c-1,.57-3.21,1.9-5,3l-7.11,4.24-7.36,4.4-9.7,5.78-6.21,3.7-2.16-1.29-10.38-6.2c-4.53-2.69-10.85-6.45-14-8.36L210.66,328c-14.58-8.68-24.45-14.63-24.45-14.74s26.4-.11,63.46-.11c40.41,0,63.45,0,63.42.12"/><path id="path1" class="cls-5" d="M242.86,102.05c-.52,0-1.86.1-3,.18l-3.87.24a139.37,139.37,0,0,0-14.1,1.76c-2,.37-5.43,1-7.36,1.5-3,.69-3.32.77-6,1.5-1.78.49-4.17,1.2-5,1.47-.34.12-1,.35-1.56.5s-1.14.36-1.4.46l-1.56.54c-.6.2-1.48.51-2,.69s-1.1.41-1.38.5-.69.25-.93.35l-1.06.44c-1.25.49-1.9.76-3.25,1.33-1.55.65-2,.84-3.93,1.72-1,.44-4.63,2.2-4.93,2.37l-1.62.84c-1.54.8-2.69,1.42-3.24,1.75l-1.06.59c-.84.45-1.56.86-2.06,1.17-.21.13-.62.36-.91.51s-.53.32-.53.38a.1.1,0,0,1-.11.09,36.38,36.38,0,0,0-3.41,2.09,5,5,0,0,1-.65.41c-.07,0-2.72,1.76-2.82,1.86a1.39,1.39,0,0,1-.26.2c-.36.22-1.67,1.11-1.73,1.18s-.35.26-.69.5c-1.74,1.19-7.37,5.51-7.74,5.93-.06.08-.62.55-1.24,1.05s-1.29,1.07-1.5,1.26-1.25,1.12-2.31,2.07A132.6,132.6,0,0,0,139.3,150c-.91,1-1.82,2-2,2.25s-.74.87-1.23,1.47-1,1.19-1.11,1.3-.49.59-.84,1-.7.9-.79,1-2,2.52-2.71,3.53c-1.54,2.13-1.93,2.66-2,2.77s-1,1.52-1.22,1.79a1.28,1.28,0,0,1-.19.27c-.09.08-1.87,2.75-1.87,2.8s-.33.55-.75,1.17-.74,1.16-.74,1.19a8.17,8.17,0,0,1-.5.82,4.07,4.07,0,0,0-.5.88.12.12,0,0,1-.1.13c-.06,0-.23.24-.38.53s-.38.7-.5.9c-.31.49-.72,1.21-1.18,2.06-.21.38-.58,1-.84,1.5s-.86,1.57-1.34,2.51-.94,1.8-1,1.93c-.28.51-2.43,5-3,6.23l-.42.93c-.29.67-1.2,2.83-1.51,3.62s-.76,1.9-1,2.37c-.1.24-.26.67-.35.94s-.28.81-.43,1.19c-.39,1-.88,2.37-1,2.8,0,.21-.2.66-.32,1-.45,1.29-.65,1.9-.92,2.75-.15.48-.35,1.13-.46,1.45s-.27.88-.36,1.25-.32,1.17-.5,1.79-.37,1.32-.43,1.56l-.53,2.12a143.89,143.89,0,0,0-4,24.38c-.06,1-.18,2.76-.27,3.82-.2,2.54-.2,11.94,0,14.47.08,1.07.2,2.81.26,3.87a144.13,144.13,0,0,0,4,24.34c.24.92.46,1.82.49,2s.16.65.28,1.06l.49,1.69c.89,3,1.09,3.67,1.71,5.49.25.72.49,1.48.55,1.68s.28.85.49,1.44.45,1.24.52,1.46a6.17,6.17,0,0,0,.3.75,1.6,1.6,0,0,1,.19.5,3.09,3.09,0,0,0,.24.68c.14.3.39.93.58,1.41s.4,1,.49,1.24.4.94.68,1.63l.77,1.81.42.94c.52,1.19,2.67,5.72,3,6.22.07.13.53,1,1,1.94s1.09,2.06,1.34,2.5.63,1.12.84,1.5c.45.83.86,1.55,1.17,2.06l.52.86c.34.59.33.57,1.33,2.2s1.33,2.12,1.51,2.33a.56.56,0,0,1,.12.23c0,.07,1.74,2.69,1.87,2.8a2.24,2.24,0,0,1,.19.27c.17.27,1.09,1.63,1.22,1.79s.48.65,2,2.77c.74,1,2.53,3.36,2.71,3.54s.45.55.79,1,.72.91.84,1,.62.71,1.11,1.31,1,1.19,1.09,1.3.51.55.89,1A138.86,138.86,0,0,0,149.78,355c1.06.94,2.1,1.86,2.3,2s.87.75,1.47,1.24,1.19,1,1.31,1.11.58.49,1,.83.83.66.87.7c.22.31,7.76,5.86,8.23,6.07a.57.57,0,0,1,.25.17c.08.1,2.74,1.86,2.82,1.86a5.7,5.7,0,0,1,.65.42,38,38,0,0,0,3.41,2.08.1.1,0,0,1,.11.1,1.59,1.59,0,0,0,.53.38c.29.15.76.41,1,.58s.61.37.75.44.47.26.75.43a11,11,0,0,0,1,.56c.27.14.94.5,1.49.81,1.89,1.05,9.07,4.59,10.92,5.37,2.48,1,3.24,1.36,3.78,1.57.32.14.87.35,1.21.49,1.33.53,1.84.73,2.56,1l1.36.51a4.31,4.31,0,0,0,.76.24,2,2,0,0,1,.56.2,4.34,4.34,0,0,0,.8.3c.21,0,.67.19,1,.31,1.9.67,2.56.88,6.12,1.91.89.26,1.87.54,3.55,1,.52.15,1.45.38,2.06.52l2,.51a7.6,7.6,0,0,0,1.16.24,10.92,10.92,0,0,1,1.29.24c3.34.78,10.76,2,13.69,2.26l2.93.29a144.11,144.11,0,0,0,27.08,0c1-.1,2.34-.24,3.06-.3s1.78-.2,2.37-.3a11.28,11.28,0,0,1,1.43-.19c.21,0,1-.12,1.81-.26l2.93-.51c1.84-.31,3.67-.67,5-1a10.92,10.92,0,0,1,1.29-.24,7.6,7.6,0,0,0,1.16-.24l2-.51c1.53-.35,3.58-.92,7.3-2,1.48-.44,2.55-.77,3.05-1,.28-.1.67-.23.88-.28.45-.12,2.89-1,4.12-1.43l1.49-.55,1.28-.5,2.4-.95c.24-.09.88-.36,1.42-.61a10.61,10.61,0,0,1,1.09-.45c.09,0,1.22-.5,2.8-1.23.85-.4,7.84-3.88,8.17-4.06.56-.32,2-1.15,2.75-1.53s1.56-.88,2-1.18c.21-.13.62-.35.91-.5a1.59,1.59,0,0,0,.53-.38c0-.06,0-.1.12-.1a39.74,39.74,0,0,0,3.4-2.08,5.7,5.7,0,0,1,.65-.42c.08,0,2.74-1.77,2.82-1.87a.67.67,0,0,1,.25-.16c.47-.21,8-5.76,8.23-6.07,0,0,.43-.36.88-.7s.9-.71,1-.83.71-.62,1.31-1.11,1.26-1.05,1.47-1.24l1.69-1.49a144,144,0,0,0,12.35-12.47c.38-.44.78-.88.89-1s.6-.7,1.09-1.3,1-1.19,1.11-1.31.5-.58.84-1,.7-.89.79-1,2-2.53,2.71-3.54c1.54-2.12,1.93-2.66,2-2.77s1.05-1.52,1.22-1.79a2.24,2.24,0,0,1,.19-.27c.11-.09,1.87-2.75,1.87-2.82A.59.59,0,0,1,369,326a25.93,25.93,0,0,0,1.51-2.33c1-1.63,1-1.61,1.33-2.2l.52-.86c.31-.51.72-1.24,1.17-2.06.21-.38.57-1,.81-1.43s1.26-2.38,2.26-4.37c1.64-3.25,2.23-4.48,3-6.3.57-1.27.72-1.62,1.22-2.81l.68-1.63c.09-.21.31-.77.49-1.24s.42-1.07.53-1.31.27-.66.36-.94.28-.8.43-1.18c.34-.88,1.36-3.81,1.49-4.31.06-.2.19-.59.29-.87s.31-.89.46-1.37.35-1.14.46-1.46.27-.88.36-1.25.32-1.17.5-1.78.37-1.32.43-1.56l.56-2.25c.57-2.28.85-3.48,1.18-5,.14-.69.37-1.76.51-2.39a11.14,11.14,0,0,0,.25-1.46,6,6,0,0,1,.2-1.07,15.37,15.37,0,0,0,.29-1.61c.06-.46.19-1.37.3-2,.47-2.81,1.05-7.89,1.21-10.66.06-1,.17-2.67.24-3.63a135.15,135.15,0,0,0-.45-20.9c-.11-1.06-.24-2.41-.29-3a146.27,146.27,0,0,0-3.47-19c-.23-.93-.46-1.83-.49-2s-.16-.65-.28-1.06l-.49-1.68c-.82-2.85-1.22-4.12-1.94-6.18-.12-.34-.27-.79-.32-1-.12-.43-.61-1.81-1-2.8-.15-.38-.34-.92-.43-1.19s-.25-.7-.35-.94-.3-.71-.44-1.06c-.75-1.89-1.62-4-2-4.93-.14-.3-.33-.73-.42-.93-.78-1.81-4.14-8.62-5-10.19l-1.11-2c-.46-.85-.87-1.57-1.17-2.06-.13-.2-.35-.57-.49-.81-.29-.5-.38-.65-1-1.66a8,8,0,0,1-.47-.79s-.33-.57-.74-1.19-.75-1.14-.75-1.17-.41-.64-.91-1.37-1-1.46-1.09-1.62c-.43-.65-1.19-1.75-1.28-1.87s-.48-.64-2-2.77c-.74-1-2.53-3.35-2.71-3.53s-.45-.55-.79-1-.72-.91-.84-1-.62-.7-1.11-1.31-1-1.18-1.09-1.29-.51-.56-.89-1c-1.92-2.22-3.58-4-6.12-6.59-1.06-1.08-5-4.83-6.23-5.88l-1.69-1.5c-.21-.19-.89-.76-1.5-1.26s-1.17-1-1.24-1.05c-.37-.42-6-4.74-7.74-5.93-.34-.24-.65-.46-.69-.5s-1.37-1-1.73-1.18a1.39,1.39,0,0,1-.26-.2c-.1-.1-2.75-1.86-2.82-1.86a5,5,0,0,1-.65-.41c-.89-.62-3.27-2.09-3.39-2.09a.16.16,0,0,1-.15-.1,5.79,5.79,0,0,0-1-.63c-.51-.29-1.13-.64-1.37-.79l-1.12-.63-1.07-.59c-.55-.33-1.7-1-3.24-1.75l-1.62-.84c-.3-.17-4-1.93-4.93-2.37l-2.12-1c-.63-.28-3.09-1.31-3.75-1.57-.94-.38-1.91-.77-2.37-1-.24-.1-.66-.26-.93-.35s-.81-.28-1.19-.43-1.25-.46-1.93-.69l-1.75-.6c-.27-.1-.92-.31-1.43-.47s-1.22-.38-1.56-.5c-1.64-.56-6.38-1.9-8.74-2.47-2-.48-5-1.12-7-1.51l-2.24-.44c-.48-.1-1.07-.21-1.31-.24l-2.06-.31c-3.67-.57-8.34-1.1-11.16-1.27-1.07-.06-2.64-.17-3.5-.24-1.59-.13-10-.26-11.73-.17m7.9,16.24c3.16,6.35,5.76,11.35,6,11.54s1.31.86,2.58,1.66c3.55,2.22,4.48,2.81,11.42,7.2l1.81,1.15,3.49,2.21c3.79,2.39,10.48,6.62,11.44,7.24l1,.62c.16.09,1.57,1,3.12,2L298.2,156l4.18,2.64L306,161l3.2,2h11.26l3.9,2.29c2.14,1.26,6,3.49,8.51,5s4.61,2.73,4.61,2.79a52.5,52.5,0,0,1-6,.19l-6,.06,2.58,1.49a18.41,18.41,0,0,1,2.59,1.63,29.86,29.86,0,0,0,3,2.07l3.84,2.43c1.08.7,4.44,2.81,5,3.15a1.9,1.9,0,0,0,.7.28,1.15,1.15,0,0,1,.85.78c0,.15.12,12.6.19,27.67s.21,40.72.31,57,.18,30.15.18,30.78v1.14l1.28.81,6.15,3.83c5,3.13,8.74,5.46,9.9,6.21.4.25.63.47.56.54s-2.72.13-6,.15c-5.86,0-5.91,0-5.48.26a41.41,41.41,0,0,1,4.41,2.85c0,.05-4.64.1-10.25.1H335.14l-1.81,1.08-18,10.71-9.43,5.62L298,338.6l-4.43,2.64-4.83,2.88-3.33,2,3.81,0c3,0,3.8.07,3.76.19a61.26,61.26,0,0,1-5.59,3.55c-.85.53-2.57,1.57-3.8,2.32s-3,1.82-3.93,2.39c-2.62,1.58-5.24,3.19-5.86,3.58a2,2,0,0,1-1.35.35c-.82,0-2.39.82-5.43,2.82l-.65.43H259.1l-.61.36c-3.31,2-8.79,5.25-8.9,5.25a1.27,1.27,0,0,1-.42-.19c-.29-.19-.39-.14-3.12,1.49L243,370.51c-.23.12-.68-.12-3.59-1.85-1.83-1.1-5.85-3.5-8.94-5.33l-15.28-9.11c-5-3-13.55-8.06-14.85-8.82l-5.18-3.06-5.3-3.14-1.3-.77h-8.72l-1.19-.78-8-5.21L166,329.39c-5-3.27-5.84-3.84-5.84-3.94a19.26,19.26,0,0,1,3.11-.15l3.12,0-2.71-1.62-7.2-4.31-4.5-2.68-11-.06c-7.87-.05-11-.11-11-.21s2.19-1.53,4.92-3.23c12-7.49,14.07-8.82,14.28-9.21a7.23,7.23,0,0,0,.06-2.07c0-1-.14-19.81-.21-41.81s-.15-47.35-.19-56.35c-.06-15.58-.06-16.36.16-16.55s2.1-1.37,4.4-2.81l6.3-4c3.13-2,4-2.55,7.8-4.91l3.87-2.44c.65-.42,1.53-1,4.37-2.77l6.88-4.36,5-3.17.73-.44-3.91,0c-3,0-3.9-.07-3.86-.19s2.8-1.77,5.09-3c1.15-.64,1.69-.95,2.12-1.23s4.61-2.69,6-3.47c.31-.17,1.88-1.07,3.48-2,2.61-1.51,3-1.69,3.5-1.69a1.62,1.62,0,0,0,.7-.11,6.82,6.82,0,0,1,.8-.48c.69-.38,1.08-.6,3.4-2l1.21-.71h5l1.27-.8c.7-.43,1.8-1.13,2.46-1.55l4-2.52,4.55-2.87c1.69-1.08,4.32-2.73,9-5.67,1.23-.78,2.46-1.57,2.73-1.77.52-.38,1.13-1.52,5-9.27.9-1.78,1.7-3.27,1.78-3.31a9.46,9.46,0,0,1,1.37,2.37,15.34,15.34,0,0,0,1.3,2.34c.08-.09,2.26-4.33,3.59-7,.67-1.34.66-1.34,1.8.94m-28,40c-.14.07-2.53,1.58-5.31,3.34s-5.75,3.64-6.61,4.17l-2,1.25-3.24,2.07c-1.55,1-3,1.9-3.25,2.06l-2.68,1.69c-2.23,1.39-6.79,4.27-8,5l-5.25,3.3-5.24,3.31c-.34.23-2,1.3-3.74,2.38l-6.27,4-3.15,2v74l1.85-3.62,4.91-9.67L180,243.22c2.58-5.08,6.31-12.46,10.29-20.34,1.58-3.12,3.83-7.55,5-9.85l4.47-8.8c1.28-2.54,3-5.85,3.74-7.36s3.07-6.06,5.12-10.11,4.42-8.76,5.3-10.48l4.8-9.48c1.77-3.5,3.47-6.84,3.77-7.41.58-1.11.63-1.34.23-1.11m52.09,7.51a7.83,7.83,0,0,0,.42.85c.23.43,1.87,3.64,3.63,7.14s4,7.83,4.87,9.61l4.87,9.61,5.18,10.23c2.08,4.09,4.87,9.6,9.54,18.84l9.33,18.41,5,9.79c3.7,7.31,6.14,12.09,6.2,12.16s0-14.77,0-32.88l0-32.93-1-.62c-.53-.35-1.37-.89-1.87-1.2l-2.75-1.73a9,9,0,0,1-1.84-1.34c0-.15.78-.17,5.87-.09,3.22.05,5.86.06,5.86,0,0-.54-.65-.59-6.94-.59a51.09,51.09,0,0,1-6.32-.15c-.27-.14-5.52-3.45-7.26-4.57l-1.31-.84-8.15-5.13c-.53-.33-1.29-.81-1.68-1.07l-1.53-1-3.55-2.24-4.5-2.84L281.66,170c-6.46-4.11-6.86-4.35-6.86-4.2m-19.09,45.39c0,33.06,0,34.89.22,35.07s2,1.27,4.09,2.59c4.1,2.54,4.35,2.7,5.42,3.39l3.68,2.29,6.12,3.81c1.71,1.08,4.63,2.9,6.49,4.05,3.08,1.91,6.09,3.79,8.17,5.11l2.25,1.4,5.42,3.38c4.37,2.72,9.52,5.92,9.78,6.07a35.22,35.22,0,0,0-1.64-3.44c-1-1.94-3-5.9-4.45-8.78l-4.18-8.23c-.84-1.65-2.7-5.3-4.12-8.11l-4.34-8.55-4.24-8.36c-1.37-2.71-3.41-6.73-4.53-8.92s-3.32-6.55-4.89-9.67c-5.85-11.58-9.45-18.72-10.46-20.68a10.22,10.22,0,0,1-.92-2.1c.07,0,2-.08,4.24-.08a33.12,33.12,0,0,0,4.11-.12,40.56,40.56,0,0,0-4.29-.11c-3.28,0-4.32,0-4.41-.16s-1.77-3.41-3.78-7.39-3.67-7.26-3.7-7.29,0,15.64,0,34.83m-25-26.7c-2.15,4.28-3.95,7.83-4,7.9s-1.76,3.43-3.8,7.48l-5.43,10.73c-.95,1.86-2.91,5.73-4.37,8.61l-4.8,9.49c-4,7.95-6.77,13.34-9.74,19.21q-4.8,9.51-9.6,19c-1.12,2.2-3.34,6.58-4.93,9.73s-3.16,6.21-3.46,6.78c-.76,1.43-.73,1.43,1.46.05l4.37-2.77c1.33-.85,3.41-2.15,4.61-2.9l2.62-1.65c.68-.44,5.63-3.58,8.61-5.45l8.49-5.36,3.49-2.22,3.25-2,5-3.15c2.26-1.45,7.72-4.89,8.38-5.29s2.6-1.63,3.25-2.06l.6-.39V213.43c0-20.19,0-36.71,0-36.71s-1.8,3.49-4,7.76m10.73,79.7-2.38,1.51-3,1.86-5.74,3.58-5.87,3.66-3.39,2.11L219.4,278l-3.22,2c-2,1.24-5.31,3.32-18.74,11.68l-4.25,2.66-3.8,2.37c-1.85,1.15-3.45,2.16-3.55,2.26s9,.17,57.8.17c31.9,0,58,0,58-.06a3.1,3.1,0,0,0-.59-.4c-.33-.2-1.33-.81-2.22-1.37s-2.46-1.55-3.49-2.18l-4.81-3c-6.46-4-12.59-7.84-13.47-8.38-.52-.31-1.39-.85-1.94-1.2s-1.36-.87-1.81-1.14l-1.74-1.09L260,273.14l-1.44-.9c-.66-.43-4.43-2.78-7.58-4.73l-4.38-2.73c-1.53-1-2.88-1.76-3-1.79a12.47,12.47,0,0,0-2.13,1.19m-4.25,52.42c-25,0-45.41.07-45.33.09s.78.42,1.56.89,2.25,1.35,3.28,1.95c3.8,2.25,8.39,5,9.42,5.61.58.36,2.33,1.4,3.87,2.32l7.55,4.48,8.17,4.87,7.12,4.24L237.8,344c.69.4,2.15,1.28,3.25,1.94,3.82,2.31,7.95,4.74,8,4.74s2-1.14,4.32-2.53c13.43-8.06,28.31-16.95,46.09-27.52,6-3.59,6.61-3.94,6.61-4s-5.26-.08-11.7-.07l-57.18.1"/><path id="path2" class="cls-6" d="M240.43,124.21c-1.22,2.42-2.62,5.18-3.11,6.13l-.89,1.72-2.21,1.4c-1.22.76-3.18,2-4.37,2.76l-6.58,4.16-4.87,3.08-3.24,2.06-2.84,1.8a3.86,3.86,0,0,0,.68,0c.73-.06.78-.09,3.22-1.65l2.46-1.54,2.4-1.51,1.5-1,1.56-1,1.93-1.21,2.87-1.81,5.25-3.32,4.24-2.68,1.4-.89,2.11-1.36,1.34-.87.88-1.77a16.71,16.71,0,0,1,1.13-2c.14-.15.17-.25.08-.23a9.3,9.3,0,0,1-1.33-2.26,24.51,24.51,0,0,0-1.28-2.34c-.06,0-1.11,1.94-2.33,4.36m-46.24,30.06-9.54,5.51c-1.92,1.1-3.58,2.08-3.68,2.17s.45.17,3.71.17a36.75,36.75,0,0,1,3.9.1,31.87,31.87,0,0,1-2.84,1.88L181.22,167l-10.7,6.76-16.76,10.57-3.83,2.42-1,.64.06,10.75c0,5.92.09,23.11.13,38.21s.12,36.52.17,47.6.08,20.21.05,20.28-9.56,6.28-10.83,7c-.14.07-.51.32-.84.54a5.32,5.32,0,0,1-.63.4s-.56.33-1.17.73l-2.7,1.77c-1.62,1-2,1.47-1.18,1.41.19,0,.34,0,.34.09s2.51.11,5.59.11,7.49,0,9.82.09l4.24.08,1.11.67c.61.37,1.13.67,1.16.67a4,4,0,0,1,.58.35c.29.2.92.57,1.4.83s.93.51,1,.57a9.46,9.46,0,0,0,3.74,1.62c.45,0,.81.05.81.11a1.91,1.91,0,0,0,.84.19l1.84.17c.55.06,2.48.08,4.28.05l3.27-.06-.5-.37a2.85,2.85,0,0,1-.5-.42,2.69,2.69,0,0,1,.75.45,3.85,3.85,0,0,0,.56.31l.5.25-3,0c-2.85,0-3,0-3,.28s.17.33.46.49,1.37.85,2.47,1.57c1.83,1.21,3,2,5.18,3.37,3.73,2.4,3.74,2.41,3.57,2.23s-1.13-.79-2.39-1.61c-6.09-4-8.94-5.86-9-5.95a22.12,22.12,0,0,1,3.08-.1c2.72,0,3.12,0,3-.18a10.42,10.42,0,0,0-3-1.62c-.17,0-.19,0-.07-.05s-.26-.37-1.43-1.06l-5.91-3.51-4.3-2.57H147.73c-6.74,0-10.82,0-10.79-.12s2.46-1.62,5.41-3.47c9.3-5.81,12.17-7.62,13-8.17l.76-.54v-2.05c0-1.13,0-9.1-.1-17.72-.18-27.43-.32-97-.19-97.16s1-.69,2.08-1.36l2.58-1.62c4-2.54,6.81-4.33,8.36-5.29,1.71-1.06,2.9-1.81,4-2.57,1-.64,7.26-4.59,10-6.29l7-4.45c2.26-1.44,4.34-2.76,4.61-2.92l.5-.31-3.7-.06c-2,0-3.74-.11-3.8-.16s0-.21,2.7-1.81l5.68-3.3c1.71-1,3.61-2.07,4.21-2.39,1.06-.56,1.08-.58.63-.58s-1.54.62-6.53,3.51m33.13,1.13c-1.71,1.09-3.33,2.09-3.58,2.2s-.47.29-.47.38a21.39,21.39,0,0,1-1,2.06c-.53,1-2.62,5.15-4.63,9.13s-4.31,8.53-5.12,10.1l-5,9.86c-1.93,3.84-4.15,8.22-4.92,9.73-2.79,5.46-7.06,13.89-13.92,27.46-1.73,3.43-3.75,7.41-4.49,8.86s-2.9,5.7-4.8,9.48l-4.93,9.73c-.81,1.58-2.58,5.06-3.93,7.74s-2.5,4.89-2.54,4.93-.06,2.27,0,5l.06,4.9,2.39-4.72c1.31-2.59,3.27-6.46,4.35-8.58l4.52-8.93c1.4-2.78,3.61-7.13,4.9-9.67s3.61-7.11,5.15-10.17,3.67-7.26,4.74-9.35l4.77-9.43c1.57-3.08,3.5-6.9,4.31-8.48l3.77-7.43c3.57-7,4.33-8.53,4.45-8.73s1.28-2.52,2.7-5.37l4-7.86,3.8-7.48c1.34-2.65,3.53-7,4.88-9.61,3.58-7.07,3.89-7.67,3.89-7.71s-.51.2-3.31,2m41.87-.81s.51,1.06,1.14,2.27c2.16,4.14,4.1,8.06,4.17,8.48.05.23.12.36.17.28a10.13,10.13,0,0,1,2.38,1.32l3,1.88,1.41.88c1.09.7,20.36,12.89,24.33,15.39l5.58,3.53,3.67,2.32h12.12l-.53-.24c-.29-.13-1.46-.84-2.62-1.58l-2.78-1.77-1.12-.71-3.59-2.26c-1.73-1.09-4.88-3.08-7-4.43l-4.77-3c-1.11-.71-4.27-2.68-5.68-3.55-.55-.33-2.6-1.64-4.55-2.89l-4.06-2.59c-1.56-1-7.18-4.51-9-5.71-1.2-.77-3.13-2-4.3-2.71s-3.4-2.13-5-3.14c-2.82-1.82-3-1.9-3-1.74M255.68,167.8c0,4.53,0,8.26,0,8.29s3.34,6.49,6.66,13.07l1,1.91h4.25c3.38,0,4.22,0,4.12-.16s-2.1-4-6.24-12.2c-8-15.86-9.55-18.91-9.65-19s-.12,3.56-.14,8.11m56.21-4.72c1.56,0,4.12,0,5.68,0s.28,0-2.84,0-4.4,0-2.84,0m-73.59,6.61c-1.71,3.4-3.25,6.35-3.41,6.55s-.23.35-.16.35a63.93,63.93,0,0,1,.17,7.27l0,7.27h3.3c2.53,0,3.31,0,3.35.15s-.68.16-3.31.16h-3.36l-.08,20.12c-.05,11.07-.08,24.31-.08,29.44v9.32l-.47.28c-.5.3-1.94,1.21-2.65,1.67l-2.87,1.82-5.43,3.42-8.49,5.36-5.92,3.75c-.24.16-3.44,2.19-7.12,4.5l-13.31,8.41-3.69,2.31-3.77,2.4a6.24,6.24,0,0,1-1.16.66c-.08,0-.15.09-.15.2a1.76,1.76,0,0,1-.2.57c-.3.57-.28.56,2.19-1,1.27-.82,2.51-1.6,2.75-1.74s1.15-.72,2-1.29c2-1.26,4.85-3.1,8.7-5.52,1.61-1,4.37-2.75,6.12-3.87,3.39-2.16,6.52-4.13,8-5.05,1.89-1.17,5.6-3.53,6.78-4.3l1-.65,1.5-.93,2.47-1.54c1.53-.94,6.48-4.08,8.13-5.16,2.48-1.61,4.53-2.89,4.64-2.89a2,2,0,0,0,.39-.24c.19-.13,1.6-1,3.15-2l3.43-2.2.62-.41.08-27.67c0-15.22.08-27.77.08-27.89,0-18.66-.05-27.79-.09-27.79s-1.47,2.79-3.19,6.2M328.21,175a10.23,10.23,0,0,0,1.09.72,9.85,9.85,0,0,1,1.26.86c.13.17.14.16,0-.07S330,176,328.3,175c-.05,0-.09,0-.09,0m-60.37,16.54c-2.28,0-4.14.06-4.14.11s9.71,19.34,14.91,29.55c1,1.92,2.91,5.74,4.3,8.49l4.06,8c1.78,3.5,4.4,8.64,7.42,14.6,1.19,2.33,2.84,5.59,3.68,7.24s2.22,4.34,3.06,6,2,3.84,2.5,4.86l2,3.81c1.28,2.49,2,3.9,2.17,4.05s.13.32-.1.32.09.18.47.41c1.21.74,7.35,4.57,9.65,6,1.24.78,2.27,1.4,2.29,1.37s-1.19-2.58-14.76-29.26c-2.07-4.09-4.83-9.51-6.11-12s-3-5.85-3.75-7.36l-3.74-7.36c-3.85-7.58-5.2-10.23-5.3-10.36-.26-.34-2.76-5.27-11.66-23L272,191.5l-4.15,0m60.32.08c.09.23,0,.23-5.73.15a48,48,0,0,0-5.83,0,3.45,3.45,0,0,0,.91.69l3.65,2.31,2.74,1.73.07,11.77.06,11.77,3.34,0,3.33,0v56l-.62-1.21a8.59,8.59,0,0,0-.68-1.22,15.74,15.74,0,0,0,1.32,2.57c.15.08.09-53.53-.08-73.89l-.08-9.12-.87-.54a8.11,8.11,0,0,1-1.24-.92c-.24-.26-.34-.31-.28-.15m15.95,5.19c0,2.16,0,3,0,2s0-2.85,0-3.93,0-.2,0,2m.13,22.83c0,2.16,0,3.05,0,2s0-2.85,0-3.93,0-.2,0,2m.12,23c0,2.13,0,3,0,2s0-2.79,0-3.87,0-.23,0,1.89m-95.58,17.09c-.48.31-1.45.91-2.15,1.34l-1.88,1.15a5.39,5.39,0,0,1-.86.44c-.28.07,2.58,1.89,18.93,12.06l4.25,2.64,4.43,2.76,4.3,2.68c.31.2,2.3,1.43,4.43,2.73l7.52,4.64c6,3.73,6.39,4,11.61,7.11,2.47,1.5,3.11,1.72,3.56,1.26a.67.67,0,0,1,.37-.18.28.28,0,0,0,.25-.18.75.75,0,0,1,.45-.26c.21,0,.38-.13.38-.19s.17-.14.38-.18.37-.13.37-.18.23-.16.5-.25.5-.19.5-.25.18-.15.41-.2a1.29,1.29,0,0,0,.6-.33.89.89,0,0,1,.55-.23c.3,0,.34,0,.28-.3l0-.31.57.33c1.61.93,5.14,3.06,5.19,3.14s-28.8.09-64.07.08-64.09,0-64,.1,128.3.07,128.38-.06-.07-.18-.22-.28l-3.1-1.92-8-5-8-5-5.86-3.65-12.17-7.55-6.36-3.92c-1.65-1-3.19-2-3.43-2.13-.43-.28-1-.63-3.56-2.12a9.47,9.47,0,0,1-1.29-.84.18.18,0,0,0-.15-.1c-.06,0-1.69-1-3.64-2.26s-4.09-2.59-4.78-3L251,259.94c-1.41-.88-1.13-.85-2.19-.19m95.71,6c0,2.13,0,3,0,2s0-2.78,0-3.87,0-.23,0,1.9m-20.09-1.81a6.8,6.8,0,0,0,.63,1.12,7.09,7.09,0,0,0-.5-1.12,7.17,7.17,0,0,0-.63-1.13,6.94,6.94,0,0,0,.5,1.13m.69,1.29a18.12,18.12,0,0,0,1.19,2.33,24.87,24.87,0,0,0-1.14-2.36s-.05,0-.05,0m3,5.88c.11.24.23.41.25.39a1.85,1.85,0,0,0-.4-.82s0,.19.15.43m-15,1.56c.3.59.8,1.51,1.09,2.06,1.39,2.63,4.24,8.28,4.24,8.42s-.36.15-1.61.09l-1.61-.07L313,281.8c-3-1.89-4.23-2.8-2.77-2,.25.14.49.21.53.17s0-.1-.07-.12-.08-.54.09-.54.11-.12.11-.26a.36.36,0,0,1,.19-.32.36.36,0,0,0,.19-.31c0-.13.05-.24.12-.24s.13-.22.13-.5,0-.5.1-.5a3.27,3.27,0,0,0,.52-1.46c0-.16.05-.28.1-.28a1.82,1.82,0,0,0,.26-.78,2.13,2.13,0,0,1,.3-.86c.24-.15.15-.9-.21-1.67-.48-1-.22-.72.46.56m15.52-.56c.12.24.23.41.26.39a1.8,1.8,0,0,0-.41-.83s0,.2.15.44m16.07,16.47c0,2.2,0,3.08,0,2s0-2.92,0-4,0-.16,0,2m-158.4,24.63a24.43,24.43,0,0,0,2.46,1.58c1.36.81,2.59,1.56,2.75,1.66s.27.15.22,0,3.38-.18,22.42-.18c28.08,0,37,0,37.1-.19s.23-.12.43-.12.37-.05.4-.12.32-.15.66-.18c1.59-.14,2-.2,2.11-.32a.8.8,0,0,1,.47-.13.55.55,0,0,0,.45-.19c.08-.14.32-.19.91-.2a2.53,2.53,0,0,0,1-.13.39.39,0,0,1,.35-.05,1,1,0,0,0,.6-.1,10.88,10.88,0,0,1,2.23-.59c1-.18,1.1-.35.25-.37-.32,0-.73,0-.9,0s-.93,0-1.68-.05a3.72,3.72,0,0,1-1.27-.12c.06-.05,12.18-.12,26.95-.16,19.53-.05,9.86-.07-35.51-.09-34.93,0-62.36,0-62.36.08m126.69,0c0,.05,0,.16-.14.26s-.18.16.07,0,.38-.38.13-.38c-.08,0-.1,0-.06.08m-26.81,16.1a10.39,10.39,0,0,0-1.12.7c-.07.08.1,0,.38-.15l1.15-.66c.56-.32.76-.47.62-.47s-.48.26-1,.58m-2.4,1.43c-.42.27-.56.46-.18.25s.73-.5.65-.51a3.32,3.32,0,0,0-.47.26m-103.78,0c.12.13,2.57,1.77,2.93,2s-.18-.23-1.38-1c-1.44-1-1.75-1.15-1.55-.95m11.23,4.53c2.47,0,4.57.11,4.67.16s.08,0-.05-.09-.8-.19-4.68-.17l-4.44,0,4.5.07"/><path id="path3" class="cls-7" d="M251,118.88a2.21,2.21,0,0,0,.24.56c.13.24.24.38.24.31a2.21,2.21,0,0,0-.24-.56c-.13-.24-.24-.38-.24-.31m.8,1.68a2.25,2.25,0,0,0,.38.63,2.07,2.07,0,0,0-.26-.63,2.77,2.77,0,0,0-.37-.62,1.79,1.79,0,0,0,.25.62m-9.71.19a2.24,2.24,0,0,0-.27.69,4.91,4.91,0,0,0,.65-1.32,2.4,2.4,0,0,0-.38.63m3.72,2.81a1.79,1.79,0,0,0-.25.62,3,3,0,0,0,.38-.62,2.08,2.08,0,0,0,.25-.63,2.45,2.45,0,0,0-.38.63m9,2.93c.11.24.23.41.26.39a2,2,0,0,0-.41-.83s0,.2.15.44m1,1.91a4.41,4.41,0,0,0,1,1.57l.36.22-.33-.29a7.08,7.08,0,0,1-1-1.57,10.88,10.88,0,0,0-.7-1.28,8.7,8.7,0,0,0,.61,1.35m-17.46-.22a1.79,1.79,0,0,0-.25.62,3,3,0,0,0,.38-.62,1.88,1.88,0,0,0,.25-.63,3,3,0,0,0-.38.63m-.91,1.81a6.83,6.83,0,0,0-.46,1.06,12.1,12.1,0,0,0,1-2.07,5.67,5.67,0,0,0-.57,1m-3.83,3.76c-.64.42-.86.64-.36.36s1-.69.92-.69a2.67,2.67,0,0,0-.56.33m31.57,1.48a2.79,2.79,0,0,0,.5.32l.25.13-.25-.21a2.79,2.79,0,0,0-.5-.32l-.25-.13.25.21m-34.22.2c-.43.27-.56.45-.19.25s.74-.51.66-.51a2,2,0,0,0-.47.26m35.22.42a3.59,3.59,0,0,0,.5.33l.25.12-.25-.2a3.59,3.59,0,0,0-.5-.33l-.25-.12.25.2m-36.59.45c-.43.27-.57.46-.19.25s.73-.5.66-.51a2.46,2.46,0,0,0-.47.26m-1.1.69c-.63.42-.86.65-.36.36s1-.68.92-.69a4.38,4.38,0,0,0-.56.33m40.43.61a3.2,3.2,0,0,0,.5.32l.25.13-.25-.21a3,3,0,0,0-.5-.32l-.24-.12.24.2m-41.7.2c-.43.27-.57.45-.19.25s.73-.51.65-.51a2.92,2.92,0,0,0-.46.26m-2.1,1.31c-.63.42-.86.65-.36.36s1-.68.93-.69a3.61,3.61,0,0,0-.57.33m-1.65,1.06c-.42.27-.56.45-.18.25s.73-.51.65-.51a3.32,3.32,0,0,0-.47.26m50.2.42a2.54,2.54,0,0,0,.5.33l.25.12-.25-.2a4.29,4.29,0,0,0-.5-.33l-.25-.12.25.2m-52,.7a8.26,8.26,0,0,0-.93.65c-.07.07,0,.05.19-.06l1-.6c.56-.34.77-.51.63-.5s-.4.23-.85.51m54.35.8a3.08,3.08,0,0,0,.5.33l.25.12-.25-.2a3.3,3.3,0,0,0-.5-.33l-.25-.12.25.2m-56,.27c-.64.42-.86.64-.37.36s1-.69.93-.69a2.67,2.67,0,0,0-.56.33m-2,1.24c-.69.46-.84.65-.25.3s.93-.63.81-.63a3.74,3.74,0,0,0-.56.33m61.4.61a3.08,3.08,0,0,0,.5.33l.24.12-.24-.2a4.29,4.29,0,0,0-.5-.33l-.25-.12.25.2m-62.77.27c-.64.42-.86.64-.36.36s1-.69.92-.69a3.74,3.74,0,0,0-.56.33m-1.37.87c-.64.42-.86.65-.37.36s1-.68.93-.69a3.28,3.28,0,0,0-.56.33m-2.05,1.3a7.09,7.09,0,0,0-1.08.74,20.26,20.26,0,0,0,2.32-1.44c0-.09,0-.08-1.24.7m69.93-.07a2.87,2.87,0,0,0,.5.33l.25.12-.25-.2a3.59,3.59,0,0,0-.5-.33l-.25-.12.25.2M205,148.46c-.47.25-.44.36,0,.12.2-.11.37-.22.37-.26s0-.07-.4.14m-1.5.88c-.47.25-.44.35,0,.11a1.25,1.25,0,0,0,.38-.25c0-.08,0-.08-.41.14m-1.75,1c-.46.26-.43.36,0,.12a1.25,1.25,0,0,0,.38-.25c0-.08,0-.08-.41.13m-1.24.39a1.75,1.75,0,0,0,.56,0c.15,0,0-.05-.28-.05s-.44,0-.28.05m89.68.36a3.49,3.49,0,0,0,.5.32l.25.12-.25-.2a2.79,2.79,0,0,0-.5-.32l-.25-.13.25.21m-90.93.13c-.47.25-.44.36,0,.11a1,1,0,0,0,.37-.25c0-.08,0-.08-.4.14m-1.5.87c-.47.25-.44.36,0,.12.21-.11.38-.22.38-.26s0-.07-.41.14m-1.31.75a3.67,3.67,0,0,0-.78.51,8.65,8.65,0,0,0,1.55-.85c.22-.2,0-.11-.77.34M194.54,154c-.47.26-.44.36,0,.12a1.28,1.28,0,0,0,.37-.25c0-.09,0-.08-.4.13m100.41.12a4.29,4.29,0,0,0,.5.33l.25.12-.25-.2a2.54,2.54,0,0,0-.5-.33l-.25-.12.25.2m-101.29.38c-.46.25-.44.36,0,.12.21-.11.38-.22.38-.26s0-.07-.41.14m102.29.24a2.87,2.87,0,0,0,.5.33l.25.12-.25-.2a3.59,3.59,0,0,0-.5-.33l-.25-.12.25.2m-104.1.82a2.57,2.57,0,0,0-.65.44,5.93,5.93,0,0,0,1.3-.72c.22-.19,0-.1-.65.28m-1.31.73c-.5.32-.59.45-.15.22s.77-.46.62-.45a1.89,1.89,0,0,0-.47.23m-2.8,1.65a3.61,3.61,0,0,0-.66.44,6.14,6.14,0,0,0,1.3-.72c.22-.2,0-.11-.64.28m35,.3c-.24.19-.23.19,0,.07.43-.22.44-.18,0,.61a3,3,0,0,0-.32.75,8.47,8.47,0,0,0,.82-1.56c0-.13-.34-.06-.57.13m-36.15.38c-.47.25-.44.36,0,.11a1.07,1.07,0,0,0,.38-.25c0-.08,0-.07-.41.14m-3.3,1.9c-1,.59-1.94,1.14-2,1.2s-.24.2,2.05-1.11c1.6-.92,2.06-1.21,1.87-1.19l-1.93,1.1m120.69-.72c.08.13.81.54.81.45a2,2,0,0,0-.44-.32c-.25-.14-.41-.2-.37-.13m1.5.93a2.81,2.81,0,0,0,.49.33l.25.12-.25-.2a3.51,3.51,0,0,0-.49-.33l-.25-.12.25.2m-124.57,1.21a.46.46,0,0,0-.15.25c0,.05,1.72.11,3.83.13l3.83,0-.65.42a3.53,3.53,0,0,0-.65.48s.15,0,.33-.15.52-.33.75-.46c.74-.44.51-.47-3.47-.47-3.43,0-3.86,0-3.72-.19s.11-.25-.1,0m34.94.62c-.42.27-.56.45-.19.24s.74-.5.66-.5a2,2,0,0,0-.47.26m-1.37.87c-.43.27-.56.45-.19.25s.74-.51.66-.51a2.46,2.46,0,0,0-.47.26m-28.05.19c-.64.42-.86.64-.36.36s1-.68.92-.69a4.38,4.38,0,0,0-.56.33m26.68.68c-.43.27-.57.46-.19.25s.73-.5.65-.51a2.92,2.92,0,0,0-.46.26m6.82.25a1.46,1.46,0,0,0-.21.56,1.67,1.67,0,0,0,.32-.51c.34-.7.25-.74-.11-.05m-35,0a2.69,2.69,0,0,0-.59.43,2,2,0,0,0,.62-.32,3.32,3.32,0,0,0,.62-.44c0-.08,0-.06-.65.33m26.14,1c-.43.27-.56.46-.19.25s.74-.51.66-.51a2.46,2.46,0,0,0-.47.26m8.26.12c-.11.21-.18.41-.15.44s.14-.15.26-.39c.25-.54.16-.58-.11,0m55.78.18a4.29,4.29,0,0,0,.5.33l.25.12-.25-.21a3,3,0,0,0-.5-.32l-.25-.12.25.2m-57,2.31a19.8,19.8,0,0,0-.88,1.87,17.7,17.7,0,0,0,1-1.87,19.23,19.23,0,0,0,.88-1.88,18.52,18.52,0,0,0-1,1.88m-37.34-1c-.43.27-.57.46-.19.25s.73-.5.66-.51a2.46,2.46,0,0,0-.47.26m96.41,0a4.87,4.87,0,0,0,.69.46l.38.21-.3-.24a4.87,4.87,0,0,0-.69-.46l-.38-.21.3.24m51.17.58s.17.15.38.26.37.16.37.13a1.22,1.22,0,0,0-.37-.26c-.21-.1-.38-.16-.38-.13m-149,.4c-.64.42-.86.65-.36.36s1-.68.92-.69a3.74,3.74,0,0,0-.56.33m-1.68,1.06a9.84,9.84,0,0,0-.94.64c-.07.08,0,.05.19,0l1-.6c.56-.34.77-.51.63-.5s-.4.23-.84.51m102.07-.47a3.43,3.43,0,0,0,.65.46c.36.21.57.31.47.21a3.71,3.71,0,0,0-1.12-.67m-104.1,1.74c-.75.48-1.31.91-.84.65a18.93,18.93,0,0,0,1.74-1.14c0-.08,0-.07-.9.49m28-.15c-.42.27-.56.46-.18.25s.73-.5.65-.51a3.32,3.32,0,0,0-.47.26m131,1s.17.15.38.26.37.16.37.13-.17-.15-.37-.26-.38-.16-.38-.13m-160.93.33c-.43.28-.57.46-.19.25s.73-.5.65-.5a2,2,0,0,0-.46.25m26.57.75c-.42.28-.56.46-.18.25s.73-.5.65-.5a2.17,2.17,0,0,0-.47.25m135.86-.21s.17.15.37.26.38.17.38.13a1.07,1.07,0,0,0-.38-.25c-.2-.11-.37-.17-.37-.14m-163.81.34c-.42.27-.56.45-.18.25s.73-.51.65-.51a2.47,2.47,0,0,0-.47.26m165,.39c.16.21-.13.22-5.83.22s-6.32,0-5.86.32c.09.06.11,0,.05,0s1.39-.15,5.84-.15c5.79,0,6.3,0,5.85-.39-.2-.15-.2-.15-.05,0m-166,.23c-.42.27-.56.46-.18.25s.73-.5.65-.51a3.32,3.32,0,0,0-.47.26m107.37.42c.12.24.23.42.26.39a1.77,1.77,0,0,0-.41-.82s0,.19.15.43m-63.79.95c-.11.21-.18.41-.15.44s.14-.15.25-.39c.26-.54.17-.58-.1-.05m64.79,1.05a2.4,2.4,0,0,0,.38.63,4.91,4.91,0,0,0-.65-1.32,2.24,2.24,0,0,0,.27.69m-112.83.39c-.64.42-.86.65-.36.36s1-.68.92-.68a2.66,2.66,0,0,0-.56.32m47.17.3c-.11.2-.16.37-.13.37a1.22,1.22,0,0,0,.26-.37c.1-.21.16-.38.13-.38s-.15.17-.26.38m41.62,34.85v35l.28.23c.28.24.28.24.06,0s-.35-70-.1-69.87c.07,0,.1,0,0-.11s-.12-.2-.18-.2-.11,14.54-.11,35M165.43,176.8c-.64.42-.86.64-.37.36s1-.69.93-.69a2.67,2.67,0,0,0-.56.33m69,.16c-.28.53-.23.65.06.13s.24-.4.24,6.86c0,4,0,13.37,0,20.78l0,13.48,0-13.39,0-13.38h3.38c2.65,0,3.37,0,3.33-.16s-.82-.15-3.35-.15h-3.3l0-7.27c0-7.3-.06-7.69-.46-6.9m-21.07.45a2.15,2.15,0,0,0-.27.68,4.77,4.77,0,0,0,.65-1.32,2.37,2.37,0,0,0-.38.64m79.71-.26a2.87,2.87,0,0,0,.5.33l.25.12-.25-.2a3.59,3.59,0,0,0-.5-.33l-.25-.12.25.2m1.05.67a5.86,5.86,0,0,0,.69.45l.38.21-.3-.24a5.91,5.91,0,0,0-.69-.46l-.38-.21.3.25m38.44,0a5,5,0,0,0,.68.45l.39.21-.31-.24a5,5,0,0,0-.68-.46l-.39-.21.31.25m-51.78-.06a2.32,2.32,0,0,0,.44.83s0-.18-.14-.41c-.23-.45-.3-.55-.3-.42m-118,.72c-.43.27-.56.45-.19.25s.74-.51.66-.51a2,2,0,0,0-.47.26m49.78.55a3.5,3.5,0,0,0-.34.81,7,7,0,0,0,.79-1.57,2.63,2.63,0,0,0-.45.76m121.38-.34a7.51,7.51,0,0,0,.69.46l.38.21-.3-.25a7.51,7.51,0,0,0-.69-.46l-.38-.21.3.25m-172.16.41c-.42.27-.56.46-.19.25s.74-.5.66-.51a2.46,2.46,0,0,0-.47.26m71.41.36c-.11.21-.17.38-.13.38a1.07,1.07,0,0,0,.25-.38c.11-.2.17-.37.13-.37a1.1,1.1,0,0,0-.25.37m-72.41.27c-.42.27-.56.45-.18.24s.73-.5.65-.5a2.47,2.47,0,0,0-.47.26m27.58.12c-.43.27-.56.45-.19.25s.74-.51.66-.51a2.46,2.46,0,0,0-.47.26m109.46.3a4.29,4.29,0,0,0,.5.33l.25.12-.25-.21a3,3,0,0,0-.5-.32l-.25-.12.25.2m-138.41.45c-.43.27-.56.45-.19.25s.74-.51.66-.51a2.46,2.46,0,0,0-.47.26m140.79,1.05a2.73,2.73,0,0,0,.49.32l.25.12-.25-.2a2.73,2.73,0,0,0-.49-.32l-.26-.13.26.21m1.37.87a3.08,3.08,0,0,0,.5.33l.25.12-.25-.2a3.3,3.3,0,0,0-.5-.33l-.25-.12.25.2m-41.74,1.81a15.86,15.86,0,0,0,.94,1.74s-.34-.78-.82-1.74a16.63,16.63,0,0,0-.94-1.75,18.81,18.81,0,0,0,.82,1.75m-50.1.25a12.31,12.31,0,0,0-.75,1.62,15.84,15.84,0,0,0,.87-1.62,12.31,12.31,0,0,0,.75-1.62,15.84,15.84,0,0,0-.87,1.62m-27.11-1.11c-.43.27-.56.45-.19.25s.74-.51.66-.51a2.46,2.46,0,0,0-.47.26m-28,.12c-.43.28-.56.46-.19.25s.74-.5.66-.5a1.78,1.78,0,0,0-.47.25m129.86,1.61a13.73,13.73,0,0,0,.82,1.5,13.11,13.11,0,0,0-.69-1.5,14.78,14.78,0,0,0-.81-1.5,10.41,10.41,0,0,0,.68,1.5m57.65-1.33a1.35,1.35,0,0,0,.34.27c.38.25,1.2.47,1.09.3a.44.44,0,0,0-.33-.11,1.84,1.84,0,0,1-.68-.26c-.23-.15-.42-.24-.42-.2m-188.51.35c-.43.27-.56.45-.19.25s.74-.51.66-.51a2,2,0,0,0-.47.26m151.27.42a3.08,3.08,0,0,0,.5.33l.25.12-.25-.2a4.29,4.29,0,0,0-.5-.33l-.25-.12.25.2M344.11,189c0,2.19,0,3.07,0,2s0-2.91,0-4,0-.16,0,2m-114.3-2.92c-.11.21-.18.4-.15.43s.14-.15.26-.38c.26-.54.17-.58-.11,0m-79.44.21c-.66.43-1.15.82-.72.58a12.33,12.33,0,0,0,1.49-1c0-.08,0-.08-.77.42m27.13.41c-.42.28-.56.46-.18.25s.73-.5.65-.51a3.32,3.32,0,0,0-.47.26m-1,.63c-.42.27-.56.45-.18.24s.73-.5.65-.5a2.47,2.47,0,0,0-.47.26m109.28.28a6.06,6.06,0,0,0,.69,1.32,1.88,1.88,0,0,0-.26-.65c-.35-.69-.43-.81-.43-.67m-58.08,2.7a20.12,20.12,0,0,0-1,2.12s.54-1,1.12-2.12a21.27,21.27,0,0,0,1-2.12s-.54,1-1.12,2.12m90.36.71c1.66,0,4.41,0,6.12,0s.34,0-3,0-4.76,0-3.1,0m-111.8.47c-.12.24-.18.44-.15.44a2,2,0,0,0,.41-.82s-.15.14-.26.38m61.52-.09a27.19,27.19,0,0,0-4.21.16,3.67,3.67,0,0,0,.57,1.12,1.29,1.29,0,0,0-.19-.5,3.29,3.29,0,0,1-.25-.56s1.85-.06,4.11-.06a28.91,28.91,0,0,0,4.18-.13c.05-.07.06-.11,0-.1s-1.93,0-4.25.07m60.23.13c.06.11-.86.16-3.51.18l-3.59,0,3.65,0c3.41,0,3.95,0,3.5-.3-.08-.05-.11,0-.05,0m-11.66.24c0,.06.12.17.26.26s.24.14.09-.1-.35-.34-.35-.16m-27.73,1.47c.18.37.35.66.38.63a5.26,5.26,0,0,0-.66-1.32,2.47,2.47,0,0,0,.28.69M168,192.77c-.14.14-.1,74.29,0,74.29s.18-.11.25-.24c.19-.36.16-.47,0-.19s-.18-4.19-.16-36.85c0-20.4,0-37.09,0-37.09l-.09.08m96.25.09a14.84,14.84,0,0,0,1.06,2.07,18.92,18.92,0,0,0-1-2.11s0,0,0,0m55,.77a3.49,3.49,0,0,0,.5.32l.25.12-.25-.2a2.79,2.79,0,0,0-.5-.32l-.25-.13.25.21m-29.55,1.61c.12.24.23.42.26.39a1.77,1.77,0,0,0-.41-.82s0,.2.15.43m-85.68.82a3,3,0,0,0-.32.75,4.13,4.13,0,0,0,.44-.75,3,3,0,0,0,.32-.75,3.14,3.14,0,0,0-.44.75m20.64.38c-.11.22-.18.41-.15.44s.14-.15.26-.39c.25-.54.17-.58-.11-.05m99.3,16.69c.05,9.17.08,24.06.06,33.09l0,16.41-.27-.5c-.15-.28-.28-.44-.28-.38a2.38,2.38,0,0,0,.3.63c.17.27,1.08,2,2,3.89a16.21,16.21,0,0,0,1.83,3.25c.06-.1.08-.06,0,.1s.73,1.8.85,1.54c0-.09.05-.06,0,.08a36.61,36.61,0,0,0,2.27,4.79s0-12.53,0-27.92v-28l-3.33,0-3.34,0,0-11.73c0-6.44-.08-11.76-.13-11.81s-.05,7.41,0,16.59M203,198a7,7,0,0,0-.46,1.05,11.75,11.75,0,0,0,1-2.07,6.59,6.59,0,0,0-.57,1m-54,3.49c0,2.12,0,3,0,2s0-2.78,0-3.87,0-.23,0,1.9m195.29,6.67c0,4.22,0,6,0,3.84s0-5.57,0-7.68,0-.38,0,3.84m-74.55-4.37c.48,1,.9,1.75.93,1.75a14.83,14.83,0,0,0-.81-1.75,15.86,15.86,0,0,0-.94-1.74,16.55,16.55,0,0,0,.82,1.74m-69.57-.25a6,6,0,0,0-.5,1.13,8.88,8.88,0,0,0,.62-1.13,7.32,7.32,0,0,0,.51-1.12,7.36,7.36,0,0,0-.63,1.12m93.8.19a3.68,3.68,0,0,0,.44.76,6.76,6.76,0,0,0-.78-1.57,3.71,3.71,0,0,0,.34.81m.78,1.56a3,3,0,0,0,.38.62,1.79,1.79,0,0,0-.25-.62,2.61,2.61,0,0,0-.38-.62,2.08,2.08,0,0,0,.25.62m-95.49.07c-.15.3-.25.55-.21.55a3.35,3.35,0,0,0,.53-1.07s-.17.21-.32.52m20.56.57a1.58,1.58,0,0,0-.22.56s.17-.21.32-.52c.34-.7.25-.74-.1,0m-1.31,2.6a6.94,6.94,0,0,0-.5,1.13,7.17,7.17,0,0,0,.63-1.13,6.66,6.66,0,0,0,.5-1.12,8.49,8.49,0,0,0-.63,1.12m53.1-1.07a6.06,6.06,0,0,0,.69,1.32,2.4,2.4,0,0,0-.27-.65c-.35-.69-.42-.81-.42-.67M149,216c0,4.09,0,5.76,0,3.71s0-5.38,0-7.42,0-.37,0,3.71m46.79-3.87a1.88,1.88,0,0,0-.25.63,3,3,0,0,0,.38-.63,1.79,1.79,0,0,0,.25-.62,3,3,0,0,0-.38.62m102.66.44a3.68,3.68,0,0,0,.44.76,6.39,6.39,0,0,0-.78-1.57,3.71,3.71,0,0,0,.34.81M195,213.72a3.54,3.54,0,0,0-.34.8,6.9,6.9,0,0,0,.78-1.56,3.09,3.09,0,0,0-.44.76m79.86.24a3.36,3.36,0,0,0,.44.76,6.76,6.76,0,0,0-.78-1.57,3.5,3.5,0,0,0,.34.81m24.27,0c.11.24.23.41.25.39a1.85,1.85,0,0,0-.4-.82s0,.19.15.43m-104.88,1.25a1.81,1.81,0,0,0-.22.56,3.18,3.18,0,0,0,.54-1.07s-.17.21-.32.51M276,216.27a10.27,10.27,0,0,0,.75,1.37,11.27,11.27,0,0,0-.63-1.37,11.11,11.11,0,0,0-.75-1.37,10.52,10.52,0,0,0,.63,1.37m-61.25-.43c-.29.62-.25.72.06.14a1.21,1.21,0,0,0,.2-.53s-.14.15-.26.39m-.83,1.68a4.54,4.54,0,0,0-.44,1,6.27,6.27,0,0,0,.56-1,4.54,4.54,0,0,0,.44-1,6.27,6.27,0,0,0-.56,1m-22,2.13a9.32,9.32,0,0,0-.59,1.31,7.61,7.61,0,0,0,.69-1.26,8.15,8.15,0,0,0,.59-1.31,11.44,11.44,0,0,0-.69,1.26m87.54,3.48c.52,1,1,1.88,1,1.88a20.5,20.5,0,0,0-.87-1.88c-.52-1-1-1.87-1-1.87a18.14,18.14,0,0,0,.87,1.87m-89.41.27a11.28,11.28,0,0,0-.71,1.55,11.76,11.76,0,0,0,.81-1.51,13.54,13.54,0,0,0,.72-1.55,13.35,13.35,0,0,0-.82,1.51m114.06.48a11.86,11.86,0,0,0,.81,1.5,25.06,25.06,0,0,0-1.5-3,10.1,10.1,0,0,0,.69,1.49m-155,5.74c0,3.4,0,4.79,0,3.09s0-4.48,0-6.18,0-.3,0,3.09M209.6,226a8.71,8.71,0,0,0-.62,1.38,12.5,12.5,0,0,0,.75-1.38,8.41,8.41,0,0,0,.62-1.37,12.91,12.91,0,0,0-.75,1.37m-24.39,7a24.7,24.7,0,0,0-1.06,2.25s.56-1,1.18-2.25a23.9,23.9,0,0,0,1.06-2.24s-.56,1-1.18,2.24M284,232a8.24,8.24,0,0,0,.63,1.13,6.94,6.94,0,0,0-.5-1.13,7.36,7.36,0,0,0-.63-1.12A6.66,6.66,0,0,0,284,232m60.39,3c0,2.16,0,3,0,2s0-2.85,0-3.93,0-.19,0,2m-59.7-1.7a6.06,6.06,0,0,0,.69,1.32,2.4,2.4,0,0,0-.27-.65c-.34-.69-.42-.81-.42-.67m-79.72,1.89c-.21.46-.16.56.06.14.11-.19.17-.38.14-.41s-.12.1-.2.27m-.65,1.32a2.9,2.9,0,0,0-.33.81,3.61,3.61,0,0,0,.44-.77,3.54,3.54,0,0,0,.34-.8,3.76,3.76,0,0,0-.45.76M149.08,249c0,7.24,0,10.21,0,6.59s0-9.55,0-13.17,0-.66,0,6.58m138.57-9.73c.49,1,.91,1.75.94,1.75a14.83,14.83,0,0,0-.81-1.75,16.63,16.63,0,0,0-.94-1.75,17.11,17.11,0,0,0,.81,1.75m-105.57-.11a5.13,5.13,0,0,0-.46,1.06,6.59,6.59,0,0,0,.57-1,5.92,5.92,0,0,0,.46-1,6.59,6.59,0,0,0-.57,1m130.49,1.42c.12.24.23.41.26.39a1.8,1.8,0,0,0-.41-.83s0,.2.15.44m1.29,2.56a16.63,16.63,0,0,0,.94,1.75,18.81,18.81,0,0,0-.82-1.75c-.48-1-.9-1.75-.93-1.75a14.83,14.83,0,0,0,.81,1.75m-133.81.07c-.29.61-.25.72.06.14a1.3,1.3,0,0,0,.2-.53s-.14.15-.26.39m20.13,1.43a1.24,1.24,0,0,0-.19.5,1.94,1.94,0,0,0,.32-.5,1.29,1.29,0,0,0,.19-.5,1.75,1.75,0,0,0-.32.5m-.72,1.44a3.54,3.54,0,0,0-.34.8,6.39,6.39,0,0,0,.78-1.57,3.61,3.61,0,0,0-.44.77m92.69,2.05c.75,1.51,1.4,2.75,1.43,2.75s-.55-1.24-1.31-2.75-1.4-2.74-1.44-2.74.56,1.23,1.32,2.74m52.34,6c0,4.33,0,6.08,0,3.89s0-5.72,0-7.86,0-.35,0,4M177.28,248.6a2.46,2.46,0,0,0-.28.69,2.2,2.2,0,0,0,.38-.64,2.48,2.48,0,0,0,.28-.68,3,3,0,0,0-.38.63m82.11-.07a3.59,3.59,0,0,0,.5.33l.25.12-.25-.21a3.49,3.49,0,0,0-.5-.32l-.25-.12.25.2m-82.86,1.57a2.6,2.6,0,0,0-.28.68s.2-.26.39-.63a2.61,2.61,0,0,0,.27-.69,3.19,3.19,0,0,0-.38.64m-1.18,2.36a13.11,13.11,0,0,0-.69,1.5,13.73,13.73,0,0,0,.82-1.5,11,11,0,0,0,.68-1.5,13.57,13.57,0,0,0-.81,1.5m143.44.37a15.84,15.84,0,0,0,.87,1.62,12.31,12.31,0,0,0-.75-1.62,15.84,15.84,0,0,0-.87-1.62,12.31,12.31,0,0,0,.75,1.62M295.64,255c.62,1.24,1.15,2.25,1.19,2.25s-.45-1-1.06-2.25-1.16-2.24-1.19-2.24a23.9,23.9,0,0,0,1.06,2.24m-100.57-.25a4.54,4.54,0,0,0-.44,1,6.27,6.27,0,0,0,.56-1,4.37,4.37,0,0,0,.44-1,6.45,6.45,0,0,0-.56,1m33.09-.36c-.42.28-.56.46-.18.25s.73-.5.65-.5a2.82,2.82,0,0,0-.47.25m41.84.8a2.87,2.87,0,0,0,.5.33l.25.12-.25-.2a3.59,3.59,0,0,0-.5-.33l-.25-.12.25.2m-43.83.45c-.43.27-.56.46-.19.25s.74-.5.66-.51a2.46,2.46,0,0,0-.47.26m-32.08,1a3.35,3.35,0,0,0-.33.81,7.18,7.18,0,0,0,.78-1.57,3,3,0,0,0-.45.76m127.47,1.62c.11.24.23.41.25.38a1.91,1.91,0,0,0-.4-.82s0,.2.15.44m-128.4.25c-.12.24-.19.44-.15.44a1.91,1.91,0,0,0,.4-.82s-.14.14-.25.38m81.83-.25a3.59,3.59,0,0,0,.5.33l.25.12-.25-.2a3.59,3.59,0,0,0-.5-.33l-.25-.12.25.2m-54,.64c-.64.42-.87.65-.37.36s1-.68.93-.69a3.28,3.28,0,0,0-.56.33m78.36,3.29c.65,1.31,1.21,2.37,1.25,2.37s0-.24-1.22-2.59c-.6-1.18-1.12-2.15-1.15-2.15s.47,1.07,1.12,2.37m23.59-1.25a2.7,2.7,0,0,0,.37.63,1.88,1.88,0,0,0-.25-.63,2.29,2.29,0,0,0-.38-.62,2,2,0,0,0,.26.62m-106.6.89c-.42.27-.56.46-.19.25s.74-.5.66-.51a2.46,2.46,0,0,0-.47.26m65.29.55a3.59,3.59,0,0,0,.5.33l.25.12-.25-.2a2.87,2.87,0,0,0-.5-.33l-.25-.12.25.2m-67.66.95c-.43.27-.56.45-.19.25s.74-.51.66-.51a2.46,2.46,0,0,0-.47.26m-23.55.61a2,2,0,0,0-.26.62,2.29,2.29,0,0,0,.38-.62,2.07,2.07,0,0,0,.26-.63,2.25,2.25,0,0,0-.38.63m93.21-.31a2.79,2.79,0,0,0,.5.32l.25.13-.25-.21a3.49,3.49,0,0,0-.5-.32l-.25-.13.25.21m-71,.57c-.43.27-.57.46-.19.25s.73-.5.65-.51a2.92,2.92,0,0,0-.46.26m28,.5c-.43.27-.57.46-.19.25s.74-.5.66-.51a2.46,2.46,0,0,0-.47.26m44.7-.07a3.49,3.49,0,0,0,.5.32l.25.13-.25-.21a2.79,2.79,0,0,0-.5-.32l-.25-.13.25.21m-95.43.5c-.12.23-.18.43-.15.43a1.85,1.85,0,0,0,.4-.82s-.14.15-.25.39m110.84-.35a.88.88,0,0,0,.18.35c.18.23.18.23.11,0s-.29-.52-.29-.31m-90.16.74c-.63.42-.86.64-.36.36s1-.69.93-.69a2.89,2.89,0,0,0-.57.33m90.54,0a8.89,8.89,0,0,0,.48,1c.26.49,1.67,3.25,3.13,6.13s2.71,5.29,2.77,5.36.13.47,0,.37-.11,0-.05.05.57.2.57.05a.38.38,0,0,0-.11-.22c-.14-.15-.91-1.6-2.23-4.17-.58-1.14-1.44-2.79-1.9-3.69s-1.22-2.36-1.69-3.27c-.76-1.51-.93-1.79-.93-1.58m-62.37.35c-.58.41-.66.53-.17.25a2.7,2.7,0,0,0,.54-.39c.19-.22.1-.19-.37.14m91.94,4.71v5l-.75-1.47c-.41-.81-.75-1.51-.75-1.55a11.81,11.81,0,0,1,1,1.63c.33.64.38.09.38-4.3,0-2.39,0-4.34.07-4.34s.06,2.26.06,5m14,2.79c0,2.2,0,3.08,0,2s0-2.92,0-4,0-.16,0,2m-112.7-3.29c-.43.27-.57.45-.19.25s.74-.51.66-.51a2,2,0,0,0-.47.26m-44.9.49a2,2,0,0,0-.27.69,2.6,2.6,0,0,0,.38-.64,2.15,2.15,0,0,0,.27-.68,3,3,0,0,0-.38.63m43.9.13c-.43.27-.56.46-.19.25s.74-.51.66-.51a2.46,2.46,0,0,0-.47.26m-1,.62c-.42.28-.56.46-.19.25s.74-.5.66-.5a2.46,2.46,0,0,0-.47.25m66.29.18a3.59,3.59,0,0,0,.5.33l.25.12-.25-.21a3.49,3.49,0,0,0-.5-.32l-.25-.12.25.2m16.36.62c.36.77.45,1.52.21,1.67a2.13,2.13,0,0,0-.3.86,1.82,1.82,0,0,1-.26.78s-.1.12-.1.28a3.27,3.27,0,0,1-.52,1.46c-.06,0-.1.23-.1.5s-.06.5-.13.5-.12.11-.12.24a.36.36,0,0,1-.19.31.36.36,0,0,0-.19.32c0,.14-.05.26-.11.26s-.25.48-.09.54.11.08.07.12-.28,0-.53-.17c-1.46-.78-.21.13,2.77,2l2.16,1.37,1.61.07c1.25.06,1.61,0,1.61-.09s-2.85-5.79-4.24-8.42c-.29-.55-.79-1.47-1.09-2.06-.68-1.28-.94-1.59-.46-.56m-15.36,0a2.87,2.87,0,0,0,.5.33l.25.12-.25-.2a3.59,3.59,0,0,0-.5-.33l-.25-.12.25.2m-97.49.2c-.42.28-.56.46-.18.25s.73-.5.65-.5a2.17,2.17,0,0,0-.47.25m28.21.25c-.43.27-.57.46-.19.25s.73-.5.65-.51a2.92,2.92,0,0,0-.46.26m32.34.68a4.15,4.15,0,0,0,.5.32l.25.13-.25-.21a2.48,2.48,0,0,0-.5-.32L260,273l.24.21m-75.43,1.68a17.11,17.11,0,0,0-.81,1.75,16.63,16.63,0,0,0,.94-1.75,14.83,14.83,0,0,0,.81-1.75s-.45.79-.94,1.75m114.37-1.56a3.08,3.08,0,0,0,.5.33l.24.12-.24-.2a3.3,3.3,0,0,0-.5-.33l-.25-.12.25.2m-73.91.82c-.42.28-.56.46-.18.25s.73-.5.65-.5a2.82,2.82,0,0,0-.47.25m-76.08,8.16c0,4.26,0,6,0,3.91s0-5.58,0-7.73,0-.43,0,3.82m153.61-6.73a2.73,2.73,0,0,0,.49.32l.25.13-.25-.21a2.73,2.73,0,0,0-.49-.32l-.25-.13.25.21m2,1.24a2.87,2.87,0,0,0,.5.33l.25.12-.25-.2a3.59,3.59,0,0,0-.5-.33l-.25-.12.25.2m-112.58.2c-.43.28-.57.46-.19.25s.74-.5.66-.5a2.18,2.18,0,0,0-.47.25m152.38,4c0,2,0,2.86,0,1.84s0-2.67,0-3.68,0-.18,0,1.84m-75.11-2a2.79,2.79,0,0,0,.5.32l.25.12-.25-.2a2.79,2.79,0,0,0-.5-.32l-.25-.13.25.21m-52.82.57c-.42.27-.56.46-.18.25s.73-.51.65-.51a3.32,3.32,0,0,0-.47.26m56.44,1.67a3.08,3.08,0,0,0,.5.33l.25.12-.25-.2a4.29,4.29,0,0,0-.5-.33l-.25-.12.25.2m1,.63a3.41,3.41,0,0,0,.49.32l.25.12-.25-.2a2.73,2.73,0,0,0-.49-.32l-.25-.13.25.21m-63.42,1.44c-.43.28-.57.46-.19.25s.73-.5.65-.5a2,2,0,0,0-.46.25m65.66,0a5.11,5.11,0,0,0,.63.39c.27.16.38.19.24.08s-1.06-.66-.87-.47m-95.88,1.23c-.22.16-.31.17-.38,0s-.12-.09-.18.07-.06.24,0,.27a2.48,2.48,0,0,0,.94-.54c0-.09-.05-.06-.36.15m97.93,0c.17.12.53.35.81.51s.37.19.21.06-.53-.35-.81-.51-.38-.18-.21-.06m1.45.88c.12.14,10.61,6.68,15.78,9.85,3,1.82,5.62,3.48,5.83,3.66s12.31.3,12.19.1-3.67-2.26-5.18-3.13l-.57-.33,0,.31c.06.26,0,.3-.28.3a.89.89,0,0,0-.55.23,1.29,1.29,0,0,1-.6.33c-.23.05-.41.13-.41.2s-.22.17-.5.25-.5.2-.5.25-.16.13-.37.18-.38.13-.38.18-.17.15-.38.19a.75.75,0,0,0-.45.26.28.28,0,0,1-.25.18.67.67,0,0,0-.37.18.82.82,0,0,1-.54.19c-.63,0-.61,0-6.49-3.55-2.24-1.36-7.21-4.42-13.79-8.51-2.38-1.48-2.41-1.49-2.24-1.32m-73.16.42c-.42.27-.56.45-.18.25s.73-.51.65-.51a3.32,3.32,0,0,0-.47.26m-7.61,4.74c-.42.27-.56.46-.19.25s.74-.5.66-.51a2.46,2.46,0,0,0-.47.26m-3,1.87c-.43.27-.57.46-.19.25s.73-.5.65-.51a2.92,2.92,0,0,0-.46.26m148.64,4.67c0,2.54,0,3.56,0,2.27s0-3.37,0-4.62,0-.19,0,2.35M149.3,302.22l0,1.91-2,1.29c-1.83,1.19-7.55,4.8-14.32,9-1.58,1-2.89,1.84-2.91,1.91s3.7.12,10.82.12h10.86l1.53.92,6,3.54,5.9,3.49a6.17,6.17,0,0,1,1.38,1s-1.45.08-3.12.08c-3.13,0-3.31,0-2.63.43.23.13,1.29.82,2.37,1.52s2,1.29,2,1.29a3.57,3.57,0,0,1,.73.42c.34.22,1.24.81,2,1.29l2.95,1.89a14.73,14.73,0,0,0,1.72,1,.12.12,0,0,1,.13.11c0,.06.23.15.5.2s.5.13.5.18a2.3,2.3,0,0,0,.93.19,2.32,2.32,0,0,1,.94.19,3.18,3.18,0,0,0,1.12.26,3.8,3.8,0,0,1,1.13.26c0,.06.19.1.43.1s.44.05.44.11a6.54,6.54,0,0,0,1.56.27,6.86,6.86,0,0,1,1.56.26,2.37,2.37,0,0,0,.9.17,12.07,12.07,0,0,1,1.53.26,8.19,8.19,0,0,0,1.56.21,2.88,2.88,0,0,1,1.09.18,8.53,8.53,0,0,0,2.8.33c.52,0,.73,0,.78.16s.18.17.52.1.49,0,.54.06a2.84,2.84,0,0,0,1.17.17,3.06,3.06,0,0,1,1.09.13,1.65,1.65,0,0,0,.75.09c.41,0,.75.05.75.11a4.53,4.53,0,0,0,1.43.2,5.72,5.72,0,0,1,1.44.19c0,.05.24.12.54.14s.53,0,.49-.11a.28.28,0,0,0-.24-.16c-.09,0-.17,0-.17-.09s-.18-.19-.39-.32-.36-.25-.32-.29a17.65,17.65,0,0,1,2.23,1.21c4.11,2.43,3.85,2.28,3.85,2.19s-1.25-.8-2.78-1.71l-3.18-1.88a.79.79,0,0,0-.53-.17.4.4,0,0,1-.35-.06c-.18-.11-.17-.12.1-.06s.3.07.07-.12a.54.54,0,0,0-.44-.13.52.52,0,0,1-.38-.07c-.15-.11-.13-.12.09-.06.48.14.31,0-.52-.48l-.8-.45h-8.69l-1.19-.78-5-3.27c-2.1-1.38-4.27-2.78-4.8-3.12-1.36-.86-3.76-2.42-6-3.88-1-.68-2.12-1.37-2.4-1.53-1.15-.67-.85-.76,2.46-.8l3,0-.5-.25a3.85,3.85,0,0,1-.56-.31,2.69,2.69,0,0,0-.75-.45,2.85,2.85,0,0,0,.5.42l.5.37-3.27.06c-1.8,0-3.73,0-4.28-.05l-1.84-.17a1.91,1.91,0,0,1-.84-.19c0-.06-.36-.11-.81-.11a9.46,9.46,0,0,1-3.74-1.62c-.07-.06-.52-.31-1-.57s-1.11-.63-1.4-.83a4,4,0,0,0-.58-.35s-.55-.3-1.16-.67l-1.11-.67-4.24-.08c-2.33-.05-6.75-.08-9.82-.09s-5.59-.06-5.59-.11-.15-.1-.34-.09c-.78.06-.44-.36,1.18-1.41l2.7-1.77c.61-.4,1.14-.73,1.17-.73a5.32,5.32,0,0,0,.63-.4c.33-.22.7-.47.84-.54.35-.2,7.42-4.67,9.26-5.87s1.68-1,1.63-3.23l0-1.75,0,1.91m206.3,6.33a3.59,3.59,0,0,0,.5.33l.25.12-.25-.21a3.49,3.49,0,0,0-.5-.32l-.25-.12.25.2m1.67,1a4.87,4.87,0,0,0,.69.46l.38.21L358,310a4.87,4.87,0,0,0-.69-.46l-.38-.21.3.24m4.32,2.71a2.54,2.54,0,0,0,.5.33l.25.12-.25-.2a4.29,4.29,0,0,0-.5-.33l-.25-.12.25.2m.92.59c.16.21-.38.22-10.87.22-9.79,0-11.06,0-11.27.2s-.24.19,0,.06,3.8-.13,11.25-.13c10.72,0,11.37,0,10.9-.39-.19-.16-.2-.15,0,0m-50.77.34.93.07-.53.34a3.87,3.87,0,0,1-.59.35,7.42,7.42,0,0,0-.91.54c-.46.29-1.58,1-2.5,1.51a17.38,17.38,0,0,0-1.73,1.1c-.08.13.26-.06,3.85-2.21a22.52,22.52,0,0,0,2.65-1.72,3.54,3.54,0,0,0-1.09-.08l-1,0,.94.07m-52.54.13c-2.1.07-2.13.07-.81.12l1.69.08c.17,0,.58,0,.9,0,.85,0,.73.19-.25.37a10.88,10.88,0,0,0-2.23.59,1,1,0,0,1-.6.1.39.39,0,0,0-.35.05,2.53,2.53,0,0,1-1,.13c-.59,0-.83.06-.91.2a.55.55,0,0,1-.45.19.8.8,0,0,0-.47.13c-.12.12-.52.18-2.11.32-.34,0-.64.11-.66.18s-.2.12-.4.12-.39,0-.43.12-9,.19-37.1.19c-12.37,0-22.49,0-22.49.07s.23.38.31.26,10.49-.14,38.23-.15c61.49,0,76.26-.13,76.26-.61,0-.05.24-.16.53-.24a7,7,0,0,0,.75-.27,1.09,1.09,0,0,1,.47-.12c.14,0,.25-.08.25-.18s.13-.19.43-.19a.75.75,0,0,0,.5-.13.56.56,0,0,1,.37-.12,1.06,1.06,0,0,0,.57-.25,1,1,0,0,1,.44-.25.86.86,0,0,0,.41-.23c.29-.25-.31-.35-2.66-.42-.59,0-.34-.05.75-.1.89,0-9.5-.07-23.09-.07s-25.68,0-26.89.07M335,316.42c-.47.25-.44.36,0,.11a1.07,1.07,0,0,0,.38-.25c0-.08,0-.07-.41.14m-30.42,1.72-3.42,2-3.79,2.28c-1.87,1.12-3.39,2.07-3.39,2.1s.18,0,.4-.18l1.1-.64c2-1.17,9.93-5.92,10-6s0-.09-.93.44m-106.31,2.38a1.22,1.22,0,0,0,.37.26c.21.1.38.16.38.13s-.17-.15-.38-.26-.37-.16-.37-.13M325.62,322a2.14,2.14,0,0,0-.53.39,4.54,4.54,0,0,0,1.05-.6c.22-.19,0-.11-.52.21m-1.25.75a2.61,2.61,0,0,0-.53.38,4.26,4.26,0,0,0,1.06-.59c.21-.19,0-.11-.53.21m-1.87,1.12a2.14,2.14,0,0,0-.53.39,4.19,4.19,0,0,0,1-.6c.22-.19,0-.11-.52.21m-29.82,1.38a1.79,1.79,0,0,0-.53.38,3.89,3.89,0,0,0,1.05-.6c.21-.19,0-.11-.52.22m-1.38.81a2.77,2.77,0,0,0-.65.45,5.83,5.83,0,0,0,1.3-.73c.21-.19,0-.11-.65.28m-2.63,1.56a9.27,9.27,0,0,1-2.2,1.1c-.59.05-9.11,5.16-9.11,5.46a.25.25,0,0,1-.17.2c-.11,0-.14,0-.09-.08s0-.11-.12-.06-.16.11-.05.17,0,.27-.28.21c-.09,0-.12,0-.06,0s-.21.25-.6.48-.77.39-.85.34-.11,0-.06,0-.14.25-.43.42a3.8,3.8,0,0,0-.6.39s-.62.41-1.31.81l-3.3,2-2.78,1.66a3.81,3.81,0,0,0-.72.5s.18-.05.41-.18l6.33-3.77c5.6-3.34,6.5-3.89,5.95-3.7-.14.05-.19,0-.14-.06a.3.3,0,0,1,.3-.07c.29.07.66-.14.55-.32s0-.1.06,0,1.29-.54,1.18-.71,0-.09.07,0a22.18,22.18,0,0,0,3.17-1.71l4.86-2.88c1.55-.92,2-1.22,1.81-1.2l-1.82,1.07m-70.83,4.51a5.27,5.27,0,0,0,.62.4c.28.15.39.19.25.07s-1.07-.66-.87-.47m2.43,1.46s.17.15.38.26.37.16.37.13-.17-.15-.37-.26-.38-.16-.38-.13M189,335.41a16.55,16.55,0,0,1-2.4-.06,12.51,12.51,0,0,1,2.3,0l2.4.06-2.3,0m113.89.2c-.6.37-.77.54-.28.29s.91-.58.81-.58a2.76,2.76,0,0,0-.53.29m-72.72,3.88a1.1,1.1,0,0,0,.37.25c.21.11.38.17.38.13a1.07,1.07,0,0,0-.38-.25c-.2-.11-.37-.17-.37-.13m-25.83,1a16.14,16.14,0,0,0,1.53,1c1.84,1.09,1.71,1,1.71.95s-2.13-1.34-3.15-1.91c0,0-.09,0-.09,0m89.37.6c-.42.27-.56.45-.18.25s.73-.51.65-.51a2.47,2.47,0,0,0-.47.26m-30.41,1.74c-1,.62-1.93,1.19-2,1.27s0,.05.19-.05l2-1.22c1.44-.86,1.88-1.15,1.68-1.13l-1.9,1.13m-55.4-.2c.28.23,1.07.66.87.47a7.06,7.06,0,0,0-.62-.4c-.28-.15-.39-.18-.25-.07m82.57.39a2,2,0,0,0-.53.38,3.89,3.89,0,0,0,1.05-.6c.22-.19,0-.11-.52.22m-81.51.22a6.19,6.19,0,0,0,.9.58c1.15.68,1.09.65,1.09.58a6.76,6.76,0,0,0-.9-.59c-1.15-.67-1.09-.64-1.09-.57m29.88,1.42a6.25,6.25,0,0,0,.63.4c.27.15.38.18.25.07-.28-.23-1.07-.66-.88-.47m-26.51.59a1,1,0,0,0,.37.25c.21.11.37.17.37.13a1,1,0,0,0-.37-.25c-.21-.11-.37-.17-.37-.13m73,1c0,.05,1.72.09,3.82.09,3.63,0,3.82,0,3.65.22s-.15.2.05.05c.45-.35.14-.38-3.65-.42-2.13,0-3.87,0-3.87.06m-29,.79c-.46.25-.43.36,0,.12.21-.11.38-.22.38-.26s0-.07-.41.14m-1.62,1c-.6.37-.77.55-.28.29s.92-.58.81-.58a3.58,3.58,0,0,0-.53.29m-1.31.78a2,2,0,0,0-.53.38,3.89,3.89,0,0,0,1-.6c.22-.19,0-.11-.52.22m34,1.06a8.51,8.51,0,0,0-.75.52c-.13.14.73-.35,1.2-.68s.22-.25-.45.16m-38.19,1c.27.22.64.26.75.08s0-.08-.17-.05a.86.86,0,0,1-.53-.08c-.28-.14-.28-.13,0,0m-23.57,2.28a3.71,3.71,0,0,0,.62.4c.27.16.39.19.25.07s-1.07-.65-.87-.47m55.62.43c-.43.27-.57.45-.19.24s.73-.5.65-.5a2.23,2.23,0,0,0-.46.26m-48.76,3.66a2.87,2.87,0,0,0,.5.33l.25.12-.25-.2a3.59,3.59,0,0,0-.5-.33l-.25-.12.25.2m31.94,1.38c-.14.11-.16.15-.06.1s2.18-.13,4.62-.17l4.43-.07-4.38,0c-3.82,0-4.4,0-4.61.16m-28.32.77a6,6,0,0,0,.75.48c.34.19.56.29.5.22a5.59,5.59,0,0,0-.75-.48c-.35-.19-.57-.29-.5-.22m26.36.36c-.47.25-.44.36,0,.11a1.1,1.1,0,0,0,.37-.25c0-.08,0-.08-.4.14m-24.74.61c.28.23,1.07.66.87.47a7.06,7.06,0,0,0-.62-.4c-.28-.15-.39-.18-.25-.07m22.3.83c-.42.27-.56.45-.18.25s.73-.51.65-.51a2.47,2.47,0,0,0-.47.26m-13.07,4.66a2.87,2.87,0,0,0,.5.33l.25.12-.25-.2a3.59,3.59,0,0,0-.5-.33l-.25-.12.25.2m4.46.45a2.77,2.77,0,0,0-.65.45A5.83,5.83,0,0,0,252,366c.21-.19,0-.11-.65.28m-3,.42a1.22,1.22,0,0,0,.37.26c.21.1.38.16.38.13s-.17-.15-.38-.26-.37-.16-.37-.13m1.58.46a.78.78,0,0,1-.47.07c-.13,0-.21,0-.17,0s.48.13.75-.07.22-.24-.11-.05"/><path id="path4" class="cls-8" d="M148.83,192.5c0,2.88,0,4,0,2.58s0-3.82,0-5.24,0-.22,0,2.66m116.58-1.34c1.19,0,3.12,0,4.31,0s.21,0-2.16,0-3.33,0-2.15,0m3.62.24a1.75,1.75,0,0,0,.56,0c.16,0,0-.05-.28-.05s-.43,0-.28.05m48.48.26c.68,0,1.74,0,2.38,0s.08,0-1.23,0-1.82,0-1.15,0M148.83,205.79c0,1.61,0,2.27,0,1.47s0-2.13,0-2.94,0-.14,0,1.47m0,3.81c0,.41,0,.56.05.34a3.13,3.13,0,0,0,0-.75c0-.19-.05,0-.05.41M323.9,241.35c0,11.7,0,16.49,0,10.64s0-15.42,0-21.28,0-1.06,0,10.64M149,229.75c0,3.53,0,5,0,3.21s0-4.66,0-6.43,0-.32,0,3.22m.12,38.43c0,3.4,0,4.79,0,3.09s0-4.48,0-6.18,0-.31,0,3.09m181.37,1.72c0,4.39-.05,4.94-.38,4.3a11.81,11.81,0,0,0-1-1.63s.34.74.75,1.55l.75,1.47v-5c0-2.75,0-5-.06-5s-.07,1.95-.07,4.34m-25.33,3.82a8.57,8.57,0,0,0,.82,1.57,3.64,3.64,0,0,0-.33-.78c-.41-.81-.49-.94-.49-.79m-156,7.19c0,3.6,0,5.08,0,3.27s0-4.75,0-6.55,0-.32,0,3.28m.12,14.6c0,3.05,0,4.3,0,2.77s0-4,0-5.55,0-.28,0,2.78m149.5,1.68a2.54,2.54,0,0,0,.5.33l.25.12-.25-.2a4.29,4.29,0,0,0-.5-.33l-.25-.12.25.2m1.06.67a4.23,4.23,0,0,0,1.25.72,1.75,1.75,0,0,0-.42-.3l-.78-.46-.36-.22.31.26M134.33,313.49c-.43.27-.56.46-.19.25s.74-.5.66-.51a2.46,2.46,0,0,0-.47.26m174.85-.14c-1.09,0-1.34.08-.75.1,2.35.07,2.95.17,2.66.42a.86.86,0,0,1-.41.23,1,1,0,0,0-.44.25,1.06,1.06,0,0,1-.57.25.56.56,0,0,0-.37.12.75.75,0,0,1-.5.13c-.3,0-.43.06-.43.19s-.11.18-.25.18a1.09,1.09,0,0,0-.47.12,7,7,0,0,1-.75.27c-.29.08-.53.19-.53.24,0,.49-2.22.52-61.77.62l-52.72.1,57.12,0c31.42,0,57.12,0,57.12,0s-.7.5-6.61,4c-17.68,10.51-32,19.07-46.11,27.53-4.9,2.94-4.42,2.61-4,2.72s.72-.15,2.6-1.28l5.77-3.46,6.8-4.09c3.19-1.93,8.08-4.86,9-5.39a3.41,3.41,0,0,0,.5-.33,3.8,3.8,0,0,1,.6-.39c.29-.17.49-.35.46-.39s0-.06.09,0a14.85,14.85,0,0,0,2.66-1.52.71.71,0,0,0-.33.11c-.76.39.17-.23,2.39-1.59,4.6-2.82,6.13-3.69,6.55-3.72s2.23-1.08,10.17-5.86l4.64-2.79c.41-.26,1.84-1.1,3.72-2.2s4.72-2.8,5.49-3.3c.31-.2.84-.51,1.18-.7,1.37-.74,1.4-.74-2.49-.56m28.76,1.47-2.68,1.59,10.1,0c5.56,0,10.14,0,10.2-.07a37.86,37.86,0,0,0-4.43-2.87c-.47-.27-.58-.27-5.49-.27h-5l-2.68,1.59M130,316.23a.21.21,0,0,0,0,.25c.14.14,22,.22,21.93.08s-5-.09-11-.09c-9.66,0-10.91,0-10.85-.19s0-.25-.11,0m22.21.58a3.93,3.93,0,0,0,.63.4c.27.16.38.19.25.07-.28-.23-1.07-.66-.88-.47m7.93,4.71a1.1,1.1,0,0,0,.37.25c.21.11.38.17.38.14s-.17-.15-.38-.26-.37-.17-.37-.13m1.06.63c.28.23,1.07.66.87.47a4.21,4.21,0,0,0-.62-.4c-.28-.15-.39-.19-.25-.07m1.06.6a11.66,11.66,0,0,0,1.4.91l1.81,1.08c.22.13.41.21.41.17a16.14,16.14,0,0,0-1.53-1l-1.81-1.09c-.16-.1-.28-.15-.28-.11m3.92,2.39c.22.17-.07.19-2.9.19a18.51,18.51,0,0,0-3.14.12c0,.1.84.67,5.84,3.94l4.68,3.05,8,5.21,1.19.78h8.72l1.3.77,5.3,3.14,5.18,3.06c1.3.76,9.81,5.81,14.85,8.82l15.28,9.11,8.82,5.25c1.75,1.06,3.27,1.95,3.36,2s5.78-3.19,6.08-3.49c.07-.07-.32-.38-.79-.63l-3.49-2.08-7.3-4.34c-2.23-1.32-4.68-2.78-5.43-3.25l-3.24-1.93c-1-.6-3.42-2-5.31-3.16-3.66-2.19-9-5.33-11.73-6.95l-2.87-1.68-3.62-2.15-4.59-2.71A17.65,17.65,0,0,0,198.1,337s.1.17.32.29.39.27.39.32.08.09.17.09a.28.28,0,0,1,.24.16c0,.11-.09.14-.49.11s-.54-.09-.54-.14a5.72,5.72,0,0,0-1.44-.19,4.53,4.53,0,0,1-1.43-.2c0-.06-.34-.11-.75-.11a1.65,1.65,0,0,1-.75-.09,3.06,3.06,0,0,0-1.09-.13,2.84,2.84,0,0,1-1.17-.17c-.05-.09-.25-.11-.54-.06s-.47,0-.52-.1-.26-.17-.78-.16a8.53,8.53,0,0,1-2.8-.33,2.88,2.88,0,0,0-1.09-.18,8.19,8.19,0,0,1-1.56-.21,12.07,12.07,0,0,0-1.53-.26,2.37,2.37,0,0,1-.9-.17,6.86,6.86,0,0,0-1.56-.26,6.54,6.54,0,0,1-1.56-.27c0-.06-.2-.11-.44-.11s-.43,0-.43-.1a3.8,3.8,0,0,0-1.13-.26,3.18,3.18,0,0,1-1.12-.26,2.32,2.32,0,0,0-.94-.19,2.3,2.3,0,0,1-.93-.19c0-.05-.23-.13-.5-.18s-.5-.14-.5-.2a.12.12,0,0,0-.13-.11,14.73,14.73,0,0,1-1.72-1l-2.95-1.89c-.76-.48-1.66-1.07-2-1.29a3.57,3.57,0,0,0-.73-.42s-1-.58-2-1.29-2.14-1.39-2.37-1.52c-.68-.4-.5-.43,2.65-.43,3,0,3.52-.07,2.84-.36-.32-.14-.32-.13-.1,0m20.39,10.21a16.55,16.55,0,0,0,2.4.06l2.3,0-2.4-.06a12.51,12.51,0,0,0-2.3,0m76.94,23.84-2.73,1.62-1.62,1h7.23l.65-.43c.35-.23,1.42-.88,2.37-1.45l2-1.2c.2-.14-.3-.17-3.26-.17h-3.5l-1.11.67"/></g></g></g></svg>