<svg xmlns="http://www.w3.org/2000/svg" xmlns:xlink="http://www.w3.org/1999/xlink" viewBox="0 0 494.42 494.44"><defs><linearGradient id="linear-gradient" x1="173.12" y1="278.63" x2="463.31" y2="278.63" gradientTransform="matrix(0.71, -0.71, -0.71, -0.71, 219.22, 669.25)" gradientUnits="userSpaceOnUse"><stop offset="0" stop-color="#30bac6"/><stop offset="1" stop-color="#b6509e"/></linearGradient></defs><title>pAAVE_1</title><g id="Layer_2" data-name="Layer 2"><g id="Layer_1-2" data-name="Layer 1"><g id="Artboard"><g id="pTokens-icon"><path id="Path" d="M115.55,115.56c-72.71,72.71-72.71,190.61,0,263.32s190.61,72.71,263.32,0,72.71-190.61,0-263.32S188.26,42.85,115.55,115.56Z" fill="#f5f7e2"/><path d="M72.21,247.22A175,175,0,0,1,371,123.48L422,72.41C325.48-24.14,169-24.14,72.41,72.41s-96.55,253.07,0,349.61L123.47,371A174.45,174.45,0,0,1,72.21,247.22Z" fill="#f66"/><path d="M422,72.39l-51.07,51.07a175,175,0,0,1-7.88,254.91A247.33,247.33,0,0,1,422,422C518.56,325.48,518.56,168.94,422,72.39Z" fill="#d95e59"/><path d="M123.47,371,72.41,422a246.87,246.87,0,0,1,59-43.65C128.66,376,126,373.52,123.47,371Z" fill="#d95e59"/><path id="Path-2" data-name="Path" d="M422,422c-96.52,96.55-253,96.55-349.6,0C169,325.48,325.49,325.48,422,422Z" fill="#f5f7e2"/></g></g><circle cx="247.21" cy="247.22" r="145.1" fill="url(#linear-gradient)"/><path d="M316.25,310,262.94,180.78c-3.05-6.72-7.48-9.93-13.28-9.93h-4.74c-6,0-10.38,3.21-13.29,9.93l-23.21,56.36H190.85a9.78,9.78,0,0,0-9.62,9.62v.15a9.55,9.55,0,0,0,9.62,9.47h9.47L178.18,310a10.29,10.29,0,0,0-.61,3.67,9.73,9.73,0,0,0,2.59,7.18,9.34,9.34,0,0,0,7,2.75,8.81,8.81,0,0,0,5.5-1.84,10.93,10.93,0,0,0,3.81-4.88l24.29-60.49h16.8a9.77,9.77,0,0,0,9.62-9.62v-.3a9.78,9.78,0,0,0-9.62-9.63h-9l18.63-46.27L297.92,317a10.93,10.93,0,0,0,3.82,4.89,8.84,8.84,0,0,0,5.5,1.83,9.33,9.33,0,0,0,7-2.75,9.72,9.72,0,0,0,2.6-7.18,10,10,0,0,0-.61-3.82Z" fill="#fff"/></g></g></svg>