<svg xmlns="http://www.w3.org/2000/svg" xmlns:xlink="http://www.w3.org/1999/xlink" viewBox="0 0 494.42 494.44"><defs><linearGradient id="linear-gradient" x1="101.66" y1="681.22" x2="392.76" y2="681.22" gradientTransform="translate(0 -434)" gradientUnits="userSpaceOnUse"><stop offset="0" stop-color="#01e8f8"/><stop offset="1" stop-color="#01e8f8" stop-opacity="0.3"/></linearGradient><linearGradient id="linear-gradient-2" x1="337.68" y1="645.61" x2="344.14" y2="722.8" gradientTransform="translate(0 -434)" gradientUnits="userSpaceOnUse"><stop offset="0" stop-color="#01e8f7"/><stop offset="1" stop-color="#00c2ff"/></linearGradient><linearGradient id="linear-gradient-3" x1="210.57" y1="604.14" x2="285.53" y2="723.13" gradientTransform="translate(0 -434)" gradientUnits="userSpaceOnUse"><stop offset="0" stop-color="#01e8f7"/><stop offset="1" stop-color="#00b3ec"/></linearGradient><linearGradient id="linear-gradient-4" x1="241" y1="659.57" x2="247.68" y2="851.61" xlink:href="#linear-gradient-2"/></defs><title>pANT_2</title><g id="Layer_2" data-name="Layer 2"><g id="Layer_1-2" data-name="Layer 1"><g id="Artboard"><g id="pTokens-icon"><circle id="Bigger_hole_ellipse" data-name="Bigger hole ellipse" cx="247.21" cy="247.22" r="175" fill="#f5f7e2"/><path d="M72.21,247.22A175,175,0,0,1,371,123.48L422,72.41C325.48-24.14,169-24.14,72.41,72.41s-96.55,253.07,0,349.61L123.47,371A174.45,174.45,0,0,1,72.21,247.22Z" fill="#f66"/><path d="M123.47,371,72.41,422a246.87,246.87,0,0,1,59-43.65C128.66,376,126,373.52,123.47,371Z" fill="#d95e59"/><path d="M422,72.39l-51.07,51.07a175,175,0,0,1-7.88,254.91A247.33,247.33,0,0,1,422,422C518.56,325.48,518.56,168.94,422,72.39Z" fill="#d95e59"/><path id="Path" d="M422,422c-96.52,96.55-253,96.55-349.6,0C169,325.48,325.49,325.48,422,422Z" fill="#f5f7e2"/></g></g><g id="Layer_2-2" data-name="Layer 2"><g id="Layer_1-2-2" data-name="Layer 1-2"><circle cx="247.21" cy="247.22" r="145.55" fill-opacity="0.21" fill="url(#linear-gradient)"/><path d="M360.92,237.58c1-21-13.64-34.89-30.2-44.44L320,256.32a15.55,15.55,0,0,1,12.42,3.73,10.82,10.82,0,0,1,.81,14.55C343.6,272.87,359.74,262.91,360.92,237.58Z" fill="url(#linear-gradient-2)"/><path d="M219.92,164.12l-12.73-12.87c19.28-2.37,70.18.63,119.44,31.52a25.81,25.81,0,0,1,0,8.32l4.14,2.09a48.17,48.17,0,0,1,5.37,36.94c-4.28,17.1-11.6,24.65-14.88,26.2-6.59,0-17.83,3.82-21.47,20.74s-10.64,20.6-13.64,20.33l-72.78.86-48-28.29-6.91-58.54,13.64-18.19,24.38-19.92,17.38-7.1Zm86,24a27.29,27.29,0,0,1-7.09,5.41c-18.7-4-25.47-13.64-25.47-13.64a87.37,87.37,0,0,1,45.48,11.19A82.81,82.81,0,0,0,305.93,188.09Z" fill-rule="evenodd" fill="url(#linear-gradient-3)"/><path d="M299.16,277.06a100.91,100.91,0,0,1-44.4,10c-45.89,0-83-28.84-83-64.36,0-26.29,20.28-48.85,49.35-58.86-55.31,3.18-99.8,47.62-99.8,102.48,0,63.31,56.45,115.62,126,115.62a135.91,135.91,0,0,0,118-70.46C334,318.45,297.25,305.12,299.16,277.06Z" fill-rule="evenodd" fill="url(#linear-gradient-4)"/></g></g></g></g></svg>