<svg xmlns="http://www.w3.org/2000/svg" viewBox="0 0 494.42 494.44"><title>pBAL</title><g id="Layer_2" data-name="Layer 2"><g id="Layer_1-2" data-name="Layer 1"><g id="Artboard"><g id="pTokens-icon"><path id="Path" d="M101.81,101.82c-80.3,80.3-80.3,210.5,0,290.8s210.5,80.3,290.8,0,80.3-210.5,0-290.8S182.11,21.52,101.81,101.82Z" fill="#f5f7e2"/><path d="M118.45,359.75c-50.45-18.47-61-43.09-61-60.49,0-22.92,18.59-43.33,52.68-58.26-7.65-9.48-9.38-18.45-9.38-24.58,0-18.63,14.22-34.87,40.45-46.72-9-9.63-10.87-19.12-10.87-25.31,0-10.25,5.11-29.54,39.32-43.59,21.13-8.68,48.88-13.46,78.15-13.46s57,4.78,78.14,13.46c22.9,9.4,32.75,21.15,36.77,31L422,72.41C325.48-24.14,169-24.14,72.41,72.41s-96.55,253.07,0,349.61l58.2-58.2C126.42,362.54,122.35,361.18,118.45,359.75Z" fill="#f66"/><path d="M130.61,363.82,72.41,422a246.48,246.48,0,0,1,78.34-52.87Q140.24,366.76,130.61,363.82Z" fill="#d95e59"/><path d="M422,72.39l-59.35,59.36a33.36,33.36,0,0,1,2.56,12.64c0,6.13-1.83,15.48-10.59,25,26.68,11.9,41.14,28.26,41.14,47,0,6-1.58,14.5-8.43,23.5C419.48,254.7,437,274.61,437,296.79c0,24.65-21.59,46.55-60.8,61.67a266.52,266.52,0,0,1-33.57,10.27A246.26,246.26,0,0,1,422,422C518.56,325.48,518.56,168.94,422,72.39Z" fill="#d95e59"/><path id="Path-2" data-name="Path" d="M422,422c-96.52,96.55-253,96.55-349.6,0C169,325.48,325.49,325.48,422,422Z" fill="#f5f7e2"/></g></g><g id="Layer_2-2" data-name="Layer 2"><g id="Layer_1-2-2" data-name="Layer 1-2"><path id="SVGID-2" d="M247.21,364.19c-96.54,0-174.8-27.75-174.8-64.93,0-19.41,21.32-36.89,55.43-49.2,26.63,17,71.31,25.71,122,25.71,49.45,0,93.16-10.63,120-26.91C402,261.05,422,278.05,422,296.79,422,334,343.76,364.19,247.21,364.19Z" fill="#1e1e1e"/><path id="SVGID-3" d="M248.24,267.42c-73.18,0-132.53-22.83-132.53-51,0-15.62,18.29-29.62,47-38.93,20.47,10.64,51.14,17.42,85.56,17.42s65.09-6.78,85.56-17.42c28.74,9.37,47,23.31,47,38.93C380.83,244.59,321.48,267.42,248.24,267.42Z" fill="#1e1e1e"/><path id="SVGID-4" d="M247.76,186.44c-56.58,0-102.47-18.86-102.47-42.05s45.89-42,102.47-42,102.46,18.87,102.46,42-45.89,42.05-102.46,42.05Z" fill="#1e1e1e"/></g></g></g></g></svg>