<svg xmlns="http://www.w3.org/2000/svg" xmlns:xlink="http://www.w3.org/1999/xlink" viewBox="0 0 494.42 494.44"><defs><linearGradient id="linear-gradient" x1="138.66" y1="247.22" x2="355.76" y2="247.22" gradientUnits="userSpaceOnUse"><stop offset="0" stop-color="#3b6bb3"/><stop offset="1" stop-color="#506db3"/></linearGradient><linearGradient id="linear-gradient-2" x1="219.9" y1="262.96" x2="292.81" y2="262.96" xlink:href="#linear-gradient"/></defs><title>pBAND</title><g id="Layer_2" data-name="Layer 2"><g id="Layer_1-2" data-name="Layer 1"><g id="Artboard"><g id="pTokens-icon"><path id="Path" d="M108.37,108.38c-76.68,76.68-76.68,201,0,277.68s201,76.68,277.68,0,76.68-201,0-277.68S185.05,31.7,108.37,108.38Z" fill="#f5f7e2"/><path d="M123.66,368.72V130.19l122.66-73.8L334,103.3v57.17L422,72.41C325.48-24.14,169-24.14,72.41,72.41s-96.55,253.07,0,349.61L125,369.46Z" fill="#f66"/><path d="M125,369.46,72.41,422a247.07,247.07,0,0,1,63.92-46.21Z" fill="#d95e59"/><path d="M422,72.39,334,160.45v54.88l36.8,21.41v132l-12.66,7.1A246.79,246.79,0,0,1,422,422C518.56,325.48,518.56,168.94,422,72.39Z" fill="#d95e59"/><path id="Path-2" data-name="Path" d="M422,422c-96.52,96.55-253,96.55-349.6,0C169,325.48,325.49,325.48,422,422Z" fill="#f5f7e2"/></g></g></g><g id="Layer_4" data-name="Layer 4"><path d="M355.76,245.37V359.94L247.21,420.81,138.66,359.94V138.67l108.09-65L319,112.29v93.5l-33.1-18.28V132l-38.18-20.37-75.92,45.6v183.3l75.45,42.36,75.45-42.36V263.88l-102.3-61.33,31.94-17.36,103.46,60.18Z" fill="url(#linear-gradient)"/><path d="M292.81,263.42,219.9,306.24V219.68L245.82,235V262l22-13.88Z" fill="url(#linear-gradient-2)"/></g></g></svg>