<svg xmlns="http://www.w3.org/2000/svg" viewBox="0 0 494.42 494.44"><title>pBET</title><g id="Layer_2" data-name="Layer 2"><g id="Layer_1-2" data-name="Layer 1"><g id="Artboard"><g id="pTokens-icon"><circle cx="247.21" cy="247.21" r="234.77" fill="#f5f7e2"/><path d="M52.93,369.2,248.21,46.31l74.92,125L422,72.41C325.48-24.14,169-24.14,72.41,72.41s-96.55,253.07,0,349.61l52.9-52.9Z" fill="#f66"/><path d="M125.31,369.12,72.41,422a246.47,246.47,0,0,1,78.51-52.94Z" fill="#d95e59"/><path d="M422,72.39l-98.88,98.9L441.5,368.76l-98.51.11A246.46,246.46,0,0,1,422,422C518.56,325.48,518.56,168.94,422,72.39Z" fill="#d95e59"/><path id="Path" d="M422,422c-96.52,96.55-253,96.55-349.6,0C169,325.48,325.49,325.48,422,422Z" fill="#f5f7e2"/></g></g><path d="M410.86,353.49,248,260.23,83.56,353.88Z" fill="#662d91"/><path d="M248.05,72.56,248,260.23l162.86,93.26Z" fill="#9e1f63"/><path d="M83.56,353.88,248,260.23l.05-187.67Z" fill="#ff5000"/><path d="M247.66,186.41l-67.23,112.3H315.2l-67.54-112.3Z" fill="#fff" stroke="#ff5000" stroke-miterlimit="10" stroke-width="4.09"/></g></g></svg>