<?xml version="1.0" encoding="UTF-8"?><svg xmlns="http://www.w3.org/2000/svg" viewBox="0 0 200 200"><defs><style>.d{fill:#fff;}.e{fill:#ccc;}.f{fill-rule:evenodd;}</style></defs><g id="a"/><g id="b"><g id="c"><path class="e" d="M200,100c0,27.1-10.8,51.8-28.4,69.8l-2.4,2.4c-18,17.2-42.3,27.8-69.2,27.8s-51.2-10.6-69.2-27.8l-.1-.1c-.8-.8-1.6-1.5-2.3-2.3C10.8,151.8,0,127.1,0,100,0,44.8,44.8,0,100,0c28.3,0,53.9,11.8,72.1,30.7,17.3,18,27.9,42.4,27.9,69.3Z"/><path class="d" d="M200,100c0,27.1-10.8,51.8-28.4,69.8l-2.4,2.4c-18,17.2-42.3,27.8-69.2,27.8s-51.2-10.6-69.2-27.8l-.1-.1L172.1,30.7c17.3,18,27.9,42.4,27.9,69.3Z"/><ellipse cx="100" cy="100" rx="63.9" ry="64.1"/><path class="f" d="M169.2,172.2c-18,17.2-42.3,27.8-69.2,27.8s-51.2-10.6-69.2-27.8c17.4-18.2,42-29.6,69.2-29.6s51.8,11.4,69.2,29.6Z"/><circle class="d" cx="100" cy="100" r="54.6"/><path d="M114.2,93.1c-1.7,6.8-12.1,3.3-15.5,2.5l3-12c3.3,.9,14.2,2.4,12.5,9.5Zm-1.9,19.3c-1.9,7.4-14.4,3.4-18.5,2.4l3.3-13.2c4.1,1.1,17.2,3.1,15.2,10.8Zm13.7-19.2c1.1-7.3-4.5-11.2-12-13.8l2.5-9.8-6-1.5-2.4,9.6c-1.6-.4-3.2-.8-4.8-1.1l2.4-9.7-6-1.5-2.5,9.8c-1.3-.3-2.6-.6-3.8-.9l-8.3-2.1-1.6,6.4s4.5,1,4.4,1.1c2.4,.6,2.9,2.2,2.8,3.5l-2.8,11.2c.2,0,.4,.1,.6,.2-.2,0-.4-.1-.6-.2l-3.9,15.7c-.3,.7-1.1,1.8-2.7,1.4,.1,.1-4.4-1.1-4.4-1.1l-3,6.9,7.8,1.9c1.5,.4,2.9,.7,4.3,1.1l-2.5,10,6,1.5,2.5-9.9c1.6,.4,3.2,.9,4.8,1.2l-2.5,9.8,6,1.5,2.5-9.9c10.2,1.9,17.9,1.2,21.2-8.1,2.6-7.4-.1-11.7-5.5-14.5,3.8-.8,6.7-3.4,7.5-8.7h0Z"/></g></g></svg>