<svg id="Layer_1" data-name="Layer 1" xmlns="http://www.w3.org/2000/svg" xmlns:xlink="http://www.w3.org/1999/xlink" viewBox="0 0 500 500"><defs><style>.cls-1{fill:#f5f7e2;}.cls-2{fill:#f66;}.cls-3{fill:#d95e59;}.cls-4{fill:url(#linear-gradient);}.cls-5{fill:#fff;fill-rule:evenodd;}</style><linearGradient id="linear-gradient" x1="295.39" y1="-1399.1" x2="59.18" y2="-15.75" gradientTransform="matrix(1, 0, 0, -1, 0, -883.23)" gradientUnits="userSpaceOnUse"><stop offset="0" stop-color="#27a8cf"/><stop offset="1" stop-color="#64f0a1"/></linearGradient></defs><g id="Artboard"><g id="pTokens-icon"><path id="Path" class="cls-1" d="M117.79,118.39c-72.71,72.71-72.71,190.61,0,263.32s190.61,72.71,263.32,0,72.71-190.61,0-263.32S190.5,45.68,117.79,118.39Z"/><path class="cls-2" d="M74.45,250.05A175,175,0,0,1,373.2,126.31l51.07-51.07c-96.55-96.55-253.08-96.55-349.62,0s-96.55,253.07,0,349.61l51.06-51.06A174.45,174.45,0,0,1,74.45,250.05Z"/><path class="cls-3" d="M424.25,75.22l-51.07,51.07A175,175,0,0,1,365.3,381.2a247.33,247.33,0,0,1,58.95,43.66C520.8,328.31,520.8,171.77,424.25,75.22Z"/><path class="cls-3" d="M125.71,373.79,74.65,424.86a246.87,246.87,0,0,1,59-43.65C130.9,378.81,128.26,376.35,125.71,373.79Z"/><path id="Path-2" data-name="Path" class="cls-1" d="M424.25,424.86c-96.52,96.55-253,96.55-349.6,0C171.2,328.31,327.73,328.31,424.25,424.86Z"/></g></g><g id="CGG_new_brand_guidelines" data-name="CGG new brand guidelines"><path class="cls-4" d="M250,395.14A145.1,145.1,0,1,0,104.9,250.05,145.09,145.09,0,0,0,250,395.14Z"/><path class="cls-5" d="M249.83,150.29,264,158.48c-.8,0-1.08.6-1.36,1.18-.06.12.13.35.32.83l2-1.47,4.54,2.62c-1.15.1-1.09.62-.55,1.56l1-1.27,4.33,2.49c-.38.39-.76.78-1.15,1.2.37.8.84,1.91,1.41,3,.09.18.55.18,1,.3.13-1,.24-1.86.35-2.73l1.1.11v3.12h1.34v-2.64l1.5.87a.93.93,0,0,1-.14.14v3.45l.52.7c.91-1.15,1.92-2.08,3.49-1.9l-.36-.36,19.35,11.17c0,.11.05.23.08.35l.31,0V181l.13.08.84.48v8.85l-.16,0c0,.42.07.84.1,1.25h.06v6.4c-1,.6-1.81,1-2.54,1.52-.18.12-.23.45-.35.79H297.1v-.21h-.22v.21h-1.52c-.07-.78-.51-1.34-1.59-1.58l-.87,1.58h-2.8v-1.18l-1.18,1.18h-1.05v-3.5a2.38,2.38,0,0,0,.81-.16l-.81-1.29V191l-2.66-1.53,1.83-1.79c-1-.81-1.72-.69-2.41,0a2.25,2.25,0,0,1-.4-.27l.8-2.69A21.39,21.39,0,0,1,281,187l-.78-.46.11,0,2.79-2.51-3.3-1.78c-.11,1.14-.2,2-.29,3H278l-7.18-4.14a1.42,1.42,0,0,0,.18-1.59c-.69-1.28-1.91-1.06-3.22-.73l.65.94L249.85,169l-.29.17c-.05-.57-.09-1.14-.15-1.84l-1.93,2.39.43.38a1.88,1.88,0,0,1,.45-.44,9.13,9.13,0,0,1,1-.4l-11.06,6.38c-.14-.2-.29-.42-.47-.66v.92l-26.09,15V193h-.19l.06-.06-.45-.54-.21.21.53.45.24,1.87h0v39.93l3.86,2.23v1.65h2c-.16-.27-.31-.53-.45-.79l.3.18.09.09,0,0,9.84,5.68V244h.08l2,1.14v.28h.22v-.15l1.69,1v1.13h.33v-.94l.88.51h-.06v.21H233l5.8,3.35-.09.12H239l10.87,6.27,8.39-4.71.84-.47,6.33,3.65h-.19l.24,1.74.34,0v-1.49l2.29,1.32v.28h.22V257l4.29,2.47.13.08.56.32v.06l.06,0,.9.51-1.26.21.38.38.7.7-24.24,13.83-.84-.48-1.7-1a2.69,2.69,0,0,0,.19-.47h-1l-25.11-14.5-1.44.84v-.84h-.33v1l-7.82,4.52v43.93l6.22,3.59-.31,0c-.61,1.12,0,1.74.67,2.33l.3.25a2.93,2.93,0,0,1,.88,1.06c-.3-1.11-.59-2.21-.89-3.31l1.56.9V314h.56v-.2l1.41.81v.72l.56-.07-.09-.37,2.85,1.64v.21h.33v0L249,330v0l.53.45.06-.06v.64l-.06-.06-.53.46.2.2.46-.53-.06-.07.65-.65v0l2.6-1.4-.54,0,.77-.44v.45h.22v-.58l34.58-20.11v-9h.32v-.22h-.32v-2h-10.3a1.5,1.5,0,0,1,0-.2l-.86.2h-1.87l-23.88,13.8-1.07.62-5.69-3.28v-1.51h-.33v1.32l-4.11-2.37a6,6,0,0,0-.28-.91c-.06.2-.11.4-.18.64L228,299.05v-2.6l.1-.35-.1.09V285.73h.64v-.22H228v-5.32l15,8.66.19.19.2.2.08-.12,2.32,1.34a.83.83,0,0,1,.07.13l.07,0,3.94,2.27L266.77,283v.3H267v-.43l2.42-1.39h24.14v1.16h.33v-1.16H304v15.74h-.05l0,2h0l0,.21,0,4.92-.09,0v1.34l.1,0,0,4.23-.44-.92-1.83,1,2.28,1.36,0,4.31h-.23v.22h.23l0,1.88L300,320.09c-.13-.27-.26-.54-.4-.81l-.7,1.45-3.25,1.89-2.8-.65-.89,2.79-.77.45h-.26v.15L276.09,334l-1.3-.37c.44.51.57.75.67.74h0l-9.13,5.3v0h-.22v.17l-11.19,6.5-1.44-1.18c-.05,1.24.17,1.67.62,1.65l-3.44,2-.84.49-.85-.49-53.39-30.82V267.4h.29v-.22h-.29v-3.54h.72l.41-.54-1.13-.82v-6.53l.54-.11-.36-.44,4.8-2.78v0h1.09l-.08-.57-.17,0,3.75-2.16-9.58-5.54v-51l1.45.66.05.14,0,.14c.13.35.27.7.57,1.51v-2.49a10.06,10.06,0,0,1-2.12-1.69V181.6l11.63-6.71v.46h.22v-.59l1.63-.94h.55v-.22h-.17l1.6-.92c0,.21,0,.42.08.63l.34,0v-.85l.83-.47h1.84v-1.07l33.5-19.34a2.32,2.32,0,0,0-.17.32l1.51,1.75c-.24.52-.43.91-.7,1.48a2.75,2.75,0,0,0,1.95-1.07l.17-.18a3.86,3.86,0,0,1,.81-.71,13.36,13.36,0,0,0,1.63,1.56c.3.22.83.11,1.6.18a6.27,6.27,0,0,0-3.3-2.94l-.3-.15c-.35-.18-.68-.36-1-.56l-.61.53c-.26-.16-.51-.53-.79-.66l.55-.32Zm2.72,193.3c-.15.18-.3.36-.46.53l-.53.45.21.21.45-.53.53-.45Zm2.49-1.31-.2.21.53.46h0l.24,1.23.43-.06c0-.42-.08-.83-.11-1.25l-.51,0,.07-.07-.46-.54Zm-6-1.58c.08,1.46.08,1.46,1.45,2-.54-.74-.91-1.24-1.45-2Zm4.92-1h-1.08l.07.56,1.06-.25a2.87,2.87,0,0,0-.05-.31Zm10.59.1h-.65V340h.65Zm-12.43-.65h-.66v.22h.66Zm2.62-.71h-1.31v.33h1.31Zm9-.71h-1.09c0,.19,0,.38.07.57l1.07-.25C263.85,338,263.84,337.86,263.82,337.75Zm3.89-2.9-1.09,1.1-.17.16-.66.66,2.13,1.18c-.09-1.25-.14-2.06-.21-3.1ZM244,337.18c.72-1.72,0-1.61-.84-1.33Zm-14.05-.63h-.66v.22h.66Zm22.8-2.07H251c0,.2,0,.39,0,.58l1.76-.24,0-.34Zm-9.93-.11h-.22V335h.22Zm22.9,0h-.21V335h.21Zm-29.23.22h-.65v.22h.65Zm11.5-2.21c-.44.61-1.45.8-.74,2a2.62,2.62,0,0,1,.44-.44l.1-.08C248.13,333.55,248.42,333.19,248,332.38Zm-6.26,1.55H241v.22h.66Zm-8.78-2.12-.45.54h0l-.6.12,0,.1c.06.31.15.76.25,1.21l.32-.22c0-.36.06-.72.09-1.13l0,0c.17-.16.35-.31.53-.46ZM245,333.28h-.65v.22H245Zm-4.14-.87h-.22v.65h.22Zm5.23-1.25-.32,0v1.09l.56,0Zm21-1.08-1.13.54,1.13,1.4Zm-12.27,1.18h-1.31v.33h1.31Zm-2.09-.7h-1.08c0,.18,0,.37.07.56l1.06-.25A2.87,2.87,0,0,0,252.69,330.56Zm-20.38-.12h-.22v.66h.22Zm12.43,0h-.22v.66h.22Zm15.81-.53-.56,0,.24,1.09.32,0Zm-20.94,0h-1.09l.07.57,1.06-.26c0-.1,0-.2,0-.31Zm33.27-.11h-.22v.65h.22Zm-7.63.22h-.66v.22h.66Zm-24.61-.15c.39-.94.51-1.63-.54-1.33Zm-19.46-1.38H221v.65h.21Zm2.41-.24c-.19.75-.19.75.71.71l-.2-.2-.51-.51Zm53.41-.67c.08-1.91-.46-1.92-1.57-1.28Zm-53.08-1.27c-.71-1.11-.83-2.95-3.17-2.25l1.29,1.82.62.89.32.44Zm47.87.44h-.65V327h.65Zm-31.41,0h-.65V327h.65Zm-3.93-1.31h-.65v.21h.65Zm41.67-.88h-.22v.66h.22Zm-59.18-3.16v2.4l1.76-1.2Zm78.78-.67c-.28,0-.66-.09-.83.06s-.16.54-.23.83a5,5,0,0,0,.88-.25.63.63,0,0,0,.24-.22l.11-.14.05-.07C297.87,320.86,297.8,320.72,297.72,320.72Zm-9.3-2.65-.21.21.53.45.45.53.21-.21-.53-.45Zm-62.76.92c.51-1.38.34-1.84-.72-1.55Zm69.7-4-3.4.68.94.81,1.93-.35-1.77,2.12c1.47.76,2.24.38,2.95-.58a5.45,5.45,0,0,1,0-.7l0-.3c.05-.71.05-1.38-.67-1.68Zm-3.28,3.2h-1.31v.33h1.31Zm-72.75-1.37-.57.08c.09.35.17.71.26,1.06l.31-.05Zm-15.16-2.06H204v.65h.22Zm81.86-.67-1.09.23c0,.11,0,.22,0,.33h1.09c0-.19,0-.38,0-.56Zm17.07-.53h-1.74c0,.2,0,.39,0,.58l1.76-.24,0-.34Zm-19-1.42h-.33v2h.33Zm8.66-1.05-1.45,1.77.3.61.34,0,2.63-.2-1.82-2.15Zm-4.09.37-1.06.26c0,.1,0,.2.05.31h1.08C288.68,311.82,288.66,311.63,288.63,311.44Zm.83-2.43h-1.31v.33h1.31Zm-31-3.43h-.21v.65h.21ZM198.73,304l-1.28,1.57C199.36,305.63,199.37,305.08,198.73,304Zm42.23.33-1.25.1,0,.57,1.28-.25-.06-.42Zm19.71.18H260v.21h.66ZM240.16,303h-.22v.65h.22Zm2,0h-.21v.65h.21Zm5.94-1.15-1.26.73,1.08,1,1-.9-.23-.22-.39-.4Zm49.25,1.37h-.65v.21h.65ZM246,301a1.77,1.77,0,0,1-.33.34l-.11.09a1,1,0,0,0-.29,1.59,2.18,2.18,0,0,1,.33-.35l.11-.09A1,1,0,0,0,246,301Zm-39,.9h-.65v.22H207Zm37.09-.87h-.22v.65h.22Zm-45.81-.6-.33,0v1.09l.56,0C198.44,301.13,198.36,300.76,198.28,300.4Zm33.37-.06h-.21V301h.21Zm-24.21-.65h-.22v.65h.22Zm35.34,0h-.22v.65h.22Zm26.18,0h-.22v.65H269Zm-23.35.21H245v.22h.65Zm-11.47-2.2L233,299.25l.5.54,1.71-1-1.1-1.1Zm2.54,1.09c-.19.75-.19.75.71.71l-.31-.31-.22-.22-.18-.18Zm14.82.46h-.65v.22h.65v-.22Zm-6.76-.87h-.22V299h.22Zm-1.85-.55h-1.08l0,.57,1.1-.24-.05-.33ZM254,297.7l-1.07.25c0,.11,0,.21.05.32H254c0-.19-.05-.38-.07-.57Zm-14.33-.52h-1.08l0,.56,1.1-.24c0-.1,0-.21,0-.32Zm45.1-1.42h-.33v1.31h.33Zm17.17.16h-1.3v.33h1.3Zm-64.13.06h-.65v.22h.65Zm41.68-2.1-.34,0v1.74l.58,0-.24-1.73Zm-49.75.57h-.22v.65h.22Zm6.66-1.2-.59,0L236,295l.35,0Zm-2.09.62-.31.05V295l.56-.07C234.43,294.58,234.34,294.22,234.26,293.87Zm56.35-3.35h-.33v2.62h.33Zm-4,2h-.21v.65h.21Zm-5.53-2.17L279.26,292l1.52,1c.25-.61.58-1.39.91-2.17l-.6-.5Zm-4.28.86h-.22v.65h.22Zm-43.85,0h-.22v.65H233Zm43.15-1.28c-1.91-.08-1.92.46-1.28,1.56Zm-66.49-1.34c-.89.66-.89,1.3,0,2l-.07.06.46.54.21-.21-.54-.45-.06.06Zm87.42-.65-.43.22a18.87,18.87,0,0,1,.69,1.76c.27,1,.75.77,1.32.32-.53-.77-1.05-1.54-1.58-2.3Zm-57.31.82h-1.39l.1.53.07.32c0,.11,0,.22.07.34l1.15-.24v-.95ZM210.38,287c-.5.44-.75.57-.74.66a4.92,4.92,0,0,0,.29.92Zm25.19.34-.31.05v1.09l.56-.07C235.74,288,235.65,287.68,235.57,287.32Zm37.53.8h-.65v.22h.65Zm-1.53-.87h-.21v.66h.21Zm9.82,0h-.22v.66h.22Zm-13.09-.65h-.22v.65h.22Zm27.55,0-1.1.24c0,.11,0,.21.05.32h1.09C295.87,287,295.86,286.77,295.85,286.58Zm-28.64.24h-.65V287h.65Zm-55.62,0h-.66V287h.66Zm80.32-1.53h-.32v1.31h.32Zm-26.24.07-.31.05v1.08l.56-.07c-.08-.35-.16-.71-.25-1.06ZM233,284.64h-1V286l.54-.1.31-.07.34-.07c-.09-.45-.17-.81-.24-1.14Zm-1.77.17h-1.39c.09.47.15.76.24,1.18l1.15-.23v-.95Zm32.6.59h-1.09c0,.19,0,.38.07.57l1.07-.26C263.85,285.61,263.84,285.5,263.82,285.4Zm5.79-.76h-.22v.65h.22Zm-.36-.92c-1.18-.37-1.71-.19-1.35.49Zm32.54-1.59-.59,0c.08.57.16,1.15.25,1.73l.34,0Zm-92.27-2.52-1.74,1.63v1.58c2.14-.61,1.93-1.86,1.76-3.05Zm75.8,2.41h-.22v.65h.22Zm-54.1.16h-2v.33h2Zm58.59-74.31c-.13.24-.29.56-.47.88l6.58-.86v0h8.14V234.3l-.14-.12-.45-.53-.21.21.53.45.27.31v3.13c0,.1-.09.19-.14.29l.14,0v4.58a1.29,1.29,0,0,0-1.68-.31l.87,1.8.81-.2v.3l-.59.35-.05-.07-.11-.15c-.1-.12-.21-.27-.35-.47l-1.06,1.59-1.53.88V246h-.22v.47l-5.67,3.28,4.36,2.51-1.17.63c1.13.42,1.65.39,1.59-.39l1.69,1c-.81.45-1.6,1-2.58,1.6.32.62.62,1.23,1.06,2.11l.22.43c.23-1.15.36-1.78.64-3.16.53,2,.87,3.27,1.21,4.57h.94c.76-1.94-2-3.25-1-5.17h.13l1.12.65,1,.67a.2.2,0,0,0,0-.07l.29.17v3.84l-1.06.08c.43.44.71.74,1.06,1.11V261l-.44-.78c-.7,1-.25,1.43.44,1.66v3.28l-.14.14.14.12v2.31a9.86,9.86,0,0,0-1.46.4,1.71,1.71,0,0,1,1.46,1.1v3.87h-.2v.22h.2V274h-1.58l-.44-1a10,10,0,0,0-.1,1H287.87V274h.28v-.22h-.28v-9.08l-10.43-6-.2-.12c-.41-.84-.82-1.69-1.22-2.54l.79-.28-3.56-3.18-3.63,1.6-12.44-7.18v-.25H257v.12l-7.15-4.12-8.39,4.71-.84.47-.83-.48-7.34-4.23-.21-.44a2.77,2.77,0,0,1-.1.26l-2.41-1.39v-.14h-.22l-2.41-1.39-.13-.08-2.55-1.47,24.61-14,.84-.48,13.62,7.86v.43h.32V232l14.51,8.38,6.12-3.53.48.5a3.25,3.25,0,0,0-.06-.75l3.05-1.76V229h.06v-.66h-.06v-17l1.28.93V210l-1.28-.69v-1.4Zm6.31,63.47v2.12h3.61l-2-1.16Zm.1-1h-2.65l1.19,1.53Zm-5.67-.66-.32.05v1.08l.56,0Zm-34-2h-.22v.65h.22Zm34.9.16h-1.3v.33h1.3Zm-31-.81h-.22v.65h.22ZM303,265.66h-.21v.65H303Zm-4.42-.07L298,266l.2.21.46-.53ZM265,265.07l-.32.05v1.09l.57-.07c-.09-.36-.17-.71-.25-1.07Zm34.36-1c-.5.45-.75.58-.74.67a5.43,5.43,0,0,0,.29.92c.11-.4.22-.79.45-1.59Zm1,.28h-.22V265h.22Zm2.72-1.19-.56,0,.24,1.09.32,0Zm-40-.06-.32,0v1.09l.56,0Zm35.68-2.48v3.13l.4-.08.38-.08.62-.13-1.4-2.84Zm-3.46.47-1.25.08,1,1.54.3-.29c0,.37.06.75.09,1.26l1.25-.08c-.4-.61-.69-1.08-1-1.54l-.31.29c0-.38-.06-.75-.09-1.26Zm-26.11,1.51h-.65v.22h.65Zm-2.07-1.42-.57.07c.09.36.17.71.26,1.07l.31-.06Zm-66.13.14c-1.78-.11-1.78-.11-1.61.58Zm34.11-2.74h-2.47l2.53,1.5v1l-.06-.06-.53.45.21.21.45-.54-.06-.06,1.79-1.3h-1.77c0-.52-.07-.86-.09-1.19Zm34.64,1.95-.57.07c.09.35.17.71.26,1.06l.31-.05Zm-28.06,1.1c-1.6-1.87-1.6-1.87-1.88-1.6v1.6Zm-32-.34H209v.22h.65Zm7.85-.65h-.65v.22h.65Zm43.2,0H260v.22h.66Zm39.85-1.36h-2c.1.48.16.77.28,1.39Zm-3.57-4a3.84,3.84,0,0,0,0,5.09c.34-1.06.62-1.93.89-2.8a1.71,1.71,0,0,0-.92-2.29Zm-92.9.55c-.32-.09-.37-.85-1-.3.09.32.16.66.23,1l.05.23c.34,1.55.78,3.05,3.06,3.36l-2.16-2.17,1.14-1.77-1.29-.34Zm4.7,3.28h-.22v.66h.22Zm51.74-.52-.35.22-.37.23-.61.38C260.88,260.14,260.78,259.44,260.49,258.59Zm-4-.06-.31.05v1.08l.56-.07C256.68,259.24,256.59,258.88,256.51,258.53Zm-2.39.8h-.65v.22h.65Zm-22.39-2.17-.41.28-.1.07c-.49.34-.89.78-.24,1.82l1.56-1.12-.81-1Zm-16.23.08c.07,1.19.52,1.82,1.88,1.9Zm68.56.56h-.33v1.31h.33Zm-4.58,0h-.33v1.31h.33ZM237,257.2h-1.09v1.86H237Zm-15.06.72-.56,0,.24,1.09.32,0Zm-22.25,0H198.6c0,.18.05.37.07.56l1.07-.25C199.72,258.12,199.7,258,199.69,257.92Zm9.28.1h-.66v.22H209Zm32.5-.87h-.22v.65h.22Zm-8.56-3.21-.45.53.06.06-2.06.67,1.41,1.95c.22-.26.58-.49.63-.77a12.54,12.54,0,0,0,0-1.84l.06.06.53-.46-.21-.2Zm-34.63,2.55h-.22v.66h.22Zm63.52,0-1.06.26c0,.1,0,.2.05.31h1.08C261.85,256.85,261.82,256.66,261.8,256.47Zm32.9.19h-1.31V257h1.31Zm-38,0h-1.31V257h1.31Zm14.77-1.46a6.07,6.07,0,0,1,1.28,0,20.39,20.39,0,0,1,1.59,1.63s0,0,0,0Zm16.75-.28v1.42h2.87ZM209,256h-1.31v.33H209Zm11.12.06h-.65v.22h.65Zm14.18-.87h-.22v.65h.22Zm61.73.21h-.65v.22H296Zm-68.87-1.52h-.33v1.31h.33Zm13.93.28a1,1,0,0,0-1.58.3l-.09.11a2.18,2.18,0,0,1-.35.33c.85.5,1.2.16,1.54-.24l.14-.16A1.82,1.82,0,0,1,241.06,254.16Zm-40.6.59h-.65V255h.65Zm36.69-1.42h-2.34l2.07,1.51C237,254.19,237.06,253.83,237.15,253.33Zm51.4-1.42a1.84,1.84,0,0,0-.8,2.63A1.84,1.84,0,0,0,288.55,251.91Zm-8.58-2c-.94-.15-1.17.55-1.7,1.15l1.61.27c1.33.82-.07,2.82,1.56,3.17l2.86-2.84c-1.12-1.33-2.72-1.5-4.33-1.75Zm-75,2.08-.56.06.15,2.36.41,0Zm20.29.66-.57.07c.09.36.17.71.25,1.07l.32-.05Zm33.33.54-1.1.23c0,.11,0,.22.05.33h1.08Zm-19.7-.64h-.22v.65h.22Zm57.65-.66h-.33v1.31h.33Zm-79.21-7.76c.31.62.54,1,.73,1.45s.45.83.69,1.24l.19.31.09.15.19.31a5.53,5.53,0,0,1,1,4c-.08.44.62,1,1,1.56a2.64,2.64,0,0,1,.34-2.21l.16-.32c.46-.93.85-1.85-.08-2.91-1.17-1.35-1.9-3.1-4.24-3.57Zm73.27,7.19-.34,0v1.74l.59,0c-.08-.57-.16-1.15-.25-1.73Zm-5,1.45h-.65V253h.65ZM227.84,252h-1.08l0,.56,1.1-.24,0-.32Zm42.65-1.1-.09.09-.45.44-.34.35-1.64-.63,1,1.39h3.14Zm-66.87.45-.56,0,.24,1.09.32,0Zm71.83-.06-.45.53-.53.45.21.21.45-.53.53-.45Zm-45.76-.06h-.22v.65h.22Zm4.15.22h-.66v.22h.66Zm-27.71-.87h-.22v.65h.22Zm-1.41-4.52,2.6,5.17h.84a8.93,8.93,0,0,1,.16-1.14c.13-.44.34-.86.51-1.29-.83-.83-1.63-1.71-2.52-2.47C206,246.12,205.49,246.21,204.72,246.09Zm64.85,2.66-1.7.89,1.64.84-.3-.58,1.41-.17Zm18.58,1.42h-.65v.22h.65Zm-62.39-.87h-.21V250h.21Zm65.17-3.82c-.17,2.78.29,4.47,1.39,4.47l.82-.7c-.23-1.18-.42-2.16-.61-3.09Zm-12.23,2.8-2,1.59H279c-.08-.38-.18-.83-.34-1.59ZM283,249c-.61-.44-.81-1.45-2-.74C281.53,248.71,281.73,249.72,283,249Zm9.07-6.79H288.4c-.71,1.12-.81,2.46-2.1,2.79-.15.93-.28,1.83-.46,3,.08.17.36.71.56,1.1l.13-.07.25-.15.65-.38c-.34-.64-.52-1-.68-1.31l3.07-3.9H292v-1.08Zm-56.88,6.64h-.65v.22h.65ZM233,248l-1.09.24c0,.11,0,.21,0,.32h1.08C233.05,248.34,233,248.16,233,248Zm43.46-2c-1.5.16-2,.72-2.09,2.1A2.06,2.06,0,0,0,276.48,246Zm8.18,1.37h-.22V248h.22Zm-58.24,0h-.22V248h.22Zm2-.65h-.33V248h.33Zm-5.28-.57-.34,0v1.74l.58-.06-.24-1.72Zm-10.5-1.6c-1.61.63-2,1.45-1.58,2.71a1.78,1.78,0,0,0,2.49-1.26Zm65.46,2.17h-.22v.65h.22Zm4.8.22h-.66v.21h.66ZM300.5,244l-1.79.26c.31.37.64.34.89.47a5.44,5.44,0,0,1,1,.9c0-.81-.05-1.1-.08-1.63Zm-56.85.87h-1.31v.33h1.31Zm-20.94.05h-.65v.22h.65Zm70.68,0h-.66v.22h.66Zm-18.45-.76h-1.08l.07.57,1.06-.26Zm-21-.76h-.21v.65h.21Zm-32.6-.55h-1.09c0,.19,0,.38,0,.56l1.09-.23Zm22.35.11H243v.22h.65Zm-1.31,0h-.65v.22h.65ZM269,242.1h-.22v.65H269Zm-45.6.22h-.65v.21h.65Zm9.43-2.78-.2.21.53.45.06-.06v1.13c.81.26,1.66.58,2.53.8.22.06.52-.19,1-.38l-1.17-1.56h-2.35l.06,0-.46-.54Zm61.47,1.66,0,.15c-.15.6-.09.6.74.56l-.19-.19Zm-8.07.46h-.66v.22h.66Zm-64.53-.85a5,5,0,0,0-.91.28l1.62.46c-.48-.51-.61-.75-.71-.74ZM303,239l-1.35,1.31.49,1.22c1-.79,1.39-1.54.86-2.53Zm-60.88,1.84h-.21v.65h.21Zm45.87-.66h-.33v1.31H288Zm-57,.66h-.22v.65H231Zm-10.64-.6-.21.21.54.46.13-.13Zm-1-.59h-2.47v1a1.65,1.65,0,0,0,2.25-.47,2.86,2.86,0,0,0,.22-.51Zm38.58.65h-1.09l.07.56,1.07-.25c0-.11,0-.21-.05-.31Zm-10.46-.66h-1.08c0,.19,0,.38,0,.56l1.09-.24Zm26.72-.11H274v.65h.22Zm-37.08.22h-.66v.22h.66Zm61.51,0H298v.22h.65Zm-34.25-.87h-.21v.65h.21Zm-29.88.21h-.65v.22h.65Zm5.24,0h-.66v.22h.66ZM229,238.17h-.22v.66H229Zm3.25-.58-.31,0v1.08l.57-.07C232.46,238.3,232.38,237.94,232.29,237.59Zm69.6.8h-.65v.22h.65Zm-1.24-2.65c-1.44-.38-2.35-.17-2.67,1.13a5.67,5.67,0,0,0,0,1.24h1.74Zm-73,1.18-.45.53-.53.45.2.21.46-.53.52-.45Zm7.24.84c.19-.75.19-.75-.71-.71Zm-25.41-2.11-.58.06c.08.57.16,1.15.25,1.72l.33,0Zm30.65.56h-.22v.65h.22Zm8.07.16h-1.31v.33h1.31Zm-48.32-2.83v2.35l1.52-2.07Zm48.2,1.47h-1.74l.06.58,1.71-.25Zm-3.15.11h-.65v.22H245Zm17.41-1.6c-.39.94-.51,1.63.53,1.33l-.09-.25-.22-.53c-.07-.18-.14-.37-.22-.55ZM297.2,233l-.56.07c.08.36.17.71.25,1.07l.31-.06Zm-8.45-.17-.54.45.21.21.45-.53-.06-.07ZM248,232.34l-.32,0v1.09l.56,0Zm53.42-1.06c.55,1.39.55,1.39,2,1.45l-.66-.49-.42-.3Zm-11.16-3.22c-.23.93-.46,1.87-.7,2.81l-.19.76c-.06.26-.13.52-.19.79l.17,0,.16,0c1.22-.21,2.33.26,3.44-.5-.89-1.26-1.68-2.38-2.69-3.79Zm8.64.73-2.73,2.69c.63.69,1.39,1.32,2.39.5s.88-1.93.34-3.19ZM244.74,231h-.22v.66h.22V231Zm58.33-1.4-1.32.33,1.51,1.39C303.16,230.41,303.12,230.06,303.07,229.57Zm-1.75.52-.38.12-1.11.35.31.43,2.05-.16-.62-.51-.25-.23Zm-57.67.45H243v.21h.65ZM204.82,229h-.22v.65h.22Zm91.62,0h-.22v.65h.22Zm4.31-2.43a1.62,1.62,0,0,0,.82,2.36,1.69,1.69,0,0,0,2.19-.82Zm-48.11,1.75-1.07.26a2.87,2.87,0,0,1,.05.31h1.09C252.69,228.71,252.66,228.52,252.64,228.33Zm40.68-1.88h-1.13v2.42c.41-.88.66-1.43.91-2l.11-.23.11-.24Zm-85.78,1.36h-1.09c0,.19.05.38.07.57l1.07-.26Zm-9.81-.66-.56.07.25,1.07.31-.06Zm100.44-1.31c-.12.95-.3,1.37-.17,1.5a2.76,2.76,0,0,0,.94.42l0-.09-.07-.19-.66-1.64Zm-3.17-.77-.4.35,1.31,2.34c0-1.07.11-1.49,0-1.78A4,4,0,0,0,295,225.07Zm-48.89,1.32h-.33v1.31h.33Zm42.48,0h-.22v.66h.22Zm8.71-2.95c.15,1.32,1.11,1.91,2.51,2.51-.17-.16-.32-.32-.47-.47l-1.85-1.85Zm-7.21,2c.07-1.91-.47-1.92-1.57-1.28Zm5-2.3-.45.53.06.06h-.64l.06-.06-.46-.53-.2.21.53.45.06-.06.22.54.43-.54.06.06.54-.45Zm-87-1.37h-.21v.66h.21Zm82.46,0h-.22v.66h.22Zm4.47-2.63-.18.34c-.23.46-.47.93-.79,1.54l1.83.92a7.34,7.34,0,0,0,.07-1.19c0-.31-.37-.71-.26-.91.56-1.09-.39-.53-.67-.7Zm-6.43,1.32h-.22v.66h.22Zm-84.45-1.87c-.53.55-1.07,1.1-1.6,1.66l.32.33.53.52C204.21,220.44,205,219.72,204.14,218.63Zm86.46.48-1.39.28,1.39,1.71Zm8.46.8-.33,0V221l.56,0C299.21,220.64,299.14,220.27,299.06,219.91Zm-5-1.37h-2c-.26.52-.52,1.05-1,2a11.87,11.87,0,0,0,2.26-.37c.68-.26.76-.94.67-1.61Zm-88.12-1.89a7.92,7.92,0,0,0,.67,3.72c.17.15.55.08,1.13.13l-1.8-3.85Zm95.1,1.89h-.22v.65H301Zm-12-1.9v2l1.39-.28-1.39-1.7Zm6.72,1.56c-.75-1-1-2-2.48-1.39.32.66.58,1.19.87,1.8Zm-2.4-4.1h-1.71v4.45l.42,0v-2.45l.29-.1,1-.33V214.1Zm5.1,3.78h-.21v.66h.21Zm-1.64-2v2.35c.63-.86,1-1.36,1.52-2.09Zm-95.86.7h-.22v.65h.22Zm102.81-1.86c-1.41-.32-2.26.09-2.63,2A3.05,3.05,0,0,0,303.71,214.72Zm-6.5-2.23,1.87,2.22,2.22-1.11c-.09-.32-.16-.61-.26-1l-.79.67-3-.79ZM295.79,214h-.22v.65h.22Zm-90.75.22h-.65v.21H205Zm88.62-5.85a8.38,8.38,0,0,1,.87,1.9,6.75,6.75,0,0,1-.25,1.58c.24.47.52,1,.77,1.46h1.29c-.19-1.42-.34-2.61-.51-3.9l-2.17-1Zm-2.24,4.54h-.65v.22h.65Zm1.81-2.21-1.89.15c.1.51.16.8.22,1.13h1.92c-.11-.57-.16-.87-.25-1.28Zm-87.27.09-.2.2.53.45.45.53a1.89,1.89,0,0,0,.2-.2l-.53-.45-.45-.53Zm2.95-2.18c-1.39.35-2.14.8-1.7,2.22C208.32,210.53,209.07,210.15,208.91,208.57ZM297.1,210h-.22v.66h.22Zm-9.23.16.29.14-.29.32Zm-76.52-.74-.31.05v1.08l.57-.07c-.09-.35-.17-.71-.26-1.06Zm-5.92-2.95-2.66,1.42,1.79.2.24,0,.12,0c.15.77.26,1.28.41,2.09.46-1,.74-1.64,1.08-2.39Zm94.16,2.21-2.19.18,2.88,1.23.31-.42-.46-.46-.4-.39Zm-98.48-.42h-.65v.21h.65Zm.9-1.41c-.24-1.31-1-1.79-2.27-1.13Zm.85-2.08h-.22v.65h.22Zm5-1.76-1.56.78v.67c1.52,1,2.67-.15,4-.71l-2.46-.74Zm-6.07.19c-1.21-.4-1.66-.16-1.35.48Zm-5.21-3.73c0,1.07-.12,1.49,0,1.78a4.18,4.18,0,0,0,.87.92l.41-.36C197.62,201.28,197.31,200.71,196.63,199.5Zm14,1.39c-.08.08-.21.15-.21.23,0,.28-.09.66.06.83s.54.16.83.23a5,5,0,0,0-.25-.88c-.08-.17-.28-.28-.43-.41Zm-3.12-.08c.06-1.61-.32-2.58-.92-2.42-.77.67-1.24,1.4-.59,2.42Zm83.09-4-.44.43-.58.58-.07.07.27.27.1.1.11.11.13.13.3.31.52.51c-.11-.81-.18-1.34-.25-1.83l0-.27c0-.14,0-.27-.05-.41Zm-92.71,2.28h-.65v.22h.65Zm100.78,0H298v.22h.65ZM207.93,197c-.53.87-.11,1.22.35,1.59l.11.08a2.8,2.8,0,0,1,.31.28c.53-.87.1-1.22-.35-1.59l-.11-.08A2.8,2.8,0,0,1,207.93,197ZM301,195.71l-.34,0v1.73h.58Zm-1.76,1.45h-.66v.22h.66Zm-6.63-.9c-.62-1-1.09-2-3-1.89C290.91,195.2,291.22,196.4,292.65,196.26Zm-85.1-1.18-.57.07c.09.36.17.71.26,1.07l.31-.05Zm-3.16-.54h-.66v.22h.66Zm-3.6-2.25-.94,2h2.59Zm101.54.73h-.22v.65h.22Zm-99.43.12c.38-1.49-.12-1.61-1.23-1.2ZM300,189.82V193h1.11C300.81,192,300.53,191.22,300,189.82Zm-95.65,2.76h-.66v.22h.66Zm-4.15-2.18H200v.65h.22Zm.81-2.56h-1.14v2.42ZM196.53,190h-.65v.22h.65ZM210,187.77h-.12l-.36,1,2.51,1c-.09-.15-.18-.3-.26-.46l-.09-.18c-.39-.75-.78-1.43-1.8-1.38Zm-6.89.82c0,.36,0,.79.11.9a3.05,3.05,0,0,0,1,.28C203.83,189.34,203.5,189,203.1,188.59Zm97.49.72h-.66v.22h.66Zm-101.54-1.42H198c0,.19,0,.38,0,.56l1.09-.23C199.08,188.11,199.06,188,199.05,187.89Zm104.59-.11h-.22v.66h.22Zm-97.94-.49h-1.31v.33h1.31Zm-6.11-.82h-.22v.66h.22Zm91.5-1c-.51,1.38-.34,1.84.72,1.56ZM207,186.69h-.65v.22H207Zm81.58,0c.19-.75.19-.75-.71-.71l.42.42Zm-83.71-2.28-1.39.28,1.39,1.7ZM299.28,186h-.66v.21h.66Zm4.58,0h-.66v.21h.66Zm-101.65-.88H202v.66h.22Zm86.6-7.19a10,10,0,0,1-1.42,1.28,10.29,10.29,0,0,1-1.86.68v4.49l.59-.37.3,1.22.5-.36-.6-1.53a2.05,2.05,0,0,1,1.12-.81l.18-.08c.64-.27,1.24-.61,1.19-1.6l-.18-.09-1.47-.69,3.58-.43-.85-.75-.23-.2-.85-.76Zm11.54,5.86-1.73.14v1.29c.55-.36.84-.57,1.16-.75a6.07,6.07,0,0,1,.7-.29c0-.13-.09-.26-.13-.39Zm-8.75-.1c-.38,1.49.12,1.61,1.23,1.2Zm-78.54-1.37v2.41l1.46-1.81-1.46-.6ZM284,183.85h-.22v.66H284Zm10.47,0h-.22v.66h.22Zm2.07-.55-.57.07c.09.36.17.71.26,1.07l.31-.05Zm-21.87-2.82-.27.11-.25.09-.42.17c.87,2.2.87,2.2,2,2.67l-1.09-3Zm-66.49,2.18h-1.08c0,.19,0,.37.07.56l1.06-.25C208.23,182.87,208.21,182.76,208.19,182.66Zm68.36-1.79,1.19,2.16,1.66-.89-.85-.38-.32-.14-1.68-.75Zm18.15,1.89H294V183h.66ZM283.83,180h-2.18c.26.52.57,1.16,1,2Zm6.72,1.2h-.22v.65h.22v-.65Zm-11-8.21c-.3.45-.53.79-.72,1.09l-.15.21-.13.2c.12.05.51.15.88.32s.73.38,1.09.57l-.17.18-.33.33-.16.15-1.07,1.07c-.16.17-.32.32-.48.48.15,1.28-.64,2.87,1.51,3.73a22.12,22.12,0,0,0,1.74-1.77,8.88,8.88,0,0,0,.8-1.68l-3.32,2c-.3-2.13.8-2.77,2.1-3.26l.19-.08c.35-.13.71-.25,1.05-.39L279.58,173Zm14.9,7.55h-.22v.66h.22v-.66ZM210.81,180h-1.08l.07.56,1.06-.25C210.84,180.25,210.83,180.14,210.81,180Zm-2.72-.11h-.21v.65h.21Zm88.57.52c0-1-.13-1.54-1-1.06Zm-3.33-2.81c.1.89.14,1.24.19,1.73l1.32-.33-1.51-1.4Zm-8.84,1-.2.21.53.45.13-.13-.46-.53ZM205.37,178a5.5,5.5,0,0,0,.25.88c.07.16.28.27.43.4.07-.07.21-.15.21-.22,0-.29.09-.67-.06-.84s-.55-.16-.83-.22Zm70.24-1.36-1.51.28,1.51,2.07ZM295.08,178l-.45.53.12.13.54-.46-.21-.2Zm-68-.06h-.22v.65h.22Zm4.65,0-1.73.24,0,.34h1.74C231.75,178.32,231.74,178.12,231.72,177.93Zm-22.1.2h-1.31v.33h1.31Zm77.6-.92c.45.5.58.75.67.73a5.38,5.38,0,0,0,.92-.28l-1.59-.45Zm-74.3-1c-.08,1.91.46,1.92,1.57,1.28l-.3-.24-.2-.16-1.07-.88Zm60.18,1.58c0-1-.13-1.54-1-1.07Zm-61-2.37-.57,0,.25,1.11.32,0Zm65.93,1c-1.2-.67-1.41-1.85-2.86-1.59C276,175.41,276.1,176.89,278.06,176.5Zm14.07-1.72c-1.22-.06-2.25-.31-3.24.19.78,1.3,1.8,1.1,2.8.95l.2,0H292c0-.33.07-.53.15-1.1Zm-55.9-.09H236v.66h.21Zm47.6-3.85c-.7,1.1-1.88.39-2.88.58a4.61,4.61,0,0,0,.49.65c.46.43.94.84,1.41,1.25l-.53.45.21.21.45-.54-.05-.06h1.85c.08.75.14,1.26.2,1.83h2.43v-2.44Zm5.63,2.76h-.65v.22h.65Zm-22.25-3.49v0a.88.88,0,0,0,0,.23v.11c0,.43.1.87-.63.92l.05-.06-.45-.53-.21.2.54.46.06-.06c.08.45.16.9.37,2l1.37-2.13.22-.33-1.31-.88Zm-6.76,2.62h-.22v.65h.22Zm-38.39-1a5.33,5.33,0,0,0-.89.25c-.16.07-.27.28-.4.43.08.07.15.21.22.21.29,0,.67.09.84-.06S222,172,222.06,171.75Zm14-2.23-.2.2.53.46.06-.06c-.11.28-.17.42-.22.54-.63,1.33-.62,2.06,0,1.93.13-.37.27-.74.4-1.12l1.52.93c-.64-1.21-1-1.78-1.51-2.82l-.18.44-.43-.5Zm18.37.62c-.08.07-.21.14-.22.22,0,.28-.08.66.06.83s.55.16.83.23a5,5,0,0,0-.24-.88c-.08-.17-.29-.27-.43-.4Zm11.74-1.93-.21.21.54.45.06-.06a1.79,1.79,0,0,1,0,.33v.12c0,.41-.06.81.65.85a1.19,1.19,0,0,1,0-.33v-.12c0-.41.05-.81-.65-.86l.07-.06C266.47,168.57,266.32,168.39,266.17,168.21Zm-2.7-.41c.56,1.39.56,1.39,2,1.45Zm-25.71.57h-.65v.22h.65Zm21.92-2.18a6.78,6.78,0,0,0,.25.88c.08.16.28.27.43.4.08-.07.21-.15.22-.22,0-.29.08-.67-.07-.83s-.54-.17-.83-.23Zm-29.35.06-.31.06v1.08l.57-.06C230.5,167,230.42,166.61,230.33,166.25Zm17.73-.09-1.07.26,0,.31h1.09C248.11,166.54,248.08,166.35,248.06,166.16Zm23.57-1.28h-.33v1.31h.33Zm-16.2.21h-.65v.22h.65Zm4.85-4.73-.21.2.54.46,0,0a3.14,3.14,0,0,0,2,2.86c-.06-1.21-.1-2.05-.14-2.89h-1.81l.05-.06-.45-.53Zm-7.91,1.3h-2.64l1.19,1.54Zm4.21-.71h-.33v1.31h.33Zm-6-4.6-.4.13c.15.8.3,1.61.45,2.4l-.41.45.91.92h.24c1.19.08,2.42.23,2.88-1.94H252Zm6.16,2.2h-.65v.22h.65Zm3.93-.65H260v.21h.66Zm-17.84-.9-1.07.26.05.31h1.08Zm15.75,0c-.94,0-1.88,0-2.82,0-.08,0-.15.28-.27.52h3.12l0-.54Zm-9.91-.65h-.22V157h.22Zm-8.29.16h-1.31v.33h1.31Zm12.43.06h-.65v.22h.65Zm-.06-1.6-.53.46.21.2.45-.53Zm4,.29h-.65v.22h.65Z"/></g></svg>