<svg xmlns="http://www.w3.org/2000/svg" viewBox="0 0 494.42 494.44"><title>pCOMP</title><g id="Layer_2" data-name="Layer 2"><g id="Layer_1-2" data-name="Layer 1"><g id="Artboard"><g id="pTokens-icon"><path id="Path" d="M107.43,107.44c-77.19,77.2-77.19,202.36,0,279.56S309.8,464.19,387,387s77.2-202.36,0-279.56S184.63,30.25,107.43,107.44Z" fill="#f5f7e2"/><path d="M120.74,348.41A43.57,43.57,0,0,1,100,311.49V256.54a26.81,26.81,0,0,1,26.78-26.78h.12a26.82,26.82,0,0,1,13.38,3.62l16.38,9.55V169.2a26.81,26.81,0,0,1,26.79-26.78h.11A26.8,26.8,0,0,1,197,146l14,8.16v-70a27.21,27.21,0,0,1,3.5-13.29l.13-.22A26.82,26.82,0,0,1,251.19,61L366.47,128,422,72.41C325.48-24.14,169-24.14,72.41,72.41s-96.55,253.07,0,349.61l64-64Z" fill="#f66"/><path d="M422,72.39,366.45,128l8.74,5.07a38.69,38.69,0,0,1,19.22,33.39V335.26a24.56,24.56,0,0,1-12.79,21.34l-29.88,16.13A246.72,246.72,0,0,1,422,422C518.56,325.48,518.56,168.94,422,72.39Z" fill="#d95e59"/><path d="M136.42,358l-64,64a246.57,246.57,0,0,1,80.65-53.84Z" fill="#d95e59"/><path id="Path-2" data-name="Path" d="M422,422c-96.52,96.55-253,96.55-349.6,0C169,325.48,325.49,325.48,422,422Z" fill="#f5f7e2"/></g></g><path d="M128.57,335.62A28.32,28.32,0,0,1,115,311.49V256.54a11.83,11.83,0,0,1,17.77-10.18l124,72.3a23.58,23.58,0,0,1,11.73,20.39V396a14.12,14.12,0,0,1-14.12,14.17,14.35,14.35,0,0,1-7.42-2.08Zm184.81-104.3a23.68,23.68,0,0,1,11.73,20.39V367.23a9.39,9.39,0,0,1-4.81,8.21l-27.14,15.27a5.4,5.4,0,0,1-1.1.45V327a23.61,23.61,0,0,0-11.5-20.27L171.68,241.61V169.2A11.83,11.83,0,0,1,189.45,159ZM367.65,146a23.59,23.59,0,0,1,11.76,20.42V335.14a9.56,9.56,0,0,1-5,8.3L348.7,357.33V239.87a23.66,23.66,0,0,0-11.45-20.25L226,152.86V84.19a12.17,12.17,0,0,1,1.58-5.93A11.83,11.83,0,0,1,243.67,74Z" fill="#00d395" fill-rule="evenodd"/></g></g></svg>