<svg xmlns="http://www.w3.org/2000/svg" viewBox="0 0 494.42 494.44"><title>pDAI</title><g id="Layer_2" data-name="Layer 2"><g id="Layer_1-2" data-name="Layer 1"><g id="Artboard"><g id="pTokens-icon"><path id="Path" d="M117.27,117.28c-71.76,71.76-71.76,188.12,0,259.88s188.12,71.76,259.88,0,71.76-188.12,0-259.88S189,45.52,117.27,117.28Z" fill="#f5f7e2"/><path d="M72.21,247.22A175,175,0,0,1,371,123.48L422,72.41C325.48-24.14,169-24.14,72.41,72.41s-96.55,253.07,0,349.61L123.47,371A174.45,174.45,0,0,1,72.21,247.22Z" fill="#f66"/><path d="M123.47,371,72.41,422a246.87,246.87,0,0,1,59-43.65C128.66,376,126,373.52,123.47,371Z" fill="#d95e59"/><path d="M422,72.39l-51.07,51.07a175,175,0,0,1-7.88,254.91A247.33,247.33,0,0,1,422,422C518.56,325.48,518.56,168.94,422,72.39Z" fill="#d95e59"/><path id="Path-2" data-name="Path" d="M422,422c-96.52,96.55-253,96.55-349.6,0C169,325.48,325.49,325.48,422,422Z" fill="#f5f7e2"/></g></g><circle cx="247.21" cy="247.22" r="145.9" fill="#f4b731"/><path d="M362.75,215.25h-22.3S323,155.06,247.21,155.06H173.59v60.19H147.8v21.49h25.52v21.5H147.8v21.49h25.52v60.19h73.62s70.13,1.88,93.24-60.19h22.57V258.24H344.21a71.55,71.55,0,0,0,1.08-10.75,71.55,71.55,0,0,0-1.08-10.75h18.54Zm-167.4-40h53.47c44.61,0,63.15,26.6,69.6,39.77H195.35Zm53.47,144H195.35V279.46H318.42C297.73,320.57,248.82,319.23,248.82,319.23ZM195.35,258v-21.5H324.6a72.63,72.63,0,0,1,0,21.5Z" fill="#fff"/></g></g></svg>