<svg xmlns="http://www.w3.org/2000/svg" viewBox="0 0 494.42 494.44"><title>pDOGE SVG</title><g id="Layer_2" data-name="Layer 2"><g id="Layer_1-2" data-name="Layer 1"><g id="Artboard"><g id="pTokens-icon"><path id="Path" d="M115.55,115.56c-72.71,72.71-72.71,190.61,0,263.32s190.61,72.71,263.32,0,72.71-190.61,0-263.32S188.26,42.85,115.55,115.56Z" fill="#f5f7e2"/><path d="M72.21,247.22A175,175,0,0,1,371,123.48L422,72.41C325.48-24.14,169-24.14,72.41,72.41s-96.55,253.07,0,349.61L123.47,371A174.45,174.45,0,0,1,72.21,247.22Z" fill="#f66"/><path d="M422,72.39l-51.07,51.07a175,175,0,0,1-7.88,254.91A247.33,247.33,0,0,1,422,422C518.56,325.48,518.56,168.94,422,72.39Z" fill="#d95e59"/><path d="M123.47,371,72.41,422a246.87,246.87,0,0,1,59-43.65C128.66,376,126,373.52,123.47,371Z" fill="#d95e59"/><path id="Path-2" data-name="Path" d="M422,422c-96.52,96.55-253,96.55-349.6,0C169,325.48,325.49,325.48,422,422Z" fill="#f5f7e2"/></g></g><g id="Layer_2-2" data-name="Layer 2"><g id="Layer_1-2-2" data-name="Layer 1-2"><g id="Layer_1-3" data-name="Layer 1-3"><circle cx="247.21" cy="247.19" r="145.1" fill="#988430"/><circle cx="247.21" cy="247.19" r="140.45" fill="#7a6a2a"/><circle cx="247.21" cy="247.19" r="137.49" fill="#ba9f33"/><path d="M165.55,231.7c-.82-.75-1.69-1.51-2.49-2.26s-1.61-1.5-2.44-2.25l-2.44-2.32c-.4-.4-.82-.75-1.22-1.15s-.87-.75-1.27-1.11c-3.24-3.07-6.5-6.15-9.69-9.22,3.31,3,6.55,6,9.86,9.11l1.15,1.15c.4.39.82.75,1.22,1.15l2.44,2.25c.82.75,1.62,1.5,2.44,2.32s1.62,1.57,2.45,2.32Zm-43-.47s11.79,1.22,17.54,2c5.33.76,22,3.31,22,3.31Zm0,0c3.31.28,6.62.64,9.93,1,1.69.16,3.31.35,4.93.51l2.49.29,2.44.35,9.87,1.57,4.92.82c1.63.28,3.25.59,4.94.87-1.62-.16-3.31-.4-4.94-.63l-4.92-.71-9.87-1.45c-.82-.12-1.62-.28-2.44-.4l-2.49-.29c-1.62-.16-3.31-.4-4.93-.58-3.31-.4-6.62-.83-9.93-1.34Zm38.37,8.43s-12.59,3.19-16.84,4.41-16.83,5-16.83,5l33.66-9.41Z" fill="#cfb66c" fill-rule="evenodd"/><path d="M160.9,239.66c-2.79.82-5.57,1.62-8.4,2.37l-8.41,2.25-8.35,2.44-4.18,1.15c-1.39.4-2.8.75-4.23,1.15,1.38-.46,2.79-.93,4.18-1.33l4.18-1.34c2.79-.87,5.57-1.69,8.36-2.56,2.84-.71,5.63-1.46,8.47-2.14s5.54-1.36,8.38-2ZM129,256.82c1.38-.52,17.35-8,21.06-9.7,1.86-.87,7.25-2.78,7.25-2.78Z" fill="#cfb66c" fill-rule="evenodd"/><path d="M129,256.82c1.22-.47,2.37-1,3.54-1.57l3.48-1.62,7-3.36c2.32-1.1,4.58-2.32,7-3.36,1.22-.51,2.45-.94,3.67-1.34l1.85-.58c.64-.17,1.22-.36,1.86-.52-2.32,1.1-4.77,2-7.09,3.12s-4.7,2.09-7.09,3.13l-7.09,3.12c-2.38,1-4.7,2-7.07,3Zm1.55,6.5S145,254.84,150,252.12c2.6-1.45,11-5.63,11-5.63Z" fill="#cfb66c" fill-rule="evenodd"/><path d="M130.55,263.32c2.44-1.5,4.93-3,7.42-4.58l3.71-2.25,3.78-2.21c1.27-.75,2.49-1.5,3.78-2.2a14,14,0,0,1,1.93-1l2-1c2.6-1.27,5.21-2.56,8-3.67-2.49,1.58-5,2.91-7.61,4.3-1.27.7-2.56,1.34-3.83,2s-2.49,1.46-3.78,2.14-2.49,1.45-3.78,2.13l-3.82,2.09-7.73,4.18Zm30.35-15s-9,6.91-11.9,9.11-11.48,8.41-11.48,8.41Z" fill="#cfb66c" fill-rule="evenodd"/><polygon points="212.51 304.01 207.91 295.3 210.59 284.41 229.67 277.03 221.55 260.37 225.56 243.53 233.1 228.46 256.39 224.79 273.51 208.48 310.46 211.27 317.72 250.78 303.75 300.54 295.79 326.29 263.53 327.51 248.55 317.14 231.01 309.81 212.51 304.01" fill="#e2cc85" fill-rule="evenodd"/><path d="M269.1,303.73s-4.47,2-12.08,1.57c-2.2-3-17.62-4.34-17.62-4.34s-1.93-.59-5.33.82-6.67,1.22-9.7,2-6-3.19-8.36-4a32.76,32.76,0,0,1-5.4-3l-6.5-.63-13.05-5.52L170.32,270l-5.63,8.82L163,289.71l6.27,12.93L186.1,318,219,326.38l19.52-5.75L263,310.3l6.13-6.57Z" fill="#f1d789" fill-rule="evenodd"/><polygon points="152.15 230.71 156.33 218.06 161.31 209.88 177.34 208.55 172.53 222.59 159.12 246.44 164.69 267.74 154.82 272.67 151.79 268.02 149.35 257.36 149.19 245.38 152.15 230.71" fill="#f4ecb4" fill-rule="evenodd"/><path d="M170.13,302.86l-3.07-4.3a7,7,0,0,1-.36-3.82c.47-1.81.4-1.93.17-2.61s-2.21-3-2.09-5.05-.16-2.72,1.34-4.34,1.1-4.3,1.1-4.3l2,1.27.47-.7a2.07,2.07,0,0,1,.75,1.5c.16-1.27-.52-7.14,1-8.48s4.3,6.27,4.3,6.27l-1.69-11L169.77,256l-7.72-10.33-.47-11.39v-1s-3.54,5.44-4.53,9.75c-.7,2.95,1,6.55.64,10.8s-.64,3.89.39,5.57,3.55,5.12,2.56,7.61c-.86,2.13-3.82.63-3.82.63a6.4,6.4,0,0,1-1.39,2.37,5.27,5.27,0,0,0-1.15-2.32c-.05.4-.16.94-.16.94s-.52-1.62-1-3.66c-.7-2.73-1.45-6.32-2.13-8.24-.28,1.1-1,4.46-1,4.46l.4,5.16,1.93,7.09,1.85,4.65,1.81,5.68,1.57,3.81,1.27,2.91,1.1,6.56,5.33,5.63,2.84,1.27,2.07-1.06Z" fill="#f3e19d" fill-rule="evenodd"/><path d="M154.94,220.38A44.57,44.57,0,0,0,150,233.43a86.31,86.31,0,0,0-1.39,22.4,92.58,92.58,0,0,0,3.12,18.46c1.86,6.55,6.67,15.66,6.67,15.66l.16-.35a24.72,24.72,0,0,1-1.92-4.82c-.64-2.49-.87-5.44-1.46-6.78a32.92,32.92,0,0,1-1.81-4.14c-.4-1.57-.46-4.06-1.69-5.91a12.18,12.18,0,0,1-1.34-4.7c-.23-3,.12-6.27-.16-9-.52-4.53-.87-7.61-.4-10s2.91-9.11,4.42-14.46c1-3.43.39-6.32,2.2-9.3a26,26,0,0,0,3.31-7.37c.47-1.64-4.79,7.23-4.79,7.23h0Z" fill="#f2e8b0" fill-rule="evenodd"/><path d="M173.09,217.77a7.71,7.71,0,0,0-2.91,1.62,43.11,43.11,0,0,0-2.61,3.48c-1.26,1.67-1.34,3-2.37,5.12s-3.31,5.12-3.59,6.22-.75,6.27-1.34,8.71a11.68,11.68,0,0,0,.59,5.45l1.33-.29a4.23,4.23,0,0,0,1.34,2.92c1.34,1.15,1.58-3.9,1.58-3.9l5-16.88,7.53-5.12.82-4.13-5.37-3.2Z" fill="#f5eec0" fill-rule="evenodd"/><path d="M176.75,225.43s-3.54.23-5.28,1.5c-.7.52-1,.94-1.74,1.57-1.38,1.15-2.79,2.21-3.47,3.72a24.84,24.84,0,0,0-2.14,8.07c-.23,1.81-.23,3.48-.4,4.94a21.27,21.27,0,0,0-.4,4.64c.24,2.25,2.56,3.43,2.79,6l4.81-2.45,4.53-17.86,9.63-6-5.45-6.1-2.88,2h0Z" fill="#e6db9d" fill-rule="evenodd"/><path d="M151.36,345.75l.06-.53c.7-6,.82-10.62,1.34-13.48.75-4.06,1.26-5.57,1.15-7.09a31.93,31.93,0,0,1-.12-6.11c.35-2.49,2.79-5.44,2.72-7.49a6.26,6.26,0,0,0-1.57-3.66c-.7-1-1.27-1.81-1.27-1.81s4.82-3.31,4.77-16.64a1,1,0,0,1,.28.12l2.37,6.73,1.62,2,6.23,11.6,8,7.78,11.83,7.95,7.42,8.08.75,21.53-9.69,12.58-1.59,2.88a138.16,138.16,0,0,1-34.3-24.41Z" fill="#e5cb7a" fill-rule="evenodd"/><path d="M181,366.35a6.62,6.62,0,0,1,2.37-4.42,2.66,2.66,0,0,1,.52,1.57,14,14,0,0,1,9.51-6.38c6.31-1.15,7.84-5.75,7.84-5.75l13.4-12.19L230,325.07l18.64-6.55,8.71-2.14a5,5,0,0,1-.16,2.05,42.55,42.55,0,0,0,8.94-2.26c1.5-.58,2.91-.82,3.66,0,1.11,1,1.27,3.47,1.34,4.93,1.81-.4,3.9-2.14,5.57-2,2.68.29,5,3.43,7.77,3.43,3.6,0,5.22-2.21,7.73-3.94,1.5-1,3.66-2.32,4.88-3.2,2.91-2.13,33.72-11.55,33.72-11.55l10.8.71,1.74,11.59-.93,30.32-.35.34-49.1,25.65-68.07,10.43a136.45,136.45,0,0,1-43.52-15l-.35-1.55h0Z" fill="#d8c173" fill-rule="evenodd"/><path d="M155.49,349.61c1-2,1.83-3.72,2-4.32.12,1.22.34,3.89.79,6.74-.94-.8-1.87-1.61-2.78-2.43Z" fill="#f1d789" fill-rule="evenodd"/><path d="M205.21,378.14l8.8-2.45.75.24s.4.23.4,1c1.11-.63,2.05-.52,2.73-.94.35.75.7,3.24,2.25,3.55s3.36-.71,5.12-2.05a34.14,34.14,0,0,1,5.21-3.82,27.65,27.65,0,0,1,1.46,3.12c2-1.57,5.4-8,10.28-7.84a18.53,18.53,0,0,1,6.78-8.2c4.53-3.07,7.37-3.31,10.92-3a18.48,18.48,0,0,1,5.12-4.57,4.72,4.72,0,0,0,4.22.28c2.05-.94,4.35-4.58,7.38-5a7.08,7.08,0,0,1,4.69,1s8.82-8.76,14.91-11.67c-.23-.71-.7-3.36,6.43-9.23.4.35.12,1.34.4,1.39a16.43,16.43,0,0,0,4.06-2.44c2.73-2,6-4.18,8-4.77,3.72-1.1,7.66,1.15,7.66,1.15a3.45,3.45,0,0,1,1.1-.51,14.34,14.34,0,0,0,2.14-.47c-.05,1.22.63,3.31,0,5.12a11.91,11.91,0,0,0,2.32,1c-.4.86-1.27,3.07-2.72,4.13,1.22.59,1.38,1.27,3.12,1.86a32.2,32.2,0,0,0-2.37,3.71c-.52,1.1-2.38,5.68-3.2,7.42s-2,4.93-2.6,5.57a44.92,44.92,0,0,1-4.18,4.69c1.39-.51,7.09-2.25,9.51-2.91L318,365.11A137.77,137.77,0,0,1,205.2,378.16Z" fill="#e0cd81" fill-rule="evenodd"/><path d="M177.33,224.79a8.26,8.26,0,0,0-2.44.29c-.4.28,2.05.87,2.8,1.15a6.39,6.39,0,0,1,2.79,2.6c.4,1,14.67,6.74,14.67,6.74l10.1-.52,3.48-4.8-6.62-5.8,4.64-13.69-6.15,1-14.79,8.83-7.42,2.84-1.06,1.38Z" fill="#dfc57c" fill-rule="evenodd"/><path d="M199.5,229.33a1.61,1.61,0,0,0,1.4.75c2.09,0,4,.51,4.81,1.57,1.34,1.69,5,7.09,5,7.09l8.87,3.19.57-10.45-9.69-6.73-11,4.06v.51h0Z" fill="#e5cc7c" fill-rule="evenodd"/><path d="M197.76,233.2a9.62,9.62,0,0,0,3.66-.63c2.05-.76,5.4-2.38,6.86-1.74,2,.87,1.62,3.59,3.83,6,1.34,1.51,3.78,1.46,5.16,3.08s6.15.87,6.15.87l1.81,9.75-7.25,9.3-2.38,11.55h-9.8l-9-3.56-4.41-10.67,2.21-10.8,3.13-13.18Z" fill="#d2c281" fill-rule="evenodd"/><path d="M216.74,233.67a3.09,3.09,0,0,0,.75.12,2,2,0,0,0-.64,2.09c.24,1.33,1,3,.36,4.06a5.12,5.12,0,0,1,1.1,1.92c.4,1.15.52,2.21,3.12,2.37a5.85,5.85,0,0,0-1,.83,17,17,0,0,1,2.72,3,22.51,22.51,0,0,0,3.43-.81l.52.35,1.1-.46s-1-.4-.28-2.91c.7-2.21,1.34-2.09,1.39-2.26a22.21,22.21,0,0,0,.52-3.42,41.27,41.27,0,0,0,.63-4.93l-.75-8.2-4.22-2.56L222,219.57l-3.24,6.1-2.13,2.13-.17,5.28.26.59Z" fill="#e2c270" fill-rule="evenodd"/><path d="M226.9,226.81a29.68,29.68,0,0,1,1,3.78,3.65,3.65,0,0,0,.16-1s.59,3.24.7,4.58c.24-.05.47-.12.52.11a19.86,19.86,0,0,1,.47,4.3,11.6,11.6,0,0,1,3.94-3.94,6.79,6.79,0,0,1,3.19-1.27c1.81,0,3.12,1.15,5.29,1.15,5.21,0,9.93-3.83,13.4-5,2.56-.87,4.77-1.51,6.32-2.92a16.5,16.5,0,0,0,3.31-4.13c1.62-2.78,3.31-5.21,5-5.51a10.62,10.62,0,0,1-2.32.16,16.63,16.63,0,0,1,1.39-1.22,5.46,5.46,0,0,1,3.43-1.57c2.67,0,4,.39,5.51.39a7.48,7.48,0,0,0,2.38-.39s1.57,1.1,5.11,1.1,5.92.35,7.78.52,8.07-.52,9.86-.47a8.92,8.92,0,0,1,3.36.82L301,199.61l-20.66-18.06L268,190.26l-18.93,18.92L230.78,216,227,220.26v6.55Z" fill="#ccb360" fill-rule="evenodd"/><path d="M268,217.23s.52-.51,1.39-1.22a5.38,5.38,0,0,1,3.42-1.57c2.68,0,4,.4,5.52.4a7.6,7.6,0,0,0,2.37-.4s1.58,1.1,5.12,1.1,5.92.35,7.77.52,8.08-.52,9.86-.47a8.83,8.83,0,0,1,3.36.82l-2.61-7.53-3-5.75-8.64-9.47-10.45-6.15c-.05,0-3.59-1-3.59-1l-9.4,5.68-8.52,22-.16,4.64,5.51,2.61c1.39-2.33,2.92-4.18,4.35-4.42-1.29.14-2.28.14-2.28.14Z" fill="#d5b457" fill-rule="evenodd"/><path d="M267.87,218.81c-.82,0-1.5-.12-1.69-.71-.7-2-1.26-2.25-1.85-2.25s-1.39,1.27-1.86,1.38-1-1.45-1-1.45l-.52-.24a31.66,31.66,0,0,0-5.16,4.3c-2.14,2.32-5.64,6.27-7.21,7s-7,.94-8.82,1.34a11.51,11.51,0,0,0-4.18,2c-.28.31.82.64,1,.94s-1.8.17-2,.47a8,8,0,0,0,.75,2.25,3.83,3.83,0,0,1,1.62-.4c1.81,0,3.13,1.15,5.28,1.15,5.22,0,9.94-3.83,13.41-5,2.56-.87,4.77-1.5,6.32-2.91a16.5,16.5,0,0,0,3.31-4.13,29,29,0,0,1,2.63-3.76h0Z" fill="#d2b257" fill-rule="evenodd"/><path d="M193.12,335s-.46-1.73-4.77-6.22c-1.22-1.27-2-2.32-2.79-3.07a36.48,36.48,0,0,0-4.7-3.55c-3.19-2.37-6.66-2.37-9.34-5.28s-5.79-8.48-8-14.16-2.73-7.49-2.73-7.65.59-1.27,1.34-1.11.75,1.62.94,2a11.77,11.77,0,0,0,1.27,1.62,15.39,15.39,0,0,1,3.47,5.05,22.59,22.59,0,0,0-.82-4.06s4.14,2.61,7.66,5.33,5,3.66,6,5.4,3.48,6.32,4.65,7.65,17.18,6.39,17.18,6.39l7.61,5.68,3.78,8.29-3,4.64-5.68,1.22L196.07,339l-2.95-4Z" fill="#d2b159" fill-rule="evenodd"/><path d="M172.62,306.45a21.56,21.56,0,0,0,6.62,6c4.23,2.56,10.92,4.88,16.88,6.27a47.59,47.59,0,0,0,9.93,1.5c8.29.12,14-2.25,21.07-3a101.7,101.7,0,0,0,13.4-1.85,69.21,69.21,0,0,0,15-5.58c3.66-1.69,7-2.95,9.74-4.57,3.83-2.26,6.62-4.77,9.86-5.52a8.37,8.37,0,0,1-4,5.12c1.69,0,4-.17,4-.17S272.9,306,268.93,309c-2.44,1.85-5.68,5-9,7.09-2.14,1.34-4.46,2.32-6,3.12a27,27,0,0,0-7.65,5.57,3.84,3.84,0,0,1,.94,0,18.42,18.42,0,0,0-5.29,1.57,7.14,7.14,0,0,0-2.67.24c-1.11.35-2.56,1.15-4.06,1.57-2.14.64-2.84.36-2.84.36l.35.7s-2.79-.05-3.72.05c.17,0,.12.11.12.11a1.5,1.5,0,0,0-.46.17,4.86,4.86,0,0,1-1.46.63c-.28.05-.52.05-.87.12.12.28,1,1.86,1.46,2.78-.35.24-5.64,4.23-5.64,4.23a3.66,3.66,0,0,1,.4.82c.17.52.24,1.27.4,1.62.4.71.63.82.63.82s-.63.12-1.73.4a28.68,28.68,0,0,1-3.72.87,12.63,12.63,0,0,1-1.5.12,4.09,4.09,0,0,1-.64,4.76c-1.9,2.28-2.48,2.61-3.07,4.07a6.16,6.16,0,0,0-.94-.59,3.94,3.94,0,0,1-1.81-1.27,15.75,15.75,0,0,1-.7,2.21,26.71,26.71,0,0,0-1.62,4.29c-.64-.7-1.81-2.08-3.43-1.8s-2.91,2.49-3.19,3.12c0-.4-.28-.7-.35-.24A17.86,17.86,0,0,1,195,366.76c-.05-1.11-.05-3.55-.16-4.34-.47.46-1,1.15-4.42,2.6s-2.78,2.91-2.78,2.91a7.21,7.21,0,0,1,1.5-4.76c1.81-2.45,2.91-3.6,2.91-3.78a1,1,0,0,0-.24-.52c-.23-.24-.7-.52-.7-.7.28-.12,3.08-1.46,2.91-4.23a7.51,7.51,0,0,0-2-4.7c-.12-.11,1.1-1,.94-1.26s-1.62-1.27-1.81-1.86a5.14,5.14,0,0,1,.24-1,2.93,2.93,0,0,0,.23-1.22,9.88,9.88,0,0,0-.94-2.38,11.87,11.87,0,0,0,1.34,0,11.36,11.36,0,0,1-1.1-2.2,28.35,28.35,0,0,0-.71-2.91c.4,0,1.39.11,1.39,0,0-.36-.87-.94-.47-1.4a2.45,2.45,0,0,1,1.34.94,5.36,5.36,0,0,0-1.74-2.79,4.29,4.29,0,0,1,3.43.23,4.58,4.58,0,0,1,1.86,2s.82.64,2.09,1.58a22.76,22.76,0,0,0,6.27,3.94,6.35,6.35,0,0,0,3.42.12,5,5,0,0,0,1.46-.59,3,3,0,0,1,.52-.23,12.5,12.5,0,0,0-.87-1.46c.4,0,.87.05.87.05s.28-.63-1-1.86c.28-.28.63-.46.63-.94a2.7,2.7,0,0,1-1.26-.87c.23-.16.58-.7,1-.86-.35-.29-1.22-1.46-1.62-1.58a7.92,7.92,0,0,0,1.11-.51,13.6,13.6,0,0,1-2.61-.94,14.9,14.9,0,0,0-2.14-1.51c-.58-.23-1.62-.35-2-.82a6.26,6.26,0,0,0,1.5,0c.36,0,.52,0,.64,0,0-.16,0-.52.87-.63a4.22,4.22,0,0,0,1.26-.4,3.24,3.24,0,0,1-1.85-1,7.33,7.33,0,0,0-2.37-1.81c-.59-.11-1.69.4-2.38.35a2.11,2.11,0,0,1-1.33-.58s-3.13.28-10.05-3.95a35.43,35.43,0,0,1-8.6-6.9,9.43,9.43,0,0,1-1.61-.75c-2.26-1.17-5.38-3.62-5.29-6.81h0Z" fill="#c2a44d" fill-rule="evenodd"/><path d="M259,165.53a3.16,3.16,0,0,1,1.39.94c1.1,1.27,1.81,3.66-.7,6.22a4,4,0,0,0,2.25.36c-.87,1-2.84,3.24-3,5.16a2,2,0,0,0,.87,2,7.79,7.79,0,0,0-1.57,4.64,18.65,18.65,0,0,1,2.32-2.21,61.76,61.76,0,0,1,5.75-3.94,3.4,3.4,0,0,0,.17,1.22s3-2.49,5.57-1.39c1.15.52.63,2.14.63,2.14a2.68,2.68,0,0,1,2.68.52c1.1,1.1,2.66,3.95,3.46,5a37.45,37.45,0,0,1,2.21,3,38.11,38.11,0,0,1,3.19,6.74c.05-1.23.35-3.13,3.83-1.93A21.29,21.29,0,0,1,298.82,203c3.31,5,4.13,10.73,5.8,12.9s3.43,5.57,3.54,7-.51,6.15,3,18.85c1-3.94,2.49-12.7,2.49-12.7l.82-7.72.94-23.9-25-20.74L270.9,162.5l-12.7,1.22.8,1.81Z" fill="#caa13e" fill-rule="evenodd"/><path d="M305.37,201.1s-.35-2.32-6.22-6.27-10.45-3.89-14.68-7.2c-3.24-2.61-6.62-8.6-8.82-10.57s-2.49-7.58-2.49-7.58l7.21-6L291.09,148l9.06-10,4.34,6,6,7.1,3.36,14.22,1.22,20.83-9.75,14.95Z" fill="#b59544" fill-rule="evenodd"/><path d="M312.62,226.07a26.42,26.42,0,0,0-1.15-9.35,170.65,170.65,0,0,0-6.5-16.56c-.63-3.54-.16-3.83.52-4.22s3.24-1.86,4.64-7,5.76-5.28,5.76-5.28l2.67-2,4.06,10.16,3.55,9.19,1.1,7,.82,6-1.92,12.66-9.51,8.59-4-9.24Z" fill="#c89d3a" fill-rule="evenodd"/><path d="M180,367.12v-.26a2,2,0,0,0,.51-.46,3.59,3.59,0,0,1,.4-.59,4.44,4.44,0,0,1,1.93-.35,14.46,14.46,0,0,0,3,.7c1.69,0,3.66-1.34,6.78-.75,4.7.87,5.8,4.06,8.52,5.87a5.43,5.43,0,0,0,4.07.71h.63c.12,0,1-1,1.46-.94.93,0,1,.82,1.61.87,1.39.16,4.07-.71,5.41-.35a2.58,2.58,0,0,1,1.05,4.29c-1.45,1.34-2.84,2.61-3.12,3.71.36.28.7.57,1,.88A136.84,136.84,0,0,1,180,367.14Z" fill="#ceb052" fill-rule="evenodd"/><path d="M305,320.21a81.15,81.15,0,0,0,4.93-7.3c1.27-2.49-4-34.07-4-34.07l10.61-34.77-.28-11.31s.51-10.45,1.73-15c1.46,2.6,6,5.75,7,7.41.46-3.19,2-9.93,1.81-17.11.86,1.34,2.95,14.79,2.95,14.79l2.09,9.06,2.73,9.63,3,10.17,1.8,7,1,1.69.87,2.95.82,3.2,2.37,7.49,1.39,6.15,1.1,11.15a16.75,16.75,0,0,1,.52,2.61,10.64,10.64,0,0,1-.16,2.13,25.34,25.34,0,0,1,.23,4.54c-.23,1.85-.23,3.31-1.69,4.64s-2.37,9.3-2.37,9.3l-2.61-1.74a7.06,7.06,0,0,0-.7-4.53,4.56,4.56,0,0,0-4.93-2.25c-1.34.28-4,.7-4.88,1.45s-2.84,3.08-4.7,4.13c-2.32,1.4-6.1,1.51-8.12,2a21.67,21.67,0,0,0-6.67,3.48A37.35,37.35,0,0,1,305,320.2h0Z" fill="#cca847" fill-rule="evenodd"/><path d="M305,371.51s.15.1.45.27a138.11,138.11,0,0,0,44-32.58c-.14-4.75-.31-9.62-.5-11.43-.4-3.83-.12-7.72-.24-10s-1.38-11.43-2-13.8-1.86-3.55-2-3.55a27.89,27.89,0,0,0-1.15,5.57c0,1.11-.24,3.78-.24,4.47-.16-.05-.23-.47-.23-.64-.24.59-.52,1.62-.64,1.74s.17-1,0-1.22-.46-.12-.4-.71a7.37,7.37,0,0,1,.17-1,10.57,10.57,0,0,0-1.22,3.66c-.52,2.61-.52,2.68-.71,2.91s-1.1,1.23-1.15,1.58c0,.63.87,1.27.94,1.62.05.59-.82,3.31-1.1,4.64s-.17,3.94-.47,5.28-.46,1.93-1.26,2.44c.58.12,1.15.29,1.15.29a8.67,8.67,0,0,1-1.27,6.43c-.75,1-.94,1.5-1.74,2.44-1.57,1.74-2.79,3.72-2.91,5a7.4,7.4,0,0,1-.16-1.15,56.53,56.53,0,0,0-3.48,4.46c-1.34,2.09-3.19,2-3.71,2.49a2.49,2.49,0,0,0-.47,2.21c-.46.11-1.33.28-1.92,2.09a4.43,4.43,0,0,1-2.09,2.49,11,11,0,0,1-3.13,1,4.26,4.26,0,0,1,1.11.35c-.35.59-2,1.51-3.78,2.68a7.82,7.82,0,0,0-3.12,3.78,2.71,2.71,0,0,1-2.26,1.74c.47.28,1.15.94,1.5,1.15a5.24,5.24,0,0,0-2.95,1.46c-1.65,1.36-2.21,1.76-3,1.87h0Z" fill="#c39d3c" fill-rule="evenodd"/><path d="M272.3,382.39a13.18,13.18,0,0,1,2.9-1.53c3.66-1.46,7.54-1.74,9.06-2.21a35.23,35.23,0,0,1,4.42-1.46c-.05.42-.09.8-.14,1.17a137.23,137.23,0,0,1-16.25,4Z" fill="#d2ba6b" fill-rule="evenodd"/><path d="M339.84,286.07a28.82,28.82,0,0,1-2.09,6.63c-1.34,2.56-2.78,6.1-2.78,6.1a11.12,11.12,0,0,1,.28-2.37,67.23,67.23,0,0,0-7,4.41,23.53,23.53,0,0,0-3.42,3.55,71.85,71.85,0,0,0,2.44-7.49,150.4,150.4,0,0,0-13.69,12l-12.8,10.35a43.9,43.9,0,0,1-4.55,2.14c-2.21.93-4.81,1.73-6.74,2.48a10.85,10.85,0,0,1,2.49-3.78c1.22-1.15,4.88-5.12,5.45-7s.63-3.08,0-4.7c-.63.17-2.09.24-3.07.52a6,6,0,0,0-2,1.34,48,48,0,0,1,2.37-8.36c-1.22.05-3.31.4-3.31.4a29.67,29.67,0,0,1,7.9-8.29,26.47,26.47,0,0,0-4.46,1.38c-2.92,1.23-6.11,3-8.48,4,1.34-1.86,10.73-15.26,16.32-27.75s7.65-15.66,8.87-22.35c.64-3.31.47-8.21.64-12.59s.7-8.24.35-10.85c1.45,1.81,6.9,6.91,7.09,18.29s-5.21,26.77-10.92,35.06c1.39.4,5,.87,8.71-5.57s3.67-8.24,5-10.92a9.36,9.36,0,0,1,.12,1.81,49.2,49.2,0,0,0,8-14.8c.52,3.55,2,6.67-.35,13.18-2.14,5.87-4.93,7.3-4.93,7.3a11.21,11.21,0,0,0,3.42-1.46c.36.87.29,1.86.87,2.21s1.39.94,1.51,1.5a17,17,0,0,0,1.92-3c-.23,1.86-.4,10,.47,14.11,1.81-.16,3.66-.28,4.93-3.54a14.46,14.46,0,0,0-.28,7.84,9.41,9.41,0,0,0,1.83-1.83Z" fill="#c0993a" fill-rule="evenodd"/><path d="M278.84,156.66a13.86,13.86,0,0,1-4.88.75c-2.68,0-1.93-1-6.11-1-6.43,0-28.9,3.71-32.85,3.66-2.56,0,8.64,1.1,8.64,1.1l28.63.4,5.75-.46,2.13-4.35Z" fill="#a88f33" fill-rule="evenodd"/><path d="M204.62,212.61a32.59,32.59,0,0,0-5.21,4.93,36.43,36.43,0,0,1-4.13,5.28,3.63,3.63,0,0,0,1.22-.16s0,.46-.28.58a1.64,1.64,0,0,1,1.33.47,2.4,2.4,0,0,0-.82,3.36,3.59,3.59,0,0,0,2.56,1.38s-.4,1.15,1.27,1c3.59-.17,7.61-1.74,9.46-1.34s2.91.63,4.23,2.91,2.6,2.61,2.6,2.61a13.26,13.26,0,0,0,.64-5.22,15.42,15.42,0,0,0,1.1-5.28l-1.22-9L212,207.44l-6.9,3.83-.52,1.33Z" fill="#e3c571" fill-rule="evenodd"/><path d="M211.17,211.27s.52,1.22,2.68,1.34a1.15,1.15,0,0,0-.16,1c0,.4.11,1,.11,1a2.25,2.25,0,0,0,.64-.47c.11.52-.12,1.34,0,1.93a4.18,4.18,0,0,0,.35,1,1,1,0,0,1,.12-.23,8.88,8.88,0,0,0,1.62,2.32.83.83,0,0,1,.11-.46,1.75,1.75,0,0,0,.28.82.91.91,0,0,1-.23-.17,27.14,27.14,0,0,0,.75,5.64,2.63,2.63,0,0,0,.28-.4c0-.12,0,1-.16,1.86a7.86,7.86,0,0,0-.05,2,6.28,6.28,0,0,1,1.39-.82,5.07,5.07,0,0,0,2.56-3.08,20.38,20.38,0,0,0,.93-3.36,4.63,4.63,0,0,1,.47,1.4c0,.58,1.15.28,1.15.28l.24-2.56,1.39-5.8,1.27-3.59,6.1-9.51,11-8.5,9.63,2.21,8.12-11-14-8.41L234.55,177l-12,16.64-9.63,15.1-1.74,2.49Z" fill="#d8b65b" fill-rule="evenodd"/><path d="M280.53,187.18a15.84,15.84,0,0,0-3.19,1.39c-2.38,1.23-4,1.62-4.94,3.43a9,9,0,0,0-1,3.24,23.37,23.37,0,0,1,2.56-.94c1-.23,2.09-.16,2,.24a2.75,2.75,0,0,1-.46.75s1.85,0,1.8.87a4.89,4.89,0,0,1-.7,2.37c-.35.46-1.81,1.15-2,1.69-.4,1.1.16,1.15-.05,2s-.94,2.56-3.47,5.52a29.64,29.64,0,0,0-3.72,5.05,31.25,31.25,0,0,1-1.92-4.42c-.47.24-3,1.62-3,1.62l-5.78-20.12.12-1.34a3.5,3.5,0,0,0,.63-1.8c-.86-.28-1-.52-2.13-1.62s-2.09-2.44-4-3.36a2.53,2.53,0,0,0-2-1.5c-1.41-.29-2.25-.52-2.25-.52a2.41,2.41,0,0,0,1.1-.87,14.24,14.24,0,0,1-3.47.35,15.37,15.37,0,0,0-3.2.05c-1.05.16-2.32.64-2.79-1-.52-.39-1.62,0-2.56,1.34s-1.27,2.49-3.08,3a6,6,0,0,1-.82,2.25,26.35,26.35,0,0,1-2.44,3c-1.74,2-1.46,5.4-4.23,8s.47-7.09.47-7.09l4.46-10.68,12.7-12.42,19.72-1.34,1.93,10.22,9.62,3.31,6.09,9.27h0Z" fill="#d3ae4d" fill-rule="evenodd"/><path d="M283.65,189.43l-8.29-11.94-5.8-4.47s-4.13-7.6-4.41-7.84a56.7,56.7,0,0,0-6.62-.75l.46,1.15a3.06,3.06,0,0,1,1.4.94c1.1,1.27,1.8,3.66-.71,6.22a4,4,0,0,0,2.26.35c-.87,1-2.84,3.25-3,5.17a2,2,0,0,0,.87,2,7.81,7.81,0,0,0-1.58,4.65,18,18,0,0,1,2.33-2.21,60.64,60.64,0,0,1,5.75-4,3.34,3.34,0,0,0,.16,1.22s3-2.48,5.57-1.38c1.15.52.64,2.14.64,2.14a2.67,2.67,0,0,1,2.67.51c1.11,1.11,2.68,3.95,3.48,5.05a35.67,35.67,0,0,1,2.2,3,37.46,37.46,0,0,1,3.2,6.74c.05-.94.23-2.26,1.86-2.26l-2.47-4.41Z" fill="#caa13e" fill-rule="evenodd"/><path d="M159.4,223.39a8.2,8.2,0,0,1,0-4.3c.59-2.84,1.51-4.18,1.81-8.36s3-9.39,3-9.39l7.54-3.43,5.33,1.46,1.57,7.14-6.74,3.71a5.18,5.18,0,0,1-2.25,2.84c-1.91,1.27-4.54,2.25-5.17,3.55a10.25,10.25,0,0,0-.82,2.49,3.55,3.55,0,0,0-3.08.86,4.54,4.54,0,0,0-1.22,3.43Z" fill="#f4efc8" fill-rule="evenodd"/><path d="M174.62,221.48a3.42,3.42,0,0,0-1.11,1.4,28.55,28.55,0,0,1-1.62-9.23c0-4-.28-5,.65-6.39s4.57-2.85,4.05-5.34-2.68-3.36-5.33-2.67c-1.86.46-3.24,4.41-5.17,6.38-1.45,1.5-3.19,1.27-3.66,2.09-.63,1.1-.05,2.21-.23,2.91a14,14,0,0,1-1.7,3c-2.13,3.08-5.75,7.42-6.22,11.32a19.51,19.51,0,0,1,.64-4.7l-.36-.58,2.33-7.61,1.5-6.27,3.36-10.5,5.91-10.72,5.76-6.44,6,.4.71,9,3.42,16.89,7.21,8.87-11.55,7.77-4.58.4h0Z" fill="#ebcc73" fill-rule="evenodd"/><path d="M178.21,224.67a2.89,2.89,0,0,1-1.34.05c-.35-.19-.7-.4-.59-.63s.75-.64.75-.83a.71.71,0,0,0-1.29-.42,2.51,2.51,0,0,0-.93-.46,6.16,6.16,0,0,1,.75,0,7.65,7.65,0,0,0-2.05-.59c.59-.35,1.74-1.38,2.49-1.38s1.22-.12,1.11-.52a2.43,2.43,0,0,0-1.34-1.22c.23-.28.4-.7-.17-1.86a2.23,2.23,0,0,1-.16-2.2,15,15,0,0,1,1-1.39,3.73,3.73,0,0,1,1-1.22,12.65,12.65,0,0,1,1.74-.75c.82-.28,1.5-.63,2-.28a.64.64,0,0,1,.28.82,4.22,4.22,0,0,1,3.08.17,23.35,23.35,0,0,0,5,1.15l1.27,2.56-8.41,7.2-3.47,1.74-.71.12h0Z" fill="#e5c66b" fill-rule="evenodd"/><path d="M189.88,212.89a33.23,33.23,0,0,0-3.2,2.37c.36.05.94.28.71.64a38.08,38.08,0,0,0-2.91,2.72,18.08,18.08,0,0,0-2.26,3.31,11.91,11.91,0,0,1-3.94,2.72c1.92,0,5.8-2.37,7.25-2.37a1.43,1.43,0,0,0,1.22,1.57,9.12,9.12,0,0,0,6.39-1.45c3.19-1.93,2.14-3.36,3.47-4.3,2.56-1.69,3.6-3.19,5-4.13a8.85,8.85,0,0,1,2.13-1.15s.05-.7.47-.63a.61.61,0,0,1,.51.4,14.47,14.47,0,0,1,5.58-2.21.29.29,0,0,1-.17-.17s.24-.11.28-.23.17-.24.28-.12.29,1,.52,1.34c.52-.23,1.5-2.44,1.5-2.44L215.1,202v-6.2l-1.86.36L199.31,202l-8.45,8.76-1,2.09Z" fill="#e6bd62" fill-rule="evenodd"/><path d="M230,182.49a8.3,8.3,0,0,0,2.14-.87,9.62,9.62,0,0,1-1.5,3.35,28.45,28.45,0,0,0-2.25,3.9c-1,1.93-1.11,4.7-2.05,5.92a4.23,4.23,0,0,1,1.34-.4,6.17,6.17,0,0,0-1.34,1.69,8,8,0,0,1-2.84,3.78c-1.73,1.11-3.94,1.81-6.31,4.41s-4.82,5.8-6,7a17.29,17.29,0,0,0,1.74-4.77c.23-1.45-.05-3.19.35-5.11a16.69,16.69,0,0,1,2.32-6.67c1.92-3.36,5.21-15,5.21-15l7.09-2.25,2.14,5.07h0Z" fill="#b6933f" fill-rule="evenodd"/><path d="M224.86,178.19a19.54,19.54,0,0,0-2.72,5.8c-.59,2.72,0,2.49-.4,3.83a5,5,0,0,0,0,2.48,8.83,8.83,0,0,1,2.95-2.91,24.45,24.45,0,0,0,4.65-3.12c1-1.1,1.8-2.91,3.94-4.3-.87-.11-2.09-.51-2.32-.46.87-1,3.47-2.49,6.1-4.3s2.44-2.6,6.67-4.46c-1.38.24-2-.12-3.19,0,.46-1,2.09-1.45,3.71-3.07s-1-4-1-4l-12.38,7.49-6,7Z" fill="#c49937" fill-rule="evenodd"/><polygon points="191.26 172.6 191.54 170.35 195.09 164.66 198.8 154.69 198.8 141.05 198.52 133.16 199.1 127.99 199.55 126.35 200.02 125.71 203.05 127.29 207.23 132.97 207.63 143.93 203.56 161.24 191.97 173.89 191.26 172.6" fill="#dfc068" fill-rule="evenodd"/><path d="M200.49,125.08s-1.86,0-2.25,7.77-.59,11.79-.87,15.62a83.15,83.15,0,0,1-1.27,8.4c-.33,2.26-.52,5.33-1.57,7.21a16.68,16.68,0,0,1-3.78,5.63,23.3,23.3,0,0,1-7.09,3.95c-1,.23-6.27.75-8.41,1.92a12.77,12.77,0,0,0-3.47,2.21,44.14,44.14,0,0,0-9.35,12.66c-4.18,8.24-8.36,31.5-8.36,31.5l.94-1.57s.12-2.09,2.21-5.75,1.46-7.77,4.3-14.79a79.65,79.65,0,0,1,4.17-9.11c2.68-4.82,5.92-8.95,9.19-11.2a29,29,0,0,1,11.19-4.46l6.32-4.18s1.1-2.14,2.56-4.58c2-3.43,4.64-7.25,5.21-12.82.87-8.24-1.22-13.64-1.1-18.52s.16-8.48,1.15-9.35.28-.54.28-.54Z" fill="#a88f33" fill-rule="evenodd"/><path d="M200.49,161.94A88.67,88.67,0,0,0,204.55,149c.24-1.22.71-2.44.82-3.42.59-5.76.75-8.13,0-11.27-.58-2.32-2.84-4.42-4-6s-1.69-2.32-1.46-2.68a2.62,2.62,0,0,1,2-.86,7,7,0,0,1,5,2.32c1.8,2.09,3.24,9.18,3.24,9.18l1.5,9.36,3.83,11.78-15,4.58h0Z" fill="#c99e3d" fill-rule="evenodd"/><path d="M226.67,154.8a2.34,2.34,0,0,1-1.46,0,2.1,2.1,0,0,1-.94,2c-1-.4-10.21.4-10.21.4s-4.3-.76-5.64-6.44c-.93-3.78.71-9,.17-12.42-.82-5-2-6-2.09-7.61s-.24-2-.24-3a5.26,5.26,0,0,0-1.33-.28c-.12-.47.11-.87-.4-1.7a9.47,9.47,0,0,1,4.46,2.49,8.35,8.35,0,0,1,2.13,2.73,21.45,21.45,0,0,1,4.42,5.21c1.22,2.43,3.59,10.16,4.13,11.43a8.33,8.33,0,0,0,1.39,2.21c1.37,1.69,3.36,4.49,5.61,5Z" fill="#b58634" fill-rule="evenodd"/><path d="M211.46,131.11a65.25,65.25,0,0,1,3.82,7.14c1.39,3.12,2.21,5.68,3.95,7.77-.94-2.72-2.61-8.07-3.6-10a22.63,22.63,0,0,0-4.17-4.93h0Z" fill="#a88f33" fill-rule="evenodd"/><path d="M195.49,169.71a34.51,34.51,0,0,0-6.79,2.92c-1.45.75-2.84,1.38-4.17,2a73,73,0,0,1-10.17,3.82,3.84,3.84,0,0,0,.35.4,3,3,0,0,0,.63,1.81c-.35.35-5,3.55-3.66,14.23.94-.35,2-.82,2.21-.82s.35.82.7.82,1.5-.47,2.73-2c0,.63-.75,7,3,11.31.71-.82,2.49-3.54,2.49-3.54l0-.87a23.39,23.39,0,0,1,1.15-5.8,15.45,15.45,0,0,1,2.91-4.81L197,174.76l-1.5-5Z" fill="#e6c367" fill-rule="evenodd"/><path d="M186.1,190.78a5.61,5.61,0,0,1-1.51.75,5.86,5.86,0,0,1,1-4.58c1.62-2.37,5.17-5.45,6.15-7.89.64-1.58.35-5.52,6-10.57s7.84-6.78,7.84-6.78l9.11-4.58,11.2,4.41-5.56,21.81L216,193.56l-17.18-3.24-12.71.46Z" fill="#dcba5a" fill-rule="evenodd"/><path d="M192.66,184.86l2.13-2.68v-1.9a12.23,12.23,0,0,0,4.93-3.24c2.56-2.61,6.11-7.61,9.23-7.3s3.43,6.78,3.55,8.59a47.7,47.7,0,0,0,1.15,8.12C214.35,188.66,206,197,206,197l-5.65,4.3-7.73-16.46Z" fill="#e9ce77" fill-rule="evenodd"/><path d="M199.27,207.14s1.74-2.73.46-3.31a20.08,20.08,0,0,1,2.14-3.48,17.37,17.37,0,0,1,4.18-5.44c3.19-3,5.16-5,5.68-7a18.85,18.85,0,0,0,.52-4,7.61,7.61,0,0,0,1.1.75c.52.24,3,2.26,2.61,6.32s-1.86,5.75-1.86,5.75a26.22,26.22,0,0,1-2.49,2.21c-1.1.75-1.5,1.62-3.36,1.69a2.7,2.7,0,0,1,.64-.36,4.32,4.32,0,0,0-3,.71c-1,.94-3.23,3.83-4.33,4.7-1.11.7-2.33,1.5-2.33,1.5Z" fill="#cdae50" fill-rule="evenodd"/><path d="M277.34,161.47a28.38,28.38,0,0,0-8.64-1.69c-4.93-.16-12.14.12-19.21.16-7.61.05-14.51-2.6-24.09-3.07-1.57-.94-5.57-5.05-18.05,3.66.75,0,9.06-1.92,12,1.69s2.09,9.7,1.69,11.15c-.75,3.25-3.2,8-4.18,11.27s-.75,5.05-1.46,7.38-2.25,3.47-1.34,6.15c1.23-.75,1.86-.75,3.9-5.33s1.62-7.84,5-11.72,8.83-9.23,10.92-10.56,18.74-10,36.16-1.74c4.2-.45,7.35-7.35,7.35-7.35Z" fill="#d2a83e" fill-rule="evenodd"/><path d="M214.37,158.28a2.31,2.31,0,0,0-.12-.52,3.72,3.72,0,0,0-.64-.94,30.3,30.3,0,0,0-6.22-.52c-3.66.4-7,4.93-8.52,7.26s-3.48,5.91-5.56,7.77a.8.8,0,0,0-.12-.52s.12.17-.12.4-.23.35-.12.47l.36.35c.11,0,3.35-1.46,7.77-5.57,4.69-4.3,8.29-6.5,10.17-7.26a13.49,13.49,0,0,1,3.12-.92Z" fill="#c29637" fill-rule="evenodd"/><path d="M294.52,140.62s-.75.94-1.69,2c-2.09,2.21-4.81,4.7-7.14,7.26s-4.69,4.34-7.49,7.54-6,6.73-6.85,7.77a7.64,7.64,0,0,0-1.34,3.59l-.87-.59a6.16,6.16,0,0,0,.71,1c.58.82,1.5,1.85,2,2.49a7.54,7.54,0,0,1,1.22,2.67c.28,0,2.09.4,4.34-3.31s5.21-7.77,5.21-7.77l4.7-7,3-5.92,3.71-6.62.57-3.15h0Z" fill="#ac8132" fill-rule="evenodd"/><path d="M299.34,135.88a34.89,34.89,0,0,0-3.95,3.72c-1.1,1.39-3.71,5-3.71,5l.94-.11,4.76-4.23,1.86-3.31.09-1.1Z" fill="#a88f33" fill-rule="evenodd"/><path d="M298.47,322.47a4.9,4.9,0,0,1,1-3.08,22.31,22.31,0,0,0,6.62-9.18c2.73-6.34,3-7.77,3-7.77s-4.88,4.18-7.89,5.16c.7-1.45,1.1-2.49,1.45-3.24-.4-.35-2.09-.75-2.25-.94.94-.94,1.45-3.24,3.36-4.76,2.44-1.86,6.9-5.05,10.36-7.9s10.29-9.46,11.16-11.38a4.4,4.4,0,0,1,.63,1.22s-3.43,4.46-5.21,7.3c-1.57,2.44-1.46,3.83-1.46,3.83l3.24-1.4s.94,3.48-3.31,8.76c1.86-.7,2.61-.28,3.67-.87a16.48,16.48,0,0,0-6.39,6.74c-2.21,4.13-5.21,9-10.28,12a86.52,86.52,0,0,0-7.78,5.54h0Z" fill="#a67a2e" fill-rule="evenodd"/><path d="M285.74,163.91a26.26,26.26,0,0,0-2.21,7.14c0,.75-.23,1.34-.23,2.21-.05,2.79.16,5.92-.47,7.37a3.84,3.84,0,0,0-.58-1.22c-.36,1-1,4.06-1.51,5.21a24.62,24.62,0,0,1-.7-6.43c0-3.08.12-3.66.12-4.3a18.67,18.67,0,0,1-1,3c-.35-.63-.75-1.45-1.22-2.14a12.62,12.62,0,0,1-.94,1.51c-.05-.28-.16-1-.23-2.09a29.49,29.49,0,0,1,0-3.13,14.21,14.21,0,0,1,3.19-5.4c2.49-2.72,5.05-7.95,5.8-9.57s3.95-8.36,3.95-8.36h2.44l-3.55,8.07s-2.13,4.42-3.24,6-3.43,6.27-4.46,8.08c.75-1,1.39-1.5,2.14-2.44a38.19,38.19,0,0,0,2.74-3.5h0Z" fill="#8c6228" fill-rule="evenodd"/><path d="M299.38,135.57a10.23,10.23,0,0,1-1.85,3.36c-1.46,1.74-4.58,4.06-6.11,5.92a16,16,0,0,0-2.91,12.58,21.14,21.14,0,0,1,3.66-6.62,50.15,50.15,0,0,0,6-8.64,14.44,14.44,0,0,0,1.38-4.58l.47-.58-.29-1.34-.4-.1Z" fill="#cba94c" fill-rule="evenodd"/><path d="M346.93,291.31a25.59,25.59,0,0,1-1.22-4.88c-.29-2.33.46-2.79-.4-5.45-.52-1.62-1.46-1.39-1.69-1.62a13.87,13.87,0,0,1-.36-4,14.63,14.63,0,0,0-.28-3.82c-.35-.29-.58-.52-1.1-2.26a25.91,25.91,0,0,0-1.15-3.12c-.28-.51-1.11-1-1.11-1.5,0-1,.94-1.57.94-1.86,0-.59-.75-.12-.94-.28s.59-2,.29-2.21c-.12-.11-.94.87-1.16.59s-.51-3.08-.93-4.93-.83-3.12-.87-3.66-3.24-9.63-4-11.84a55.49,55.49,0,0,1-1.57-5.68,29.43,29.43,0,0,0-.52-3.12c-.11.23,0,1.38-.23,1.34s-.75-4.06-.94-4.7a32.66,32.66,0,0,1-1.39-4.34c-.24-1.58-.75-5.68-1.11-8.48s-.51-3.94-.51-4.64a29.27,29.27,0,0,0-.29-5.12,47.75,47.75,0,0,0-2.2-8.64c-1.57-3.94-5.76-14-6.5-16.55,0-.64.82-.28.82-.28s2,5.12,3.54,9.06a59.85,59.85,0,0,0,3.2,7.77,29.15,29.15,0,0,1,3.47,10.57c1,6.34,1.34,12.18,1.93,16.08a40.93,40.93,0,0,0,1.1,5.8c.63,2.14,1.62,4.34,2.91,7.72A49.26,49.26,0,0,1,337,244.5c.52,2.6.52,4.58.83,5.87.28,1.1.7,3.31,1.69,6.5s2.44,7.3,3.42,9.86A54.39,54.39,0,0,1,346,278.4c.26,2.35,1.13,10.47.89,12.91h0Z" fill="#a88f33" fill-rule="evenodd"/><path d="M299.5,135.29l-.12.28a.5.5,0,0,1,.28.59,13.79,13.79,0,0,1-.11,1.93c-.12.82-.35,1.45-.4,2,0,1.1.16,2.37-1.39,5.52-.47.87-.75,1.62-1,2.13a6.4,6.4,0,0,1-1.22,2c.82-.47,3.78-2.33,5.28-2a11,11,0,0,0-3.59,3.24,7.81,7.81,0,0,0,2.78,0c2.61-.4,5.52-1.33,8.08-1.15,2.8.17,1.69-3.35,1.69-3.35l-3.22-7.09-6.11-4.3-1,.23Z" fill="#be9c44" fill-rule="evenodd"/><path d="M315.42,188.4s-2.73-2.72-3.83-12.07a218.61,218.61,0,0,1-.87-23.22l-2.2-5.4s-.47-3.59-1.62-4.92-3.43-3.6-4.47-4.7-2.2-2.61-2.91-2.84c.35-.59,1.93-3.9,8-3.95s7.9,3.31,8.53,4.54,3.47,6.5,4.53,16.56,1,10.8.86,14.27a79.85,79.85,0,0,1-1.85,11.15c-1,4-2.11,8.55-4.13,10.59Z" fill="#a17c34" fill-rule="evenodd"/><path d="M306.88,196.41a4.64,4.64,0,0,0,2.6-.59,7.37,7.37,0,0,0,6.44-2.72,5.52,5.52,0,0,1-.52,4.29,10,10,0,0,1,1.57-1c0,.87.87,3.54-2.6,10.05a4.07,4.07,0,0,1,3-1.11c.05,1.22.71,5.33-1,7.54a3.06,3.06,0,0,1-3,1,5.35,5.35,0,0,0,0-1c0-.64-.28-1.27-.11-1.69a8.65,8.65,0,0,1-2.45-1.69c-2-1.93-4.69-5.22-4.88-7.66a3,3,0,0,1,2.21-3.31,2.61,2.61,0,0,1-.52-.63,3.53,3.53,0,0,0-.7-1.55Z" fill="#8c6228" fill-rule="evenodd"/><path d="M288.77,166.87s-.12-.16-.75.59c.12-.75.23-1.46.28-2.14a7.45,7.45,0,0,1,1.15-1.73c-.35.7-.59,1.33-.59,1.33a9.37,9.37,0,0,1,2.14-2.6c.87-.71,2-1,2.44-1.69a4.85,4.85,0,0,0,.52-.94,14.58,14.58,0,0,0,2.91-3c.23-.28.59-.59.82-.87.4-.17,1.34-.59,2.44-1.15s2.45-1.5,3.24-1.86c1.58-.7,3.25-.63,4-1.74.59-.16,1.22-1.92,1.1-3.42a14.21,14.21,0,0,1,6.86,9.17c1.1,4.3-.87,10.92-1.69,14.12s-.94,5.56-2.09,7c-1.46,1.92-6.15,4.64-7.3,6-1,1.11-3.95,3.9-3.83,5.92.12,1.5,2,2.32,2.37,2.61s.4.63,1.15.46,1-.52,1.34-.52.35.12.51.12a1.49,1.49,0,0,0,.36,0s-.12,2.14-5.12,2.79c-.35.05-.7.16-1.15.23a2.82,2.82,0,0,0,1.57-1.15c-.7-.11-2.72-.23-3.24-.4a6.59,6.59,0,0,1,1.15-1.38c.4-.35-.05-.47-.4-.28a20.35,20.35,0,0,0-1.73,1.33,16.51,16.51,0,0,1-2.05,1.86,4.59,4.59,0,0,1,.87-4c-.28,0-.82.87-1.34.7a7.62,7.62,0,0,1,.17-2.56,11.58,11.58,0,0,1,1.81-2.91l7.37-13.17,1.57-10-16.88,3.28Z" fill="#92723a" fill-rule="evenodd"/><path d="M288.37,167.44s-.4.28.4.82a9.9,9.9,0,0,1-.75,1.15,5.65,5.65,0,0,0-1,1.15,6.32,6.32,0,0,0-.63,1.74,8.63,8.63,0,0,1-1.1,4.06,16,16,0,0,0-1,2,14.58,14.58,0,0,0-1.22,2.32,25.19,25.19,0,0,0-.4,3.08l.71-.87a6.63,6.63,0,0,1-1,1.69c.28-.24,1.11-.82,2.49-2a61.09,61.09,0,0,1,8.6-6.5,13.31,13.31,0,0,1-2.8.51c.59-.58,5.87-6.78,8.64-7.37a1.13,1.13,0,0,0,.24-.75l-2.38-.24-4.81,1-.7-3.72-3.22,2Z" fill="#b18e3e" fill-rule="evenodd"/><path d="M296,188.57a6.46,6.46,0,0,0-1.23,2.2,7.73,7.73,0,0,1-1.15-1.57c-.87-1.46-2.2-3.31-5.33-2.25a10.78,10.78,0,0,1,0-2.21A12.21,12.21,0,0,0,292,181.5a15.17,15.17,0,0,0,2.84-4.58c.46-.35,1.27-.94,2.32-1.62,1.5-1,3.31-2.44,3.59-4a9.69,9.69,0,0,1-4.46.87c.87-.4,2.21-.83,2-2.56.36-.24.64-.4.64-.4a2.33,2.33,0,0,0-.82-.12c-.05-.16-.12-.4-.52-.28s-.47.12-.52.28a2.56,2.56,0,0,0-1.1.28,17.31,17.31,0,0,1-1.93,1.39c.17-.29.4-.71.4-.71a8.18,8.18,0,0,0-2,.47,39.31,39.31,0,0,0-5,2.37c.16-.28.23-.47.35-.52s.4-.11.4-.16-.12-.47-.05-.63a21.69,21.69,0,0,1,1.86-3.2,6.27,6.27,0,0,0,1-2.68l3.59-1.8,10.09-2.32,6.55.39-.82,4.54-3.87,7.91-3.31,7.21L299.5,186,296,188.57Z" fill="#543e26" fill-rule="evenodd"/><path d="M312.39,169s-3.95,4.88-5.05,5.63c.71-1.5,5.05-10.45,6.62-12.94-.35-.28-.82-.28.28-4.64-.93,2.21-1.26,3.36-2,3.94a1.44,1.44,0,0,1-1.39.4,1,1,0,0,0,.12-.58s-3.32-.4-5.58-.4a33.41,33.41,0,0,0-9.22,2.2c-2,.83-3.08.83-3.78,1.34s-1.11,1.22-1.46,1.39-1.62.58-1.93,1-.75,1-.75,1.1-.11.29.24.17c.12,0,1-.52,2-1.11,1.34-.75,3-1.62,4.13-2.13a19.14,19.14,0,0,1,5.92-1.39,37.08,37.08,0,0,1,5.33-.94,45.6,45.6,0,0,1,5,.12c-.28.24-.52.52-.4,1.5a7.13,7.13,0,0,1-.46,1.27c-.71,1.93-2,5.12-2.79,6.74-1,2.2-2.2,4.06-2.79,5.21a37.36,37.36,0,0,1-3.12,5.8c-1.26,1.62-1.92,2.61-2.32,3s-3.24,2.44-3,3.19a15.58,15.58,0,0,0,6.15-4.06c2.37-2.67,2.84-4.3,4.7-5.75a15.79,15.79,0,0,0,4.18-5.92c.73-1.88.56-2.46,1.48-4.13h0Z" fill="#806031" fill-rule="evenodd"/><path d="M227.37,205.4a7.26,7.26,0,0,1-1.69,3.19c-1.15,1-3.19,1.93-3.42,3.67s2,2.6,2,2.6a9,9,0,0,0-1.27,3.67,23.35,23.35,0,0,0,.12,3.47,1.59,1.59,0,0,0-.47.46,3.87,3.87,0,0,0,1.27,2.45c1.15.93,2.14,1.5,2.72,1.26a6.07,6.07,0,0,1,.24.59s.87-2.21,1.45-4.13,1.11-1.69,1.34-4.35,2.79-7.2,2.79-7.2l1.74-3.9-2.84-2.2-4,.42Z" fill="#b6903c" fill-rule="evenodd"/><path d="M232.66,209.23a16.46,16.46,0,0,0-1.62,1.92,5.69,5.69,0,0,1-2.44,2.38c-1.11.4-1.81.39-1.74,1.5s1.1,1.57,1.69,2.13a2.77,2.77,0,0,1,.87,2.68,2.65,2.65,0,0,0,1.57-1.62c.59-1.27,4.69-9,4.69-9Z" fill="#685026" fill-rule="evenodd"/><path d="M248.84,191.41a2.33,2.33,0,0,0,0-1.62c-.36-.71-2.49-.94-3.55-1.74a4.2,4.2,0,0,0-3.54-1c.16-.4.82-1.27.28-1.46s-2.44.71-3,1.1-1.69.87-1.93,1.16-.63.82-.87.58-.35-.58-.75-.35a9.48,9.48,0,0,0-2.67,2.72,14,14,0,0,1-3.55,5.29c-2.39,2.32-3.43,3.82-2.72,4.69s1,.24,1.15,1a6.27,6.27,0,0,1-.12,2.2c-.28,1.23-.75,2.38-.12,2.61,1.62.52,3.2-.46,3.55-.16.7.63-.4,2.91,1.27,3.35a5.15,5.15,0,0,0,3.36-.4l6.15-3.31,5.91-3.12,3-6-1.62-5-.31-.51Z" fill="#d4b968" fill-rule="evenodd"/><path d="M243,205.71a2.47,2.47,0,0,1,.24-3c1.27-1.39,3.07-2,3.78-2.84a1.07,1.07,0,0,0-.52-.35,4.69,4.69,0,0,1,2-1.93,2,2,0,0,0-1.33-.63c-1.15,0-1.86.7-2.92.7s-1.15-.52-1.15-.52,1.74-.16,1.58-.94-.47-.82-.47-.82,3.36-1.39,3.95-2.13a4.41,4.41,0,0,0,.63-2c.4,0,2.72-1.22,3.66-.7s.28,1.93.28,1.93a23.11,23.11,0,0,0,4.3-4.24c1.26.12,1.85-.87,2.78-.87,1.15,0,3,1.58,3.31,4.93a21,21,0,0,1,.24,6.44,29.49,29.49,0,0,0,.46,8.07c.4,1.62,1.34,1.46,1.34,1.46a2.67,2.67,0,0,1-.82,1.27,3.88,3.88,0,0,0-.64,2.72,11.44,11.44,0,0,0,.36,1.27,6,6,0,0,0-.94,1.45,1.66,1.66,0,0,1-1.51,1,7,7,0,0,0-1,0,3.36,3.36,0,0,1-1.46,0c-.47-.16-.82-.35-.63-1.86s-5.8-5-5.8-5L243,205.7h0Z" fill="#cca849" fill-rule="evenodd"/><path d="M231.83,220.54s2.14,2.85,10.92,2.85a21.77,21.77,0,0,0,6.5-.64c.94-.23,4.46-1.62,8-5.8,3.19-3.78,2.49-5.33,2.49-5.33l-1.86-.28-6,.82L234,219.77l-2.16.77Z" fill="#585136" fill-rule="evenodd"/><path d="M238.38,221.25s-7.6,1.69-7.6-3.12,4.69-9.63,5.87-10.5a22.07,22.07,0,0,1,4.13-1.86h7l1.34,3.55-.59,7.65-10.17,4.28Z" fill="#252211" fill-rule="evenodd"/><path d="M245.4,207.21s-1.45-1.34-4.76.46-6,5.57-6.15,9c-.17,3,2.49,5.28,6.62,5.4a21.2,21.2,0,0,0,5.87-.47c-.24-.28-1.46-1.81-1.46-1.81l-.11-12.58h0Z" fill="#c3b378" fill-rule="evenodd"/><path d="M244,208s-.35-.28-1.39.28a21.92,21.92,0,0,0-3.12,2.56,11.58,11.58,0,0,0-1.39,1.15c-1.46,1.74-2.68,4.58-2,6s3,3,8.95,1.92L244,208h0Z" fill="#e6d89c" fill-rule="evenodd"/><path d="M242.05,210.87a7.49,7.49,0,0,0-.94,3.78,6.23,6.23,0,0,0,6.27,6.43c3.78.24,6.31-5.44,9.06-7.65,2.09-1.69,3.36-1.74,3.36-1.74s-2.14-2.32-7.84-5.33-12-3.42-15.38,1.22a69.63,69.63,0,0,0,6.85-1.45L246,207l-3.94,3.92Z" fill="#252211" fill-rule="evenodd"/><path d="M249.42,214c-.16-.36-.28-.83.4-.94s1,0,1.22.46.46.94.12,1.15a1.62,1.62,0,0,1-1.74-.68Zm-1.1-3.31s-.24.16-.12-.17.35-1.1,1.1-.94.59,1,.47,1.22a1.22,1.22,0,0,1-1.23.47.4.4,0,0,1-.28-.48.54.54,0,0,1,.05-.11Z" fill="#6f674d" fill-rule="evenodd"/><path d="M184.76,212.14a7.31,7.31,0,0,0,4,1.34c2.13,0,4.88-2.26,6.15-3.67.75-.82,1.39-1.69,2.09-2.37a12.11,12.11,0,0,0,1.26-1.27,18,18,0,0,0,1-1.62,22.61,22.61,0,0,1-2,1.58,26.8,26.8,0,0,1-3,1.57c-.64.23-7.21,3.71-7.21,3.71l-2.28.73Z" fill="#ac924c" fill-rule="evenodd"/><path d="M187.6,194.79a9.24,9.24,0,0,1,3-1.15,54.53,54.53,0,0,1,5.8-.82l3.19,1.39,1.27,4.81-2.32,5-3,1.86-3.36-5.4-4.64-5.68h0Z" fill="#9f8e57" fill-rule="evenodd"/><path d="M183.42,199.08l-1.1.83a7.28,7.28,0,0,0,.51-2.09,19.55,19.55,0,0,1,3.24-7.61c1.79-2.2,1.74-2.09,1.74-2.09a1.19,1.19,0,0,0-.94.24,11.36,11.36,0,0,1,3.24-3.31c1.51-.93,2.09-1.22,3.67-.46s2,1.15,3.12,1.1a3.56,3.56,0,0,0,2.14-1.27s.23.75-.64,2.49-4.29,5.28-4.29,5.28L187,197.08l-3.55,2h0Z" fill="#eac970" fill-rule="evenodd"/><path d="M188.7,194.2s5.17.71,6.74-.75c.05.17.24.17.24.28a.55.55,0,0,1-.12.24,3,3,0,0,1,.52-.05,3.34,3.34,0,0,0,.63.12,4.57,4.57,0,0,0,.52,0,.88.88,0,0,1-.36.59c.24,0,.47,0,.47.23s0,.75-.24.87a1,1,0,0,1-.7-.05,2.94,2.94,0,0,0,.35,1.27,2.67,2.67,0,0,0,2.79,1.58s.7,1.69-2.26,5.44c-.39.52-.82,1.22-1.33,1.81a6.81,6.81,0,0,0-.47,1.38s5-1.92,6.44-6.31A33.34,33.34,0,0,0,203.37,188a6.49,6.49,0,0,0-.52-2.56c-.7-1.46-2.67-1.22-3.47-.4-1.15,1.15-3.08,4-5.75,6s-2.84,2.32-4.93,3.19Z" fill="#d7bc6b" fill-rule="evenodd"/><path d="M182.51,200.54s-1,.59-1.51,2.79a9.14,9.14,0,0,0,1,5.87c.56.86,1.85,3.24,4.53,3.35a4.88,4.88,0,0,0,1.92-.39,12.15,12.15,0,0,0,2.61-1.63c1.15-.86,2.09-1.61,2-1.69-.28-.11-7.09-5.75-7.09-5.75l-2.56-2.86-.92.31Z" fill="#585136" fill-rule="evenodd"/><path d="M188.94,209.88a5.87,5.87,0,0,0,2.21-.63c.82-.52-4.82-6.1-4.82-6.1l.4,6Z" fill="#453a25" fill-rule="evenodd"/><path d="M183,200.12a8.21,8.21,0,0,0-.7,1.69,29.51,29.51,0,0,0,.51,5.91,4.29,4.29,0,0,0,3.79,3.08,5.35,5.35,0,0,0,2.91-.94c0-.23-1.74-.46-2.21-1.34a8,8,0,0,1-.47-2.78c0-.75,0-1.58.24-1.86a6.07,6.07,0,0,0,.75-2.72L190,197h-3l-3.55,2.21Z" fill="#84754b" fill-rule="evenodd"/><path d="M182.08,201.41s2.32-3.08,4.42-3.78,3-.28,3-.28l-1.23,3.12-1.73,1.93.11,1a6,6,0,0,0,1.46,4.42,4.56,4.56,0,0,0,3.78,1.73,4.93,4.93,0,0,0,4-3.24c1-2.44,1.8-5.57-.17-8.71a7.1,7.1,0,0,0-6-3.24c-.65,0-5.82.26-7.7,7.06h0Z" fill="#252211" fill-rule="evenodd"/><path d="M241.69,211.86c-.86-.4,0-2.84.83-3.6a6.11,6.11,0,0,1,3.9-1.73c.7-.05,1.38.4,1.26.87-.16.86-1.38,2.09-2.49,2.95C243.67,211.55,242.68,212.3,241.69,211.86Z" fill="#f7f7e7" fill-rule="evenodd"/><path d="M194.74,198.54a1.7,1.7,0,0,1,1.62,1.16c.16.75-.4,2.25-1.62,2.25-1,0-1.51-1.22-1.51-1.57a2,2,0,0,1,.24-.82A1.34,1.34,0,0,1,194.74,198.54Z" fill="#f8f6de" fill-rule="evenodd"/><path d="M185.58,199.08a5.5,5.5,0,0,0-2.37,2.33,6.07,6.07,0,0,0-.46,3.71,8.85,8.85,0,0,0,1.1,2.56,1.75,1.75,0,0,0,1.34.82,2.37,2.37,0,0,0,1.22-1.74,12.41,12.41,0,0,1,.82-4.76c.68-1.46-1.64-2.91-1.64-2.91h0Z" fill="#d4c38b" fill-rule="evenodd"/><path d="M185.82,199c-.29.16-.75.4-.64.7s1.11.47,1.46,1.15a2.45,2.45,0,0,1,.28,1.81,2.64,2.64,0,0,0,.82-.59c.52-.58,1.15-1.38,1.69-1.38.35,0,.71.16,1,.16.51,0,1-.16,1.1-.7.12-.71-1-1.34-1.62-1.22a1.53,1.53,0,0,0-.24-1.62c-.51-.47-2.13.35-2.49.59s-1.4,1.1-1.4,1.1Z" fill="#e2d59d" fill-rule="evenodd"/><path d="M223.12,248.3l3.48-1,1,.7s.71,1.51,1.81,1.69c-.35.75-1.27,1.4-1.22,1.93a1.65,1.65,0,0,0,.52.94s-3.13,5.16,3,10.37c-1.46.59-3.31,1.39-4.3,1.86a7.51,7.51,0,0,1,2.84,1c.63.57.63.75,1.22,1.1s.94.83.82,1c-.4-.24-1.73-.94-2-.29s-5.8.4-5.8.4l-9.39,1.81a1.71,1.71,0,0,0-.63-1.81c-1.15-1-2.56,0-4.07-1.1-2-1.5-2-3.24-2.67-3.9.63-.4,1.92-1,5-1.39a2,2,0,0,1-.28-1.57c.28-.82,1.45-1.34,1.1-2.32.52-.12.75-.12,2-1.74s2-2,2.92-2.09,1.5,0,3.24-1.62c1.22-1.15.82-2.14.82-2.14s.8-.26.52-1.88h0Z" fill="#cbac5a" fill-rule="evenodd"/><path d="M212.86,248.82c0-.24.24-.36,1.51-.24s9.29-.75,11.48-.87a73,73,0,0,1,13.76.75c3.78.8,7.6,1.74,9.46,2.21s2.44.7,2.37.94a.7.7,0,0,1-.71.4c-.23,0-6.38-1.93-8.28-2.32a74.89,74.89,0,0,0-12.07-1.4,63.2,63.2,0,0,0-7.54.29,60.39,60.39,0,0,1-9,.63c-1.39-.16-1.1-.16-1-.4h0Z" fill="#d6bc6f" fill-rule="evenodd"/><path d="M231.76,267.22s4.82,2.61,6.55,5.8a2.51,2.51,0,0,1-.75,3.54s2.73,0,2.37,1.51c-.16.94-4.69,3.47-7.72,4.81s-3,1.27-4.46,1.5-5.45-.46-6.27.71a2.32,2.32,0,0,0-.24,2.56,13.86,13.86,0,0,0,2.14.4s-.4,1.1-4.34,1.22-4.93.39-5.17.82.75.16,2.56.46,4.35.47,4.35.47a8.22,8.22,0,0,1-3,1.27c-2.44.63-6.27,1.22-7.42,1.92a6.57,6.57,0,0,0,1.86,1,11.75,11.75,0,0,0-2.61.94c.35.24.82.52.82.52a16.24,16.24,0,0,1-3.12,3c-1.15.59-7.77,3.66-10,3.07-5.68-1.5-6.39-7.72-7.77-8.19-2.09-.7-3.08.7-4.93-.28a11.62,11.62,0,0,1,2.13-1.34c-.94-.46-5.8-3.55-5.8-3.55a34.39,34.39,0,0,0-1.69-3.24c-.93-1.62-2.32-3.78-3.35-5.68-2.26-4.18-2.38-6.1-4.42-8.47.35-.47,1.57-.4,1.57-.4l17.12,5.63,30.35.88,7.9-11.27,3.35.4Z" fill="#dfc677" fill-rule="evenodd"/><path d="M186.8,284.41a2.87,2.87,0,0,0,.64.51,9.3,9.3,0,0,1,2,1.58c.23-.36.82-1,1.86,0s2.32.28,3.12.51.87.4.87.4a5.73,5.73,0,0,1,1.5-.82c.63-.24,1.38-.4,2.21-.63a11.82,11.82,0,0,1,2.13-.4c.52.35,2.37,2.32,9.82-.59,7-2.72,8.64-3,9.81-2.61.12-.28.24-.82,2-.75a14,14,0,0,0-1.5-3.31l-8.29-2.84h-4.53L194.93,278l-7.54,4.3-.58,2.16Z" fill="#c4a859" fill-rule="evenodd"/><path d="M182.27,279.64a4.38,4.38,0,0,0,2,2.61,11.49,11.49,0,0,1,2.44,2.13,9.66,9.66,0,0,0,.64-.94c.28-.51.52-1.1,1-1.26.94-.4,3.08.35,3.55.23s.28-.94.7-.94c1-.05,1.62.64,2,.64s1.22-.05,1.33-.24.17-2.14,1.51-3.07a4,4,0,0,1,3.71-.36c0,.36,0,1.23,1,1.27a4.64,4.64,0,0,1,1.85.17c.83.28,1.81-.05,2.26,1.33.4-.11,1.34-.23,1.1-1.57a6.81,6.81,0,0,0,1.86-2c.23-.35.63-.75.94-1.27a3.83,3.83,0,0,1,3.12,1c-.4.28-.64.46-.75.75a9,9,0,0,1,.94,1.1c.35.47.58,1,1,1.15,1,.28,2.61-.12,4.41,0a8.88,8.88,0,0,1,3.83,1.15c.24-.11.24-.16.82,0s1,.16.4-.59c.35.16.75.52,1.11.16a2.3,2.3,0,0,1,1.62-1c1-.12,1.33,0,1.73-1,.52-1.27-1.26-1.27-1.26-1.27s.82-.75,1.73-1.73a7.92,7.92,0,0,0,2.68-4,2.83,2.83,0,0,0-2.44-3.43l-14.35,4.42-17.53-.87-15,7.44h0Z" fill="#927d49" fill-rule="evenodd"/><path d="M169.38,238.2a5.15,5.15,0,0,0-.75,2c-.29,1.39-.16,1.22-.4,2.21s-3.12,10.8-2,14.11,3,4.53,4.13,7.21a9.63,9.63,0,0,1,.59,1.45c.4,1.74.05,3.08.52,4.82a5.26,5.26,0,0,0,1.22,2c1.39,1.45,3.66,2.84,4.64,3.82,1.38,1.46,3.36,4.42,5.87,4.7a8.47,8.47,0,0,0,4.81-1.34c1.4-.87,2.26-2.09,3.72-2.78a13.34,13.34,0,0,1,3.12-.94,14.11,14.11,0,0,1,5-.24c1.69.36,5.68,1.58,7.89,1.58a21.57,21.57,0,0,0,5.12-.71c3.36-1,7.42-2.68,10.1-3.43,1.57-.46,2.84-.58,4.13-.86,2.21-.52,4.06-1.23,5.12-2.56-.71-.83-1.57-2.09-6.27-2.05-5.33.12-11.48,3.08-14.51,3.55s-4.34.87-7.73-.35-3.42-2.05-3.42-2.05-3.48-2.44-4.94-8.64,0-10.73,3.78-15a2.46,2.46,0,0,0,.75-2.09s2.49-3.36,1.81-6.5-5.56-2.49-5.56-2.49l-26.7,4.67Z" fill="#6e6342" fill-rule="evenodd"/><path d="M173.4,248.65a2.45,2.45,0,0,0-.29,1.27c0,.63.24,1.45,2.14,3.31a4.05,4.05,0,0,1,1.27,3.42s.81.17,3-.87a1.56,1.56,0,0,1,2.32.64,4.81,4.81,0,0,1,1.62-.52,3.68,3.68,0,0,0,1.45-.46,21.42,21.42,0,0,0,3.83,3.07c1.62.87,2.56,1.46,3.36.87a2.21,2.21,0,0,0,.7-2,5.68,5.68,0,0,0-.7-1.22c-.52-.75-1.34-1.62-1.39-2.33-.12-1.61,1.22-3.54.93-4s-1.33-.59-3.94.35-14.35-1.48-14.35-1.48h0Z" fill="#39331f" fill-rule="evenodd"/><path d="M179.55,259.14s-1.34-1.26-.87-7.42a8,8,0,0,1,1.69.17S181.1,256.66,179.55,259.14Z" fill="#292311" fill-rule="evenodd"/><path d="M170,233.5a3.17,3.17,0,0,0,.51-.46,11.66,11.66,0,0,0-.87,9.81c1.74,5.45,6.11,9.51,11.48,9.7s8.21-2.44,11.44-6.39c1.27-1.57,2.72-3.54,4-4.88,1.93-2.09,3.43-2.68,3.43-4.69,0-4.14-4.23-6-10.45-7.85s-11.83-1.62-14.74-.35-4.06,2.84-4.82,5.12h0Z" fill="#252211" fill-rule="evenodd"/><path d="M190,261l.47-.24s.12-1.85.87-1.8a1.44,1.44,0,0,1,1,1.45.87.87,0,0,1-1,.87A2.35,2.35,0,0,1,190,261Z" fill="#3f3824" fill-rule="evenodd"/><path d="M187.91,253.11s.46-.16,1,.4c.46,0,2.49-.24,3.12.16a2.3,2.3,0,0,1,.82.75,8.1,8.1,0,0,1-3.66,0C187.91,254,187.91,253.11,187.91,253.11Z" fill="#2d2815" fill-rule="evenodd"/><path d="M198.35,253.46a5.7,5.7,0,0,0-2.6-1.27c-.24,0-.29.12-.47.12s-.16-.4-.16-.4l-.76.4s-.12.16.28.47.94.51,1.1,1a5.21,5.21,0,0,0,.24.71,2.57,2.57,0,0,0,1.27-.24c.4-.24,1.15-.62,1.1-.77Z" fill="#82764f" fill-rule="evenodd"/><path d="M186.5,258.23a2,2,0,0,1,1.8-1.69,1.81,1.81,0,0,1,1.93,1.45l-.94.94s-.7-1-2.79-.7Z" fill="#2d2816" fill-rule="evenodd"/><path d="M196.71,251.25a4.89,4.89,0,0,1-2.79,1.22,1.09,1.09,0,0,1,0-1.45c.51-.75,1.1-1,1.69-.75A1.36,1.36,0,0,1,196.71,251.25Z" fill="#574f35" fill-rule="evenodd"/><path d="M200.25,252.41c.05-.24-.11-.29,0-.4s.76-.36.87-.24,0,.24,0,.46a1.21,1.21,0,0,1-.11.64,1,1,0,0,1-.87.28c-.24-.07-.28-.4-.28-.46S200.25,252.52,200.25,252.41Zm4-2.54c0-.12.4-.35.64-.35s.35.28.4.35.11-.05.23.16.28.59.16.83a.87.87,0,0,1-.7.35A6.73,6.73,0,0,1,204.26,249.87Z" fill="#82764f" fill-rule="evenodd"/><path d="M196.19,253a3.15,3.15,0,0,1,1.22.7c-.23.16-.58.35-.58.35a1.78,1.78,0,0,0-.64-1.06Z" fill="#6e6342" fill-rule="evenodd"/><path d="M195,247.78c-.11-.12.35-.4.64-.35s.4.23.7.28.35-.12.47-.24.51,0,.58,0a1.77,1.77,0,0,1,.12.17.66.66,0,0,1,.23-.47.77.77,0,0,1,.64-.11,3.57,3.57,0,0,1,.23.86c0,.12-.75.29-.87.17a8.16,8.16,0,0,0,.71,1c.07.12-.52.4-.75.36a9.63,9.63,0,0,1-2.7-1.65Zm3.08-3.9a.51.51,0,0,0-.24-.28c-.16,0-.7,0-.7.28a8.55,8.55,0,0,0,1,2.68,5.92,5.92,0,0,0,1.38,1.69.53.53,0,0,0,.7-.24,13.37,13.37,0,0,0,.12-3,28.51,28.51,0,0,0-.23-4.14.64.64,0,0,0-.75.12,21.3,21.3,0,0,0-1.27,2.91Z" fill="#585136" fill-rule="evenodd"/><path d="M196,255.9a1.92,1.92,0,0,0-1.62-.16c-.75.35-.71,1.74-.71,1.74a1.13,1.13,0,0,0,1-.12A3.14,3.14,0,0,0,196,255.9Z" fill="#574f35" fill-rule="evenodd"/><path d="M197.58,257.76c-.05-.47-.47-.47-.47-.71a.53.53,0,0,1,.52-.39c.24,0,.46.28.75.46s.71.46.75.82-.46,1.34-1,1.34-.4-1.06-.52-1.53Zm4.53-.64s-.94.29-.87,0,.28-.35.59-.35a.91.91,0,0,1,.59-.28.52.52,0,0,1,.35.12s.63-.28.82-.12,0,.16.16.35a1.65,1.65,0,0,1,.29.71c0,.18-.71.58-1.27.51S202.23,257.24,202.11,257.12Zm5.47-1.05s.28.16,0,.35a4,4,0,0,1-1.69.52c-.71,0-1.34.11-1.34-.12s.59-.7.94-.82a.72.72,0,0,1,.59-.28c.28,0,1.38-.12,1.69-.17s.51.12.35.35-.59.17-.59.17Zm1.62-7.25s-.35.75-.75.75-.4-.17-.4-.28.4-.59.35-.71-.4,0-.35-.28.4-.52.75-.46a1.57,1.57,0,0,1,.94-.36c.4,0,.75.12.75.36s-.46.75-.63.87-.43.31-.66.11Zm-5.35,13.87s-.47.05-.47.28.12.12.28,0a1,1,0,0,0,.29,0s0,.29.4.29a2.24,2.24,0,0,0,.82-.29c.28-.11.51-.23.51-.46a.69.69,0,0,0-.7-.59,1,1,0,0,0-.52.12s-.11-.24-.51,0-.36.23-.24.35.14.31.14.31Zm-2.66,2.45c0-.12.59-.36.75-.29a2.94,2.94,0,0,1,.64,1c0,.11-.59.4-.82.4a1.08,1.08,0,0,1-.64-.47c0-.05.28-.12.28-.16s-.21-.4-.21-.52Zm-1.85-3.43c.11,0,.11-.17.28-.28a.39.39,0,0,1,.35-.05.58.58,0,0,1,.4-.28c.28-.05.52,0,.47.11,0,.36.23.59.23.87s-.16.64-.75.87a4,4,0,0,1-1.5.12.76.76,0,0,1-.12-.75,1.92,1.92,0,0,1,.63-.61h0Z" fill="#82764f" fill-rule="evenodd"/><path d="M200.08,261.87s-.39.23-.39.35a.83.83,0,0,0-.05.35c0,.07.52-.05.59-.12S200.08,262,200.08,261.87Z" fill="#6e6342" fill-rule="evenodd"/><path d="M196.59,260.76a4.84,4.84,0,0,1,.94.12c.24.12.4.35.16.64s-.46.7-1,.63-1.15-.35-1.15-.59a1.11,1.11,0,0,1,.28-.82c.24-.19.35-.07.75,0Z" fill="#585136" fill-rule="evenodd"/><path d="M196.31,261a6.29,6.29,0,0,0-.94.87c-.23.28-1.38,1.73-1.73,2a3.76,3.76,0,0,1,.39-.59,2.42,2.42,0,0,0-1,1.27c-.28.87,1.57,1.34,2.79,1.69s1.69.47,1.69.47a13.35,13.35,0,0,1-1.15-2.14c-.46-1.1-.7-1.22-.4-1.74s.59-.87.59-1.27A6.08,6.08,0,0,0,196.31,261Z" fill="#574f35" fill-rule="evenodd"/><path d="M169.55,262.85a1.1,1.1,0,0,0,.51,0,24.23,24.23,0,0,1,7.84-1.15,42,42,0,0,1,8.48,1.4c4.81,1.26,10.8,3.77,14.67,5.21,1,.4,2,1.1,2.79,1.38a18,18,0,0,0,4.81,1.46c2,.28,4.14-.4,6.32-.87,2.67-.59,7.25-.87,11.27-1.46a23.84,23.84,0,0,0,3.83-.86s-3.2,3.19-10.85,4.34a34,34,0,0,1-9.35.12,29,29,0,0,1-5.28-.94c-1.38-.4-4.23-1.46-7.72-2.33-2.45-.63-5.17-1.1-8.29-1.69-7.7-1.41-16.06-3-19-4.6Z" fill="#252211" fill-rule="evenodd"/><line x1="165.55" y1="233.08" x2="146" y2="214.82" fill="none"/><path d="M160.9,248.34c-1.85,1.58-3.82,3.08-5.75,4.53l-5.8,4.46c-2,1.45-3.89,3-5.87,4.41s-3.94,2.84-6,4.18c1.85-1.57,3.82-3,5.8-4.46s4-2.83,5.91-4.28l5.8-4.47c2-1.45,3.92-3,5.94-4.36Zm-10.26,16.44s2.09-1.74,4.7-4.18c3.24-3,7.21-6.9,8.48-7.61l-13.18,11.79Z" fill="#cfb66c" fill-rule="evenodd"/><path d="M150.64,264.78c1-1,2.14-2,3.25-3l1.69-1.46c.51-.46,1.1-1,1.62-1.5,1-1,2-2.14,3.07-3.19a19.18,19.18,0,0,1,1.62-1.5,4.22,4.22,0,0,1,.94-.64,2.91,2.91,0,0,1,1-.52c-.24.36-.52.52-.76.83s-.51.51-.75.75c-.51.51-1.1,1-1.62,1.45-1.1.94-2.25,1.86-3.35,2.84s-2.14,2.05-3.24,3-2.3,2-3.46,2.94Zm14.05-9.39s-7.66,7.49-9.23,8.71Z" fill="#cfb66c" fill-rule="evenodd"/><path d="M164.69,255.39a26.07,26.07,0,0,1-2.21,2.25l-2.33,2.21c-.75.75-1.45,1.5-2.25,2.25s-1.57,1.39-2.44,2l2.25-2.2c.75-.75,1.58-1.39,2.37-2.14l2.26-2.21C163.11,256.82,163.86,256.07,164.69,255.39Zm.35,4.06a49.63,49.63,0,0,1-2.49,5.75c-2,3.95-4.93,8.87-6.22,11.39L165,259.45Z" fill="#cfb66c" fill-rule="evenodd"/><path d="M165,259.45a6.61,6.61,0,0,1-.52,2.37,22.54,22.54,0,0,1-.94,2.21c-.35.7-.75,1.45-1.15,2.13s-.87,1.39-1.22,2.09l-2.37,4.18c-.82,1.4-1.62,2.8-2.49,4.13a37.28,37.28,0,0,1,2.14-4.29c.82-1.39,1.57-2.79,2.32-4.23.36-.72.69-1.45,1-2.2s.71-1.46,1-2.14.63-1.46,1-2.14a13.06,13.06,0,0,1,1.26-2.11Z" fill="#cfb66c" fill-rule="evenodd"/><path d="M173.4,278.7a11.57,11.57,0,0,0-2.09,7C171.94,283.63,172.74,280.51,173.4,278.7Zm2.2,3.08s-.82,8.36-1.5,12.47C175.06,289.5,175.25,289.9,175.6,281.78Zm15.38,13s-3.47,10.22-3.54,13.06c.75-2.92,2.2-8.88,3.54-13.06Z" fill="#dec270" fill-rule="evenodd"/><path d="M199.1,278.07s5.64,9.3,9.87,17.23C207.82,291.31,205.19,284,199.1,278.07Z" fill="#cbaf59" fill-rule="evenodd"/><path d="M214.25,291.76a171.88,171.88,0,0,1,8.36,16.88A25.79,25.79,0,0,0,214.25,291.76Z" fill="#e3c677" fill-rule="evenodd"/><path d="M258.76,305.46c.94-.58,2.8-3.78,4.42-4.57s2.84-1,4.29-2.61,1.86-2.72,5-4.06c4.46-1.93,1.39-4.42,1.39-4.42a14.26,14.26,0,0,1,1.58-1.33c1.15-.87,2.49-1.93,2.37-3.79-.16-3.12-.75-7.65-3.31-10.28,2.49-.52,7.25-.87,10.21-1.62a14.69,14.69,0,0,0,5-2.09A5.69,5.69,0,0,1,291,264c3.19-3.38,5.8-5.4,7.72-9.18-2.21-.28-5.57-1.45-14.16,1.81a11,11,0,0,1,1.34.75s-5.28,1.46-7.21,3.08c-3.36,2.84-3.78,5.16-7.42,6.9s-7.3,1.27-10.33,2.68-3.47,2.6-4.58,3.12c.24.28,0,.75.4,1.15-.28.4-1.92,3.08-3.59,3.08.17.63,1.57,1.1,1.57,1.1a7.59,7.59,0,0,1-3.66.94,26.89,26.89,0,0,0,6.11,5.12c-.29.58-1.46,1.45-1,2.56s1.86,2.6,7.21,3.82c-2.73.12-5.92.76-10.22.17s-5-.82-7.65-.17c.28.29,1,.29,1.69,1-.7,0-5.12-.52-6.62,1.45a12.88,12.88,0,0,0-2.14,7.66,2,2,0,0,0-1.22,2.56c.4,1.45,2.49,1.92,3.83,2.84s1.45,1.33,2.72,1.1,3.31-1.62,4.46-1.62a3,3,0,0,1,2,.87s3.12-1.5,3.42-1.22,0,2.09.36,2.37,3.82-1.88,4.76-2.47Z" fill="#ecd592" fill-rule="evenodd"/><path d="M327,211.51c-14.68-37.9-50.95-44.92-50.95-44.92H172.57l.4,38.6h20.61v86.19h-21v38.53H273.2c24.26,0,43.7-24.37,43.7-24.37,31.13-44.19,10.12-94,10.12-94Zm-53.28,68.06S265.85,291,257.26,291H240.08l-.41-85.68h22.05s10.22,2.14,17.35,22.35C279.07,227.63,288.53,256.58,273.74,279.57Z" fill="#fff" fill-opacity="0.8" fill-rule="evenodd"/></g></g></g></g></g></svg>