<svg id="Layer_1" data-name="Layer 1" xmlns="http://www.w3.org/2000/svg" viewBox="0 0 500 500"><defs><style>.cls-1{fill:#f5f7e2;}.cls-2{fill:#f66;}.cls-3{fill:#d95e59;}.cls-4{fill:#5158fa;}.cls-5{fill:#fff;fill-rule:evenodd;}</style></defs><g id="Artboard"><g id="pTokens-icon"><path id="Path" class="cls-1" d="M117.79,118.39c-72.71,72.71-72.71,190.61,0,263.32s190.61,72.71,263.32,0,72.71-190.61,0-263.32S190.5,45.68,117.79,118.39Z"/><path class="cls-2" d="M74.45,250.05A175,175,0,0,1,373.2,126.31l51.07-51.07c-96.55-96.55-253.08-96.55-349.62,0s-96.55,253.07,0,349.61l51.06-51.06A174.45,174.45,0,0,1,74.45,250.05Z"/><path class="cls-3" d="M424.25,75.22l-51.07,51.07a175,175,0,0,1,0,247.49q-3.84,3.83-7.9,7.42a247.35,247.35,0,0,1,58.95,43.66C520.8,328.31,520.8,171.77,424.25,75.22Z"/><path class="cls-3" d="M125.71,373.79,74.65,424.86a246.85,246.85,0,0,1,59-43.65C130.9,378.81,128.26,376.35,125.71,373.79Z"/><path id="Path-2" class="cls-1" d="M424.25,424.86c-96.52,96.55-253,96.55-349.6,0C171.2,328.31,327.73,328.31,424.25,424.86Z"/></g></g><path class="cls-4" d="M250,395.14A145.1,145.1,0,1,0,104.9,250h0A145.09,145.09,0,0,0,250,395.14Z"/><path id="Combined-Shape" class="cls-5" d="M231,133.55a2.31,2.31,0,0,1,2.75,2.27h0v21a1.14,1.14,0,0,0,1.38,1.12A92.61,92.61,0,0,1,254,156a93.91,93.91,0,0,1,9.68.51,91.64,91.64,0,0,1,10.67,1.75,2.3,2.3,0,0,1,1.79,2.25h0v33.92a2.29,2.29,0,0,1-3.07,2.16,54.59,54.59,0,0,0-9.39-2.53,55.53,55.53,0,0,0-64.76,47.2,1.16,1.16,0,0,0,1.15,1.31h10.1a1.13,1.13,0,0,0,1.12-1,43.42,43.42,0,0,1,33.65-35.15,2.32,2.32,0,0,1,2.82,2.25h0v8.07A2.31,2.31,0,0,1,246,219a30.85,30.85,0,0,0,0,59.59,2.3,2.3,0,0,1,1.76,2.22h0V314a2.29,2.29,0,0,1-2.56,2.29,68.06,68.06,0,0,1,17.2-135,1.13,1.13,0,0,0,1.28-1.13h0v-10a1.15,1.15,0,0,0-1-1.15,80.34,80.34,0,1,0-2.81,160,80.34,80.34,0,0,0,30-152,2.29,2.29,0,0,1-1.27-2h0V164.43a1.17,1.17,0,0,1,1.62-1.08A92.81,92.81,0,0,1,277,338.7a1.14,1.14,0,0,0-.86,1.1h0v22.47a2.31,2.31,0,0,1-1.9,2.28q-5.21.92-10.56,1.36c-3.2.26-6.43.4-9.69.4a117.52,117.52,0,0,1-32.73-230.39C224.45,135,227.7,134.2,231,133.55ZM160.35,255h-10a1.18,1.18,0,0,0-1.17,1.25A105.19,105.19,0,0,0,254,353.85c2.9,0,5.78-.13,8.63-.36a1.16,1.16,0,0,0,1.06-1.16h0v-10a1.14,1.14,0,0,0-1.25-1.14c-2.78.26-5.6.39-8.44.39a92.93,92.93,0,0,1-92.52-85.52,1.14,1.14,0,0,0-1.13-1.06Zm49.82,0h-10.1a1.17,1.17,0,0,0-1.15,1.32,55.73,55.73,0,0,0,34.81,44.21,1.16,1.16,0,0,0,1.57-1.09h0V289.24a2.29,2.29,0,0,0-1.25-2A43.42,43.42,0,0,1,211.29,256a1.14,1.14,0,0,0-1.12-1Zm50.06-46.32a2.32,2.32,0,0,1,2.84-2.25,43.31,43.31,0,0,1,0,84.69,2.33,2.33,0,0,1-2.84-2.25h0v-8.08a2.32,2.32,0,0,1,1.76-2.23,31,31,0,0,0,21.89-22.13,1.17,1.17,0,0,0-1.14-1.43H272.31a1.14,1.14,0,0,0-1.05.73,18.62,18.62,0,1,1,0-13.92,1.12,1.12,0,0,0,1.05.73h10.43a1.16,1.16,0,0,0,1.14-1.42A31,31,0,0,0,262,219a2.32,2.32,0,0,1-1.76-2.23h0ZM254,242.64a6.16,6.16,0,1,0,6.15,6.15A6.16,6.16,0,0,0,254,242.64Zm-32.73-92a1.17,1.17,0,0,0-1.54-1.11,105.29,105.29,0,0,0-70.52,91.84,1.16,1.16,0,0,0,1.16,1.24h10a1.14,1.14,0,0,0,1.13-1.05,93,93,0,0,1,59-79.28,1.14,1.14,0,0,0,.73-1.06h0Z"/></svg>