<svg id="Layer_1" data-name="Layer 1" xmlns="http://www.w3.org/2000/svg" viewBox="0 0 500 500"><title>pEOS</title><path id="Path" d="M424.8,424.81c-96.52,96.55-253,96.55-349.61,0C171.75,328.26,328.28,328.26,424.8,424.81Z" fill="#f4f7e2"/><g id="Layer_2" data-name="Layer 2"><g id="Layer_1-2" data-name="Layer 1-2"><circle cx="250" cy="249.99" r="221.75" fill="#f4f7e2"/><path d="M119.16,340.89l36.44-177L250,34,340.8,159.2l84-84c-96.54-96.55-253.07-96.55-349.61,0s-96.55,253.07,0,349.61L144,356Z" fill="#f66"/><path d="M144,356,75.2,424.81a246.24,246.24,0,0,1,88.41-56.88Z" fill="#d95e59"/><path d="M424.8,75.17l-84,84,2.91,4,37.17,177.67L336.4,367.93a246.15,246.15,0,0,1,88.4,56.88C521.35,328.26,521.35,171.72,424.8,75.17Z" fill="#d95e59"/><path d="M250,59.51,169.64,170.09,136,333.56l114,69.38,114-69.38L329.68,169.4ZM154.53,326l25.41-124.32,57.7,175.15Zm33.65-152.48L250,88.36l61.82,85.17L250,360.35Zm73.5,203.31,57.69-175.15L344.79,326Z"/></g></g></svg>