<svg xmlns="http://www.w3.org/2000/svg" id="Livello_1" x="0" y="0" version="1.1" viewBox="0 0 200 200" xml:space="preserve"><style>.st2{fill:#fff4c7}.st4{fill:#8c8c8c}</style><path fill="#f66" d="M29.3 29.3c-39.1 39.1-39.1 102.4 0 141.4L170.7 29.3c-39-39.1-102.4-39.1-141.4 0z"/><path fill="#da5f5a" d="M170.7 170.7c-39-39.1-102.4-39.1-141.4 0L170.7 29.3c39.1 39 39.1 102.4 0 141.4z"/><path d="M170.7 170.7c-39 39.1-102.4 39.1-141.4 0 39-39 102.4-39 141.4 0z" class="st2"/><path d="M99.8 30.4L54 106.5l45.8 63.1 46.2-63.1-46.2-76.1z" class="st2"/><path fill="#343434" d="M99.6 47.5l-.7 2.4V120l.7.7 32.5-19.2-32.5-54z"/><path d="M99.6 47.5l-32.5 54 32.5 19.2V47.5z" class="st4"/><path fill="#3c3c3b" d="M99.6 126.8l-.4.5v25l.4 1.2 32.6-45.8-32.6 19.1z"/><path d="M99.6 153.5v-26.6l-32.5-19.2 32.5 45.8z" class="st4"/><path fill="#141414" d="M99.6 120.7l32.5-19.2-32.5-14.8v34z"/><path fill="#393939" d="M67.1 101.4l32.5 19.2v-34l-32.5 14.8z"/></svg>