<?xml version="1.0" encoding="UTF-8"?><svg xmlns="http://www.w3.org/2000/svg" viewBox="0 0 494.42 494.44"><defs><style>.h{fill:#f5f7e2;}.i{fill:#fff;}.j{fill:#f66;}.k{fill:#d95e59;}.l{fill:#0b12f9;}</style></defs><g id="a"/><g id="b"><g id="c"><g id="d"><g id="e"><path id="f" class="h" d="M115.55,115.56c-72.71,72.71-72.71,190.61,0,263.32s190.61,72.71,263.32,0,72.71-190.61,0-263.32c-72.71-72.71-190.61-72.71-263.32,0Z"/><path class="j" d="M72.21,247.22c0-96.65,78.35-175,175-175,46.42,0,90.93,18.44,123.75,51.26l51.07-51.07c-96.55-96.55-253.08-96.55-349.62,0-96.54,96.55-96.55,253.07,0,349.61l51.06-51.06c-32.87-32.78-51.32-77.32-51.26-123.74Z"/><path class="k" d="M422.01,72.39l-51.07,51.07c68.35,68.34,68.35,179.14,.02,247.49-2.55,2.56-5.19,5.03-7.9,7.42,21.71,11.54,41.58,26.26,58.95,43.66,96.55-96.55,96.55-253.09,0-349.64Z"/><path class="k" d="M123.47,370.96l-51.06,51.07c17.38-17.41,37.27-32.12,59-43.65-2.75-2.4-5.39-4.86-7.94-7.42Z"/><path id="g" class="h" d="M422.01,422.03c-96.52,96.55-253,96.55-349.6,0,96.55-96.55,253.08-96.55,349.6,0Z"/></g></g><path class="l" d="M247.76,392.31c80.14,0,145.1-64.96,145.1-145.1S327.9,102.11,247.76,102.11,102.66,167.08,102.66,247.21h0c0,80.14,64.96,145.1,145.09,145.1h0Z"/><path class="i" d="M238.05,145.07c5.14-2.7,12.96-2.7,18.1,0l52.45,27.56c3.1,1.63,4.8,4.05,5.1,6.55h.05v138.55c-.07,2.73-1.78,5.44-5.15,7.21l-52.45,27.56c-5.14,2.7-12.96,2.7-18.1,0l-52.45-27.56c-3.35-1.76-4.96-4.49-5.04-7.21,0-.27,0-.49,0-.68V180.08c0-.15,0-.3,0-.45v-.44h.03c.23-2.53,1.86-4.89,5.02-6.55l52.45-27.56Zm67.45,111.41l-49.34,25.93c-5.14,2.7-12.96,2.7-18.1,0l-49.24-25.87v60.92l49.24,25.74c2.78,1.48,5.67,2.92,8.49,3.1l.56,.02c2.94,0,5.79-1.48,8.69-2.88l49.71-26.2v-60.76Zm-133.47,58.24c0,5.31,.62,8.8,1.85,11.26,1.02,2.04,2.55,3.59,5.35,5.49l.16,.11c.61,.41,1.29,.84,2.11,1.35l.97,.59,2.98,1.79-4.27,7.03-3.33-2-.56-.34c-.96-.59-1.76-1.1-2.51-1.6-7.97-5.35-10.94-11.17-11-23.29v-.37h8.25Zm70.94-95.37c-.38,.13-.74,.28-1.07,.45l-52.45,27.56c-.06,.03-.11,.06-.16,.09l-.04,.03,.08,.05,.12,.06,52.45,27.56c.33,.17,.68,.32,1.07,.45v-56.25Zm8.26,0v56.25c.38-.13,.74-.28,1.07-.45l52.45-27.56c.06-.03,.11-.06,.16-.09l.04-.03-.08-.05-.12-.06-52.45-27.56c-.33-.17-.68-.32-1.07-.45Zm54.27-30.33l-47.05,24.73,47.05,24.73v-49.45Zm-116.68,.06v49.34l46.94-24.67-46.94-24.67Zm63.48-36.74c-2.73-1.43-7.66-1.43-10.39,0l-52.45,27.56c-.06,.03-.11,.06-.16,.09l-.04,.03,.08,.05,.12,.06,52.45,27.56c2.73,1.43,7.66,1.43,10.39,0l52.45-27.56c.06-.03,.11-.06,.16-.09l.04-.03-.08-.05-.12-.06-52.45-27.56Zm60.95,3.02l3.33,2,.56,.34c.96,.59,1.76,1.1,2.51,1.6,7.97,5.34,10.94,11.17,11,23.29v.37h-8.25c0-5.31-.62-8.8-1.85-11.26-1.02-2.04-2.55-3.59-5.35-5.49l-.16-.11c-.61-.41-1.29-.84-2.11-1.35l-.97-.59-2.98-1.79,4.27-7.03Z"/></g></g></svg>