<svg id="Layer_1" data-name="Layer 1" xmlns="http://www.w3.org/2000/svg" viewBox="0 0 500 500"><defs><style>.cls-1{fill:#f5f7e2;}.cls-2{fill:#f66;}.cls-3{fill:#d95e59;}.cls-4{opacity:0.98;}</style></defs><g id="Artboard"><g id="pTokens-icon"><path id="Path" class="cls-1" d="M116.6,118.34c-72.71,72.71-72.71,190.61,0,263.32s190.61,72.71,263.32,0,72.71-190.61,0-263.32S189.31,45.63,116.6,118.34Z"/><path class="cls-2" d="M73.26,250A175,175,0,0,1,372,126.26l51.07-51.07C326.53-21.36,170-21.36,73.46,75.19s-96.55,253.07,0,349.61l51.06-51.06A174.45,174.45,0,0,1,73.26,250Z"/><path class="cls-3" d="M423.06,75.17,372,126.24a175,175,0,0,1,0,247.49q-3.84,3.82-7.9,7.42a247.35,247.35,0,0,1,58.95,43.66C519.61,328.26,519.61,171.72,423.06,75.17Z"/><path class="cls-3" d="M124.52,373.74,73.46,424.81a246.85,246.85,0,0,1,59-43.65C129.71,378.76,127.07,376.3,124.52,373.74Z"/><path id="Path-2" class="cls-1" d="M423.06,424.81c-96.52,96.55-253,96.55-349.6,0C170,328.26,326.54,328.26,423.06,424.81Z"/></g></g><g class="cls-4"><path d="M140.14,191.59c5.19,3,10.38,6,15.59,9a1.49,1.49,0,0,1,.86,1.5q0,47.84,0,95.68a1.8,1.8,0,0,0,1,1.78q34,20.87,67.94,41.78l1.25.74v-1.11q0-39.69,0-79.39a1.49,1.49,0,0,0-.88-1.5q-10.69-6.13-21.37-12.31a1.24,1.24,0,0,1-.74-1.27c0-5.73,0-11.46,0-17.2v-.88c.38.2.66.34.93.5q18.87,10.89,37.75,21.77a1.21,1.21,0,0,1,.7,1.22q0,59.4,0,118.82c0,.24,0,.48,0,.73H243a6.32,6.32,0,0,0-.71-.54L150.12,314.2c-3.32-2-6.66-4.05-10-6.07Z"/><path d="M253.38,371.43c0-6.25,0-12.5,0-18.75a1.39,1.39,0,0,1,.68-.92c7.35-4.56,14.72-9.08,22.09-13.62l63.05-38.77a1.32,1.32,0,0,0,.76-1.28q0-38.61,0-77.2v-.82l-.84.46q-33.83,19.53-67.66,39a2.91,2.91,0,0,0-1.73,3c.09,8,0,16.09.06,24.14a1.46,1.46,0,0,1-.87,1.49c-4.84,2.76-9.66,5.56-14.49,8.35-.3.18-.62.34-1.06.58v-1.14q0-21.92,0-43.82a1.54,1.54,0,0,1,.9-1.56q51-29.42,102-58.86l.15-.1V308.13c-.27.14-.54.27-.8.43L258.32,368.4c-1.6,1-3.17,2-4.76,3Z"/><path d="M248.44,128.47c2.64,1.46,5.26,2.93,7.9,4.36l87.5,47.29,6.2,3.37c-.74.44-1.39.83-2,1.2-4.61,2.67-9.24,5.32-13.84,8a1.4,1.4,0,0,1-1.57,0Q300.31,175.25,268,157.8q-9.48-5.13-18.95-10.27a1.44,1.44,0,0,0-1.58,0q-33.21,18-66.43,35.94l-.87.49c.31.2.54.36.78.5q33.23,19.18,66.45,38.39a1.49,1.49,0,0,0,1.73,0c6.89-4,13.81-8,20.7-12a1.62,1.62,0,0,1,1.89,0c4.76,2.79,9.54,5.53,14.31,8.29.34.19.67.4,1.08.65-.3.2-.51.35-.74.48Q267.74,231,249.12,241.81a1.49,1.49,0,0,1-1.72,0q-50-28.89-100-57.75c-.29-.16-.56-.34-.93-.58l9-4.87L247.24,129c.29-.16.56-.36.84-.54Z"/></g></svg>