<svg width="1440" height="1440" viewBox="0 0 1440 1440" fill="none" xmlns="http://www.w3.org/2000/svg">
<g clip-path="url(#clip0_203_47)">
<mask id="mask0_203_47" style="mask-type:luminance" maskUnits="userSpaceOnUse" x="0" y="3" width="1435" height="1432">
<path d="M0 718.907C0 1114.28 321.189 1434.8 717.393 1434.8C1113.6 1434.8 1434.79 1114.28 1434.79 718.907C1434.79 323.536 1113.6 3.02006 717.393 3.02006C321.189 3.02006 0 323.536 0 718.907Z" fill="white"/>
</mask>
<g mask="url(#mask0_203_47)">
<path d="M-41.8013 -38.7494H1476.59V1476.56H-41.8013V-38.7494Z" fill="#FF6666"/>
</g>
<mask id="mask1_203_47" style="mask-type:luminance" maskUnits="userSpaceOnUse" x="211" y="213" width="1224" height="1222">
<path d="M211.092 1226.08C340.837 1355.08 519.775 1434.8 717.393 1434.8C1113.6 1434.8 1434.79 1114.28 1434.79 718.907C1434.79 521.703 1354.9 343.145 1225.64 213.672L211.092 1226.08Z" fill="white"/>
</mask>
<g mask="url(#mask1_203_47)">
<path d="M9.13196 50.1296H2619.73V2655.36H9.13196V50.1296Z" fill="#D95E59"/>
</g>
<mask id="mask2_203_47" style="mask-type:luminance" maskUnits="userSpaceOnUse" x="205" y="1023" width="993" height="412">
<path d="M205.58 1220.54C335.743 1352.78 516.968 1434.8 717.393 1434.8C902.099 1434.8 1070.48 1365.15 1197.64 1250.73C1071.88 1111.51 889.747 1023.99 687.124 1023.99C499.579 1023.99 329.565 1098.99 205.58 1220.54Z" fill="white"/>
</mask>
<g mask="url(#mask2_203_47)">
<path d="M-41.8014 982.219H1416.05V2437.12H-41.8014V982.219Z" fill="#F5F7E2"/>
</g>
<ellipse cx="702" cy="719.483" rx="460" ry="460.483" fill="#F5F7E2"/>
<g clip-path="url(#clip1_203_47)">
<mask id="mask3_203_47" style="mask-type:luminance" maskUnits="userSpaceOnUse" x="277" y="359" width="849" height="721">
<path d="M1126 359H277V1079.85H1126V359Z" fill="white"/>
</mask>
<g mask="url(#mask3_203_47)">
<path d="M1073.5 797.61C1073.5 814.214 1070.48 830.092 1064.97 844.734C1046.09 894.741 998.126 930.263 941.916 930.263C884.392 930.263 835.51 893.051 817.613 841.198C711.344 848.899 650.576 801.01 625.309 709.734C561.483 692.233 514.569 633.396 514.569 563.496C514.569 518.288 534.204 477.694 565.345 449.945C591.844 426.293 626.695 411.945 664.874 411.945C708.612 411.945 747.999 430.773 775.431 460.871C793.885 448.705 815.935 441.653 839.619 441.653C856.147 441.653 871.901 445.101 886.178 451.319C927.483 469.294 956.529 510.469 957.174 558.564C957.198 559.127 957.198 559.667 957.198 560.232L957.174 562.237V562.259C963.181 560.93 969.412 560.232 975.828 560.232C1004.47 560.232 1029.92 574.063 1045.95 595.462H1045.98C1057.1 610.307 1063.69 628.799 1063.69 648.848C1063.73 669.641 1056.47 689.775 1043.18 705.679C1042.19 706.906 1041.15 708.101 1040.08 709.261C1060.88 732.711 1073.5 763.682 1073.5 797.61Z" fill="#FF5CAA"/>
<path d="M838.165 552.782C814.361 578.868 799.82 613.689 799.82 651.937C799.82 732.827 864.857 798.403 945.083 798.403C955.435 798.411 965.755 797.305 975.875 795.107M658.527 505.502C662.162 558.402 705.873 600.179 759.26 600.179M919.845 580.534C930.642 571.488 943.449 565.214 957.173 562.246M775.435 460.855C758.523 471.958 744.627 487.346 735.268 505.502" stroke="#103849" stroke-width="4.48173" stroke-miterlimit="10" stroke-linecap="round" stroke-linejoin="round"/>
<path d="M1073.5 797.586C1073.5 870.86 1014.59 930.242 941.916 930.242C884.392 930.242 835.51 893.031 817.613 841.173C711.344 848.878 650.576 800.99 625.309 709.712C561.483 692.211 514.569 633.375 514.569 563.474C514.569 479.771 581.856 411.923 664.874 411.923C708.612 411.923 747.999 430.752 775.431 460.849C793.885 448.684 815.935 441.632 839.619 441.632C904.56 441.632 957.198 494.727 957.198 560.21L957.174 562.216V562.238C963.181 560.908 969.412 560.21 975.828 560.21C1024.35 560.21 1063.69 599.877 1063.69 648.827C1063.69 672.187 1054.73 693.406 1040.08 709.24C1060.88 732.689 1073.5 763.658 1073.5 797.586Z" stroke="#103849" stroke-width="3.92125" stroke-miterlimit="10" stroke-linejoin="round"/>
<path d="M1040.08 709.241C1040.08 709.241 1029.88 698.569 1015.93 687.46M647.721 949.818C641.962 937.688 638.277 924.664 636.821 911.297" stroke="#103849" stroke-width="4.48173" stroke-miterlimit="10" stroke-linecap="round" stroke-linejoin="round"/>
<path d="M905.71 857.561C910.359 870.573 912.734 884.301 912.722 898.129C912.722 969.269 850.797 1026.91 774.391 1026.91C717.736 1026.91 669.055 995.216 647.699 949.826C630.097 961.88 608.982 968.909 586.307 968.909C535.463 968.909 492.568 933.631 479.12 885.382C469.519 887.793 459.66 889.014 449.765 889.006C383.347 889.006 329.484 834.718 329.484 767.727C329.484 716.278 361.273 672.309 406.132 654.715C404.368 647.35 403.43 639.714 403.43 631.875C403.43 571.123 459.416 521.881 528.491 521.881C568.146 521.881 603.53 538.141 626.429 563.461C644.795 553.527 665.973 547.83 688.538 547.83C758.528 547.83 815.271 602.546 815.271 670.033C815.279 671.624 815.243 673.216 815.159 674.805C872.911 685.483 916.807 738.962 916.807 803.341C916.807 822.688 912.854 841.054 905.71 857.561Z" fill="#FF5CAA"/>
<path d="M860.852 797.615C881.469 812.973 897.243 833.745 905.733 857.578M479.146 885.395C476.286 875.17 474.766 864.378 474.766 853.204C474.766 807.611 500.212 768.172 537.164 749.317M437.483 647.116C426.536 648.243 416.036 650.834 406.16 654.73M626.482 563.498L626.457 563.476C610.754 572.037 597.127 583.707 586.47 597.628" stroke="#103849" stroke-width="4.48173" stroke-miterlimit="10" stroke-linecap="round" stroke-linejoin="round"/>
<path d="M905.774 857.569C910.423 870.58 912.794 884.309 912.786 898.137C912.786 969.277 850.857 1026.92 774.451 1026.92C717.8 1026.92 669.117 995.224 647.761 949.834C630.159 961.888 609.044 968.913 586.37 968.913C535.526 968.913 492.63 933.639 479.183 885.39C469.581 887.801 459.723 889.022 449.827 889.014C383.41 889.014 329.546 834.726 329.546 767.735C329.546 716.285 361.336 672.316 406.195 654.722C404.431 647.358 403.492 639.721 403.492 631.883C403.492 571.13 459.478 521.888 528.554 521.888C568.208 521.888 603.592 538.149 626.492 563.469C644.857 553.534 666.036 547.838 688.602 547.838C758.592 547.838 815.335 602.554 815.335 670.04C815.343 671.632 815.303 673.223 815.223 674.813C872.975 685.49 916.871 738.969 916.871 803.349C916.871 822.696 912.918 841.058 905.77 857.565L905.774 857.569Z" stroke="#103849" stroke-width="3.92125" stroke-miterlimit="10" stroke-linejoin="round"/>
<path d="M707.059 711.122C729.309 687.516 760.03 672.895 793.938 672.895C801.178 672.895 808.263 673.549 815.163 674.83M807.205 828.271C789.677 850.373 762.705 864.534 732.453 864.534C679.619 864.534 636.791 821.347 636.791 768.08C636.758 745.835 644.381 724.27 658.359 707.062" stroke="#103849" stroke-width="4.48173" stroke-miterlimit="10" stroke-linecap="round" stroke-linejoin="round"/>
<path d="M774.781 912.286C774.781 893.344 770.044 875.527 761.686 859.96M574.857 850.681C590.628 827.117 615.183 810.065 643.801 804.278M404.314 767.827C416.431 762.99 429.348 760.503 442.382 760.507C463.28 760.479 483.69 766.874 500.889 778.848M600.987 679.054C594.477 680.987 587.587 682.023 580.457 682.023C561.53 682.048 543.346 674.599 529.8 661.271M914.942 674.351C924.958 666.818 937.12 662.757 949.615 662.777C953.087 662.775 956.551 663.085 959.967 663.704" stroke="#103849" stroke-width="4.48173" stroke-miterlimit="10" stroke-linecap="round" stroke-linejoin="round"/>
<path d="M1050.41 709.311C1064.08 692.205 1071.54 670.995 1071.54 648.849C1071.54 595.639 1028.61 552.347 975.855 552.347C972.167 552.347 968.486 552.563 964.838 552.989C961.106 486.614 906.377 433.772 839.643 433.772C817.392 433.772 795.775 439.646 776.733 450.817C747.062 420.919 706.842 404.105 664.896 404.061C594.59 404.061 534.881 450.58 514.384 514.684C447.744 520.97 395.653 571.13 395.653 631.887C395.653 637.934 396.178 643.99 397.212 649.964C351.125 670.792 321.709 716.317 321.709 767.739C321.709 838.959 379.174 896.903 449.808 896.903C457.874 896.903 465.923 896.146 473.848 894.636C490.614 943.37 535.876 976.801 586.352 976.801C606.832 976.817 626.955 971.387 644.691 961.063C669.664 1006.14 719.617 1034.81 774.434 1034.81C841.172 1034.81 897.567 992.74 914.991 935.488C923.754 937.226 932.768 938.148 941.939 938.148C1018.81 938.148 1081.34 875.097 1081.34 797.61C1081.34 765.328 1070.41 734.237 1050.41 709.311Z" stroke="#103849" stroke-width="7.84292" stroke-miterlimit="10" stroke-linejoin="round"/>
<path d="M664.868 359C623.568 359 583.841 371.401 549.984 394.858C520.75 415.113 497.576 442.433 482.268 474.513C407.756 492.72 354.483 553.18 351.115 624.674C304.996 656.961 277 710.271 277 767.731C277 862.787 352.898 940.307 446.792 941.921C476.44 991.039 529.293 1021.85 586.323 1021.85C600.891 1021.85 615.209 1019.9 629.095 1016.04C665.037 1056.34 717.842 1079.85 774.404 1079.85C812.717 1079.85 849.829 1068.9 881.73 1048.18C907.653 1031.35 928.537 1009.12 942.99 983.186C1044.01 982.601 1125.99 899.575 1125.99 797.602C1125.99 766.097 1118.18 735.525 1103.25 708.191C1111.78 689.588 1116.19 669.336 1116.19 648.839C1116.19 611.717 1102 576.614 1076.23 550C1055.91 529.011 1030.19 515.145 1002.2 509.779C992.737 478.81 974.62 450.907 949.858 429.641C919.094 403.235 880.016 388.726 839.617 388.707C820.783 388.707 801.885 391.929 784.076 398.102C749.483 372.777 707.794 359 664.868 359ZM664.868 388.283C706.741 388.283 747.809 403.963 779.262 431.646C798.128 422.651 818.74 417.989 839.613 417.994C909.127 417.994 967.499 468.968 978.712 536.608C1038.76 538.161 1087.14 587.911 1087.14 648.841C1087.12 670.19 1081.08 691.093 1069.73 709.112C1087.35 735.01 1096.95 765.993 1096.95 797.602C1096.95 883.792 1027.4 953.911 941.909 953.911C936.379 953.911 930.828 953.607 925.306 953.006C901.45 1011.07 841.323 1050.57 774.4 1050.57C719.211 1050.57 668.636 1024.47 638.962 981.56C622.344 988.812 604.43 992.557 586.323 992.565C533.564 992.565 485.845 960.667 463.872 911.974C459.191 912.434 454.481 912.666 449.779 912.666C370.524 912.666 306.043 847.65 306.043 767.731C306.043 714.675 334.842 666.068 380.321 640.826C380.1 637.849 379.99 634.864 379.989 631.879C379.989 566.33 432.131 511.26 502.848 500.231C528.683 432.861 592.567 388.283 664.868 388.283Z" fill="#F0F0F0"/>
</g>
</g>
</g>
<defs>
<clipPath id="clip0_203_47">
<rect width="1440" height="1440" fill="white"/>
</clipPath>
<clipPath id="clip1_203_47">
<rect width="849" height="720.852" fill="white" transform="translate(277 359)"/>
</clipPath>
</defs>
</svg>
