<svg xmlns="http://www.w3.org/2000/svg" viewBox="0 0 494.42 494.44"><defs><style>.cls-1{fill:#f5f7e2;}.cls-2{fill:#f66;}.cls-3{fill:#d95e59;}.cls-4{fill:#388ce0;}.cls-5{fill:#094e8f;}</style></defs><g id="Layer_2" data-name="Layer 2"><g id="Layer_1-2" data-name="Layer 1"><g id="Artboard"><g id="pTokens-icon"><path id="Path" class="cls-1" d="M115.55,115.56c-72.71,72.71-72.71,190.61,0,263.32s190.61,72.71,263.32,0,72.71-190.61,0-263.32S188.26,42.85,115.55,115.56Z"/><path class="cls-2" d="M72.21,247.22A175,175,0,0,1,371,123.48L422,72.41C325.48-24.14,169-24.14,72.41,72.41s-96.55,253.07,0,349.61L123.47,371A174.45,174.45,0,0,1,72.21,247.22Z"/><path class="cls-3" d="M422,72.39l-51.07,51.07a175,175,0,0,1-7.88,254.91A247.33,247.33,0,0,1,422,422C518.56,325.48,518.56,168.94,422,72.39Z"/><path class="cls-3" d="M123.47,371,72.41,422a246.87,246.87,0,0,1,59-43.65C128.66,376,126,373.52,123.47,371Z"/><path id="Path-2" data-name="Path" class="cls-1" d="M422,422c-96.52,96.55-253,96.55-349.6,0C169,325.48,325.49,325.48,422,422Z"/></g></g></g><g id="Layer_4" data-name="Layer 4"><path class="cls-4" d="M198.68,177.9c.08-23.39,7.24-47.27,23-64.53,2.31-2.91,6.29-6.87,6.44-7.27,1.26-3.22,0-3.7-2.59-3.7a69.86,69.86,0,0,0-9.5,1.73,149.26,149.26,0,0,0-89.93,62.55,139.09,139.09,0,0,0-21,49.34,174.15,174.15,0,0,0-2.22,49.35,144,144,0,0,0,51.33,93.39c15.17,12.34,32.2,22.21,32.2,17.77a17.84,17.84,0,0,0-3.95-5.06,78.22,78.22,0,0,1-19.62-62.79,89.69,89.69,0,0,1,41.95-69.09,68.54,68.54,0,0,1,9.5-5.68c1.85,0,.74-3.7-3.83-12.33A85.26,85.26,0,0,1,198.68,177.9Z"/><path class="cls-5" d="M390,216.39a148.09,148.09,0,0,0-75-100.67c-6.91-3.82-10.37-4.68-10.37-2.34a17.61,17.61,0,0,0,3,5.43,67.81,67.81,0,0,1,12.34,37,49.36,49.36,0,0,1-12.34,38.49,13.32,13.32,0,0,1-18.62.74c-4.94-3.58-4.94-6-1.85-10.61a53.81,53.81,0,0,0,9.25-32.69,31.48,31.48,0,0,0-9.13-25.54,23.83,23.83,0,0,0-23.94-6.29,39.1,39.1,0,0,0-23.68,28.37,113,113,0,0,0-4.94,28.13,91.4,91.4,0,0,0,10.49,42,85.31,85.31,0,0,0,17.39,19.74,15.9,15.9,0,0,1,3.58,3.21,10.81,10.81,0,0,1-4.07,2.09,79.12,79.12,0,0,0-41,45.77,88.35,88.35,0,0,0-5.92,36.4,42.3,42.3,0,0,0,12.34,31.7,40.94,40.94,0,0,0,34.54,9.26,65,65,0,0,0,42.69-20.48c5.06-5.43,6-6.05,7-4.81s.74,2-1.11,5.05A92.56,92.56,0,0,1,258,388c-4.32,1.11-6.17,2-6.17,3,0,3.21,27-1.23,43.43-7a149.3,149.3,0,0,0,90.06-92,116.23,116.23,0,0,0,6.78-45.9A116.76,116.76,0,0,0,390,216.39Z"/></g></g></svg>