<svg xmlns="http://www.w3.org/2000/svg" viewBox="0 0 494.42 494.44"><defs><style>.cls-1{fill:#f5f7e2;}.cls-2{fill:#f66;}.cls-3{fill:#d95e59;}.cls-4{fill:#f3b84d;}.cls-5{fill:#f8d591;}.cls-6{fill:#fec96c;}.cls-7{fill:#e9a934;}</style></defs><g id="Livello_2" data-name="Livello 2"><g id="Layer_1" data-name="Layer 1"><g id="Artboard"><g id="pTokens-icon"><path id="Path" class="cls-1" d="M115.55,115.56c-72.71,72.71-72.71,190.61,0,263.32s190.61,72.71,263.32,0,72.71-190.61,0-263.32S188.26,42.85,115.55,115.56Z"/><path class="cls-2" d="M72.21,247.22A175,175,0,0,1,371,123.48L422,72.41C325.48-24.14,169-24.14,72.41,72.41s-96.55,253.07,0,349.61L123.47,371A174.43,174.43,0,0,1,72.21,247.22Z"/><path class="cls-3" d="M422,72.39l-51.07,51.07A175,175,0,0,1,371,371q-3.82,3.84-7.89,7.42A247.35,247.35,0,0,1,422,422C518.56,325.48,518.56,168.94,422,72.39Z"/><path class="cls-3" d="M123.47,371,72.41,422a246.85,246.85,0,0,1,59-43.65C128.66,376,126,373.52,123.47,371Z"/><path id="Path-2" class="cls-1" d="M422,422c-96.52,96.55-253,96.55-349.6,0C169,325.48,325.49,325.48,422,422Z"/></g></g><path class="cls-4" d="M103.14,238.52a139.79,139.79,0,0,1,5.89-33.7,148.65,148.65,0,0,1,34.84-60.27,26.09,26.09,0,0,1,2.95-3.18,3.22,3.22,0,0,1,.55.18l18.28,10.56c.39.23.78.42.78.95-8.77,8.3-16.71,17.25-22.77,27.81a144.28,144.28,0,0,0-11.37,23.88,124.49,124.49,0,0,0-7,34.2,127,127,0,0,0,.91,25.41c.45,3.16,1,6.31,1.51,9.46q-6.19,3.49-12.38,7a64,64,0,0,1-7.49,4.11,85.44,85.44,0,0,1-2.71-12,127.43,127.43,0,0,1-1.94-16.86c-.07-2,.27-3.92-.28-5.85v-7C103.43,241.67,103.08,240.09,103.14,238.52Z"/><path class="cls-5" d="M258.59,98.26c1.82.61,3.73.36,5.59.51a150.63,150.63,0,0,1,31.43,6A118.58,118.58,0,0,1,310,110a163.86,163.86,0,0,1,21.43,11.37,151.45,151.45,0,0,1,23,18,13.49,13.49,0,0,1,2.26,2,2.29,2.29,0,0,0-.28.07l-18.69,10.75a1,1,0,0,0-.63.88c-5.83-5-11.73-10-18.54-13.7-3.07-1.67-6-3.57-9.1-5.2a116.92,116.92,0,0,0-22.56-8.92,126.39,126.39,0,0,0-26.7-4.61c-2.86-.18-5.72-.07-8.58-.3q0-11,0-22.08Z"/><path class="cls-6" d="M251.59,98.26q0,11,0,22.08A135.5,135.5,0,0,0,226,123c-15.8,3.23-30.27,9.61-43.92,18a117.21,117.21,0,0,0-15.67,12.06c0-.53-.39-.72-.78-.95l-18.28-10.56a3.22,3.22,0,0,0-.55-.18,187.07,187.07,0,0,1,17.35-14.57,148.17,148.17,0,0,1,55-24.92,128.43,128.43,0,0,1,24-3.33c1.55-.11,3.14.32,4.66-.29Z"/><path class="cls-5" d="M102.86,250.2c.55,1.93.21,3.9.28,5.85l-.14,0-.14,0Z"/><path class="cls-5" d="M103.14,238.52c-.06,1.57.29,3.15-.28,4.69v-4.67A.54.54,0,0,0,103.14,238.52Z"/><path class="cls-5" d="M247.8,98.26c-1.52.61-3.11.18-4.66.29v-.29Z"/><path class="cls-4" d="M395.68,284.91a10.39,10.39,0,0,1-.61,2.69,96.94,96.94,0,0,1-5.58,16.95,155.38,155.38,0,0,1-23.89,38.81,150.32,150.32,0,0,1-49.4,38.26,106.17,106.17,0,0,1-17.5,7.13c-8.63,2.41-17.29,4.73-26.22,5.84A139.12,139.12,0,0,1,251.59,396q0-10.86,0-21.71a135.65,135.65,0,0,0,18.57-1.34,125.11,125.11,0,0,0,42-14c23-12.72,40.49-30.82,52.81-54a117.08,117.08,0,0,0,7.38-17.56c1.51-4.45,2.56-9,3.78-13.56,4.94,2.51,9.6,5.53,14.46,8.18C392.3,282.93,393.8,284.26,395.68,284.91Z"/><path class="cls-7" d="M251.58,374.26q0,10.85,0,21.71a115.57,115.57,0,0,1-17.15-.93,169.47,169.47,0,0,1-26.17-5.47c-18.48-5.16-34.81-14.34-49.78-26.14a115,115,0,0,1-12.43-11.22,158.7,158.7,0,0,1-30.47-44.81A148.22,148.22,0,0,1,108,286.19c-.12-.41-.17-.85-.25-1.27a64,64,0,0,0,7.49-4.11q6.19-3.48,12.38-7a7.75,7.75,0,0,1,.28.81,123.18,123.18,0,0,0,17.61,42,127.25,127.25,0,0,0,91.08,56.7C241.6,373.93,246.59,374.14,251.58,374.26Z"/><path class="cls-6" d="M395.68,284.91c-1.88-.65-3.38-2-5.11-2.91-4.86-2.65-9.52-5.67-14.46-8.18a6.25,6.25,0,0,1,.07-.87,113.32,113.32,0,0,0,2.48-19.14,136.67,136.67,0,0,0-.42-18.76,123.22,123.22,0,0,0-5-24.89,127.37,127.37,0,0,0-36.22-57.09,1,1,0,0,1,.63-.88l18.69-10.75a2.29,2.29,0,0,1,.28-.07,130.47,130.47,0,0,1,16.46,19.21,140.37,140.37,0,0,1,20.27,40.1,166,166,0,0,1,5.21,21.87,149.4,149.4,0,0,1-2.68,62A1.29,1.29,0,0,1,395.68,284.91Z"/><path class="cls-4" d="M312,235.62c-7.07,4.62-14.6,8.44-21.85,12.9V342l-9.56,5.56-27.87,16.07a7.83,7.83,0,0,1-.79.34V340.64l13.65-7.31V323l-4-2.36V304.48l6.07-3.56V280.11l-6.07-3.54V262.52l8.22-4.78V236.91a3,3,0,0,1,.39-.37l21.95-12.63a2.74,2.74,0,0,1,1.21.42c5.5,3.18,11,6.31,16.52,9.53C310.58,234.32,311.55,234.66,312,235.62Z"/><path class="cls-7" d="M251.6,364c-4.41-2.25-8.62-4.86-12.9-7.33-7.14-4.13-14.24-8.32-21.35-12.49-.33-.2-.65-.42-1-.67V250l-24.57-14.26c0-.7.56-.94,1.08-1.24,4.72-2.73,9.4-5.52,14.15-8.18,1.54-.87,2.94-2,4.73-2.42.3.15.62.28.91.45L233,236.28l3.25,1.9v93.5l15.39,9Q251.59,352.3,251.6,364Z"/><path class="cls-7" d="M170.8,249a111,111,0,0,0,2,15.72,79.73,79.73,0,0,0,23,40.76,61.52,61.52,0,0,0,8,6.51v24.14a3.86,3.86,0,0,1-2-.86,104.76,104.76,0,0,1-31.61-28c-9.79-12.94-15.64-27.48-18.46-43.35-.12-.67-.16-1.35-.23-2Z"/><path class="cls-4" d="M352.15,260.72a52.28,52.28,0,0,1-1.69,9.86,96.17,96.17,0,0,1-15.58,34.72,106.78,106.78,0,0,1-23.07,23.52c-2.89,2.14-5.83,4.14-9.1,6.1V310a84.7,84.7,0,0,0,6.63-5.82c11.23-12.05,18.92-26,21.9-42.32a132.29,132.29,0,0,0,1.42-13.16,3.09,3.09,0,0,1,.66.25q8.56,5.5,17.13,11A2.94,2.94,0,0,0,352.15,260.72Z"/><path class="cls-4" d="M170.8,249,151.43,261.9a95.87,95.87,0,0,1-.79-23.08,97.38,97.38,0,0,1,7.06-29.6,101.23,101.23,0,0,1,20-31.25c.21-.23.37-.59.82-.54.29.43.14.92.14,1.38q0,16.33,0,32.66a6,6,0,0,1-.56,2.53A76.61,76.61,0,0,0,171,243.08C171,245.07,170.88,247.05,170.8,249Z"/><path class="cls-6" d="M352.15,260.72a2.94,2.94,0,0,1-1.7-.71q-8.55-5.52-17.13-11a3.09,3.09,0,0,0-.66-.25,83.81,83.81,0,0,0-3.19-23.83,77.45,77.45,0,0,0-4-10.62,6.91,6.91,0,0,1-.7-3.07q0-16.11,0-32.2v-1.56l.31-.16c1,1.11,2.1,2.19,3.08,3.33A103.29,103.29,0,0,1,350,222a104.65,104.65,0,0,1,3,31.86A25.55,25.55,0,0,1,352.15,260.72Z"/><path class="cls-5" d="M251.59,130.64c1.1,0,1.87.77,2.73,1.26,4.43,2.5,8.77,5.18,13.25,7.6,14.29,7.71,28.17,16.14,42.27,24.19a6.29,6.29,0,0,1,2.46,1.91c-1.09.22-1.76,1.14-2.68,1.66-4.25,2.38-8.51,4.75-12.69,7.26-1.42.85-3.08,1.4-4.2,2.74l-1.13-.66q-13.94-8-27.86-16.09c-4-2.32-8.1-4.58-12.16-6.87Q251.6,142.14,251.59,130.64Z"/><path class="cls-6" d="M251.59,130.64q0,11.51,0,23c-.2.14-.39.29-.59.41-8.41,4.91-16.92,9.64-25.23,14.7-4.84,2.94-9.81,5.67-14.71,8.49-.53-.92-1.56-1.13-2.38-1.6-5.82-3.37-11.66-6.7-17.5-10,.08-.6.63-.68,1-.91,11.54-6.69,23.11-13.33,34.62-20.07,2.22-1.29,4.34-2.76,6.64-3.9,6.08-3,11.79-6.69,17.71-10A1.84,1.84,0,0,1,251.59,130.64Z"/><path class="cls-4" d="M211.7,223.92c-1.79.38-3.19,1.55-4.73,2.42-4.75,2.66-9.43,5.45-14.15,8.18-.52.3-1,.54-1.08,1.24a.79.79,0,0,1-.61-.87c0-.2,0-.39,0-.58q-.06-22.08-.11-44.17a11.51,11.51,0,0,1,.12-1.15l.5-.12h19.75v1.64q0,15.81,0,31.6C211.38,222.73,211.22,223.39,211.7,223.92Z"/><path class="cls-6" d="M312,235.62c-.41-1-1.38-1.3-2.16-1.76-5.49-3.22-11-6.35-16.52-9.53a2.74,2.74,0,0,0-1.21-.42c.48-.53.33-1.19.33-1.8q0-15.81,0-31.62c0-.55-.2-1.16.33-1.77,6.33.1,12.73-.18,19.13.16l.52.12c0,2.67.1,5.34.09,8q-.06,18.59-.16,37.16C312.32,234.66,312.57,235.26,312,235.62Z"/><path class="cls-4" d="M191.17,165.59c5.84,3.35,11.68,6.68,17.5,10,.82.47,1.85.68,2.38,1.6l-1.62,1-17.85,10.22-.49-.07q0-10.51-.07-21A16.83,16.83,0,0,1,191.17,165.59Z"/><path class="cls-6" d="M292.73,177.26c1.12-1.34,2.78-1.89,4.2-2.74,4.18-2.51,8.44-4.88,12.69-7.26.92-.52,1.59-1.44,2.68-1.66a1.88,1.88,0,0,1,.17.54q0,11.1-.05,22.2l-.52.08c-.65-.4-1.29-.83-2-1.21Z"/><path class="cls-6" d="M251.6,364q0-11.67,0-23.32h.3V364C251.79,364.16,251.69,364.17,251.6,364Z"/><path class="cls-6" d="M191.09,188.35l.49.07c0,.15,0,.3,0,.45l-.5.12C191.12,188.78,191.1,188.56,191.09,188.35Z"/><path class="cls-5" d="M311.9,188.42l.52-.08c0,.22,0,.44,0,.66l-.53-.12Z"/><path class="cls-5" d="M251.59,173.82c1.56.28,2.77,1.32,4.09,2.07,5.92,3.37,11.79,6.81,17.68,10.23.37.21.82.33,1,.79-4.64,2.67-9.31,5.29-13.91,8-2.85,1.7-5.84,3.17-8.55,5.1h-.28l0,0a1.31,1.31,0,0,0,0-.28Z"/><path class="cls-6" d="M251.89,200c2.71-1.93,5.7-3.4,8.55-5.1,4.6-2.74,9.27-5.36,13.91-8a1.58,1.58,0,0,1,.2,1.12q0,11.86,0,23.72c0,.48.37,1.38-.78,1.16-2.95-2.12-6.22-3.72-9.33-5.56C260.27,204.88,256.07,202.48,251.89,200Z"/><path class="cls-4" d="M251.57,199.77a1.31,1.31,0,0,1,0,.28c-4.18,2.43-8.37,4.84-12.53,7.3-3.12,1.84-6.37,3.47-9.34,5.55-.6.12-.77-.21-.77-.74q0-12.49.05-25c0-.09.08-.17.13-.26,3.41,2,6.81,4,10.24,6C243.42,195.2,247.5,197.47,251.57,199.77Z"/><path class="cls-6" d="M251.57,199.77c-4.07-2.3-8.15-4.57-12.21-6.89-3.43-2-6.83-4-10.24-6a28.92,28.92,0,0,1,5-3.12q8.7-5,17.44-10Q251.58,186.8,251.57,199.77Z"/><path class="cls-4" d="M251.89,200c4.18,2.44,8.38,4.84,12.54,7.31,3.11,1.84,6.38,3.44,9.33,5.56-6.39,0-12.78.05-19.17,0-1,0-2,.39-3-.05v-.3c.47-.43.27-1,.28-1.51q0-5.5,0-11Z"/><path class="cls-7" d="M251.6,212.58v.3c-7.29.14-14.59.11-21.88,0,3-2.08,6.22-3.71,9.34-5.55,4.16-2.46,8.35-4.87,12.53-7.3l0,0Q251.59,206.32,251.6,212.58Z"/><path class="cls-6" d="M251.6,212.58q0-6.27,0-12.55h.28q0,5.52,0,11C251.87,211.58,252.07,212.15,251.6,212.58Z"/></g></g></svg>