<svg id="Layer_1" data-name="Layer 1" xmlns="http://www.w3.org/2000/svg" xmlns:xlink="http://www.w3.org/1999/xlink" viewBox="0 0 500 500"><defs><style>.cls-1{fill:#f66;}.cls-2{fill:#da5f5a;}.cls-3{fill:#f5f7e2;}.cls-4{fill:#fff;}.cls-5{fill:url(#Sfumatura_senza_nome_3);}.cls-6{fill:url(#Sfumatura_senza_nome_2);}.cls-7{fill:url(#Sfumatura_senza_nome_4);}.cls-8{fill:url(#Sfumatura_senza_nome_4-2);}</style><linearGradient id="Sfumatura_senza_nome_3" x1="133.3" y1="300.74" x2="281.04" y2="300.74" gradientTransform="matrix(1, 0, 0, -1, 0, 500.72)" gradientUnits="userSpaceOnUse"><stop offset="0.42" stop-color="#fabd09"/><stop offset="0.83" stop-color="#fa6b00"/></linearGradient><linearGradient id="Sfumatura_senza_nome_2" x1="133.3" y1="231.36" x2="281.04" y2="231.36" gradientTransform="matrix(1, 0, 0, -1, 0, 500.72)" gradientUnits="userSpaceOnUse"><stop offset="0.25" stop-color="#e700ff"/><stop offset="0.32" stop-color="#e804f9"/><stop offset="0.41" stop-color="#e90ee8"/><stop offset="0.52" stop-color="#ec1fcc"/><stop offset="0.64" stop-color="#f037a5"/><stop offset="0.76" stop-color="#f45672"/><stop offset="0.89" stop-color="#fa7a36"/><stop offset="1" stop-color="#ff9b00"/></linearGradient><linearGradient id="Sfumatura_senza_nome_4" x1="207.71" y1="284.23" x2="361.45" y2="284.23" gradientTransform="matrix(1, 0, 0, -1, 0, 500.72)" gradientUnits="userSpaceOnUse"><stop offset="0" stop-color="#baff8e"/><stop offset="0.63" stop-color="#008ebb"/></linearGradient><linearGradient id="Sfumatura_senza_nome_4-2" x1="336.26" y1="325.01" x2="219.8" y2="24.39" xlink:href="#Sfumatura_senza_nome_4"/></defs><path class="cls-1" d="M73.29,73.29c-97.72,97.73-97.72,255.94,0,353.42L426.71,73.29C329.23-24.43,170.77-24.43,73.29,73.29Z"/><path class="cls-2" d="M426.71,426.71C329.23,329,170.77,329,73.29,426.71L426.71,73.29C524.43,170.77,524.43,329.23,426.71,426.71Z"/><path class="cls-3" d="M426.71,426.71c-97.48,97.72-255.94,97.72-353.42,0C170.77,329.23,329.23,329.23,426.71,426.71Z"/><path class="cls-3" d="M247.5,75,95.79,200v85.84L248.25,425l151-128.68V200Z"/><path class="cls-4" d="M247.5,120.28,135,185.27V315l113,64.74L360,315V185.27Z"/><polygon points="314.15 153.34 313.86 153.13 297.52 139.57 297.52 139.57 245.24 96.23 112.03 210.26 112.03 282.15 175.59 340.22 175.59 340.22 245.09 403.77 382.72 287.22 382.72 210.21 314.15 153.34"/><polygon class="cls-5" points="281.04 153.51 245.48 124 133.3 220.04 133.3 272.78 136.78 275.97 211.38 212.37 281.04 153.51"/><polygon class="cls-6" points="264.6 264.58 211.38 212.37 136.78 275.97 191.9 326.36 264.6 264.58"/><polygon class="cls-7" points="357.71 217.08 297.66 167.28 242.91 213.55 296.1 265.71 357.66 217.11 357.71 217.08"/><polygon class="cls-8" points="357.66 217.11 296.1 265.71 207.71 340.82 245.62 375.47 361.45 277.39 361.45 220.21 357.71 217.08 357.66 217.11"/></svg>