<?xml version="1.0" encoding="utf-8"?>
<!-- Generator: Adobe Illustrator 24.3.0, SVG Export Plug-In . SVG Version: 6.00 Build 0)  -->
<svg version="1.1" id="Livello_1" xmlns="http://www.w3.org/2000/svg" xmlns:xlink="http://www.w3.org/1999/xlink" x="0px" y="0px"
	 viewBox="0 0 200 200" style="enable-background:new 0 0 200 200;" xml:space="preserve">
<style type="text/css">
	.st0{fill:#FF6666;}
	.st1{fill:#DA5F5A;}
	.st2{fill:#F5F7E2;}
	.st3{fill:#FFFFFF;}
	.st4{fill:#2A5ADA;}
</style>
<path class="st0" d="M29.3,29.3c-39.1,39.1-39.1,102.4,0,141.4L170.7,29.3C131.7-9.8,68.3-9.8,29.3,29.3z"/>
<path class="st1" d="M170.7,170.7c-39-39.1-102.4-39.1-141.4,0L170.7,29.3C209.8,68.3,209.8,131.7,170.7,170.7z"/>
<path class="st2" d="M170.7,170.7c-39,39.1-102.4,39.1-141.4,0C68.3,131.7,131.7,131.7,170.7,170.7z"/>
<path class="st2" d="M99,30L38.3,65v70l61,35l60.4-35V65C159.7,65,99,30,99,30z"/>
<path class="st3" d="M99,48.1L54,74.1v51.9l45.2,25.9l44.8-25.9V74.1C144,74.1,99,48.1,99,48.1z"/>
<path class="st4" d="M99,37.5L44.8,68.8v62.5l54.5,31.3l53.8-31.3V68.8C153.2,68.8,99,37.5,99,37.5z M67.7,118.1V81.9l31.3-18
	L130.2,82v36.2l-31.3,18L67.7,118.1z"/>
</svg>
