<svg xmlns="http://www.w3.org/2000/svg" viewBox="0 0 494.42 494.44"><title>pLRC_1</title><g id="Layer_2" data-name="Layer 2"><g id="Layer_1-2" data-name="Layer 1"><g id="Artboard"><g id="pTokens-icon"><path d="M72.75,248.09a175,175,0,0,1,298-124.44L422,72.41C325.48-24.14,169-24.14,72.41,72.41s-96.55,253.07,0,349.61l50.9-50.9A174.48,174.48,0,0,1,72.75,248.09Z" fill="#f66"/><circle id="Bigger_hole_ellipse" data-name="Bigger hole ellipse" cx="247.75" cy="248.09" r="175" fill="#f5f7e2"/><path d="M123.31,371.12,72.41,422a247.37,247.37,0,0,1,58.69-43.51Q127.1,374.94,123.31,371.12Z" fill="#d95e59"/><path d="M422,72.39l-51.24,51.25A175,175,0,0,1,364,378.88,247.08,247.08,0,0,1,422,422C518.56,325.48,518.56,168.94,422,72.39Z" fill="#d95e59"/><path id="Path" d="M422,422c-96.52,96.55-253,96.55-349.6,0C169,325.48,325.49,325.48,422,422Z" fill="#f5f7e2"/><circle id="Bigger_hole_ellipse-2" data-name="Bigger hole ellipse" cx="247.21" cy="247.55" r="145" fill="#fff"/></g></g></g><g id="Layer_4" data-name="Layer 4"><path id="Path-2" data-name="Path" d="M268.1,244.5H377.74v.87L206.31,349.79l85.28-67.87ZM203.7,143.56v208l-87-69.61Z" fill="#1c60ff"/></g></g></svg>