<svg xmlns="http://www.w3.org/2000/svg" viewBox="0 0 494.42 494.44">
  <defs>
    <style>
      .cls-1 {
        fill: #f5f7e2;
      }

      .cls-2 {
        fill: #f66;
      }

      .cls-3 {
        fill: #d95e59;
      }

      .cls-4 {
        fill: #212323;
        isolation: isolate;
      }
    </style>
  </defs>
  <g id="Livello_2" data-name="Livello 2">
    <g id="Layer_1" data-name="Layer 1">
      <g id="Artboard">
        <g id="pTokens-icon">
          <path id="Path" class="cls-1" d="M115.55,115.56c-72.71,72.71-72.71,190.61,0,263.32s190.61,72.71,263.32,0,72.71-190.61,0-263.32S188.26,42.85,115.55,115.56Z"/>
          <path class="cls-2" d="M72.21,247.22A175,175,0,0,1,371,123.48L422,72.41C325.48-24.14,169-24.14,72.41,72.41s-96.55,253.07,0,349.61L123.47,371A174.43,174.43,0,0,1,72.21,247.22Z"/>
          <path class="cls-3" d="M422,72.39l-51.07,51.07A175,175,0,0,1,371,371q-3.82,3.84-7.89,7.42A247.35,247.35,0,0,1,422,422C518.56,325.48,518.56,168.94,422,72.39Z"/>
          <path class="cls-3" d="M123.47,371,72.41,422a246.85,246.85,0,0,1,59-43.65C128.66,376,126,373.52,123.47,371Z"/>
          <path id="Path-2" class="cls-1" d="M422,422c-96.52,96.55-253,96.55-349.6,0C169,325.48,325.49,325.48,422,422Z"/>
        </g>
      </g>
      <path class="cls-4" d="M388.06,221.88a6.38,6.38,0,0,0-2.16-.38,6.52,6.52,0,0,0-1.38.29L333,167.31a6.17,6.17,0,0,0,1.25-3.56,6.28,6.28,0,0,0-12-2.66l-35.56-6.76v-.06A6.29,6.29,0,0,0,280.4,148a6.22,6.22,0,0,0-6.11,5.34H222.67a6.23,6.23,0,0,0-12.4,1c0,.09,0,.17,0,.26l-36.49,6.55a6.27,6.27,0,0,0-12,2.66,6.15,6.15,0,0,0,1.09,3.34L111,222a6.19,6.19,0,0,0-2.48-.52,6.3,6.3,0,0,0,0,12.6,6,6,0,0,0,3-.87L242.21,369.66a6.14,6.14,0,0,0-.63,2.65,6.31,6.31,0,0,0,12.61,0,6.13,6.13,0,0,0-.64-2.66l130.28-136a6.26,6.26,0,1,0,4.23-11.79ZM380,229.71l-64.37,36a6.28,6.28,0,0,0-5.7-3.71h0a6,6,0,0,0-1.19.25l-14.82-40.16a6.28,6.28,0,0,0,3.86-5.8,6,6,0,0,0-.83-2.95l26.61-22.61a6,6,0,0,0,3.67,1.31,6.28,6.28,0,0,0,4.55-2l49.29,33.85a6.18,6.18,0,0,0-1.45,3.87A5.6,5.6,0,0,0,380,229.71Zm-76.38,38.63a3.33,3.33,0,0,0,.11.53H192.63c0-.19.11-.35.11-.53a6.22,6.22,0,0,0-3.21-5.37l16.31-40.49a3.8,3.8,0,0,0,.67.14,6.23,6.23,0,0,0,5.91-4.39h73.15a6.25,6.25,0,0,0,5.92,4.39s0,0,.08,0l15,40.58a6.18,6.18,0,0,0-2.92,5.16Zm18.06-104.93c0,.11-.06.22-.06.33a6.14,6.14,0,0,0,9.63,5.21l48.34,51.1-46.56-32a6.25,6.25,0,0,0-3.43-8.15,6.14,6.14,0,0,0-2.4-.46,6.3,6.3,0,0,0-4.28,1.72L286.7,156.75Zm-109.38-4.54a6.15,6.15,0,0,0,10.28-3.18H274.4a6.14,6.14,0,0,0,10.63,2.8l36.51,24.64a6,6,0,0,0-.62,2.63,6.15,6.15,0,0,0,1,3.23l-26.51,22.52a6.13,6.13,0,0,0-10.15,4.33H212.73a6.17,6.17,0,0,0-10.32-4.22l-30.33-22.81a5.91,5.91,0,0,0,.36-5.55Zm-47.7,9.92a6.17,6.17,0,0,0,3.56,1.25,6.3,6.3,0,0,0,6.29-6.3c0-.12-.07-.22-.07-.34l36.45-6.56,0,.08-39.81,24.36A6.26,6.26,0,0,0,160.81,188l-44,31.33Zm-2.53,21.26a6.06,6.06,0,0,0,8.44.58l30.41,22.88a6.42,6.42,0,0,0-.74,2.81,6.26,6.26,0,0,0,3.35,5.47l-16.28,40.42a6.11,6.11,0,0,0-.83-.17h0a6.27,6.27,0,0,0-5.83,4l-66-37a4.79,4.79,0,0,0-.85-4.59Zm-48.75,41.66c.1-.14.19-.3.29-.44l66.55,37.24a6.28,6.28,0,0,0,6.26,6.13c.1,0,.18-.05.27-.05l53.64,89.68ZM251,367a5.66,5.66,0,0,0-6.26,0l-55.61-93a6.26,6.26,0,0,0,2.82-2.73h112.5a6.29,6.29,0,0,0,2.36,2.44Zm4.35-2.65,53.75-89.84a7.17,7.17,0,0,0,.83.17,6.28,6.28,0,0,0,6.29-6.3h0c0-.07,0-.12,0-.19l65-36.35a4.76,4.76,0,0,0,.57.62Z"/>
    </g>
  </g>
</svg>
