<?xml version="1.0" encoding="utf-8"?>
<!-- Generator: Adobe Illustrator 25.0.0, SVG Export Plug-In . SVG Version: 6.00 Build 0)  -->
<svg version="1.1" id="Livello_1" xmlns="http://www.w3.org/2000/svg" xmlns:xlink="http://www.w3.org/1999/xlink" x="0px" y="0px"
	 viewBox="0 0 200 200" style="enable-background:new 0 0 200 200;" xml:space="preserve">
<style type="text/css">
	.st0{fill:#FF6666;}
	.st1{fill:#DA5F5A;}
	.st2{fill-rule:evenodd;clip-rule:evenodd;fill:#F5F7E2;}
	.st3{fill:#F5F7E2;}
	.st4{fill:#1AAB9B;}
	.st5{fill:#FFFFFF;}
</style>
<path class="st0" d="M29.3,29.3c-39.1,39.1-39.1,102.4,0,141.4L170.7,29.3C131.7-9.8,68.3-9.8,29.3,29.3z"/>
<path class="st1" d="M170.7,170.7c-39-39.1-102.4-39.1-141.4,0L170.7,29.3C209.8,68.3,209.8,131.7,170.7,170.7z"/>
<ellipse class="st2" cx="100" cy="100" rx="70.5" ry="70.5"/>
<path class="st3" d="M170.7,170.7c-39,39.1-102.4,39.1-141.4,0C68.3,131.7,131.7,131.7,170.7,170.7z"/>
<path class="st4" d="M100,40c-33.2,0-60,26.8-60,60s26.8,60,60,60s60-26.8,60-60S133.2,40,100,40z M97.1,120.1
	c0,1.3-1.2,2.5-2.7,2.5c-1.5,0-2.7-1.1-2.7-2.5V99.9l-21.7-15V120c0,1.4-1.1,2.5-2.7,2.5c-1.5,0-2.7-1.1-2.7-2.5V80
	c0-1.4,1.1-2.5,2.7-2.5c0.6,0,1.1,0.2,1.5,0.5l27,18.7c0.7,0.4,1.1,1.2,1.1,2V120.1z M135.2,120c0,1.4-1.1,2.5-2.7,2.5
	c-1.5,0-2.7-1.1-2.7-2.5V84.9l-21.7,15V120c0,1.4-1.2,2.5-2.7,2.5c-1.5,0-2.7-1.1-2.7-2.5V98.6c0-0.8,0.4-1.6,1.1-2L131,78
	c0.4-0.3,0.9-0.5,1.5-0.5c1.3,0,2.7,0.9,2.7,2.5V120z"/>
<path class="st5" d="M97.1,120.1c0,1.3-1.2,2.5-2.7,2.5c-1.5,0-2.7-1.1-2.7-2.5V99.9l-21.7-15V120c0,1.4-1.1,2.5-2.7,2.5
	c-1.5,0-2.7-1.1-2.7-2.5V80c0-1.4,1.1-2.5,2.7-2.5c0.6,0,1.1,0.2,1.5,0.5l27,18.7c0.7,0.4,1.1,1.2,1.1,2V120.1z M135.2,120
	c0,1.4-1.1,2.5-2.7,2.5c-1.5,0-2.7-1.1-2.7-2.5V84.9l-21.7,15V120c0,1.4-1.2,2.5-2.7,2.5c-1.5,0-2.7-1.1-2.7-2.5V98.6
	c0-0.8,0.4-1.6,1.1-2L131,78c0.4-0.3,0.9-0.5,1.5-0.5c1.3,0,2.7,0.9,2.7,2.5V120z"/>
</svg>
