<?xml version="1.0" encoding="UTF-8"?>
<svg xmlns="http://www.w3.org/2000/svg" xmlns:xlink="http://www.w3.org/1999/xlink" width="160pt" height="160pt" viewBox="0 0 160 160" version="1.1">
<g id="surface1">
<path style=" stroke:none;fill-rule:nonzero;fill:rgb(100%,100%,100%);fill-opacity:1;" d="M 53.199219 11.199219 L 109.199219 11.199219 L 109.199219 67.199219 L 53.199219 67.199219 Z M 53.199219 11.199219 "/>
<path style=" stroke:none;fill-rule:nonzero;fill:rgb(51%,51%,51%);fill-opacity:1;" d="M 135.121094 24.878906 L 24.878906 135.121094 C 55.359375 104.71875 104.71875 104.71875 135.121094 135.121094 C 149.28125 121.039062 158 101.519531 158 79.921875 C 158 58.480469 149.28125 38.960938 135.121094 24.878906 Z M 91.199219 157.199219 C 89.359375 157.441406 87.519531 157.679688 85.601562 157.839844 C 87.441406 157.679688 89.359375 157.441406 91.199219 157.199219 Z M 91.199219 157.199219 "/>
<path style=" stroke:none;fill-rule:nonzero;fill:rgb(58%,58%,58%);fill-opacity:1;" d="M 134.078125 23.839844 C 133.761719 23.519531 133.359375 23.199219 133.039062 22.800781 C 132.238281 22 131.359375 21.28125 130.480469 20.558594 C 130.320312 20.398438 130.078125 20.238281 129.921875 20.078125 L 128.480469 18.878906 C 127.679688 18.238281 126.960938 17.679688 126.160156 17.121094 C 125.121094 16.320312 124 15.601562 122.960938 14.878906 C 122.398438 14.480469 121.839844 14.160156 121.359375 13.839844 C 119.679688 12.800781 118 11.839844 116.320312 10.960938 C 115.761719 10.640625 115.199219 10.398438 114.640625 10.078125 C 113.519531 9.519531 112.320312 8.960938 111.199219 8.480469 C 109.601562 7.761719 107.921875 7.121094 106.320312 6.558594 C 105.519531 6.320312 104.800781 6 104 5.761719 C 103.519531 5.601562 103.121094 5.519531 102.640625 5.359375 C 99.359375 4.398438 96 3.601562 92.558594 3.039062 C 92.078125 2.960938 91.679688 2.878906 91.28125 2.800781 C 90.320312 2.640625 89.441406 2.558594 88.480469 2.480469 C 87.519531 2.398438 86.640625 2.320312 85.679688 2.238281 C 84.878906 2.160156 84 2.160156 83.121094 2.078125 L 81.921875 2.078125 C 80.398438 2 78.878906 2.078125 77.441406 2.078125 C 76.960938 2.078125 76.558594 2.078125 76.078125 2.160156 C 75.519531 2.160156 74.960938 2.238281 74.398438 2.238281 C 73.839844 2.238281 73.199219 2.320312 72.640625 2.398438 C 72 2.480469 71.359375 2.480469 70.800781 2.640625 C 70.320312 2.71875 69.921875 2.71875 69.441406 2.800781 C 69.199219 2.800781 68.960938 2.878906 68.71875 2.878906 C 68.160156 2.960938 67.679688 3.039062 67.121094 3.121094 C 66.480469 3.199219 65.921875 3.359375 65.28125 3.441406 C 64.800781 3.519531 64.320312 3.601562 63.839844 3.761719 C 63.519531 3.839844 63.28125 3.921875 62.960938 3.921875 C 62.480469 4 62.238281 4 62 4.078125 C 61.679688 4.160156 61.359375 4.238281 60.960938 4.320312 C 60.558594 4.398438 60.238281 4.480469 59.839844 4.640625 C 59.679688 4.640625 59.441406 4.71875 59.199219 4.800781 L 58.238281 5.039062 C 57.839844 5.121094 57.519531 5.28125 57.199219 5.359375 C 56.960938 5.441406 56.800781 5.519531 56.558594 5.601562 C 56.078125 5.761719 55.601562 5.921875 55.199219 6.078125 C 55.039062 6.078125 54.960938 6.160156 54.800781 6.238281 C 54.238281 6.398438 53.761719 6.640625 53.199219 6.800781 C 52.558594 6.960938 52 7.199219 51.441406 7.441406 C 50.558594 7.761719 49.679688 8.160156 48.800781 8.558594 C 47.921875 8.960938 47.039062 9.359375 46.238281 9.761719 L 44.800781 10.480469 L 43.359375 11.199219 C 29.761719 18.480469 18.558594 29.679688 11.28125 43.28125 L 10.558594 44.71875 L 9.839844 46.160156 C 9.441406 47.039062 9.039062 47.839844 8.640625 48.71875 C 8.238281 49.601562 7.921875 50.480469 7.519531 51.359375 C 7.199219 52 6.960938 52.558594 6.71875 53.199219 L 6.238281 54.640625 C 6.160156 54.960938 6 55.28125 5.921875 55.601562 C 5.839844 55.839844 5.761719 56.160156 5.679688 56.398438 C 5.519531 56.800781 5.441406 57.199219 5.28125 57.601562 C 5.199219 57.761719 5.199219 57.921875 5.121094 58.078125 C 4.960938 58.558594 4.800781 59.121094 4.71875 59.601562 C 4.71875 59.679688 4.71875 59.761719 4.640625 59.839844 C 4.480469 60.320312 4.398438 60.800781 4.238281 61.28125 C 4.160156 61.519531 4.078125 61.761719 4.078125 62 C 4 62.398438 3.921875 62.71875 3.839844 63.121094 C 3.761719 63.28125 3.761719 63.441406 3.679688 63.679688 C 3.601562 64.238281 3.441406 64.71875 3.359375 65.28125 C 3.199219 65.921875 3.121094 66.480469 3.039062 67.121094 C 2.960938 67.761719 2.800781 68.320312 2.71875 68.960938 C 2.558594 69.921875 2.480469 70.800781 2.398438 71.761719 C 2.320312 72.71875 2.238281 73.601562 2.160156 74.558594 C 2.078125 75.359375 2.078125 76.238281 2 77.121094 L 2 78.320312 C 1.921875 79.839844 2 81.359375 2 82.800781 C 2 83.28125 2 83.679688 2.078125 84.160156 C 2.078125 84.71875 2.160156 85.28125 2.160156 85.921875 C 2.160156 86.480469 2.238281 87.121094 2.320312 87.679688 C 2.398438 88.238281 2.398438 88.800781 2.480469 89.441406 L 2.480469 89.601562 C 2.558594 90 2.558594 90.398438 2.640625 90.800781 C 2.71875 91.121094 2.71875 91.519531 2.800781 91.839844 C 2.800781 92 2.878906 92.160156 2.878906 92.320312 C 2.960938 92.800781 3.039062 93.359375 3.121094 93.839844 L 3.121094 94.078125 C 3.199219 94.640625 3.359375 95.28125 3.441406 95.839844 C 3.519531 96.320312 3.679688 96.878906 3.761719 97.359375 C 7.039062 112 14.480469 125.039062 24.71875 135.28125 L 135.121094 24.878906 C 134.800781 24.480469 134.398438 24.160156 134.078125 23.839844 Z M 93.679688 52.398438 C 86.160156 60.078125 73.839844 60.078125 66.160156 52.398438 C 58.558594 44.800781 58.558594 32.398438 66.160156 24.878906 C 73.761719 17.359375 86.160156 17.28125 93.679688 24.878906 C 101.199219 32.480469 101.28125 44.878906 93.679688 52.398438 Z M 93.679688 52.398438 "/>
<path style=" stroke:none;fill-rule:nonzero;fill:rgb(95%,95%,95%);fill-opacity:1;" d="M 135.121094 135.199219 C 128.960938 141.359375 121.761719 146.480469 113.839844 150.320312 C 112.160156 151.121094 110.398438 151.921875 108.640625 152.558594 C 108.078125 152.800781 107.441406 153.039062 106.878906 153.199219 C 106.398438 153.359375 105.921875 153.519531 105.519531 153.679688 C 105.199219 153.761719 104.878906 153.921875 104.558594 154 C 104.320312 154.078125 104 154.160156 103.761719 154.238281 C 103.359375 154.398438 102.960938 154.480469 102.558594 154.640625 C 102.398438 154.71875 102.238281 154.71875 102.078125 154.800781 C 101.601562 154.960938 101.039062 155.121094 100.558594 155.199219 C 100.480469 155.199219 100.398438 155.199219 100.320312 155.28125 C 99.839844 155.441406 99.359375 155.519531 98.878906 155.679688 C 98.640625 155.761719 98.398438 155.839844 98.160156 155.839844 C 97.761719 155.921875 97.441406 156 97.039062 156.078125 C 96.878906 156.160156 96.71875 156.160156 96.480469 156.238281 C 95.921875 156.320312 95.441406 156.480469 94.878906 156.558594 C 94.238281 156.71875 93.679688 156.800781 93.039062 156.878906 C 92.398438 156.960938 91.839844 157.121094 91.199219 157.199219 C 89.359375 157.441406 87.519531 157.679688 85.601562 157.839844 C 84.800781 157.921875 83.921875 157.921875 83.039062 158 L 81.839844 158 C 80.320312 158.078125 78.800781 158 77.359375 158 C 76.878906 158 76.480469 158 76 157.921875 C 75.441406 157.921875 74.878906 157.839844 74.238281 157.839844 C 73.679688 157.839844 73.039062 157.761719 72.480469 157.679688 C 71.921875 157.601562 71.359375 157.601562 70.71875 157.519531 L 70.558594 157.519531 C 70.160156 157.441406 69.761719 157.441406 69.359375 157.359375 C 69.039062 157.28125 68.640625 157.28125 68.320312 157.199219 C 68.160156 157.199219 68 157.121094 67.839844 157.121094 C 67.359375 157.039062 66.800781 156.960938 66.320312 156.878906 L 66.078125 156.878906 C 65.519531 156.800781 64.878906 156.640625 64.320312 156.558594 C 49.121094 153.441406 35.441406 145.921875 24.878906 135.28125 C 55.359375 104.71875 104.640625 104.71875 135.121094 135.199219 Z M 135.121094 135.199219 "/>
<path style=" stroke:none;fill-rule:nonzero;fill:rgb(28%,28%,28%);fill-opacity:1;" d="M 73.121094 31.761719 C 69.28125 35.601562 69.28125 41.761719 73.121094 45.601562 C 76.960938 49.441406 83.121094 49.441406 86.960938 45.601562 C 90.800781 41.761719 90.800781 35.601562 86.960938 31.761719 C 83.039062 27.921875 76.878906 27.921875 73.121094 31.761719 Z M 73.121094 31.761719 "/>
</g>
</svg>
