<svg xmlns="http://www.w3.org/2000/svg" viewBox="0 0 494.42 494.44"><defs><style>.cls-1{fill:#f5f7e2;}.cls-2{fill:#ec6669;}.cls-3{fill:#da5f5a;}.cls-4{fill:#1e6ab2;}.cls-5{fill:#fff;}</style></defs><g id="Livello_2" data-name="Livello 2"><g id="Livello_1-2" data-name="Livello 1"><g id="Artboard"><g id="pTokens-icon"><path id="Path" class="cls-1" d="M115.55,115.56c-72.71,72.71-72.71,190.61,0,263.32s190.61,72.71,263.32,0,72.71-190.61,0-263.32S188.26,42.85,115.55,115.56Z"/><path class="cls-2" d="M72.21,247.22A175,175,0,0,1,371,123.48L422,72.41C325.48-24.14,169-24.14,72.41,72.41s-96.55,253.07,0,349.61L123.47,371A174.43,174.43,0,0,1,72.21,247.22Z"/><path class="cls-3" d="M422,72.39l-51.07,51.07A175,175,0,0,1,371,371q-3.82,3.84-7.89,7.42A247.35,247.35,0,0,1,422,422C518.56,325.48,518.56,168.94,422,72.39Z"/><path class="cls-3" d="M123.47,371,72.41,422a246.85,246.85,0,0,1,59-43.65C128.66,376,126,373.52,123.47,371Z"/><path id="Path-2" class="cls-1" d="M422,422c-96.52,96.55-253,96.55-349.6,0C169,325.48,325.49,325.48,422,422Z"/></g></g><path class="cls-4" d="M247.76,392.31a145.1,145.1,0,1,0-145.1-145.1h0A145.09,145.09,0,0,0,247.75,392.31Z"/><path class="cls-5" d="M188.4,236.51V230c-1.76,0-3.48,0-5.2.05-.25,0-.66.63-.67,1-.08,1.61,0,3.22-.08,4.83,0,.35-.46,1-.71,1-4.57.06-9.14,0-13.82,0v-7.55h13.54v-1.61c0-3.68,0-7.35,0-11,0-.79-.2-1.11-1-1.09-1.6.06-3.21,0-5,0v3.56a18.64,18.64,0,0,1,0,2.59c0,.35-.52.91-.82.92-2.17.08-4.35.05-6.7.05,0-2.48,0-4.82,0-7.15,0-.21.64-.55,1-.56,2-.06,3.95,0,6.13,0,0-1.91.07-3.76,0-5.6-.06-1.12.2-1.47,1.41-1.45,6.19.08,12.38,0,18.58.06.81,0,1.09-.28,1.06-1.08,0-1.57,0-3.14,0-4.71,0-.75-.28-1-1-1-1.77,0-3.55,0-5.32,0-.77,0-1.13-.16-1.1-1,.06-1.82.06-3.64,0-5.45,0-.89.28-1.13,1.14-1.1,2,.06,4,0,6.11,0,0-2,.07-4,0-5.89-.06-1.2.33-1.59,1.53-1.52,1.65.09,3.3,0,5,0,.83,0,1.08-.3,1.07-1.09,0-1.69.08-3.38,0-5.06,0-.83.3-1,1-1,1.78,0,3.56.1,5.33,0,1.18-.07,1.34.43,1.3,1.44-.06,1.88,0,3.78,0,5.78,2,0,3.9.09,5.78,0,1.26-.09,1.52.37,1.46,1.52-.09,1.88,0,3.77,0,5.73h13.33c0-2,0-4.07-.05-6.11,0-.22-.62-.58-1-.59-1.57-.07-3.14-.06-4.71,0-.78,0-1.06-.26-1.07-1.08-.08-3.75-.11-3.77,3.27-5.48A48.92,48.92,0,0,1,246.69,175a48.84,48.84,0,0,1,41.09,17,1.68,1.68,0,0,0,2.25.6,26.57,26.57,0,0,1,29.82,7.85,25.61,25.61,0,0,1,5.91,20.27c-.14,1.14.49,1.45,1.22,1.81a26.38,26.38,0,0,1,10.93,10.77A24.21,24.21,0,0,1,340.36,253c-3.07,10.77-10.27,17.13-21.13,19.47a17.67,17.67,0,0,1-3.56.33q-52.69,0-105.37,0a31.44,31.44,0,0,1-16.9-5.22,34.9,34.9,0,0,1-13.15-15.2c-.18-.4-.29-.82-.51-1.45h1.53c5.25,0,10.49,0,15.73,0,1.1,0,1.45-.3,1.37-1.4a30.86,30.86,0,0,1,0-4.08c.06-1.1-.26-1.53-1.43-1.51-3.76.07-7.52,0-11.27.06-1.07,0-1.34-.27-1.28-1.32.09-1.72.05-3.46,0-5.19,0-.75.23-1,1-1C186.34,236.55,187.28,236.51,188.4,236.51Zm22.19-35.22c0,1.89,0,3.77,0,5.65,0,.83.31,1.07,1.09,1.07,4,0,8,0,12,0a4.88,4.88,0,0,0,.84-.13v-6.57Zm-7.08-7.71h7.08v-6.9h-7.08Zm-4,7.26c3.55,0,3.55,0,3.55-3.53v-.12c0-3.32,0-3.32-3.35-3.32-3.57,0-3.57,0-3.57,3.56C196.17,200.84,196.17,200.84,199.54,200.84Zm-3.87,22.1c-2,0-4,0-6,0-.23,0-.65.34-.65.53-.05,1.92,0,3.84,0,5.83h6.64Z"/><path class="cls-5" d="M335.73,289.05v-8.36h4.38v1.21c0,6.11-.09,12.22,0,18.33.09,5-4.37,9.78-9.48,10.23a10.67,10.67,0,0,1-11.15-6.84,12.06,12.06,0,0,1-.46-5.56,10,10,0,0,1,3.66-6.57,9.33,9.33,0,0,1,6.26-2.42C331.19,289,333.41,289.05,335.73,289.05Zm-3.87,4.58-.05-.27a32.52,32.52,0,0,0-4.87,1,5.26,5.26,0,0,0-3.4,4.34,5.63,5.63,0,0,0,2.31,5.85c3.77,2.63,8.72.82,9.58-3.58a38.36,38.36,0,0,0,.27-6.62c0-.23-.47-.63-.75-.65C333.93,293.58,332.89,293.63,331.86,293.63Z"/><path class="cls-5" d="M159.84,222.75c-1.91,0-3.51,0-5.12,0-.89,0-1.27-.29-1.24-1.22,0-1.81,0-3.63,0-5.45,0-.75.25-1,1-1,1.73,0,3.46,0,5.39,0,0-2,.08-4,0-5.94-.06-1.13.3-1.42,1.38-1.37,1.89.08,3.79,0,5.91,0,0-1.77,0-3.49,0-5.2,0-2.2,0-1.76,1.81-1.77h5.32v-7.08h7.56c0,2.3,0,4.59-.05,6.89,0,.2-.64.55-1,.56-2,.06-3.95,0-6.13,0,0,2-.06,3.88,0,5.75,0,1.13-.27,1.54-1.45,1.48-1.84-.1-3.7,0-5.76,0,0,2-.06,3.86,0,5.74.05,1.1-.29,1.46-1.39,1.39a26.2,26.2,0,0,0-4,.05c-.33,0-.9.5-.91.78-.08,2,0,3.94,0,6.07,1.7,0,3.29,0,4.89,0,1,0,1.43.3,1.39,1.34-.07,1.73,0,3.47,0,5.2,0,.62-.11,1-.87,1-2.18,0-4.37,0-6.73,0Z"/><path class="cls-5" d="M284.87,310.46a10.68,10.68,0,1,1,10.69-11.12C295.9,305.75,290.57,310.84,284.87,310.46Zm6.05-10.63a5.6,5.6,0,0,0-5.95-5.95,5.85,5.85,0,0,0-6.06,6,6,6,0,0,0,6.19,6A5.77,5.77,0,0,0,290.92,299.83Z"/><path class="cls-5" d="M244,299.21a10.57,10.57,0,1,1-11.43-10A10.5,10.5,0,0,1,244,299.21Zm-10.54,6.71a6.06,6.06,0,0,0,6.15-6.19,6.17,6.17,0,0,0-6.16-6.1,6.09,6.09,0,0,0-6.1,6.26A5.91,5.91,0,0,0,233.5,305.92Z"/><path class="cls-5" d="M301.22,289.06c0,3.54,0,6.92,0,10.3a6.28,6.28,0,0,0,4,5.9,5.78,5.78,0,0,0,7-1.94,5.84,5.84,0,0,0,1.15-3c.16-3.34.14-6.68.11-10,0-1,.26-1.34,1.27-1.25s2.12,0,3.25,0a7.34,7.34,0,0,1,.09.94c-.05,3.86.07,7.75-.2,11.6-.36,4.91-5,8.68-9.8,8.87a10.49,10.49,0,0,1-9-4,10.6,10.6,0,0,1-2.4-6.42c-.13-3.29,0-6.6-.06-9.9,0-.79.23-1.12,1.05-1.09C298.81,289.09,300,289.06,301.22,289.06Z"/><path class="cls-5" d="M161.8,310.32h-4.27c0-.42-.09-.77-.09-1.12,0-3.09,0-6.19,0-9.28a10.75,10.75,0,0,1,13.31-10.48,10.41,10.41,0,0,1,7.89,9.85q0,5,0,10c0,.78-.2,1.12-1,1.1-4.21-.08-3.44.59-3.51-3.38-.05-2.68,0-5.36-.07-8a5.82,5.82,0,0,0-5.54-5.4,6.46,6.46,0,0,0-6.71,6.5c.11,2.88,0,5.77,0,8.66Z"/><path class="cls-5" d="M196.55,289.11c1.32,0,2.47-.05,3.6,0a1.13,1.13,0,0,1,.72.84,106.71,106.71,0,0,1,0,10.88,9.9,9.9,0,0,1-6,8.44,10.16,10.16,0,0,1-10.36-.79,10.41,10.41,0,0,1-4.74-9.23c0-2.93.05-5.86,0-8.79,0-1.05.26-1.57,1.39-1.42a10.29,10.29,0,0,0,1.36,0c1.74,0,1.75,0,1.75,1.79,0,3,0,5.94,0,8.91a5.49,5.49,0,0,0,2.56,5.05,6.1,6.1,0,0,0,9.25-3,8.82,8.82,0,0,0,.5-2.89C196.59,295.75,196.55,292.53,196.55,289.11Z"/><path class="cls-5" d="M264.58,302.15c.82,1,1.67,1.91,2.46,2.91a.86.86,0,0,1,0,.81c-2.87,3.2-6.24,5.44-11.49,4.11a10.32,10.32,0,0,1-7.76-9.89,10.53,10.53,0,0,1,2.93-8.2A10.12,10.12,0,0,1,256.6,289c4.47-.58,7.91,1.23,10.67,4.68l-3,3.24c-.85-.73-1.61-1.46-2.45-2.08a5.74,5.74,0,0,0-8.64,1.39,5.94,5.94,0,0,0,3.8,9.32,5.75,5.75,0,0,0,5.78-1.93c.41-.46.76-1,1.14-1.46Z"/><path class="cls-5" d="M218.42,302.58l3,3c-2.62,3.52-6.75,6-11.79,4.44A10,10,0,0,1,202,300a10.34,10.34,0,0,1,7.32-10.57c4.27-1.5,9.18.32,12.08,4.32-.69.74-1.42,1.45-2.07,2.24s-1.14.68-1.75,0a6.53,6.53,0,0,0-5.91-2.43c-3.57.34-6.12,4.4-5.1,7.83a6.19,6.19,0,0,0,10.72,2.24A12.85,12.85,0,0,1,218.42,302.58Z"/><path class="cls-5" d="M268.64,310.47V280.61c1.35,0,2.65,0,3.95,0,.23,0,.53.42.62.7a3.64,3.64,0,0,1,0,1.1q0,13.29,0,26.59c0,1.12-.26,1.58-1.43,1.46A30.63,30.63,0,0,0,268.64,310.47Z"/><path class="cls-5" d="M249,307.21a2.47,2.47,0,0,1-2.48,2.51,2.83,2.83,0,0,1-2.59-2.73,2.68,2.68,0,0,1,2.55-2.52A2.52,2.52,0,0,1,249,307.21Z"/></g></g></svg>