<?xml version="1.0" encoding="UTF-8"?><svg xmlns="http://www.w3.org/2000/svg" viewBox="0 0 494.42 494.44"><defs><style>.h{fill:#f5f7e2;}.i{fill:#fff;}.j{fill:#f66;}.k{fill:#d95e59;}.l{fill:#131313;}</style></defs><g id="a"/><g id="b"><g id="c"><g id="d"><g id="e"><path id="f" class="h" d="M115.55,115.56c-72.71,72.71-72.71,190.61,0,263.32s190.61,72.71,263.32,0,72.71-190.61,0-263.32c-72.71-72.71-190.61-72.71-263.32,0Z"/><path class="j" d="M72.21,247.22c0-96.65,78.35-175,175-175,46.42,0,90.93,18.44,123.75,51.26l51.07-51.07c-96.55-96.55-253.08-96.55-349.62,0-96.54,96.55-96.55,253.07,0,349.61l51.06-51.06c-32.87-32.78-51.32-77.32-51.26-123.74Z"/><path class="k" d="M422.01,72.39l-51.07,51.07c68.35,68.34,68.35,179.14,.02,247.49-2.55,2.56-5.19,5.03-7.9,7.42,21.71,11.54,41.58,26.26,58.95,43.66,96.55-96.55,96.55-253.09,0-349.64Z"/><path class="k" d="M123.47,370.96l-51.06,51.07c17.38-17.41,37.27-32.12,59-43.65-2.75-2.4-5.39-4.86-7.94-7.42Z"/><path id="g" class="h" d="M422.01,422.03c-96.52,96.55-253,96.55-349.6,0,96.55-96.55,253.08-96.55,349.6,0Z"/></g></g><circle class="l" cx="247.95" cy="247.14" r="145.38"/><path class="i" d="M240.4,119.61v5.51h11.02v-5.51h-11.02m0,11.02v5.51h11.02v-5.51h-11.02m0,11.02v5.51h11.02v-5.51h-11.02m-22.04,5.51v5.51h5.51v5.51h44.09v-5.51h5.51v-5.51h-5.51v5.51h-44.09v-5.51h-5.51m22.04,16.53v5.51h11.02v-5.51h-11.02m-16.53,11.02v5.51h-11.02v5.51h-11.02v5.51h-5.51v5.51h33.06v16.53h-5.51v5.51h-11.02v5.51h22.04v-5.51h22.04v-5.51h5.51v-5.51h11.02v5.51h5.51v5.51h5.51v5.51h5.51v5.51h5.51v11.02h5.51v11.02h5.51v44.09h-5.51v11.02h-5.51v5.51h-5.51v5.51h-11.02v5.51h-16.53v5.51h-33.06v-5.51h-11.02v-11.02h-11.02v-11.02h-5.51v-11.02h-5.51v-11.02h-5.51v-44.09h5.51v-5.51h5.51v-11.02h5.51v-5.51h11.02v-5.51h5.51v-5.51h-27.55v5.51h-11.02v5.51h-5.51v5.51h-5.51v5.51h-5.51v5.51h-5.51v11.02h-5.51v11.02h-5.51v44.09h5.51v16.53h5.51v11.02h5.51v5.51h5.51v5.51h5.51v5.51h5.51v5.51h5.51v5.51h5.51v5.51h11.02v5.51h16.53v5.51h60.62v-5.51h16.53v-5.51h11.02v-5.51h5.51v-5.51h5.51v-5.51h5.51v-5.51h5.51v-5.51h5.51v-11.02h5.51v-49.6h-5.51v-16.53h-5.51v-16.53h-5.51v-11.02h-5.51v-11.02h-5.51v-5.51h-5.51v-5.51h-11.02v-5.51h-5.51v-5.51h-11.02v-5.51h-5.51v-5.51h-11.02v-5.51h-44.09Z"/><path class="l" d="M240.4,185.74v11.02h11.02v-11.02h-11.02Z"/><path class="i" d="M240.4,224.32v49.6h5.51v27.55h5.51v-77.15h-11.02Z"/></g></g></svg>