<svg xmlns="http://www.w3.org/2000/svg" viewBox="0 0 494.42 494.44"><title>pOMG_1</title><g id="Layer_2" data-name="Layer 2"><g id="Layer_1-2" data-name="Layer 1"><g id="Artboard"><g id="pTokens-icon"><path id="Path" d="M114.46,114.47c-73.31,73.31-73.31,192.19,0,265.5s192.19,73.31,265.5,0,73.32-192.19,0-265.5S187.77,41.16,114.46,114.47Z" fill="#f5f7e2"/><path d="M72.21,247.22A175,175,0,0,1,371,123.48L422,72.41C325.48-24.14,169-24.14,72.41,72.41s-96.55,253.07,0,349.61L123.47,371A174.45,174.45,0,0,1,72.21,247.22Z" fill="#f66"/><path d="M123.47,371,72.41,422a246.87,246.87,0,0,1,59-43.65C128.66,376,126,373.52,123.47,371Z" fill="#d95e59"/><path d="M422,72.39l-51.07,51.07a175,175,0,0,1-7.88,254.91A247.33,247.33,0,0,1,422,422C518.56,325.48,518.56,168.94,422,72.39Z" fill="#d95e59"/><path id="Path-2" data-name="Path" d="M422,422c-96.52,96.55-253,96.55-349.6,0C169,325.48,325.49,325.48,422,422Z" fill="#f5f7e2"/></g></g><path d="M229.3,103.94C167.09,112.39,117,159.22,105.58,219.69c-7.17,38.16.69,76.43,22.54,109.16,7.64,11.33,26.72,30.52,37.7,37.81a155,155,0,0,0,53.65,22.43c13.65,2.89,41.86,2.89,55.51,0,28.21-6,51-17.81,71.11-36.77,21.27-20.24,35.38-44.75,41.63-72.38a144.46,144.46,0,0,0-36.08-132.29c-19.77-20.81-48.45-36.65-76.9-42.09C262.83,103.25,240.06,102.44,229.3,103.94Zm32.38,11.45c34.34,3.93,66.83,21.51,88,47.64,13.65,17,21.51,32.73,26.71,54.12,2.55,10.17,3,14.8,3.13,28.91,0,20.11-2.09,32.49-8.68,49.14C336,384.58,221,408.75,153.56,340.87c-38-38.16-49.26-93.66-29-143.73,10.29-25.78,31.8-50.64,55.62-64.17C206.18,118.05,233.23,112.27,261.68,115.39Z"/><path d="M153.91,213.22c-15,5.43-24.63,24.05-21.16,41.39,1.73,8.67,3.7,12.72,9.13,18.39,7.17,7.74,11.8,9.48,24.4,9.48,10.06,0,11.57-.35,17.12-3.35,10.29-5.79,15.95-14.92,17.22-27.87,1.62-17.81-8.67-34.46-23.82-38.74C170.91,210.9,159.58,211.25,153.91,213.22Zm25.32,14.45c6.83,5,10.29,16.42,7.87,26.48-4.63,19.43-30.18,23.24-39,5.78-5.32-10.41-2.55-26.71,5.55-32.38C160.39,222.7,172.3,222.81,179.23,227.67Z"/><path d="M310.36,213.68c-21.74,8.67-27.87,40.7-11.45,60.13,8.9,10.63,29.95,12.6,39.32,3.58l2.54-2.43.35,3.24c.34,2.89.69,3.12,6.13,3.12H353l.34-18.27.35-18.15H321.23v11.56h9.83c10.63,0,11,.23,8,6.48-2.09,4.28-9.49,8.55-15,8.55-13.29,0-21.27-9.36-21.27-24.51.11-16.77,10.87-26.36,25.55-22.89,5.67,1.38,11.45,6.35,11.45,9.94,0,1.16,1.73,1.62,6.94,1.62h6.82l-1.62-5.21c-3.58-12.14-12.49-18.26-27.17-18.73C318.22,211.48,314.64,211.94,310.36,213.68Z"/><path d="M210.22,247.21V281.9h11.57l.23-23.36.34-23.47,8.56,23.47L239.48,282l5.78-.35,5.78-.35,8.44-23.12,8.44-23.13.35,23.13.35,23.12,6.12.35,6,.35-.23-34.46-.35-34.46H264.11l-9.25,25.67c-5.09,14.22-9.6,25.44-10,24.86s-4.62-11.45-9.25-24.51-9-24.4-9.6-25.21-3.93-1.39-8.44-1.39h-7.4Z"/></g></g></svg>