<svg xmlns="http://www.w3.org/2000/svg" xmlns:xlink="http://www.w3.org/1999/xlink" viewBox="0 0 500 500"><defs><style>.cls-1{fill:#f5f7e2;}.cls-2{fill:#f66;}.cls-3{fill:#d95e59;}.cls-4{fill:url(#linear-gradient);}.cls-5{fill:#2e2fff;}</style><linearGradient id="linear-gradient" x1="199.28" y1="199.49" x2="303.02" y2="303.22" gradientUnits="userSpaceOnUse"><stop offset="0" stop-color="#2e2fff"/><stop offset="1" stop-color="#1e1f61"/></linearGradient></defs><g id="Layer_1" data-name="Layer 1"><g id="Artboard"><g id="pTokens-icon"><path id="Path" class="cls-1" d="M118.34,118.34c-72.71,72.71-72.71,190.61,0,263.32s190.61,72.71,263.32,0,72.71-190.61,0-263.32S191.05,45.63,118.34,118.34Z"/><path class="cls-2" d="M75,250A175,175,0,0,1,373.74,126.26l51.07-51.07c-96.54-96.55-253.07-96.55-349.61,0s-96.55,253.07,0,349.61l51.05-51.06A174.49,174.49,0,0,1,75,250Z"/><path class="cls-3" d="M424.8,75.17l-51.07,51.07a175,175,0,0,1-7.89,254.91,247.18,247.18,0,0,1,59,43.66C521.35,328.26,521.35,171.72,424.8,75.17Z"/><path class="cls-3" d="M126.26,373.74,75.2,424.81a246.87,246.87,0,0,1,59-43.65C131.45,378.76,128.81,376.3,126.26,373.74Z"/><path id="Path-2" data-name="Path" class="cls-1" d="M424.8,424.81c-96.52,96.55-253,96.55-349.61,0C171.75,328.26,328.28,328.26,424.8,424.81Z"/></g></g></g><g id="Layer_5" data-name="Layer 5"><path class="cls-4" d="M324.46,251.41a73.3,73.3,0,1,1-146.59-.69c.09-20,7.43-37.34,21.7-51.52s31.75-21.28,51.72-21.26c20.45,0,38.2,7.51,52.52,22.3C317.59,214.47,324.25,231.67,324.46,251.41Z"/><path class="cls-5" d="M309.3,165.79l1-1.76A103.8,103.8,0,0,0,177.2,176.51a106.29,106.29,0,0,0,23.28,167.3l1.05-1.74a101.13,101.13,0,0,0,49.64,13c56.59,0,102.63-46.55,102.63-103.77A104.06,104.06,0,0,0,309.3,165.79ZM251.17,354.26c-56.16,0-101.85-46.2-101.85-103s45.69-103,101.85-103S353,194.48,353,251.27,307.33,354.26,251.17,354.26Z"/><path class="cls-5" d="M352.24,351.85l2.17,1.81a146.74,146.74,0,1,0-221-192.6l2.13,1.86a143.83,143.83,0,0,0-29,66C93.75,307.43,147,381.72,225.25,394.5A143.61,143.61,0,0,0,352.24,351.85ZM107.65,229.07c12.74-77.93,86.29-131,164-118.32s130.5,86.42,117.77,164.35-86.29,131-164,118.32S94.92,307,107.65,229.07Z"/><path class="cls-5" d="M372.43,252.47c0-67.75-55.27-122.88-123.2-122.88a123.32,123.32,0,0,0-104.69,58.16l-1.13-.65a123,123,0,0,0-18.71,65.37c0,68.4,55.79,124,124.38,124A124.55,124.55,0,0,0,358.75,311l-.94-.48A121.85,121.85,0,0,0,372.43,252.47ZM249.23,130.38c67.5,0,122.42,54.77,122.42,122.09a121,121,0,0,1-14.54,57.65l-1.16-.59a121.39,121.39,0,0,1-106.87,63.85c-66.86,0-121.25-54.24-121.25-120.91a119.45,119.45,0,0,1,18.29-63.81l-.9-.52A122.53,122.53,0,0,1,249.23,130.38Z"/></g></svg>