<svg xmlns="http://www.w3.org/2000/svg" xmlns:xlink="http://www.w3.org/1999/xlink" viewBox="0 0 500 500"><defs><style>.cls-1{fill:#f66;}.cls-2{fill:#da5f5a;}.cls-3,.cls-4{fill:#f5f7e2;}.cls-4,.cls-5{fill-rule:evenodd;}.cls-5{fill:url(#Sfumatura_senza_nome_5);}</style><linearGradient id="Sfumatura_senza_nome_5" x1="250.5" y1="397.41" x2="249.52" y2="114.31" gradientTransform="matrix(1, 0, 0, -1, 0, 500.62)" gradientUnits="userSpaceOnUse"><stop offset="0" stop-color="#08b6e7"/><stop offset="1" stop-color="#00e7c7"/></linearGradient></defs><g id="Livello_2" data-name="Livello 2"><g id="Layer_1" data-name="Layer 1"><path class="cls-1" d="M73.29,73.29c-97.72,97.73-97.72,255.94,0,353.42L426.71,73.29C329.23-24.43,170.77-24.43,73.29,73.29Z"/><path class="cls-2" d="M426.71,426.71C329.23,329,170.77,329,73.29,426.71L426.71,73.29C524.43,170.77,524.43,329.23,426.71,426.71Z"/><path class="cls-3" d="M426.71,426.71c-97.48,97.72-255.94,97.72-353.42,0C170.77,329.23,329.23,329.23,426.71,426.71Z"/><path class="cls-4" d="M396.47,330.67a0,0,0,0,1,0,0c.06-.1.11-.22.18-.34a.13.13,0,0,0,0-.07c.06-.13.11-.25.16-.38v0a2.35,2.35,0,0,0,.14-.37l.05-.14c0-.08.05-.16.08-.27a.33.33,0,0,0,0-.13c0-.12.06-.25.08-.37s0-.07,0-.12l.05-.3c0-.05,0-.09,0-.14s0-.23,0-.35v-.05a3.24,3.24,0,0,0,0-.44V168h0a3.17,3.17,0,0,0,0-.44v-.05c0-.12,0-.24,0-.36s0-.08,0-.13l-.05-.3s0-.09,0-.12-.05-.26-.08-.37a.43.43,0,0,1,0-.14c0-.08-.05-.18-.08-.27l-.05-.13c-.05-.12-.09-.26-.14-.37v0c-.05-.14-.11-.25-.16-.39s0-.05,0-.07-.12-.21-.18-.33a.07.07,0,0,0,0,0,7,7,0,0,0-.51-.74h0a7.9,7.9,0,0,0-.92-1l0,0-.3-.25-.05,0-.67-.45a.13.13,0,0,0-.07,0h0L253.46,82.33l-.15-.08a1.79,1.79,0,0,0-.24-.12.72.72,0,0,0-.2-.09l-.22-.1-.22-.08-.2-.07-.23-.07-.21-.06-.23-.06-.2,0a2.3,2.3,0,0,0-.26,0,1.2,1.2,0,0,0-.2,0l-.29,0h-.16a3.62,3.62,0,0,0-.46,0h0a3.1,3.1,0,0,0-.43,0h-.19a1.36,1.36,0,0,0-.27,0,1.66,1.66,0,0,0-.22,0l-.23,0-.22,0-.22.06-.22.06-.22.07-.22.08-.2.07-.24.1-.18.09a1.19,1.19,0,0,0-.25.13l-.14.07,0,0h0L106.14,161.89h0l-.07,0a5,5,0,0,0-.66.44s0,0-.06.05a3.67,3.67,0,0,0-.29.23s0,0,0,0a7.09,7.09,0,0,0-.93,1h0a8.73,8.73,0,0,0-.5.74s0,0,0,0l-.19.35a.13.13,0,0,1,0,0,6.71,6.71,0,0,0-.32.78.29.29,0,0,0,0,.11,2.12,2.12,0,0,0-.09.31,1,1,0,0,1,0,.12c0,.13-.07.27-.1.38s0,0,0,.09,0,.23,0,.33,0,.07,0,.11,0,.27,0,.4v0a3.39,3.39,0,0,0,0,.45V327.1a3.39,3.39,0,0,0,0,.45v0c0,.14,0,.27,0,.41s0,.06,0,.1l0,.35s0,.05,0,.07l.1.4a.42.42,0,0,1,0,.12,1.71,1.71,0,0,1,.09.3.7.7,0,0,0,0,.12c.1.27.2.52.32.78,0,0,0,0,0,0l.19.35s0,0,0,0a7.52,7.52,0,0,0,.5.75h0a7.23,7.23,0,0,0,.93,1l0,0,.32.26s0,0,0,0c.22.17.43.3.67.46l.08.05h0l140.4,79.56a1.13,1.13,0,0,0,.27.13l.12.07.3.14.12.05c.1.05.22.08.32.12a.29.29,0,0,0,.1,0l.33.1.11,0a1.82,1.82,0,0,0,.37.09h.08a1.94,1.94,0,0,0,.42.07h0a6.24,6.24,0,0,0,1.83,0h0c.15,0,.29-.05.44-.07h.05l.38-.09h.07l.36-.1.08,0a1.71,1.71,0,0,0,.34-.13l.08,0,.32-.15.1-.05.29-.15,140.4-79.56h0a.19.19,0,0,0,.09-.05,5.61,5.61,0,0,0,.67-.45l0,0,.33-.27,0,0a7.31,7.31,0,0,0,.94-1h0A8.41,8.41,0,0,0,396.47,330.67Z"/><path class="cls-5" d="M376.5,319.34a0,0,0,0,1,0,0c.06-.09.1-.19.16-.29a.11.11,0,0,0,0-.06c.06-.12.1-.22.15-.34h0a2.39,2.39,0,0,0,.11-.32l.05-.12.07-.23a.42.42,0,0,0,0-.12,1.65,1.65,0,0,0,.07-.32s0-.05,0-.1l.05-.26s0-.07,0-.12a1.53,1.53,0,0,0,0-.3v-.05a2.3,2.3,0,0,0,0-.37V178.85h0a2.42,2.42,0,0,0,0-.38v-.05c0-.1,0-.2,0-.3s0-.07,0-.12l-.05-.26s0-.07,0-.1,0-.22-.07-.32a.3.3,0,0,1,0-.12A2,2,0,0,1,377,177l-.05-.12c0-.1-.07-.22-.11-.32h0c-.05-.12-.11-.22-.15-.34s0,0,0,0a2.19,2.19,0,0,0-.16-.3v0a7.23,7.23,0,0,0-.44-.64v0a6.47,6.47,0,0,0-.8-.86l0,0L375,174l-.05,0a6.55,6.55,0,0,0-.58-.4.11.11,0,0,0-.06,0h0L253,104.86l-.13-.07-.2-.1-.18-.08-.19-.08-.19-.08-.17,0a.73.73,0,0,0-.21-.06l-.17-.06-.2,0-.18,0a1.46,1.46,0,0,0-.22,0l-.17,0-.25,0h-1.09l-.23,0a1.25,1.25,0,0,1-.19,0,1.33,1.33,0,0,1-.21,0l-.19,0-.18,0-.19.06-.19.06-.19.07-.18.06-.2.08-.16.08-.22.11-.11.06,0,0h0L125.76,173.57h0s0,0-.06,0c-.2.12-.39.25-.57.38,0,0,0,0,0,0s-.18.14-.25.21l0,0a5.74,5.74,0,0,0-.8.84h0a6.62,6.62,0,0,0-.44.64s0,0,0,0-.11.2-.16.31,0,0,0,0a5.52,5.52,0,0,0-.27.67.29.29,0,0,0,0,.1,1.45,1.45,0,0,0-.07.26.29.29,0,0,0,0,.11l-.09.33s0,0,0,.07,0,.21,0,.29,0,.06,0,.09a2.07,2.07,0,0,0,0,.35h0a2.75,2.75,0,0,0,0,.4h0V316.24h0a2.75,2.75,0,0,0,0,.4h0c0,.12,0,.23,0,.35s0,.06,0,.09l0,.3s0,.05,0,.06l.09.35a.54.54,0,0,0,0,.1c0,.09,0,.18.07.26a1,1,0,0,0,0,.11c.09.23.17.45.27.66a.13.13,0,0,1,0,.05c.06.1.11.2.16.3s0,0,0,0a5.58,5.58,0,0,0,.44.64h0a5.41,5.41,0,0,0,.8.86l0,0,.28.22s0,0,0,0c.19.14.38.26.58.39l.07,0a0,0,0,0,1,0,0L247,390.26l.23.11.1.06.27.12.1,0a1.81,1.81,0,0,0,.27.1l.09,0,.29.09.09,0a1.5,1.5,0,0,0,.32.07l.07,0a2.2,2.2,0,0,0,.37.05h0a5.23,5.23,0,0,0,1.58,0h0l.37-.05,0,0,.33-.07.06,0,.31-.08.07,0a1.48,1.48,0,0,0,.29-.12l.07,0,.28-.13.09,0,.24-.13,121.26-68.71h0l.07,0a4,4,0,0,0,.58-.4h0l.29-.23v0a6.05,6.05,0,0,0,.82-.86h0C376.22,319.77,376.36,319.56,376.5,319.34ZM266.71,126.57l96.21,54.52-32.07,54.52Zm57.1,121L250,373l-73.8-125.47L250,122.09Zm-154.65-12-32-54.51,96.21-54.52Zm-7,12L134.81,294V201.11Zm7,12,64.14,109L137.09,314Zm161.69,0L362.92,314l-96.21,54.52Zm7-12,27.32-46.45V294Z"/></g></g></svg>