<svg xmlns="http://www.w3.org/2000/svg" viewBox="0 0 494.42 494.44"><title>pPNK</title><g id="Layer_2" data-name="Layer 2"><g id="Layer_1-2" data-name="Layer 1"><g id="Artboard"><g id="pTokens-icon"><path id="Path" d="M116.8,116.81c-72,72-72,188.8,0,260.82s188.8,72,260.82,0,72-188.8,0-260.82S188.82,44.79,116.8,116.81Z" fill="#f5f7e2"/><path d="M69,214.46,173.78,83.69l178.74,8.07,15.55,34.6,54-53.95C325.48-24.14,169-24.14,72.41,72.41s-96.55,253.07,0,349.61l59.22-59.22Z" fill="#f66"/><path d="M131.63,362.8,72.41,422A246.65,246.65,0,0,1,137,375.49Z" fill="#d95e59"/><path d="M422,72.39l-53.95,54,57.22,127.37L344.84,369.65A246.29,246.29,0,0,1,422,422C518.56,325.48,518.56,168.94,422,72.39Z" fill="#d95e59"/><path id="Path-2" data-name="Path" d="M422,422c-96.52,96.55-253,96.55-349.6,0C169,325.48,325.49,325.48,422,422Z" fill="#f5f7e2"/><path d="M180.73,99l161.89,7.31,65.51,145.81L315.64,385.42,152.93,374.69,86.29,216.86Zm118.65,83.87L182.19,234.26,282.48,312l16.9-129.06Zm-13.49-25.68L192.1,116.9l-19.66,84.85ZM262.16,331.46,160.24,258.64l2.44,98.66Zm129.71-79.81L322.46,181.1,304.1,316.67Zm-106,95.57-85.82,22.6,101.1,6.5-15.28-29.1Zm92.33-63.55L303,339.75l15,29.26ZM342.78,126.49l-14.63,30.07,54.29,55.26-39.66-85.33Zm-18.2-14.31-95.42-3.9,78.68,34.46,16.74-30.56ZM166.91,126,100.1,210.52,144.8,220ZM142,236.69,97,227.1l46.82,110.53Z" fill="#4d00b4" fill-rule="evenodd"/></g></g></g></g></svg>