<svg xmlns="http://www.w3.org/2000/svg" viewBox="0 0 494.42 494.44"><title>pREP_1</title><g id="Layer_2" data-name="Layer 2"><g id="Layer_1-2" data-name="Layer 1"><g id="Artboard"><g id="pTokens-icon"><path id="Path" d="M121.18,121.18a178.25,178.25,0,0,0,0,252.08c69.6,69.6,182.46,69.6,252.07,0a178.27,178.27,0,0,0,0-252.08C303.64,51.58,190.78,51.58,121.18,121.18Z" fill="#f5f7e2"/><path d="M72.22,248.09a175,175,0,0,1,298.3-124.18L422,72.41C325.48-24.14,169-24.14,72.41,72.41s-96.55,253.07,0,349.61L123,371.39A174.46,174.46,0,0,1,72.22,248.09Z" fill="#f66"/><path d="M123,371.39,72.41,422a247.13,247.13,0,0,1,58.36-43.33Q126.8,375.16,123,371.39Z" fill="#d95e59"/><path d="M422,72.39l-51.5,51.51a175,175,0,0,1-6.84,254.8A247.24,247.24,0,0,1,422,422C518.56,325.48,518.56,168.94,422,72.39Z" fill="#d95e59"/><path id="Path-2" data-name="Path" d="M422,422c-96.52,96.55-253,96.55-349.6,0C169,325.48,325.49,325.48,422,422Z" fill="#f5f7e2"/></g></g><circle cx="247.21" cy="247.22" r="145.1" fill="#0e0e21"/><path d="M328.23,281.08,311,251.75a1.89,1.89,0,0,0-3-.6l-11.18,7.25a2.36,2.36,0,0,0-.61,3l10,16.62a1.33,1.33,0,0,1-.3,1.51l-58,37.49a.93.93,0,0,1-1.21,0l-57.44-37.49c-.6-.3-.6-.9-.3-1.51l10-16.62a2.36,2.36,0,0,0-.61-3l-11.18-7.25a2.29,2.29,0,0,0-3,.6L166.8,281.08a4.4,4.4,0,0,0,1.52,6L245.4,337.3a4.63,4.63,0,0,0,4.84,0l77.08-50.18C328.83,285.61,329.43,282.89,328.23,281.08Z" fill="#fff"/><path d="M195.52,235.43l11.19,7.26a2.27,2.27,0,0,0,3-.61L246,180.41a1.15,1.15,0,0,1,1.82,0l36.27,61.67a1.89,1.89,0,0,0,3,.61l11.19-7.26a2.33,2.33,0,0,0,.6-3l-42.62-73.76a4.11,4.11,0,0,0-3.93-2.12H242.07a5.18,5.18,0,0,0-3.93,2.12l-43.22,73.76A2.33,2.33,0,0,0,195.52,235.43Z" fill="#2ae7a8"/></g></g></svg>