<svg xmlns="http://www.w3.org/2000/svg" viewBox="0 0 494.42 494.44"><defs><style>.cls-1{fill:#f5f7e2;}.cls-2{fill:#f66;}.cls-3{fill:#d95e59;}.cls-4{fill:#384182;}.cls-5{fill:#fff;}</style></defs><g id="Layer_2" data-name="Layer 2"><g id="Layer_1-2" data-name="Layer 1"><g id="Artboard"><g id="pTokens-icon"><path id="Path" class="cls-1" d="M115.55,115.56c-72.71,72.71-72.71,190.61,0,263.32s190.61,72.71,263.32,0,72.71-190.61,0-263.32S188.26,42.85,115.55,115.56Z"/><path class="cls-2" d="M72.21,247.22A175,175,0,0,1,371,123.48L422,72.41C325.48-24.14,169-24.14,72.41,72.41s-96.55,253.07,0,349.61L123.47,371A174.45,174.45,0,0,1,72.21,247.22Z"/><path class="cls-3" d="M422,72.39l-51.07,51.07a175,175,0,0,1-7.88,254.91A247.33,247.33,0,0,1,422,422C518.56,325.48,518.56,168.94,422,72.39Z"/><path class="cls-3" d="M123.47,371,72.41,422a246.87,246.87,0,0,1,59-43.65C128.66,376,126,373.52,123.47,371Z"/><path id="Path-2" data-name="Path" class="cls-1" d="M422,422c-96.52,96.55-253,96.55-349.6,0C169,325.48,325.49,325.48,422,422Z"/></g></g><circle class="cls-4" cx="247.21" cy="247.22" r="145.1"/></g><g id="Ravencoin_symbol" data-name="Ravencoin symbol"><g id="Ravencoin_symbol-2" data-name="Ravencoin symbol"><path class="cls-5" d="M239.19,309.44l-52.48,37.68L220,193.79Zm1.06-.36,32,.42-51-115.12Zm35-2.53,24.48-90.7-9.26-11.33ZM263.43,164.36l-40.28,27.13L282,172.44Zm-5.07,0-25,.83-3.65,10.44Z"/><path class="cls-5" d="M288.67,201l-64.46-8.84,58.09-18.28ZM273.4,167l3.54-9.62-18.58-8.08Zm5.36-10.56L283,171.5,307.72,165Z"/><path class="cls-5" d="M273.63,308.91,222,193.32l67.35,9.43ZM261.48,164.36l-31.84,12.45L222,191Zm-19.75-9.43-8,8.78,26.42-.65Zm13.92-6.85L243,153.92,271.8,166.6Zm14.39-.76H256.47l21,8.14Zm7.84,10.79-3.24,9.67,6.48,3.13Z"/></g></g></g></svg>