<svg xmlns="http://www.w3.org/2000/svg" viewBox="0 0 494.42 494.44"><defs><style>.cls-1{fill:#f5f7e2;}.cls-2{fill:#f66;}.cls-3{fill:#d95e59;}.cls-4{fill:#259b91;}.cls-5{fill:#13a19a;}.cls-6{fill:#259b92;}</style></defs><g id="Layer_2" data-name="Layer 2"><g id="Layer_1-2" data-name="Layer 1"><g id="Artboard"><g id="pTokens-icon"><path id="Path" class="cls-1" d="M115.55,115.56c-72.71,72.71-72.71,190.61,0,263.32s190.61,72.71,263.32,0,72.71-190.61,0-263.32S188.26,42.85,115.55,115.56Z"/><path class="cls-2" d="M72.21,247.22A175,175,0,0,1,371,123.48L422,72.41C325.48-24.14,169-24.14,72.41,72.41s-96.55,253.07,0,349.61L123.47,371A174.45,174.45,0,0,1,72.21,247.22Z"/><path class="cls-3" d="M422,72.39l-51.07,51.07a175,175,0,0,1-7.88,254.91A247.33,247.33,0,0,1,422,422C518.56,325.48,518.56,168.94,422,72.39Z"/><path class="cls-3" d="M123.47,371,72.41,422a246.87,246.87,0,0,1,59-43.65C128.66,376,126,373.52,123.47,371Z"/><path id="Path-2" data-name="Path" class="cls-1" d="M422,422c-96.52,96.55-253,96.55-349.6,0C169,325.48,325.49,325.48,422,422Z"/></g></g><g id="Traced_logo" data-name="Traced logo"><path class="cls-4" d="M271.07,267.05H223.54l14.79-9.81c0-4.25,0-8.76,0-13.28s-.1-9.25.14-13.86a13.32,13.32,0,0,1,1.63-5.53c2.21-4,4.73-7.87,7.3-12.06,3,5,5.87,9.55,8.59,14.23a6,6,0,0,1,.53,2.85c0,9.14,0,18.29,0,27.51Z"/><path class="cls-5" d="M254.19,280.54,250.51,276l-.69.32-2.28,13.88H247c-.68-4.65-1.37-9.29-2.08-14.17-1.39,1.6-2.61,3-3.83,4.44l-.79-.51v-9.19h14.36V280Z"/><path class="cls-4" d="M389.51,220.63c-4.79-28.44-16.72-53.7-37-74.32C316,109.15,271.34,95.21,220.12,103.4c-27.45,4.39-51.51,16.72-71.49,36.18-28.39,27.64-44.88,60.85-46,101-.48,17.1,1.12,34,7,50.05,8.11,22,24.64,36.95,43.72,49.47a6.1,6.1,0,0,0,.72.37c21.09,10.73,43.35,12.26,66,7.32,15.09-3.29,29.28-9.52,42.6-17.45,10.63-6.33,20.89-13.38,29.18-22.58,18.48-20.52,29-44.69,30.85-72.38.4-6.1-.1-12.27-.18-18.08L248.11,166l-74.29,51.68c0,1.56,0,2.55,0,3.54.24,11.82,2.08,23.43,4.17,35.05,4.46,24.79,19.4,42.82,37.2,59.3l20.31-9c-29.69-18.45-40.11-46.85-42.95-79.35l55.56-37.65,55.44,37.58a77.36,77.36,0,0,1-.74,8.67c-1.77,9-2.51,18.56-5.92,27-7.6,18.66-19.54,34.24-37.27,44.77C241.2,318.47,222.2,328,200.52,330.46c-14.31,1.65-27.71-1.91-40-8.88-8.8-5-15.91-12.3-22-20.48A76.84,76.84,0,0,1,126.28,276c10.12-13.12,9.54-17.26-3.92-28.32a123.77,123.77,0,0,1,10.42-52.24c1.11.21,2,.4,2.87.55,10.36,1.78,20.32.62,29.52-4.58,11.91-6.74,19.17-16.52,18.75-30.77a44.84,44.84,0,0,0-5.33-19.15c56.18-38.43,136.71-22,173.09,36.23-10.9,8.46-11.68,21.82-8,29.66,5.8,12.46,14,18,26.39,16.88,1.55,6.92,2.38,24.18,1.37,32.94-3.2,27.89-14.4,52.19-34.3,72-23.65,23.5-52.23,37.43-85.51,41.48a203.56,203.56,0,0,1-57-1.39c-13-2.08-25-7.23-36.93-12.61l-6.05-2.74a9.9,9.9,0,0,0,.63,1c.4.37.8.73,1.22,1.08,32.19,26.66,69.16,37.92,110.65,33.4,30.39-3.32,57.24-15.46,79.59-36.29C382.32,317.13,398.34,273,389.51,220.63Zm-264.94,50c-.75-5.77-1.44-11.1-2.16-16.58C130.06,256.42,131.19,264.32,124.57,270.65Zm46-92.94a31.05,31.05,0,0,1-34.14,10A128.13,128.13,0,0,1,171.75,146C177.19,155.44,177.58,168.73,170.54,177.71Zm180.75,28.92c-4-9-2.35-16.76,4.95-21.61a117.46,117.46,0,0,1,12.22,31.27C361.37,218.17,354.71,214.28,351.29,206.63Z"/><path class="cls-6" d="M343,268.31a14.3,14.3,0,0,0-.36,28.6,14.3,14.3,0,0,0,.36-28.6Zm-.25,21.57a7.28,7.28,0,0,1,.16-14.56,7.28,7.28,0,0,1-.16,14.56Z"/></g></g></g></svg>