<svg xmlns="http://www.w3.org/2000/svg" viewBox="0 0 500 500"><defs><style>.cls-1{fill:#f5f7e2;}.cls-2{fill:#f66;}.cls-3{fill:#d95e59;}.cls-4{fill:#314737;}.cls-5{fill:#238c32;}.cls-6{fill:#2ff141;}</style></defs><g id="Layer_1" data-name="Layer 1"><g id="Artboard"><g id="pTokens-icon"><path id="Path" class="cls-1" d="M117.79,118.39c-72.71,72.71-72.71,190.61,0,263.32s190.61,72.71,263.32,0,72.71-190.61,0-263.32S190.5,45.68,117.79,118.39Z"/><path class="cls-2" d="M74.45,250.05A175,175,0,0,1,373.2,126.31l51.07-51.07c-96.55-96.55-253.08-96.55-349.62,0s-96.55,253.07,0,349.61l51.06-51.06A174.45,174.45,0,0,1,74.45,250.05Z"/><path class="cls-3" d="M424.25,75.22l-51.07,51.07a175,175,0,0,1,0,247.49q-3.84,3.83-7.9,7.42a247.35,247.35,0,0,1,58.95,43.66C520.8,328.31,520.8,171.77,424.25,75.22Z"/><path class="cls-3" d="M125.71,373.79,74.65,424.86a246.85,246.85,0,0,1,59-43.65C130.9,378.81,128.26,376.35,125.71,373.79Z"/><path id="Path-2" class="cls-1" d="M424.25,424.86c-96.52,96.55-253,96.55-349.6,0C171.2,328.31,327.73,328.31,424.25,424.86Z"/></g></g><circle class="cls-4" cx="250.19" cy="249.97" r="145.38"/></g><g id="Livello_2" data-name="Livello 2"><path class="cls-5" d="M330.52,204.27A54.32,54.32,0,0,0,249,238.76a41.29,41.29,0,0,0,4.58,3.31,59.38,59.38,0,0,1,5.76-2.13,1.51,1.51,0,0,0,.3-.1A57.78,57.78,0,0,1,310,248.36a54.57,54.57,0,0,0,20.5-44.09Z"/><path class="cls-5" d="M323.25,267.92a54.29,54.29,0,0,0-66.14-23.67,59.52,59.52,0,0,1,23.15,27.41c.05.15.85,2.13.93,2.35A59.84,59.84,0,0,1,285,293.73v2.68h0c0,1.85-.18,3.68-.38,5.51a54.45,54.45,0,0,0,45.91-5.25A54,54,0,0,0,323.25,267.92Z"/><path class="cls-5" d="M252,262.19a42.63,42.63,0,0,0-4.58-3.31c-1.37.58-2.73,1.13-4.14,1.61h0a57.73,57.73,0,0,1-52.34-7.9,54.4,54.4,0,0,0-20.47,44.08A54.28,54.28,0,0,0,252,262.19Z"/><path class="cls-5" d="M243.86,256.7a59.46,59.46,0,0,1-23.12-27.41h0c-.13-.27-.91-2.28-.93-2.35h0A59.86,59.86,0,0,1,216,207.22v-2.68c.05-1.85.17-3.68.37-5.51a54.3,54.3,0,0,0-45.89,5.24,54.27,54.27,0,0,0,73.35,52.43Z"/><path class="cls-6" d="M277.36,317.25c.05-.13.87-2.23.9-2.26a55.88,55.88,0,0,0,3.58-18.66V293.8a57.18,57.18,0,0,0-3.58-18.69c0-.1-.83-2.08-.9-2.25A56.6,56.6,0,0,0,253.3,245.6a46,46,0,0,1-16.93-17c-.83-1.51-2.39-4.92-3-6.27a45.79,45.79,0,0,1,.91-35.12c.57-1.23,2.08-4.09,2.18-4.26l.55-1h0a45.24,45.24,0,0,1,13.43-14.08,45.94,45.94,0,0,1,20,33.87A49.59,49.59,0,0,1,281,196.26a57.85,57.85,0,0,0-8.44-21.58,56.46,56.46,0,0,0-19.27-18.24c-.71-.42-1.45-.82-2.28-1.25l-.52-.27-.52.27c-.83.43-1.56.83-2.28,1.26a56.6,56.6,0,0,0-24.06,27.26c0,.07-.87,2.18-.9,2.25a56.06,56.06,0,0,0-3.58,18.69v2.53a57.08,57.08,0,0,0,3.58,18.69c0,.1.83,2.08.9,2.26a56.68,56.68,0,0,0,24.06,27.26,46,46,0,0,1,16.93,17c.83,1.5,2.39,4.91,3,6.26a45.79,45.79,0,0,1-.91,35.12c-.57,1.23-2.08,4.09-2.18,4.26l-.55,1h0a45.34,45.34,0,0,1-13.41,14.06,45.72,45.72,0,0,1-19.79-32.44,98.44,98.44,0,0,1-10.5,5.32,57.63,57.63,0,0,0,8.21,20.36,56.43,56.43,0,0,0,19.26,18.24c.73.42,1.45.83,2.28,1.25l.54.27.48-.34c.83-.42,1.55-.82,2.28-1.25A56.5,56.5,0,0,0,277.36,317.25Z"/></g></svg>