<svg xmlns="http://www.w3.org/2000/svg" xmlns:xlink="http://www.w3.org/1999/xlink" viewBox="0 0 494.42 494.44"><defs><linearGradient id="linear-gradient" x1="2390.73" y1="796.83" x2="2390.73" y2="1183.54" gradientTransform="translate(-227.19 -55.9) scale(0.2)" gradientUnits="userSpaceOnUse"><stop offset="0" stop-color="#090220"/><stop offset="1" stop-color="#170659"/></linearGradient></defs><title>pSNX_1</title><g id="Layer_2" data-name="Layer 2"><g id="Layer_1-2" data-name="Layer 1"><g id="Artboard"><g id="pTokens-icon"><path id="Path" d="M114.46,114.47c-73.31,73.31-73.31,192.19,0,265.5s192.19,73.31,265.5,0,73.32-192.19,0-265.5S187.77,41.16,114.46,114.47Z" fill="#f5f7e2"/><path d="M72.21,247.22A175,175,0,0,1,371,123.48L422,72.41C325.48-24.14,169-24.14,72.41,72.41s-96.55,253.07,0,349.61L123.47,371A174.45,174.45,0,0,1,72.21,247.22Z" fill="#f66"/><path d="M123.47,371,72.41,422a246.87,246.87,0,0,1,59-43.65C128.66,376,126,373.52,123.47,371Z" fill="#d95e59"/><path d="M422,72.39l-51.07,51.07a175,175,0,0,1-7.88,254.91A247.33,247.33,0,0,1,422,422C518.56,325.48,518.56,168.94,422,72.39Z" fill="#d95e59"/><path id="Path-2" data-name="Path" d="M422,422c-96.52,96.55-253,96.55-349.6,0C169,325.48,325.49,325.48,422,422Z" fill="#f5f7e2"/></g></g><circle cx="247.21" cy="247.22" r="145" fill="url(#linear-gradient)"/><path d="M199.45,211.17a6.11,6.11,0,0,0-4.79-2.24H155.93a1.29,1.29,0,0,1-.84-.32,1,1,0,0,1-.32-.72v-26.1a1.08,1.08,0,0,1,1.16-1h40.92q15.48,0,26.74,12.66l9.95,12.15L214.16,229.2ZM271,193.3q11.22-12.53,26.86-12.54h40.81a1.06,1.06,0,0,1,.76.23.93.93,0,0,1,.24.8v26.1a1.12,1.12,0,0,1-.24.72.84.84,0,0,1-.76.32H299.93a6.1,6.1,0,0,0-4.8,2.24L266.6,245.9l28.65,35a6.08,6.08,0,0,0,4.64,2.08h38.73a.9.9,0,0,1,.76.32,1.29,1.29,0,0,1,.24.84v26.1a1.12,1.12,0,0,1-.24.72.84.84,0,0,1-.76.32H297.85c-10.43,0-19.3-4.24-26.74-12.67l-23.74-29-23.74,29q-11.2,12.65-26.86,12.67H155.93a.9.9,0,0,1-.76-.32,1.1,1.1,0,0,1-.24-.84V284a1.12,1.12,0,0,1,.24-.72.84.84,0,0,1,.76-.32h38.73a6.36,6.36,0,0,0,4.79-2.24l28-34.21Z" fill="#00d1ff"/></g></g></svg>