<svg xmlns="http://www.w3.org/2000/svg" viewBox="0 0 494.42 494.44"><defs><style>.cls-1{fill:#f5f7e2;}.cls-2{fill:#f66;}.cls-3{fill:#d95e59;}.cls-4{fill:#2d598a;}.cls-5{fill:#fff;}</style></defs><g id="Livello_2" data-name="Livello 2"><g id="Layer_1" data-name="Layer 1"><g id="Artboard"><g id="pTokens-icon"><path id="Path" class="cls-1" d="M115.55,115.56c-72.71,72.71-72.71,190.61,0,263.32s190.61,72.71,263.32,0,72.71-190.61,0-263.32S188.26,42.85,115.55,115.56Z"/><path class="cls-2" d="M72.21,247.22A175,175,0,0,1,371,123.48L422,72.41C325.48-24.14,169-24.14,72.41,72.41s-96.55,253.07,0,349.61L123.47,371A174.43,174.43,0,0,1,72.21,247.22Z"/><path class="cls-3" d="M422,72.39l-51.07,51.07A175,175,0,0,1,371,371q-3.82,3.84-7.89,7.42A247.35,247.35,0,0,1,422,422C518.56,325.48,518.56,168.94,422,72.39Z"/><path class="cls-3" d="M123.47,371,72.41,422a246.85,246.85,0,0,1,59-43.65C128.66,376,126,373.52,123.47,371Z"/><path id="Path-2" class="cls-1" d="M422,422c-96.52,96.55-253,96.55-349.6,0C169,325.48,325.49,325.48,422,422Z"/></g></g></g><g id="Livello_2-2" data-name="Livello 2"><circle class="cls-4" cx="247.21" cy="247.14" r="145.38"/><polygon class="cls-5" points="196.48 188.81 297.94 188.81 297.94 216.25 263.69 216.25 263.69 305.16 230.94 305.16 230.94 216.04 196.48 216.04 196.48 188.81"/></g></g></svg>