<svg xmlns="http://www.w3.org/2000/svg" xmlns:xlink="http://www.w3.org/1999/xlink" viewBox="0 0 494.42 494.44"><defs><linearGradient id="linear-gradient" x1="144.72" y1="146.72" x2="349.71" y2="351.72" gradientTransform="matrix(1, 0, 0, -1, 0, 496.44)" gradientUnits="userSpaceOnUse"><stop offset="0.33" stop-color="#fff5ff"/><stop offset="1" stop-color="#ffadfc"/></linearGradient></defs><title>pUNI_1</title><g id="Layer_2" data-name="Layer 2"><g id="Layer_1-2" data-name="Layer 1"><g id="Artboard"><g id="pTokens-icon"><circle id="Bigger_hole_ellipse" data-name="Bigger hole ellipse" cx="247.21" cy="247.22" r="181.02" fill="#f5f7e2"/><path d="M72.21,247.22A175,175,0,0,1,371,123.48L422,72.41C325.48-24.14,169-24.14,72.41,72.41s-96.55,253.07,0,349.61L123.47,371A174.45,174.45,0,0,1,72.21,247.22Z" fill="#f66"/><path d="M123.47,371,72.41,422a246.87,246.87,0,0,1,59-43.65C128.66,376,126,373.52,123.47,371Z" fill="#d95e59"/><path d="M422,72.39l-51.07,51.07a175,175,0,0,1-7.88,254.91A247.33,247.33,0,0,1,422,422C518.56,325.48,518.56,168.94,422,72.39Z" fill="#d95e59"/><path id="Path" d="M422,422c-96.52,96.55-253,96.55-349.6,0C169,325.48,325.49,325.48,422,422Z" fill="#f5f7e2"/></g></g><g id="Uniswap"><circle cx="247.21" cy="247.22" r="144.95" fill="url(#linear-gradient)"/><path d="M241.72,240.79c3.86,6.84-4.85,9-8.82,9.33-6.1.62-7.46-2.86-6.22-7.46a7.37,7.37,0,0,1,2.49-4.11,7.24,7.24,0,0,1,4.35-1.86,8.92,8.92,0,0,1,4.72.87A8,8,0,0,1,241.72,240.79Zm24.12-12.55c-4.47,34.31,56.07,27.22,54.83,54.45,6-7.71,8.58-28.84-9.08-39.66C295.93,233.33,275.66,238.68,265.84,228.24Z" fill="#ff007a"/><path d="M314.7,240.29a24.5,24.5,0,0,0-1.87-3,14.94,14.94,0,0,0-8.32-5.59,31.46,31.46,0,0,0-6.72-1.12l-7-.38a62.48,62.48,0,0,1-14.42-2.11c-1.12-.37-2.36-.74-3.48-1.12-.62-.25-1.12-.49-1.74-.74a11.77,11.77,0,0,1-1.74-.87,36.12,36.12,0,0,1-6.22-4.48c-3.73-3.36-6.59-7.33-9.45-11.06s-5.72-7.46-8.7-10.82a43.67,43.67,0,0,0-10.69-8.45,38.85,38.85,0,0,0-13.3-3.86,31.22,31.22,0,0,1,14.29,1.74,38.17,38.17,0,0,1,12.43,7.84,83.38,83.38,0,0,1,6.59,7c15.17-3,27.48-.38,36.8,4.85l.25.12a49.59,49.59,0,0,1,8.46,5.84,9.71,9.71,0,0,1,1.11,1.12,64.51,64.51,0,0,1,5.6,6l.12.12c5.22,7.21,8,14.55,8,19Zm-94.36-49.6c3.85.5,9.08,2.61,11.56,5.6s3.48,6.71,4.23,10.31a48.11,48.11,0,0,0,2.24,8.33,32.29,32.29,0,0,0,2,3.73c.49,1,1.61,1.87,1.86,3.11,0,.13.12.37,0,.5a.79.79,0,0,1-.12.5c-1.37,1.49-5-.13-6.47-.87a18,18,0,0,1-6.21-4.85c-5.47-6.09-9.58-15.54-9.33-23.5A11.58,11.58,0,0,1,220.34,190.69Zm65.77,69.5c-8.33,23.37,29.46,38.91,15.29,62.65,14.54-6,21.5-24.11,15.41-38.54C311.59,271.62,295.93,267,286.11,260.19ZM236,290.77a34.1,34.1,0,0,1,7.46-4.23,36,36,0,0,1,8.33-2.36c5.6-1.12,11.19-1.37,15.79-3.23a20.11,20.11,0,0,0,6.22-3.86,16.23,16.23,0,0,0,4-6,19,19,0,0,0,1-7.46,29.83,29.83,0,0,0-1.86-8,17.11,17.11,0,0,1,4.35,7.71,18.13,18.13,0,0,1,.25,8.95,18.4,18.4,0,0,1-4.48,8.21,19.83,19.83,0,0,1-7.83,4.84,29,29,0,0,1-8.7,1.74c-2.86.25-5.6.25-8.33.5A51.86,51.86,0,0,0,236,290.77Zm53.46,40.9c-.87.62-1.61,1.37-2.61,2s-1.86,1.12-2.86,1.62a15.74,15.74,0,0,1-6.71,1.61c-6.34-.12-10.82-4.85-13.43-10.19-1.74-3.61-3.11-7.59-5.09-11.07-3.11-5-8.21-8.95-14.3-8.2a8.34,8.34,0,0,0-6.22,3.6c-3.6,5.6,1.62,13.43,8.21,12.44a4,4,0,0,0,1.61-.5,9.67,9.67,0,0,0,1.5-.87,5.73,5.73,0,0,0,2-2.86,7.44,7.44,0,0,0,.25-3.73,4.83,4.83,0,0,0-2.11-3.23,5.34,5.34,0,0,1,2.73,3,8.08,8.08,0,0,1,.38,4.23,7.87,7.87,0,0,1-1.87,4,6.6,6.6,0,0,1-1.74,1.49,11.37,11.37,0,0,1-2.11,1,12.08,12.08,0,0,1-4.73.5,10.84,10.84,0,0,1-6-2.61,56.63,56.63,0,0,1-5.35-5.6,24.16,24.16,0,0,0-7.46-5.34,25.85,25.85,0,0,0-6-1.87,27.72,27.72,0,0,0-3.1-.49c-.5,0-2.74-.5-3.24-.25a59.41,59.41,0,0,1,10.57-7.83,49,49,0,0,1,12.31-5.23,36.94,36.94,0,0,1,13.8-1.11,26.91,26.91,0,0,1,7,1.74,20.87,20.87,0,0,1,6.34,4,18.77,18.77,0,0,1,4.35,6.1,30,30,0,0,1,2.12,6.71c1.36,7,.87,17.65,9.94,19.27a6.29,6.29,0,0,0,1.49.12h1.5c1,0,2-.25,3.1-.37a25.79,25.79,0,0,0,5.72-2Zm-52.71-7.58-.25-.13ZM228.17,221a4.46,4.46,0,0,1,.62,1.36v.13a12.38,12.38,0,0,1-.25,3.73,11.31,11.31,0,0,1-1.61,3.48,14.44,14.44,0,0,1-5.72,4.35,18.24,18.24,0,0,1-6.34,1.61c-.5,0-1,.13-1.49.13a5.5,5.5,0,0,0-3.73,1.49,6.2,6.2,0,0,0-2.24,3.36c-.12.62-.25,1.37-.37,2-.25,1.74-.25,3.6-.38,5.84a36,36,0,0,1-3.23,10.82c-2.11,4.47-4.6,8.2-4,13.42.38,3.36,2.12,5.72,4.36,8.08,4.22,4.23,13.55,6.22,11.43,16.66-1.12,5.85-10.69,12.19-24,14.8A2.09,2.09,0,0,1,189,311a34.39,34.39,0,0,0-2.24-4.47,66.58,66.58,0,0,1-4.47-7.46,28.08,28.08,0,0,1-2.61-16.78c1.12-6,5.47-10.57,9.07-15.05,4.35-5.34,9-12.55,10-19.52.25-1.74.37-3.85.74-6a20.49,20.49,0,0,1,2.24-6.72,16.83,16.83,0,0,1,2.86-3.73,3.48,3.48,0,0,0,1.12-2.11,3.87,3.87,0,0,0-.37-2.36l-36.06-71.49L228.17,221Zm-12.43,4.84a3.37,3.37,0,0,0,1.49,1.12,4,4,0,0,0,1.74.38,4.37,4.37,0,0,0,1.74-.38,4.22,4.22,0,0,0,1.49-1.12,2.92,2.92,0,0,0,.63-1.74,2.17,2.17,0,0,0-.63-1.74c-.74-1-48-60.29-48-60.29Z" fill="#ff007a"/></g></g></g></svg>