<svg xmlns="http://www.w3.org/2000/svg" viewBox="0 0 494.44 494.44"><title>pOUS</title><g id="Layer_2" data-name="Layer 2"><g id="Layer_1-2" data-name="Layer 1"><g id="Artboard"><g id="pTokens-icon"><path d="M422,422h0c-96.52,96.55-253,96.55-349.61,0S-24.14,169,72.41,72.41s253.08-96.55,349.62,0S518.58,325.49,422,422Z" fill="#fff4c7"/><path d="M113,247.22c0-55,3.93-88.8,24.66-109.52S192.18,113,247.22,113,336,117,356.75,137.7L422,72.41C325.49-24.14,169-24.14,72.41,72.41s-96.54,253.07,0,349.61l65.28-65.28C117,336,113,302.26,113,247.22Z" fill="#f66"/><path d="M137.7,356.75h0L72.42,422A246.35,246.35,0,0,1,153.3,368.1,63.12,63.12,0,0,1,137.7,356.75Z" fill="#d95e59"/><path d="M422,72.39l-65.28,65.3h0c20.72,20.72,24.65,54.48,24.65,109.52s-3.93,88.8-24.65,109.53a63,63,0,0,1-15.6,11.34A246.35,246.35,0,0,1,422,422C518.57,325.48,518.57,169,422,72.39Z" fill="#d95e59"/></g></g></g><g id="Layer_4" data-name="Layer 4"><path d="M247.22,128C142.34,128,128,142.34,128,247.22S142.34,366.4,247.22,366.4,366.4,352.1,366.4,247.22,352.1,128,247.22,128Z" fill="#7a52d1"/><path d="M235.3,199.55h23.84v47.67c0,4.77-1.25,7.78-3,9.54-1.76,2.38-4.77,3.63-8.91,3.63a11.24,11.24,0,0,1-8.9-3.63c-1.76-1.76-3-4.77-3-9.54Z" fill="#f5f7e2"/><path d="M306.81,248.48c0,17.31-5.39,32.74-16.68,44.16-11.29,10.66-25.6,16.05-42.91,16.05s-31.61-4.76-42.9-16.05c-11.29-11.92-16.69-27.48-16.69-44.16V199.55h23.84v48.93c0,12.54,3.51,20.82,9.53,26.22,6,6,14.3,8.9,26.22,8.9,12.55,0,20.33-3.63,26.22-8.9,6-6,9.54-14.31,9.54-26.85v-48.3h23.83Z" fill="#f5f7e2"/></g></g></svg>