<svg xmlns="http://www.w3.org/2000/svg" viewBox="0 0 494.42 494.44"><defs><style>.cls-1{fill:#f5f7e2;}.cls-2{fill:#f66;}.cls-3{fill:#d95e59;}.cls-4{fill:#50af95;}.cls-4,.cls-5{fill-rule:evenodd;}.cls-5{fill:#fff;}</style></defs><g id="Layer_2" data-name="Layer 2"><g id="Layer_1-2" data-name="Layer 1"><path id="Background" class="cls-1" d="M475.13,247.22c0-125.88-102-227.92-227.92-227.92S19.29,121.34,19.29,247.22A227.24,227.24,0,0,0,86.58,408.91Q79.31,415.14,72.41,422C169,518.58,325.49,518.58,422,422q-6.88-6.9-14.17-13.12A227.2,227.2,0,0,0,475.13,247.22Z"/><path class="cls-2" d="M80.05,236.08a2.47,2.47,0,0,1-.54-2.9l61.25-128.66a2.47,2.47,0,0,1,2.28-1.43H351.41a2.45,2.45,0,0,1,2.25,1.44l11.69,24.55L422,72.41C325.48-24.14,169-24.14,72.41,72.41s-96.55,253.07,0,349.61l98.69-98.69Z"/><path class="cls-3" d="M171.09,323.33,72.41,422a246,246,0,0,1,130.32-68.38Z"/><path class="cls-3" d="M422,72.39l-56.67,56.67,49.57,104.13a2.47,2.47,0,0,1-.53,2.9L291.7,353.64A246,246,0,0,1,422,422C518.56,325.48,518.56,168.94,422,72.39Z"/><g id="USDT_logo" data-name="USDT logo"><path class="cls-4" d="M153.17,119.4,99.06,233.06a2.21,2.21,0,0,0,.47,2.57l146.14,140a2.25,2.25,0,0,0,3.09,0l146.13-140a2.2,2.2,0,0,0,.48-2.57L341.26,119.41a2.2,2.2,0,0,0-2-1.28H155.18a2.19,2.19,0,0,0-2,1.27Z"/><path class="cls-5" d="M266,244.73h0c-1.05.08-6.47.4-18.56.4-9.62,0-16.45-.29-18.85-.4h0c-37.16-1.63-64.9-8.1-64.9-15.85s27.74-14.21,64.9-15.87v25.28c2.43.17,9.39.58,19,.58,11.54,0,17.32-.48,18.36-.57V213c37.09,1.65,64.77,8.12,64.77,15.85s-27.67,14.2-64.77,15.84h0Zm0-34.32V187.8h51.76V153.31H176.84V187.8h51.75v22.61c-42.07,1.93-73.7,10.26-73.7,20.24s31.63,18.31,73.7,20.25v72.48H266v-72.5c42-1.93,73.54-10.26,73.54-20.23S308,212.35,266,210.41h0Z"/></g></g></g></svg>