<svg xmlns="http://www.w3.org/2000/svg" viewBox="0 0 494.42 494.44"><defs><style>.cls-1{fill:#f5f7e2;}.cls-2{fill:#f66;}.cls-3{fill:#d95e59;}.cls-4{fill:#2775ca;}.cls-5{fill:#fff;}</style></defs><g id="Layer_2" data-name="Layer 2"><g id="Layer_1-2" data-name="Layer 1"><g id="Artboard"><g id="pTokens-icon"><path id="Path" class="cls-1" d="M115.55,115.56c-72.71,72.71-72.71,190.61,0,263.32s190.61,72.71,263.32,0,72.71-190.61,0-263.32S188.26,42.85,115.55,115.56Z"/><path class="cls-2" d="M72.21,247.22A175,175,0,0,1,371,123.48L422,72.41C325.48-24.14,169-24.14,72.41,72.41s-96.55,253.07,0,349.61L123.47,371A174.45,174.45,0,0,1,72.21,247.22Z"/><path class="cls-3" d="M422,72.39l-51.07,51.07a175,175,0,0,1-7.88,254.91A247.33,247.33,0,0,1,422,422C518.56,325.48,518.56,168.94,422,72.39Z"/><path class="cls-3" d="M123.47,371,72.41,422a246.87,246.87,0,0,1,59-43.65C128.66,376,126,373.52,123.47,371Z"/><path id="Path-2" data-name="Path" class="cls-1" d="M422,422c-96.52,96.55-253,96.55-349.6,0C169,325.48,325.49,325.48,422,422Z"/></g></g></g><g id="Layer_4" data-name="Layer 4"><g id="USDC_logo" data-name="USDC logo"><path class="cls-4" d="M247.21,392.31a145.1,145.1,0,1,0-145.1-145.1A144.75,144.75,0,0,0,247.21,392.31Z"/><path class="cls-5" d="M287.11,270.18c0-21.16-12.69-28.41-38.08-31.43-18.14-2.42-21.77-7.26-21.77-15.72s6.05-13.91,18.14-13.91c10.88,0,16.93,3.63,20,12.7a4.55,4.55,0,0,0,4.23,3h9.67a4.14,4.14,0,0,0,4.24-4.23V220a30.2,30.2,0,0,0-27.21-24.78V180.71c0-2.42-1.81-4.24-4.84-4.84h-9.06c-2.42,0-4.24,1.81-4.84,4.84v13.9c-18.14,2.42-29.62,14.51-29.62,29.63,0,19.95,12.09,27.81,37.48,30.83,16.93,3,22.37,6.65,22.37,16.32s-8.47,16.33-19.95,16.33c-15.72,0-21.16-6.65-23-15.72a4.41,4.41,0,0,0-4.23-3.63H210.33a4.13,4.13,0,0,0-4.23,4.23v.61c2.42,15.11,12.09,26,32,29v14.51c0,2.41,1.82,4.23,4.84,4.83h9.07c2.42,0,4.23-1.81,4.84-4.83V302.23c18.13-3,30.22-15.72,30.22-32.05Z"/><path class="cls-5" d="M216.38,333.66c-47.16-16.92-71.34-69.52-53.81-116.08a89.43,89.43,0,0,1,53.81-53.8,6.07,6.07,0,0,0,3.63-6.05v-8.46a4.6,4.6,0,0,0-3.63-4.84A3.61,3.61,0,0,0,214,145a108.79,108.79,0,0,0,0,207.37A3.68,3.68,0,0,0,219.4,350c.61-.61.61-1.21.61-2.42V339.1C220,337.29,218.19,334.87,216.38,333.66ZM280.46,145a3.68,3.68,0,0,0-5.44,2.41c-.6.61-.6,1.21-.6,2.42v8.47c0,2.42,1.81,4.83,3.63,6,47.15,16.93,71.34,69.53,53.8,116.08a89.46,89.46,0,0,1-53.8,53.81,6.06,6.06,0,0,0-3.63,6v8.47a4.59,4.59,0,0,0,3.63,4.83,3.63,3.63,0,0,0,2.41-.6,109.26,109.26,0,0,0,0-208Z"/></g></g></g></svg>