<svg xmlns="http://www.w3.org/2000/svg" xmlns:xlink="http://www.w3.org/1999/xlink" viewBox="0 0 494.42 494.44"><defs><style>.cls-1{fill:#f5f7e2;}.cls-2{fill:#f66;}.cls-3{fill:#d95e59;}.cls-4{fill:url(#linear-gradient);}.cls-5{fill:#090715;}.cls-6{fill:none;stroke:#6868bf;stroke-dasharray:3 3;}.cls-7{fill:#fff;}</style><linearGradient id="linear-gradient" x1="28.21" y1="324.32" x2="402.74" y2="760.22" gradientTransform="translate(0 -332)" gradientUnits="userSpaceOnUse"><stop offset="0" stop-color="#fc5c7d"/><stop offset="1" stop-color="#4f6cff"/></linearGradient></defs><g id="Layer_2" data-name="Layer 2"><g id="Layer_1-2" data-name="Layer 1"><g id="Artboard"><g id="pTokens-icon"><path id="Path" class="cls-1" d="M115.55,115.56c-72.71,72.71-72.71,190.61,0,263.32s190.61,72.71,263.32,0,72.71-190.61,0-263.32S188.26,42.85,115.55,115.56Z"/><path class="cls-2" d="M72.21,247.22A175,175,0,0,1,371,123.48L422,72.41C325.48-24.14,169-24.14,72.41,72.41s-96.55,253.07,0,349.61L123.47,371A174.45,174.45,0,0,1,72.21,247.22Z"/><path class="cls-3" d="M422,72.39l-51.07,51.07a175,175,0,0,1-7.88,254.91A247.33,247.33,0,0,1,422,422C518.56,325.48,518.56,168.94,422,72.39Z"/><path class="cls-3" d="M123.47,371,72.41,422a246.87,246.87,0,0,1,59-43.65C128.66,376,126,373.52,123.47,371Z"/><path id="Path-2" data-name="Path" class="cls-1" d="M422,422c-96.52,96.55-253,96.55-349.6,0C169,325.48,325.49,325.48,422,422Z"/></g></g></g><g id="Layer_4" data-name="Layer 4"><g id="USDO_token" data-name="USDO token"><g id="Layer_1-3" data-name="Layer 1"><circle class="cls-4" cx="247.21" cy="247.21" r="145.1"/></g><g id="Layer_2-2" data-name="Layer 2"><circle class="cls-5" cx="247.21" cy="247.21" r="142.68"/></g><g id="Layer_3" data-name="Layer 3"><circle class="cls-6" cx="247.21" cy="247.21" r="132.7"/></g><g id="Layer_4-2" data-name="Layer 4"><path class="cls-7" d="M247.21,308c33.44,0,58.53-26.18,58.53-61.3,0-34.89-25-60.83-58.53-60.83s-58.52,26-58.52,60.83C188.69,281.73,213.72,308,247.21,308Zm25.7-8.89c-25.27,12.15-54.78-2.11-69.05-33.25-13.54-29.93-6.1-60.58,17.54-71.58,24.54-11.73,54,2.78,69,33.67C304.28,257.67,296.55,288.08,272.91,299.08Z"/><path class="cls-7" d="M248.72,327.68c-7,0-11.73-4-11.73-10V176.78c0-6.11,4.66-10,11.73-10a.7.7,0,0,0,0-1.39H212.45a.7.7,0,0,0,0,1.39c7,0,11.73,4,11.73,10V317.64c0,6.11-4.66,10-11.73,10a.7.7,0,0,0,0,1.39h36.27A.7.7,0,1,0,248.72,327.68Z"/><path class="cls-7" d="M281.37,327.68c-7,0-11.73-4-11.73-10V176.78c0-6.11,4.66-10,11.73-10a.7.7,0,0,0,0-1.39H245.1a.7.7,0,0,0,0,1.39c7,0,11.66,4,11.66,10V317.64c0,6.11-4.65,10-11.66,10a.7.7,0,0,0,0,1.39h36.27A.7.7,0,1,0,281.37,327.68Z"/></g></g></g></g></svg>