<svg xmlns="http://www.w3.org/2000/svg" viewBox="0 0 494.42 494.44"><defs><style>.cls-1{fill:#f5f7e2;}.cls-2{fill:#f66;}.cls-3{fill:#d95e59;}.cls-4{fill:#73bb59;}.cls-5{fill:#fff;}</style></defs><g id="Livello_2" data-name="Livello 2"><g id="Layer_1" data-name="Layer 1"><g id="Artboard"><g id="pTokens-icon"><path id="Path" class="cls-1" d="M115.55,115.56c-72.71,72.71-72.71,190.61,0,263.32s190.61,72.71,263.32,0,72.71-190.61,0-263.32S188.26,42.85,115.55,115.56Z"/><path class="cls-2" d="M72.21,247.22A175,175,0,0,1,371,123.48L422,72.41C325.48-24.14,169-24.14,72.41,72.41s-96.55,253.07,0,349.61L123.47,371A174.43,174.43,0,0,1,72.21,247.22Z"/><path class="cls-3" d="M422,72.39l-51.07,51.07A175,175,0,0,1,371,371q-3.82,3.84-7.89,7.42A247.35,247.35,0,0,1,422,422C518.56,325.48,518.56,168.94,422,72.39Z"/><path class="cls-3" d="M123.47,371,72.41,422a246.85,246.85,0,0,1,59-43.65C128.66,376,126,373.52,123.47,371Z"/><path id="Path-2" class="cls-1" d="M422,422c-96.52,96.55-253,96.55-349.6,0C169,325.48,325.49,325.48,422,422Z"/></g></g><path class="cls-4" d="M247.76,392.31a145.1,145.1,0,1,0-145.1-145.1h0A145.09,145.09,0,0,0,247.75,392.31Z"/><path class="cls-5" d="M320.38,258c-2.4-.13-4.8-.13-7.2-.13H247.6v0H177c-5.76,0-10.77,1.34-11.25,8.27-.4,5.79,3.8,9.93,11.24,10,8.88.13,25.1.4,34,0,6.78,18.93,17.43,43.87,24.34,62.75,1.81,4.94,4.93,7.74,9.63,7.81,3.58,0,7-1.67,9.59-8,7.36-18.19,16.68-44,23.2-62.54,11,0,31.55-.31,42.6-.48,5.58-.08,9.26-3.43,9.42-9.11C329.87,260.63,325.86,258.24,320.38,258Zm-74.47,53.59-1.94.13-13.39-35.5h28.71Z"/><path class="cls-5" d="M329.76,231.22c-.64-5.92-4.68-7.78-10.16-7.69-6.43.11-13.42,0-21.15,0,1.45-4.48,2.54-7.45,3.68-10.44,4.31-11.42,8.77-22.78,13.15-34.17.34-.89.49-1.86.8-2.76,1.93-5.48,1-10.13-4.56-12.7-5-2.33-9.47.39-12,6.95-5.68,14.73-15,38.05-20.21,53-17-.57-51.6-.06-68.71,0-5.83-15.19-14.79-38.43-20.5-53.66-2.13-5.67-6.26-8.29-11.8-6.19s-6.64,7.08-4.61,12.56c2.24,6.07,4.54,12.11,6.8,18.17,3.46,9.28,6.9,18.57,10.87,29.25-6.31,0-10.82.08-15.31,0-5.82-.12-10.09,1.88-10.31,8.27s4.14,8.91,9.82,8.92q72,.12,144.08,0C326.27,240.7,330.35,236.73,329.76,231.22Z"/></g></g></svg>