<?xml version="1.0" encoding="UTF-8"?><svg id="Livello_2" xmlns="http://www.w3.org/2000/svg" viewBox="0 0 494.42 494.45"><defs><style>.cls-1{fill:#f6f6f7;}.cls-2{fill:#f8f8f8;}.cls-3{fill:#fc4e23;}.cls-4{fill:#f5f7e2;}.cls-5{fill:#feb3a1;}.cls-6{fill:#f66;}.cls-7{fill:#d95e59;}.cls-8{fill:#a43a2f;}</style></defs><g id="Livello_2-2"><g id="Layer_1"><g id="Artboard"><g id="pTokens-icon"><path id="Path" class="cls-4" d="M115.55,115.56c-72.71,72.71-72.71,190.61,0,263.32,72.71,72.71,190.61,72.71,263.32,0s72.71-190.61,0-263.32c-72.71-72.71-190.61-72.71-263.32,0h0Z"/><path class="cls-6" d="M72.21,247.22c0-96.65,78.35-175,175-175,46.42,0,90.93,18.44,123.75,51.26l51.07-51.07c-96.55-96.55-253.08-96.55-349.62,0-96.54,96.55-96.55,253.07,0,349.61l51.06-51.06c-32.87-32.78-51.32-77.32-51.26-123.74Z"/><path class="cls-7" d="M422.01,72.39l-51.07,51.07c68.35,68.34,68.35,179.14,.02,247.49-2.55,2.56-5.19,5.03-7.9,7.42,21.71,11.54,41.58,26.26,58.95,43.66,96.55-96.55,96.55-253.09,0-349.64h0Z"/><path class="cls-7" d="M123.47,370.96l-51.06,51.07c17.38-17.41,37.27-32.12,59-43.65-2.75-2.4-5.39-4.86-7.94-7.42Z"/><path id="Path-2" class="cls-4" d="M422.01,422.03c-96.52,96.55-253,96.55-349.6,0,96.55-96.55,253.08-96.55,349.6,0Z"/></g></g></g><path class="cls-3" d="M243.43,101.55h8.32c.26,.15,.54,.07,.81,.07,3.32,.03,6.64,.07,9.95,.37,3.56,.32,7.1,.85,10.62,1.48,7.46,1.33,14.77,3.23,21.93,5.71,4.74,1.64,9.38,3.54,13.93,5.67,5.03,2.35,9.91,4.98,14.64,7.88,5.14,3.15,10.05,6.63,14.75,10.41,2.79,2.24,5.49,4.58,8.11,7.01,2.39,2.21,4.7,4.5,6.93,6.86,4.94,5.25,9.5,10.82,13.6,16.76,3.14,4.55,6.05,9.23,8.66,14.1,3.5,6.54,6.54,13.29,9.03,20.29,2.72,7.67,4.75,15.51,6.18,23.52,.53,3,.98,6.02,1.27,9.05,.21,2.22,.27,4.45,.27,6.69,0,.22-.07,.45,.07,.66v17.71c-.19,.89-.11,1.8-.13,2.7-.09,5.23-.87,10.37-1.82,15.5-1.26,6.83-3.02,13.53-5.27,20.1-1.61,4.7-3.46,9.31-5.55,13.82-3.46,7.45-7.46,14.58-12.12,21.35-2.96,4.3-6.13,8.43-9.52,12.41-3.4,4-7.04,7.77-10.85,11.38-4.32,4.09-8.89,7.89-13.69,11.4-5.18,3.78-10.56,7.22-16.18,10.31-6.78,3.72-13.8,6.87-21.08,9.48-7.83,2.8-15.84,4.89-24.03,6.3-3.94,.68-7.9,1.25-11.91,1.42-1.75,.07-3.51,.04-5.26,.21h-15.44c-1.07-.19-2.15-.1-3.22-.13-3.95-.11-7.85-.52-11.75-1.13-4.68-.74-9.32-1.68-13.91-2.87-7.43-1.92-14.66-4.43-21.7-7.5-8.34-3.64-16.26-8.04-23.78-13.15-4.35-2.96-8.51-6.19-12.53-9.6-4.15-3.5-8.01-7.3-11.74-11.22-4.33-4.54-8.28-9.41-11.95-14.51-2.38-3.32-4.63-6.72-6.74-10.22-1.28-2.11-2.48-4.27-3.64-6.45-2.67-4.98-5.01-10.11-7.08-15.37-1.94-4.95-3.58-10.01-4.99-15.15-1-3.67-1.81-7.39-2.52-11.13-.69-3.64-1.22-7.3-1.6-10.98-.3-2.88-.33-5.78-.42-8.67-.03-1.06-.06-2.11-.06-3.17,0-2.63,0-5.26,0-7.88,.03-3.6,.09-7.2,.36-10.79,.22-2.84,.65-5.65,1.1-8.46,1.39-8.71,3.56-17.22,6.5-25.53,1.66-4.68,3.59-9.25,5.71-13.75,3.01-6.37,6.49-12.47,10.39-18.33,3.19-4.78,6.67-9.35,10.39-13.74,3.52-4.16,7.35-8.03,11.27-11.8,3.2-3.07,6.6-5.91,10.1-8.64,5.14-4,10.51-7.65,16.13-10.93,4.86-2.83,9.86-5.38,15.02-7.63,3.42-1.5,6.88-2.87,10.41-4.1,7.25-2.53,14.66-4.43,22.21-5.81,3.97-.72,7.96-1.29,11.98-1.57,3-.21,6.02-.28,9.04-.26,.27,0,.55,.08,.81-.07Z"/><path class="cls-5" d="M102.06,251.08s-.09,0-.13-.01v-8.32s.09-.02,.13-.01c0,2.78,0,5.57,0,8.35Z"/><path class="cls-2" d="M329.68,265.22c-1.46-3.95-3.25-7.74-5.24-11.45-2.6-4.86-5.53-9.54-8-14.47-1.05-2.1-1.91-4.24-2.23-6.62-.24-1.84-1.24-3.45-2.13-5.05-3.08-5.54-6.77-10.68-10.58-15.73-5.77-7.65-11.93-14.98-18.53-21.93-3.68-3.87-7.51-7.61-11.66-10.99-.34-.27-.58-.55-.68-1.02-1.23-6.05-3.43-11.72-6.63-17.01-1.09-1.8-2.36-3.45-4.06-4.73-2.95-2.2-6.18-2.36-9.31-.42-3.93,2.44-7.38,5.44-10.3,9.02-.35,.43-.68,.54-1.21,.44-7.66-1.42-15.38-2.01-23.17-1.88-3.4,.06-6.8,.24-10.18,.63-.45,.05-.66-.05-.85-.47-1.71-3.66-3.96-6.95-6.75-9.88-4.67-4.89-11.16-5.08-16.13-.45-4.08,3.81-7.33,8.23-9.67,13.31-.26,.56-.52,.71-1.13,.63-1.92-.26-3.88-.22-5.78-.66-7.08-1.62-10.7-9.48-7.37-15.93,.38-.74,.96-1.28,1.56-1.81,16.74-14.85,35.97-24.91,57.76-30.03,7.92-1.86,15.95-2.93,24.07-3.28,18.55-.8,36.5,2.12,53.8,8.87,14.31,5.59,27.23,13.48,38.78,23.61,13.37,11.74,23.96,25.61,31.74,41.61,4.94,10.15,8.48,20.76,10.65,31.84,1.46,7.49,2.27,15.04,2.43,22.66,.43,20.86-3.79,40.72-12.76,59.56-6.02,12.63-13.89,24-23.56,34.13-10.29,10.78-22.06,19.58-35.32,26.38-12.17,6.24-25.01,10.44-38.5,12.67-8.45,1.4-16.97,1.94-25.54,1.67-5.87-.19-11.72-.66-17.5-1.78-.07-.01-.15,0-.23,0-5.34-.77-9.97-3.07-14.08-6.49-3.28-2.73-5.83-6.03-7.82-9.8-2.12-4.01-3.36-8.27-3.76-12.76-.68-7.55,.74-14.67,4.79-21.14,4.99-7.97,12.35-12.45,21.43-14.31,3.19-.65,6.4-1.06,9.66-1.26,3.45-.21,6.91-.19,10.36-.08,4.4,.15,8.78,.67,13.15,1.26,5.29,.71,10.56,1.62,15.86,2.27,3.8,.46,7.6,.96,11.41,1.25,5.26,.41,10.48,.15,15.62-1.08,5.09-1.22,9.73-3.37,13.78-6.78,2.04-1.72,3.46-3.83,4.73-6.11,2.36-4.24,4.51-8.56,6.25-13.09,1.54-4.02,2.72-8.13,3.3-12.4,.36-2.68,.39-5.36-.05-8.05-.16-.96-.13-1.95-.46-2.89Z"/><path class="cls-8" d="M329.68,265.22c.72,1.56,.94,3.23,1.05,4.91,.36,5.4-.78,10.57-2.47,15.64-2.02,6.07-4.91,11.73-8.02,17.3-2.02,3.63-5.11,6.05-8.56,8.09-4.65,2.76-9.76,4.09-15.1,4.68-5.55,.61-11.06,.07-16.58-.53-8.29-.9-16.49-2.41-24.77-3.36-6.85-.79-13.71-1.2-20.59-.62-5.33,.45-10.62,1.2-15.58,3.36-9.73,4.24-15.85,11.6-18.14,21.92-2.34,10.55-.24,20.28,6.43,28.85,4.51,5.8,10.55,9.31,17.66,11.05,.17,.04,.33,.11,.49,.17-1.7-.06-3.34-.48-4.99-.82-12.15-2.49-23.73-6.61-34.7-12.4-7.67-4.05-14.91-8.75-21.59-14.29-11.6-9.6-20.64-21.2-27.08-34.81-3.52-7.45-5.99-15.25-7.02-23.44-1.86-14.81,.93-28.63,9.02-41.29,2.83-4.42,6.14-8.44,9.96-12.02,5.38-5.05,11.39-9.15,18.32-11.79,.23-.09,.47-.16,.77-.15-.46,.43-.92,.86-1.39,1.28-5.78,5.21-10.25,11.36-13.14,18.61-1.85,4.65-2.93,9.47-3.18,14.47-.64,12.54,3.06,23.7,10.92,33.41,6.96,8.6,15.99,13.84,26.92,15.79,3.36,.6,6.74,.98,10.14,.96,5.11-.03,10.14-.72,15.06-2.16,3.29-.96,6.61-1.81,9.76-3.21,3.38-1.5,6.57-3.31,9.53-5.52,.46-.35,.89-.44,1.46-.27,11.15,3.28,22.39,6.18,33.76,8.58,5.12,1.08,10.28,2.02,15.47,2.75,4.97,.7,9.97,1.27,14.99,.91,6.24-.45,11.92-2.46,16.47-6.97,.99-.97,1.64-2.17,1.7-3.61,.09-1.99-1.05-3.29-2.5-4.4-1.3-1-2.87-1.57-4.17-2.59-3.57-2.81-5.6-6.46-6.2-10.95-.51-3.82,.8-6.88,3.82-9.22,1.52-1.18,3.33-1.62,5.2-1.88,4.14-.57,8.3-.97,12.43-1.66,1-.17,1.98-.4,2.9-.82,1.36-.63,1.88-1.64,1.65-3.13-.04-.27-.07-.55-.11-.82Z"/><path class="cls-1" d="M257.52,247.47c-4.1,.03-7.28-1.85-9.94-4.79-1.95-2.16-3.45-4.64-4.79-7.21-.13-.25-.2-.43,.07-.65,2.62-2.13,5.38-4,8.73-4.76,4.21-.95,7.57,.55,10.27,3.73,2.69,3.18,4.17,6.96,5.19,10.95,.07,.27,.1,.47-.24,.59-3.01,1.09-6.03,2.11-9.29,2.15Z"/><path class="cls-8" d="M189.19,160.42c1.16,.08,2.15,.4,3.04,1.2,2.38,2.15,4.32,4.63,5.85,7.44,.51,.94,.51,.98-.54,1.14-5.42,.81-10.82,1.78-16.18,2.92-.54,.12-1.09,.2-1.62,.35-.57,.17-.54-.08-.41-.48,.6-1.82,1.38-3.57,2.31-5.24,1.28-2.28,2.89-4.3,4.71-6.15,.78-.8,1.78-1.11,2.83-1.18Z"/></g></svg>