<?xml version="1.0" encoding="utf-8"?>
<!-- Generator: Adobe Illustrator 25.0.0, SVG Export Plug-In . SVG Version: 6.00 Build 0)  -->
<svg version="1.1" id="Livello_1" xmlns="http://www.w3.org/2000/svg" xmlns:xlink="http://www.w3.org/1999/xlink" x="0px" y="0px"
	 viewBox="0 0 200 200" style="enable-background:new 0 0 200 200;" xml:space="preserve">
<style type="text/css">
	.st0{fill:#FF6666;}
	.st1{fill:#DA5F5A;}
	.st2{fill-rule:evenodd;clip-rule:evenodd;fill:#F5F7E2;}
	.st3{fill:#F5F7E2;}
	.st4{fill:#2D6AB2;}
	.st5{fill:#FFFFFF;}
</style>
<path class="st0" d="M29.3,29.3c-39.1,39.1-39.1,102.4,0,141.4L170.7,29.3C131.7-9.8,68.3-9.8,29.3,29.3z"/>
<path class="st1" d="M170.7,170.7c-39-39.1-102.4-39.1-141.4,0L170.7,29.3C209.8,68.3,209.8,131.7,170.7,170.7z"/>
<ellipse class="st2" cx="100" cy="100" rx="70.5" ry="70.5"/>
<path class="st3" d="M170.7,170.7c-39,39.1-102.4,39.1-141.4,0C68.3,131.7,131.7,131.7,170.7,170.7z"/>
<circle class="st4" cx="100" cy="101" r="60"/>
<path class="st5" d="M98,77h5.2v49.9H98V77z"/>
<path class="st5" d="M124.6,86.7l1.9,5.2l-16.2,5.8l-5.2-16.8l4.5-1.3l2.9,8.7c0,0,1.9-2.6,1.9-7.1S110,67,100.3,67S86,75.4,86,81.2
	c0,5.8,2.6,11,9.7,14.3v6.5c0,0-15.5-5.8-15.5-20.7s14.3-19.4,20.1-19.4c5.8,0,18.8,3.9,18.8,19.4c0,0,0,5.2-1.9,8.4L124.6,86.7z
	 M106.1,103.6v6c2.8,2.1,8.1,6.8,8.1,12.8c0,8-7.6,14.3-14.3,14.3s-14.3-5.6-14.3-13c0-4.2,1.6-7.1,3-8.7l1.5,9.4l4.5-1.3l-2.6-16.8
	L75.4,110l1.3,4.5l7.1-1.6c-1.7,2.5-3.2,6-3.2,10.6c0,10.7,10.2,18.1,19.4,18.1s19.4-8.3,19.4-19.4
	C119.4,111.3,106.6,103.9,106.1,103.6z"/>
</svg>
