<svg xmlns="http://www.w3.org/2000/svg" xmlns:xlink="http://www.w3.org/1999/xlink" viewBox="0 0 500 500"><defs><style>.cls-1{fill:#f5f7e2;}.cls-2{fill:#f66;}.cls-3{fill:#d95e59;}.cls-4{fill:url(#Sfumatura_senza_nome_2);}.cls-5{fill:#fff;}</style><linearGradient id="Sfumatura_senza_nome_2" x1="371.11" y1="414.99" x2="132.44" y2="93.34" gradientTransform="matrix(1, 0, 0, -1, 0, 502)" gradientUnits="userSpaceOnUse"><stop offset="0" stop-color="#21bdc7"/><stop offset="1" stop-color="#1586ae"/></linearGradient></defs><g id="Layer_1" data-name="Layer 1"><g id="Artboard"><g id="pTokens-icon"><path id="Path" class="cls-1" d="M117.79,118.39c-72.71,72.71-72.71,190.61,0,263.32s190.61,72.71,263.32,0,72.71-190.61,0-263.32S190.5,45.68,117.79,118.39Z"/><path class="cls-2" d="M74.45,250.05A175,175,0,0,1,373.2,126.31l51.07-51.07c-96.55-96.55-253.08-96.55-349.62,0s-96.55,253.07,0,349.61l51.06-51.06A174.45,174.45,0,0,1,74.45,250.05Z"/><path class="cls-3" d="M424.25,75.22l-51.07,51.07a175,175,0,0,1,0,247.49q-3.84,3.83-7.9,7.42a247.35,247.35,0,0,1,58.95,43.66C520.8,328.31,520.8,171.77,424.25,75.22Z"/><path class="cls-3" d="M125.71,373.79,74.65,424.86a246.85,246.85,0,0,1,59-43.65C130.9,378.81,128.26,376.35,125.71,373.79Z"/><path id="Path-2" class="cls-1" d="M424.25,424.86c-96.52,96.55-253,96.55-349.6,0C171.2,328.31,327.73,328.31,424.25,424.86Z"/></g></g></g><g id="Livello_2" data-name="Livello 2"><path class="cls-4" d="M104.81,250A145.38,145.38,0,1,1,250.19,395.35,145.38,145.38,0,0,1,104.81,250Z"/><path class="cls-5" d="M273.72,258l46.47-67.46-91.06,0L201.47,172a91.89,91.89,0,0,1,128.41,123.7ZM198.84,153.75a110.09,110.09,0,0,0-25.93,19.31l51.33,34.56h63.37l-37.78,54.86,63.82,43,6.33,4.25h0l14.32,9.64A109.06,109.06,0,0,0,198.84,153.75Z"/><path class="cls-5" d="M158.27,250a91.35,91.35,0,0,1,11.87-45.22L227,243.08l-45.51,67h89.24l27.78,18.05A91.87,91.87,0,0,1,158.27,250Zm2.31-62.15A109,109,0,0,0,327,327.4l-50.84-34.24-.31-.19h-62l37-54.49-70.89-47.79h0l-14.27-9.61C163.89,183.26,162.2,185.51,160.58,187.82Z"/></g></svg>