<svg xmlns="http://www.w3.org/2000/svg" viewBox="0 0 494.42 494.44"><title>pZRX</title><g id="Layer_2" data-name="Layer 2"><g id="Layer_1-2" data-name="Layer 1"><g id="Artboard"><g id="pTokens-icon"><path id="Path" d="M118.47,118.48a182.07,182.07,0,0,0,0,257.48c71.1,71.1,186.39,71.1,257.48,0a182.07,182.07,0,0,0,0-257.48C304.86,47.38,189.57,47.38,118.47,118.48Z" fill="#f5f7e2"/><path d="M72.21,247.22A175,175,0,0,1,371,123.48L422,72.41C325.48-24.14,169-24.14,72.41,72.41s-96.55,253.07,0,349.61L123.47,371A174.45,174.45,0,0,1,72.21,247.22Z" fill="#f66"/><path d="M422,72.39l-51.07,51.07a175,175,0,0,1-7.88,254.91A247.33,247.33,0,0,1,422,422C518.56,325.48,518.56,168.94,422,72.39Z" fill="#d95e59"/><path d="M123.47,371,72.41,422a246.87,246.87,0,0,1,59-43.65C128.66,376,126,373.52,123.47,371Z" fill="#d95e59"/><path id="Path-2" data-name="Path" d="M422,422c-96.52,96.55-253,96.55-349.6,0C169,325.48,325.49,325.48,422,422Z" fill="#f5f7e2"/></g></g><path d="M326.47,297.55c10.5,14.12,21.33,28.56,32.16,43-21.66,25.6-48.57,42-81.06,48.9-36.1,7.55-70.23,2-103.37-16.41,29.53-22,58.41-43.64,87.62-65.3,6.56,6.23,12.8,12.47,19,18.38,6.9,6.56,4.27,6.89,13.13,2a90.89,90.89,0,0,0,30.19-27.89c.33-.66,1-1.31,1.32-2-.33,0,0,0,1-.66Zm-129,28.88c-8.21,6.24-15.75,11.82-23.3,17.72-5.58,4.27-11.16,8.21-16.74,12.48-2.3,2-3.94,2-6.56-.33C126,334,110.2,306.41,104.3,273.6c-5.91-33.15-.66-64.65,15.09-94.52.33-.65,1-1.64,1.32-2.29,0-.33.32-.33,1-.66,21.66,28.55,43.65,57.1,65.31,85.65a14.46,14.46,0,0,1-1.64,2.3c-6.57,6.89-13.13,13.78-20,20.35-2,2-2.3,3.61-1,5.9a97,97,0,0,0,28.23,32.82c1.64,1,2.95,2,4.92,3.28ZM319.91,122.64c-10.5,7.55-21,15.09-31.51,22.31-18,12.8-36.1,25.93-53.82,38.73-2.3,1.64-3.94,2-5.91-.33-5.9-6.24-12.14-11.81-18-18a4.47,4.47,0,0,0-5.58-1c-14.12,7.22-25.27,17.39-34.46,30.19a18,18,0,0,0-2,2.62c-5.25-6.89-10.17-13.12-15.1-19.69-5.25-6.89-10.17-13.78-15.09-20.34-1.64-2.3-2-3.94.33-6.24C164,123,195.2,106.56,232.61,102.62c29.54-3.28,57.76,2.62,84,16.74,1,.65,2,1,2.95,1.64C319.58,122,319.58,122.31,319.91,122.64Zm53.49,196.9c-6.89-8.86-13.13-17.06-19.36-25.27-14.44-19-28.88-38.39-43.65-57.43-2-2.62-2-4.26.33-6.56,6.23-6.24,12.14-12.47,18.38-18.71,1.64-1.64,2.29-3.28,1-5.58a97.19,97.19,0,0,0-29.86-34.45,27.2,27.2,0,0,0-3.29-2.3c1-1,2-1.64,2.63-2.3,12.47-9.52,24.94-18.7,37.41-28.22,2-1.64,3.61-2.3,5.91,0,31.18,28.22,47.91,63.34,49.55,105.67a143.92,143.92,0,0,1-16.08,69.9A24.73,24.73,0,0,0,373.4,319.54Z" fill="#231815"/></g></g></svg>