<svg xmlns="http://www.w3.org/2000/svg" viewBox="0 0 289.33 289.2"><defs><style>.cls-1{fill:#259b91;}.cls-2{fill:#13a19a;}.cls-3{fill:#259b92;}</style></defs><g id="Layer_2" data-name="Layer 2"><g id="Layer_1-2" data-name="Layer 1"><g id="Traced_logo" data-name="Traced logo"><path class="cls-1" d="M168.53,165.92H121l14.79-9.82c0-4.24,0-8.76,0-13.27s-.11-9.25.14-13.86a13.39,13.39,0,0,1,1.62-5.54c2.22-4,4.74-7.87,7.3-12.06,3,5,5.87,9.56,8.6,14.23a5.88,5.88,0,0,1,.52,2.85c0,9.15,0,18.3,0,27.52Z"/><path class="cls-2" d="M151.64,179.41c-1.22-1.53-2.45-3.06-3.67-4.6l-.7.33L145,189h-.53c-.68-4.64-1.36-9.29-2.08-14.17l-3.83,4.45-.78-.51v-9.19h14.35v9.27Z"/><path class="cls-1" d="M287,119.49c-4.79-28.44-16.73-53.69-37-74.31C213.42,8,168.8-5.92,117.58,2.26,90.12,6.65,66.06,19,46.08,38.44c-28.39,27.64-44.87,60.85-46,101-.48,17.11,1.12,34,7.05,50.06,8.11,22,24.64,36.95,43.71,49.47.23.14.49.25.73.37,21.08,10.73,43.35,12.25,66,7.32,15.1-3.29,29.29-9.52,42.6-17.45,10.63-6.33,20.9-13.39,29.18-22.58,18.49-20.53,29-44.69,30.85-72.38.4-6.11-.09-12.27-.17-18.08L145.56,64.85,71.28,116.53c0,1.56,0,2.55,0,3.54.24,11.82,2.08,23.42,4.17,35.05,4.46,24.78,19.41,42.81,37.21,59.29l20.3-9C103.28,187,92.86,158.56,90,126.07l55.55-37.65L201,126a79.79,79.79,0,0,1-.75,8.67c-1.77,9-2.5,18.55-5.92,27-7.59,18.66-19.53,34.25-37.27,44.78-18.43,10.94-37.43,20.42-59.11,22.93-14.3,1.65-27.7-1.92-40-8.88-8.81-5-15.92-12.3-22-20.48a76.79,76.79,0,0,1-12.28-25.1c10.11-13.12,9.53-17.26-3.92-28.31A123.65,123.65,0,0,1,30.23,94.31c1.12.22,2,.41,2.88.56,10.35,1.77,20.31.62,29.51-4.59C74.54,83.55,81.8,73.77,81.37,59.52A44.89,44.89,0,0,0,76,40.36c56.18-38.42,136.71-22,173.09,36.23-10.89,8.47-11.68,21.82-8,29.67,5.79,12.46,14,18,26.38,16.88,1.55,6.91,2.38,24.18,1.37,32.94-3.2,27.89-14.4,52.19-34.3,72-23.65,23.5-52.22,37.42-85.51,41.47a203.57,203.57,0,0,1-57-1.39c-13-2.08-25-7.22-36.93-12.6l-6-2.74a7.49,7.49,0,0,0,.63,1c.39.37.8.74,1.22,1.09,32.18,26.65,69.15,37.92,110.64,33.39,30.4-3.31,57.24-15.45,79.59-36.28C279.77,216,295.79,171.87,287,119.49ZM22,169.52c-.75-5.78-1.45-11.11-2.16-16.59C27.52,155.29,28.65,163.19,22,169.52ZM68,76.58a31,31,0,0,1-34.14,10A128.15,128.15,0,0,1,69.21,44.85C74.64,54.3,75,67.6,68,76.58Zm180.75,28.91c-4-9-2.35-16.75,4.95-21.61a117.32,117.32,0,0,1,12.22,31.28C258.83,117,252.16,113.15,248.74,105.49Z"/><path class="cls-3" d="M240.43,167.17a14.3,14.3,0,0,0-.37,28.6,14.3,14.3,0,0,0,.37-28.6Zm-.26,21.57A7.31,7.31,0,0,1,233,181.4a7.25,7.25,0,1,1,7.15,7.34Z"/></g></g></g></svg>