<svg xmlns="http://www.w3.org/2000/svg" viewBox="0 0 500 500"><defs><style>.cls-1{fill:#314737;}.cls-2{fill:#238c32;}.cls-3{fill:#2ff141;}</style></defs><g id="Livello_2" data-name="Livello 2"><circle class="cls-1" cx="250" cy="250" r="250"/><path class="cls-2" d="M388.13,171.41a93.42,93.42,0,0,0-140.27,59.32,71.85,71.85,0,0,0,7.88,5.68,103.26,103.26,0,0,1,9.91-3.66,2.43,2.43,0,0,0,.52-.17,99.39,99.39,0,0,1,86.72,14.65,93.82,93.82,0,0,0,35.24-75.82Z"/><path class="cls-2" d="M375.64,280.87a93.36,93.36,0,0,0-113.73-40.71,102.49,102.49,0,0,1,39.8,47.14c.09.25,1.47,3.66,1.6,4a102.87,102.87,0,0,1,6.48,33.9v4.62h0c-.09,3.18-.3,6.33-.65,9.47a93.64,93.64,0,0,0,78.95-9A92.73,92.73,0,0,0,375.64,280.87Z"/><path class="cls-2" d="M253.16,271a70.91,70.91,0,0,0-7.88-5.68c-2.34,1-4.69,1.94-7.11,2.76h0a99.29,99.29,0,0,1-90-13.58,93.48,93.48,0,0,0-35.19,75.8A93.33,93.33,0,0,0,253.16,271Z"/><path class="cls-2" d="M239.12,261.58a102.39,102.39,0,0,1-39.77-47.13h0c-.21-.48-1.55-3.92-1.59-4h0a102.66,102.66,0,0,1-6.51-33.91v-4.61c.09-3.19.3-6.34.65-9.48a93.39,93.39,0,0,0-78.92,9,93.35,93.35,0,0,0,126.14,90.17Z"/><path class="cls-3" d="M296.71,365.7c.09-.22,1.51-3.84,1.56-3.88a96.46,96.46,0,0,0,6.16-32.09v-4.36a98,98,0,0,0-6.16-32.13c0-.17-1.43-3.58-1.56-3.88a97.39,97.39,0,0,0-41.35-46.88,79.14,79.14,0,0,1-29.13-29.25c-1.42-2.59-4.1-8.45-5.08-10.77a78.8,78.8,0,0,1,1.55-60.4c1-2.11,3.58-7,3.75-7.33l1-1.68h0a77.92,77.92,0,0,1,23.09-24.21,78.92,78.92,0,0,1,34.33,58.24A85.41,85.41,0,0,1,303,157.65a99.35,99.35,0,0,0-14.5-37.12,97.12,97.12,0,0,0-33.13-31.36c-1.24-.74-2.5-1.42-3.93-2.15l-.9-.48-.9.48c-1.42.73-2.67,1.42-3.92,2.15a97.41,97.41,0,0,0-41.36,46.88c0,.13-1.51,3.75-1.55,3.88a96.2,96.2,0,0,0-6.16,32.14v4.35a97.56,97.56,0,0,0,6.16,32.14c0,.17,1.42,3.57,1.55,3.88a97.39,97.39,0,0,0,41.36,46.87,79,79,0,0,1,29.12,29.26c1.43,2.58,4.11,8.44,5.08,10.77a78.71,78.71,0,0,1-1.55,60.4c-1,2.11-3.57,7-3.75,7.32l-.95,1.68h0a77.86,77.86,0,0,1-23.06,24.19,78.71,78.71,0,0,1-34-55.79,171.55,171.55,0,0,1-18,9.14,99,99,0,0,0,14.1,35,97.15,97.15,0,0,0,33.13,31.37c1.25.73,2.5,1.42,3.92,2.15l.93.47.82-.58c1.43-.74,2.68-1.43,3.92-2.16A97.05,97.05,0,0,0,296.71,365.7Z"/></g></svg>