<?xml version="1.0" encoding="utf-8"?>
<!-- Generator: Adobe Illustrator 24.3.0, SVG Export Plug-In . SVG Version: 6.00 Build 0)  -->
<svg version="1.1" xmlns="http://www.w3.org/2000/svg" xmlns:xlink="http://www.w3.org/1999/xlink" x="0px" y="0px"
	 viewBox="0 0 560 560" style="enable-background:new 0 0 560 560;" xml:space="preserve">
<style type="text/css">
	.st0{fill:url(#SVGID_1_);}
	.st1{fill:#090715;}
	.st2{fill:none;stroke:#6868BF;stroke-dasharray:3,3;}
	.st3{fill:#FFFFFF;}
</style>
<g id="Layer_1">
	
		<linearGradient id="SVGID_1_" gradientUnits="userSpaceOnUse" x1="-82.2423" y1="703.5928" x2="537.2577" y2="-17.4072" gradientTransform="matrix(1 0 0 -1 0 562)">
		<stop  offset="0" style="stop-color:#FC5C7D"/>
		<stop  offset="1" style="stop-color:#4F6CFF"/>
	</linearGradient>
	<circle class="st0" cx="280" cy="280" r="240"/>
</g>
<g id="Layer_2">
	<circle class="st1" cx="280" cy="280" r="236"/>
</g>
<g id="Layer_3">
	<circle class="st2" cx="280" cy="280" r="219.5"/>
</g>
<g id="Layer_4">
	<path class="st3" d="M277.4,380.5c55.3,0,96.8-43.3,96.8-101.4c0-57.7-41.4-100.6-96.8-100.6c-55.3,0-96.8,43-96.8,100.6
		C180.6,337.1,222,380.5,277.4,380.5z M319.9,365.8c-41.8,20.1-90.6-3.5-114.2-55c-22.4-49.5-10.1-100.2,29-118.4
		c40.6-19.4,89.4,4.6,114.2,55.7C371.8,297.3,359,347.6,319.9,365.8z"/>
	<path class="st3" d="M279.9,413.1c-11.6,0-19.4-6.6-19.4-16.6v-233c0-10.1,7.7-16.6,19.4-16.6c1.5,0,1.5-2.3,0-2.3h-60
		c-1.5,0-1.5,2.3,0,2.3c11.6,0,19.4,6.6,19.4,16.6v233c0,10.1-7.7,16.6-19.4,16.6c-1.5,0-1.5,2.3,0,2.3h60
		C281.5,415.5,281.5,413.1,279.9,413.1z"/>
	<path class="st3" d="M333.9,413.1c-11.6,0-19.4-6.6-19.4-16.6v-233c0-10.1,7.7-16.6,19.4-16.6c1.5,0,1.5-2.3,0-2.3h-60
		c-1.5,0-1.5,2.3,0,2.3c11.6,0,19.3,6.6,19.3,16.6v233c0,10.1-7.7,16.6-19.3,16.6c-1.5,0-1.5,2.3,0,2.3h60
		C335.5,415.5,335.5,413.1,333.9,413.1z"/>
</g>
</svg>
