<svg xmlns="http://www.w3.org/2000/svg" viewBox="0 0 290.2 290.2"><defs><style>.cls-1{fill:#73bb59;}.cls-2{fill:#fff;}</style></defs><g id="Livello_2" data-name="Livello 2"><g id="Layer_1" data-name="Layer 1"><path class="cls-1" d="M145.1,290.2A145.1,145.1,0,1,0,0,145.1H0A145.09,145.09,0,0,0,145.09,290.2Z"/><path class="cls-2" d="M217.72,155.84c-2.39-.13-4.8-.13-7.2-.13H144.94v0q-35.31,0-70.62,0c-5.76,0-10.77,1.35-11.25,8.28-.4,5.79,3.8,9.93,11.24,10,8.88.13,25.1.4,34,0,6.77,18.93,17.42,43.87,24.34,62.75,1.81,4.93,4.92,7.74,9.63,7.8,3.57,0,7-1.66,9.58-8,7.36-18.19,16.68-44,23.2-62.54,11,0,31.55-.32,42.6-.48,5.58-.08,9.26-3.43,9.42-9.11C227.21,158.52,223.2,156.13,217.72,155.84Zm-74.47,53.59-1.94.13-13.39-35.5h28.72C152,186.38,147.61,197.9,143.25,209.43Z"/><path class="cls-2" d="M227.1,129.1c-.64-5.91-4.68-7.78-10.16-7.68-6.43.11-13.42,0-21.15,0,1.45-4.48,2.54-7.45,3.68-10.45,4.31-11.41,8.77-22.78,13.15-34.17.34-.89.49-1.85.81-2.75,1.92-5.48,1-10.13-4.57-12.7-5-2.34-9.47.38-12,7-5.69,14.73-15,38.05-20.22,52.94-18.11,0-51.59,0-68.71,0-5.83-15.18-14.79-38.42-20.5-53.65-2.13-5.67-6.25-8.29-11.8-6.19S69,68.53,71,74c2.24,6.07,4.54,12.11,6.8,18.16,3.46,9.29,6.9,18.58,10.87,29.26-6.31,0-10.81.08-15.31,0-5.82-.13-10.09,1.88-10.31,8.27s4.14,8.91,9.82,8.92q72,.12,144.08,0C223.61,138.59,227.69,134.62,227.1,129.1Z"/></g></g></svg>