<svg id="svg" version="1.1" xmlns="http://www.w3.org/2000/svg" xmlns:xlink="http://www.w3.org/1999/xlink" width="400" height="400" viewBox="0, 0, 400,400"><g id="svgg"><path id="path0" d="M192.917 19.098 C 150.423 20.975,107.354 38.541,78.889 65.605 C 75.054 69.252,74.640 77.333,78.018 82.613 C 81.097 87.427,85.002 89.404,92.604 90.000 C 94.208 90.125,95.728 90.271,95.981 90.324 C 96.390 90.410,96.606 90.099,97.898 87.554 C 102.476 78.536,110.307 69.720,115.657 67.559 C 124.793 63.868,134.089 69.856,141.153 83.981 C 141.691 85.057,142.144 85.954,142.160 85.973 C 142.176 85.993,143.548 85.878,145.209 85.718 C 158.182 84.471,172.459 84.994,186.443 87.229 L 189.864 87.776 190.905 86.544 C 196.729 79.651,204.917 73.594,209.342 72.908 C 218.478 71.490,227.641 84.462,232.393 105.541 C 232.448 105.781,233.314 106.658,234.319 107.490 C 255.867 125.326,290.862 169.879,292.484 181.542 C 293.036 185.511,294.324 188.174,303.633 204.583 C 306.679 209.955,310.422 217.406,311.847 220.938 C 312.448 222.427,313.170 224.175,313.451 224.821 C 318.142 235.615,313.527 254.537,300.654 277.292 C 293.197 290.473,273.448 297.423,250.521 294.934 C 247.108 294.564,241.491 293.916,238.333 293.528 C 237.359 293.409,232.484 292.711,227.500 291.977 C 190.571 286.541,171.394 287.512,156.979 295.548 C 126.887 312.325,128.175 358.888,159.167 374.668 C 164.658 377.465,169.384 378.779,177.604 379.796 C 298.537 394.756,399.257 289.121,378.632 168.958 C 363.351 79.932,283.031 15.119,192.917 19.098 M207.396 176.680 C 203.171 177.321,199.374 179.252,193.990 183.500 C 193.554 183.844,194.582 185.860,197.199 189.792 C 204.391 200.600,211.694 203.024,224.271 198.780 L 227.188 197.796 227.139 197.003 C 227.073 195.904,225.450 191.135,224.321 188.719 C 220.291 180.096,214.067 175.669,207.396 176.680 " stroke="none" fill="#f7f7f8" fill-rule="evenodd"></path><path id="path1" d="M188.854 0.230 C 82.731 6.374,0.007 93.928,0.007 200.104 C 0.007 301.776,76.265 387.364,177.188 398.962 C 189.879 400.420,209.830 400.458,222.500 399.048 C 317.469 388.476,391.782 311.999,399.684 216.706 C 400.133 211.291,400.133 188.917,399.684 183.502 C 390.725 75.455,296.987 -6.031,188.854 0.230 M210.941 19.169 C 314.511 25.709,391.244 116.325,380.415 219.303 C 369.748 320.736,276.797 393.488,175.521 379.674 C 129.051 373.335,86.315 349.161,61.738 315.313 C 35.954 279.801,30.983 239.954,48.425 208.589 C 57.757 191.807,73.061 177.854,89.141 171.466 C 91.812 170.405,91.822 170.416,89.761 172.196 C 61.562 196.552,58.951 238.597,83.904 266.516 C 95.157 279.106,110.546 286.107,129.083 287.068 C 145.170 287.902,164.656 282.656,177.573 274.015 C 179.504 272.723,181.166 271.667,181.268 271.667 C 181.370 271.667,184.055 272.408,187.237 273.313 C 227.170 284.681,259.554 290.340,273.809 288.443 C 280.246 287.586,289.059 283.485,292.738 279.635 C 297.765 274.373,296.526 270.319,288.523 265.848 C 278.395 260.188,274.537 245.900,281.161 238.580 C 284.163 235.262,285.695 234.751,296.875 233.341 C 309.775 231.714,311.794 231.219,313.181 229.347 C 315.002 226.888,311.731 219.059,300.967 200.104 C 294.814 189.271,293.036 185.442,292.373 181.600 C 290.299 169.579,257.582 127.556,235.729 108.844 C 234.354 107.666,233.031 106.531,232.789 106.320 C 232.465 106.039,232.170 105.167,231.673 103.021 C 230.039 95.964,227.193 88.827,223.520 82.579 C 218.085 73.332,211.542 70.682,204.510 74.877 C 200.622 77.198,193.734 83.218,190.710 86.939 L 189.896 87.940 187.500 87.516 C 175.640 85.415,157.778 84.616,146.566 85.684 C 144.505 85.881,142.654 86.042,142.453 86.042 C 142.201 86.042,141.788 85.445,141.120 84.115 C 133.831 69.600,124.367 63.732,115.032 67.938 C 110.003 70.204,102.298 79.092,97.984 87.604 C 97.229 89.094,96.581 90.348,96.543 90.391 C 96.412 90.542,88.846 89.769,87.560 89.473 C 75.460 86.696,71.407 71.951,80.546 63.960 C 111.160 37.194,148.372 21.839,189.063 19.182 C 192.807 18.937,207.141 18.929,210.941 19.169 M122.780 81.636 C 125.105 82.678,132.917 92.255,132.917 94.064 C 132.917 94.184,131.270 94.541,129.219 94.864 C 121.894 96.020,110.658 98.134,106.714 99.098 C 105.681 99.351,108.527 92.893,111.257 88.792 C 115.820 81.936,119.018 79.950,122.780 81.636 M213.130 177.038 C 219.315 179.225,223.974 185.411,226.894 195.312 C 227.671 197.946,227.829 197.698,224.682 198.769 C 210.662 203.541,203.007 200.374,195.039 186.505 L 193.516 183.854 194.414 183.049 C 197.667 180.134,203.103 177.362,207.083 176.589 C 208.268 176.359,211.991 176.635,213.130 177.038 " stroke="none" fill="#fb4c24" fill-rule="evenodd"></path><path id="path2" d="M118.854 81.225 C 115.395 82.138,109.596 89.944,106.953 97.246 C 106.246 99.198,106.244 99.213,106.714 99.098 C 110.658 98.134,121.894 96.020,129.219 94.864 C 131.270 94.541,132.917 94.184,132.917 94.064 C 132.917 93.628,130.260 89.397,128.851 87.589 C 124.796 82.386,121.765 80.456,118.854 81.225 M88.958 171.541 C 58.783 183.923,38.273 215.101,38.237 248.646 C 38.175 305.549,88.711 359.801,157.083 376.231 C 163.787 377.842,171.887 379.320,168.125 378.246 C 128.052 366.805,122.885 310.533,160.367 293.754 C 173.875 287.707,192.934 286.866,221.771 291.043 C 233.893 292.800,238.943 293.506,241.042 293.740 C 242.245 293.875,245.208 294.207,247.627 294.480 C 274.337 297.489,292.680 291.242,301.129 276.260 C 312.486 256.122,317.078 239.046,314.241 227.500 C 313.757 225.530,313.646 225.472,313.646 227.186 C 313.646 230.880,312.212 231.407,296.875 233.341 C 285.695 234.751,284.163 235.262,281.161 238.580 C 274.537 245.900,278.395 260.188,288.523 265.848 C 296.526 270.319,297.765 274.373,292.738 279.635 C 289.059 283.485,280.246 287.586,273.809 288.443 C 259.554 290.340,227.170 284.681,187.237 273.313 C 184.055 272.408,181.370 271.667,181.268 271.667 C 181.166 271.667,179.504 272.723,177.573 274.015 C 164.656 282.656,145.170 287.902,129.083 287.068 C 106.591 285.902,88.686 275.769,77.206 257.708 C 59.314 229.558,64.759 193.792,90.302 171.697 C 91.794 170.406,91.739 170.400,88.958 171.541 " stroke="none" fill="#a43c2c" fill-rule="evenodd"></path><path id="path3" d="M191.719 19.102 C 191.919 19.154,192.247 19.154,192.448 19.102 C 192.648 19.050,192.484 19.007,192.083 19.007 C 191.682 19.007,191.518 19.050,191.719 19.102 M207.969 19.102 C 208.169 19.154,208.497 19.154,208.698 19.102 C 208.898 19.050,208.734 19.007,208.333 19.007 C 207.932 19.007,207.768 19.050,207.969 19.102 M324.271 68.125 C 324.718 68.583,325.131 68.958,325.189 68.958 C 325.246 68.958,324.927 68.583,324.479 68.125 C 324.032 67.667,323.619 67.292,323.561 67.292 C 323.504 67.292,323.823 67.667,324.271 68.125 M108.537 72.865 L 106.771 74.688 108.594 72.921 C 109.596 71.950,110.417 71.130,110.417 71.098 C 110.417 70.947,110.177 71.172,108.537 72.865 M331.979 75.833 C 332.427 76.292,332.840 76.667,332.897 76.667 C 332.954 76.667,332.635 76.292,332.188 75.833 C 331.740 75.375,331.327 75.000,331.270 75.000 C 331.212 75.000,331.532 75.375,331.979 75.833 M194.167 83.021 C 193.313 83.880,192.661 84.583,192.719 84.583 C 192.776 84.583,193.521 83.880,194.375 83.021 C 195.229 82.161,195.880 81.458,195.823 81.458 C 195.766 81.458,195.020 82.161,194.167 83.021 M241.042 113.599 C 241.042 113.630,241.768 114.357,242.656 115.214 L 244.271 116.771 242.714 115.156 C 241.267 113.657,241.042 113.447,241.042 113.599 M247.396 120.000 C 248.307 120.917,249.100 121.667,249.157 121.667 C 249.214 121.667,248.515 120.917,247.604 120.000 C 246.693 119.083,245.900 118.333,245.843 118.333 C 245.786 118.333,246.485 119.083,247.396 120.000 M251.042 123.815 C 251.042 123.851,251.346 124.156,251.719 124.492 L 252.396 125.104 251.784 124.427 C 251.214 123.796,251.042 123.654,251.042 123.815 M381.312 195.625 C 381.312 196.255,381.351 196.513,381.399 196.198 C 381.447 195.883,381.447 195.367,381.399 195.052 C 381.351 194.737,381.312 194.995,381.312 195.625 M213.802 200.977 C 214.003 201.029,214.331 201.029,214.531 200.977 C 214.732 200.925,214.568 200.882,214.167 200.882 C 213.766 200.882,213.602 200.925,213.802 200.977 M381.312 204.583 C 381.312 205.214,381.351 205.471,381.399 205.156 C 381.447 204.841,381.447 204.326,381.399 204.010 C 381.351 203.695,381.312 203.953,381.312 204.583 M315.057 234.792 C 315.057 235.307,315.097 235.518,315.147 235.260 C 315.197 235.003,315.197 234.581,315.147 234.323 C 315.097 234.065,315.057 234.276,315.057 234.792 M190.156 288.488 C 191.102 288.527,192.648 288.527,193.594 288.488 C 194.539 288.450,193.766 288.418,191.875 288.418 C 189.984 288.418,189.211 288.450,190.156 288.488 M256.719 295.352 C 256.919 295.404,257.247 295.404,257.448 295.352 C 257.648 295.300,257.484 295.257,257.083 295.257 C 256.682 295.257,256.518 295.300,256.719 295.352 M263.177 295.352 C 263.378 295.404,263.706 295.404,263.906 295.352 C 264.107 295.300,263.943 295.257,263.542 295.257 C 263.141 295.257,262.977 295.300,263.177 295.352 M331.875 324.479 C 331.369 324.995,331.002 325.417,331.059 325.417 C 331.116 325.417,331.577 324.995,332.083 324.479 C 332.589 323.964,332.957 323.542,332.899 323.542 C 332.842 323.542,332.381 323.964,331.875 324.479 M324.469 331.927 L 323.646 332.813 324.531 331.989 C 325.355 331.223,325.512 331.042,325.355 331.042 C 325.321 331.042,324.922 331.440,324.469 331.927 M135.048 331.875 C 135.048 332.276,135.091 332.440,135.144 332.240 C 135.196 332.039,135.196 331.711,135.144 331.510 C 135.091 331.310,135.048 331.474,135.048 331.875 M135.048 336.250 C 135.048 336.651,135.091 336.815,135.144 336.615 C 135.196 336.414,135.196 336.086,135.144 335.885 C 135.091 335.685,135.048 335.849,135.048 336.250 M191.719 381.185 C 191.919 381.238,192.247 381.238,192.448 381.185 C 192.648 381.133,192.484 381.090,192.083 381.090 C 191.682 381.090,191.518 381.133,191.719 381.185 " stroke="none" fill="#ee866e" fill-rule="evenodd"></path><path id="path4" d="M193.075 19.106 C 193.334 19.156,193.709 19.154,193.909 19.101 C 194.108 19.049,193.896 19.009,193.438 19.011 C 192.979 19.013,192.816 19.056,193.075 19.106 M206.617 19.106 C 206.876 19.156,207.251 19.154,207.450 19.101 C 207.650 19.049,207.438 19.009,206.979 19.011 C 206.521 19.013,206.358 19.056,206.617 19.106 M120.360 66.609 C 120.730 66.655,121.386 66.655,121.818 66.610 C 122.251 66.565,121.948 66.528,121.146 66.527 C 120.344 66.526,119.990 66.563,120.360 66.609 M325.938 69.792 C 326.385 70.250,326.798 70.625,326.855 70.625 C 326.913 70.625,326.593 70.250,326.146 69.792 C 325.698 69.333,325.285 68.958,325.228 68.958 C 325.171 68.958,325.490 69.333,325.938 69.792 M210.367 72.856 C 210.626 72.906,211.001 72.904,211.200 72.851 C 211.400 72.799,211.188 72.759,210.729 72.761 C 210.271 72.763,210.108 72.806,210.367 72.856 M330.313 74.167 C 330.760 74.625,331.173 75.000,331.230 75.000 C 331.288 75.000,330.968 74.625,330.521 74.167 C 330.073 73.708,329.660 73.333,329.603 73.333 C 329.546 73.333,329.865 73.708,330.313 74.167 M157.656 85.155 C 158.831 85.193,160.753 85.193,161.927 85.155 C 163.102 85.118,162.141 85.088,159.792 85.088 C 157.443 85.088,156.482 85.118,157.656 85.155 M381.090 191.250 C 381.090 191.651,381.133 191.815,381.185 191.615 C 381.238 191.414,381.238 191.086,381.185 190.885 C 381.133 190.685,381.090 190.849,381.090 191.250 M381.335 200.104 C 381.335 202.052,381.366 202.877,381.405 201.937 C 381.443 200.998,381.444 199.404,381.405 198.396 C 381.367 197.387,381.335 198.156,381.335 200.104 M381.106 208.438 C 381.107 209.125,381.146 209.381,381.193 209.007 C 381.239 208.632,381.238 208.070,381.191 207.757 C 381.143 207.444,381.105 207.750,381.106 208.438 M380.886 212.188 C 380.888 212.646,380.931 212.809,380.981 212.550 C 381.031 212.291,381.029 211.916,380.976 211.716 C 380.924 211.517,380.884 211.729,380.886 212.188 M380.673 215.000 C 380.673 215.401,380.716 215.565,380.769 215.365 C 380.821 215.164,380.821 214.836,380.769 214.635 C 380.716 214.435,380.673 214.599,380.673 215.000 M315.053 233.229 C 315.055 233.688,315.098 233.850,315.147 233.591 C 315.197 233.332,315.195 232.957,315.143 232.758 C 315.091 232.559,315.050 232.771,315.053 233.229 M315.048 236.250 C 315.048 236.651,315.091 236.815,315.144 236.615 C 315.196 236.414,315.196 236.086,315.144 235.885 C 315.091 235.685,315.048 235.849,315.048 236.250 M239.219 293.685 C 239.419 293.738,239.747 293.738,239.948 293.685 C 240.148 293.633,239.984 293.590,239.583 293.590 C 239.182 293.590,239.018 293.633,239.219 293.685 M330.000 326.354 C 329.494 326.870,329.127 327.292,329.184 327.292 C 329.241 327.292,329.702 326.870,330.208 326.354 C 330.714 325.839,331.082 325.417,331.024 325.417 C 330.967 325.417,330.506 325.839,330.000 326.354 M326.250 330.104 C 325.744 330.620,325.377 331.042,325.434 331.042 C 325.491 331.042,325.952 330.620,326.458 330.104 C 326.964 329.589,327.332 329.167,327.274 329.167 C 327.217 329.167,326.756 329.589,326.250 330.104 M135.071 334.063 C 135.072 334.979,135.109 335.328,135.153 334.838 C 135.197 334.348,135.196 333.598,135.151 333.172 C 135.107 332.745,135.071 333.146,135.071 334.063 M186.094 380.769 C 186.294 380.821,186.622 380.821,186.823 380.769 C 187.023 380.716,186.859 380.673,186.458 380.673 C 186.057 380.673,185.893 380.716,186.094 380.769 M213.594 380.769 C 213.794 380.821,214.122 380.821,214.323 380.769 C 214.523 380.716,214.359 380.673,213.958 380.673 C 213.557 380.673,213.393 380.716,213.594 380.769 M189.115 380.980 C 189.372 381.030,189.794 381.030,190.052 380.980 C 190.310 380.931,190.099 380.890,189.583 380.890 C 189.068 380.890,188.857 380.931,189.115 380.980 M210.365 380.980 C 210.622 381.030,211.044 381.030,211.302 380.980 C 211.560 380.931,211.349 380.890,210.833 380.890 C 210.318 380.890,210.107 380.931,210.365 380.980 M193.490 381.194 C 193.977 381.238,194.773 381.238,195.260 381.194 C 195.747 381.150,195.349 381.114,194.375 381.114 C 193.401 381.114,193.003 381.150,193.490 381.194 M205.156 381.194 C 205.643 381.238,206.440 381.238,206.927 381.194 C 207.414 381.150,207.016 381.114,206.042 381.114 C 205.068 381.114,204.669 381.150,205.156 381.194 " stroke="none" fill="#fca48c" fill-rule="evenodd"></path></g></svg>