<svg width="64" height="64" viewBox="0 0 64 64" fill="none" xmlns="http://www.w3.org/2000/svg">
<path d="M0 32C0 14.3269 14.3269 0 32 0C49.6731 0 64 14.3269 64 32C64 49.6731 49.6731 64 32 64C14.3269 64 0 49.6731 0 32Z" fill="url(#paint0_linear)"/>
<path d="M37.1798 33.7633L47.4078 18.9145L27.3636 18.9108L21.2751 14.8471C24.4495 12.8639 28.1556 11.7675 31.9995 11.7675C43.156 11.7675 52.2319 20.8434 52.2319 31.9999C52.2319 35.6644 51.2529 39.1066 49.5413 42.075L37.1798 33.7633ZM20.6978 10.8213C18.5996 11.9443 16.6708 13.3843 14.9907 15.072L26.2874 22.6789L40.2367 22.6814L31.9212 34.7549L45.9677 44.2136L47.3623 45.1496V45.1522L50.514 47.2743C51.9957 45.4831 53.202 43.4961 54.1128 41.3424C55.3646 38.3828 56 35.2387 56 31.9999C56 28.7611 55.3646 25.6183 54.1128 22.6574C52.9039 19.7988 51.1734 17.232 48.9704 15.0277C46.7674 12.8248 44.2006 11.0942 41.342 9.88659C38.3823 8.63351 35.2383 7.99939 31.9995 7.99939C28.0584 7.99939 24.1514 8.97457 20.6978 10.8213Z" fill="white"/>
<path d="M11.7673 32C11.7673 28.477 12.6655 25.0701 14.3809 22.0461L26.8978 30.4842L16.8795 45.2319H36.5232L42.637 49.2046C39.5435 51.1246 35.8992 52.2349 31.9998 52.2349C20.8433 52.2349 11.7673 43.1551 11.7673 32ZM12.2764 18.321C9.47845 22.3493 7.99927 27.0787 7.99927 32C7.99927 35.2388 8.63465 38.3828 9.88647 41.3425C11.0966 44.2024 12.8259 46.7678 15.0289 48.9721C17.2331 51.1751 19.7987 52.9044 22.6573 54.1158C25.6182 55.3663 28.7609 56.0005 31.9998 56.0005C35.2385 56.0005 38.3826 55.3663 41.3422 54.1158C44.1693 52.9196 46.7095 51.213 48.8973 49.0441L37.7081 41.5067L37.6399 41.4638H23.9949L32.1399 29.4711L16.5372 18.9526V18.9513L13.3968 16.8368C13.004 17.3168 12.6314 17.8119 12.2764 18.321Z" fill="white"/>
<defs>
<linearGradient id="paint0_linear" x1="54.6667" y1="-6.80013" x2="2.13333" y2="64" gradientUnits="userSpaceOnUse">
<stop stop-color="#21BDC7"/>
<stop offset="1" stop-color="#1586AE"/>
</linearGradient>
</defs>
</svg>
